<svg width="61" height="39" viewBox="0 0 61 39" fill="none" xmlns="http://www.w3.org/2000/svg">
<g clip-path="url(#clip0_97_37580)">
<g clip-path="url(#clip1_97_37580)">
<g clip-path="url(#clip2_97_37580)">
<path d="M59.9875 35.965C59.9875 37.0264 59.1107 37.9493 58.0032 37.9493H2.9506C1.84309 37.9493 0.966309 37.0264 0.966309 35.965V3.01652C0.966309 1.95515 1.84309 1.03223 2.9506 1.03223H58.0493C59.1107 1.03223 60.0336 1.90901 60.0336 3.01652V35.965H59.9875Z" fill="white" stroke="#E6E7E7" stroke-width="0.461463" stroke-miterlimit="10"/>
<path d="M19.2866 18.6603V18.0604L19.0097 18.6603H16.564L16.2871 18.0143V18.6142H11.7186L11.211 17.3221H10.3342L9.73432 18.6142H7.38086V14.7379L9.13442 10.8154H12.457L12.9184 11.9229V10.8616H16.9793L17.8561 12.7536L18.7329 10.8616H31.5615C31.5615 10.8616 32.2076 10.8616 32.6691 11.1385V10.8616H35.8993V11.2769C35.8993 11.2769 36.4531 10.8616 37.376 10.8616C38.2066 10.8616 43.052 10.8616 43.052 10.8616L43.5596 11.9691V10.8616H47.2513L47.8973 11.9691V10.8616H51.3583V18.6603H47.7589L46.9283 17.2759V18.6603H42.4059L41.806 17.2298H40.9292L40.3293 18.6603H37.6529C37.6529 18.6603 36.6838 18.6603 35.8993 18.1066C35.8993 18.3834 35.8993 18.6603 35.8993 18.6603H30.454C30.454 18.6603 30.454 17.0913 30.454 16.8145C30.454 16.5376 30.2694 16.5837 30.2694 16.5837H30.0849V18.6603H19.2866Z" fill="white"/>
<path d="M16.6099 20.3213H23.6703L24.6855 21.4749L25.7007 20.3213H31.0998C31.0998 20.3213 31.6074 20.3213 32.0689 20.5982V20.3213C32.0689 20.3213 36.3144 20.3213 36.9143 20.3213C37.5142 20.3213 38.0218 20.6443 38.0218 20.6443V20.3213H44.2515V20.5982C44.2515 20.5982 44.6668 20.3213 45.2667 20.3213C45.8666 20.3213 49.3276 20.3213 49.3276 20.3213V20.5982C49.3276 20.5982 49.8352 20.3213 50.3428 20.3213C50.8504 20.3213 53.5269 20.3213 53.5269 20.3213V27.6586C53.5269 27.6586 53.1116 28.12 52.2348 28.12H48.0355V27.8893C48.0355 27.8893 47.6663 28.12 47.0664 28.12C46.4665 28.12 35.899 28.12 35.899 28.12C35.899 28.12 35.899 26.4126 35.899 26.228C35.899 26.0434 35.8067 25.9973 35.6683 25.9973H35.5299V28.12H32.0689V25.9973C32.0689 25.9973 31.6997 26.1819 31.0537 26.1819C30.4076 26.1819 29.7616 26.1819 29.7616 26.1819V28.0739H25.47L24.5009 26.9202L23.578 28.12H16.6099V20.3213Z" fill="white"/>
<path d="M38.8984 21.5215H43.3285V22.6751H40.2367V23.7365H43.2362V24.7517H40.2367V25.8592H43.3285V27.0129H38.8984V21.5215Z" fill="#0078A9"/>
<path d="M51.9119 23.644C53.5731 23.7363 53.7116 24.5669 53.7116 25.4437C53.7116 26.4589 52.8809 27.0588 51.958 27.0588H49.0969V25.9051H51.312C51.6811 25.9051 52.2349 25.9051 52.2349 25.3975C52.2349 25.1668 52.1426 24.9822 51.7273 24.9361C51.5427 24.8899 50.8966 24.8899 50.8043 24.8899C49.2815 24.8438 48.9585 24.1054 48.9585 23.1825C48.9585 22.1673 49.6507 21.5674 50.5736 21.5674H53.4347V22.721H51.3581C50.8966 22.721 50.389 22.6749 50.389 23.1825C50.389 23.5055 50.6198 23.5978 50.9428 23.5978C51.0351 23.5978 51.8196 23.644 51.9119 23.644Z" fill="#0078A9"/>
<path d="M46.7434 23.644C48.4047 23.7363 48.5431 24.5669 48.5431 25.4437C48.5431 26.4589 47.7125 27.0588 46.7896 27.0588H43.9285V25.9051H46.1435C46.5127 25.9051 47.0664 25.9051 47.0664 25.3975C47.0664 25.1668 46.9741 24.9822 46.5588 24.9361C46.3742 24.8899 45.7282 24.8899 45.6359 24.8899C44.1131 24.8438 43.79 24.1054 43.79 23.1825C43.79 22.1673 44.4822 21.5674 45.4052 21.5674H48.2662V22.721H46.1896C45.7282 22.721 45.2206 22.6749 45.2206 23.1825C45.2206 23.5055 45.4513 23.5978 45.7743 23.5978C45.9128 23.5978 46.6511 23.644 46.7434 23.644Z" fill="#0078A9"/>
<path d="M30.7306 21.5217H25.9313L24.3624 23.2291L22.8395 21.4756H17.5327V26.967H22.7011L24.3624 25.1211L25.9775 26.967H28.5617V25.075H30.4075C31.0997 25.075 32.3918 25.0289 32.3918 23.0907C32.2995 21.7986 31.3766 21.5217 30.7306 21.5217ZM22.0089 25.8595H18.871V24.7981H21.8705V23.7829H18.871V22.7677H22.1473L23.4856 24.2905L22.0089 25.8595ZM27.1773 26.5055L25.2392 24.1982L27.1773 22.0293V26.5055ZM30.223 24.0136H28.5155V22.6754H30.223C30.7767 22.6754 30.9613 23.0446 30.9613 23.2753C31.0074 23.6906 30.8229 24.0136 30.223 24.0136Z" fill="#0078A9"/>
<path d="M37.2372 24.5212C37.9755 24.1521 38.1601 23.6906 38.1601 22.9523C38.1601 21.7986 37.2372 21.4756 36.4988 21.4756H32.9917V26.967H34.3761V25.0289H36.1758C36.6373 25.0289 36.8218 25.4903 36.8218 25.9518L36.868 26.967H38.2062L38.1601 25.9518C38.1601 24.9827 37.8832 24.5674 37.2372 24.5212ZM36.0835 23.9675H34.3761V22.6754H36.0835C36.6373 22.6754 36.8218 23.0446 36.8218 23.2753C36.8218 23.6906 36.6373 23.9675 36.0835 23.9675Z" fill="#0078A9"/>
<path d="M34.9762 11.9688H33.5918V17.5063H34.9762V11.9688Z" fill="#0078A9"/>
<path d="M22.4707 11.9688H26.9008V13.1224H23.8551V14.1838H26.8085V15.2451H23.8551V16.3527H26.9008V17.4602H22.4707V11.9688Z" fill="#0078A9"/>
<path d="M31.9305 14.9685C32.6689 14.5993 32.8534 14.1379 32.8534 13.3995C32.8534 12.2459 31.9305 11.9229 31.1922 11.9229H27.6851V17.4143H29.0694V15.4761H30.8692C31.3306 15.4761 31.5152 15.9376 31.5152 16.399L31.5614 17.4143H32.8996L32.8073 16.399C32.8073 15.43 32.5304 15.0608 31.9305 14.9685ZM30.7769 14.4148H29.0694V13.1227H30.7769C31.3306 13.1227 31.5152 13.4918 31.5152 13.7226C31.5152 14.184 31.3306 14.4148 30.7769 14.4148Z" fill="#0078A9"/>
<path d="M19.3325 11.9688L17.6713 15.7066L16.01 11.9688H13.8873V17.2756L11.5338 11.9688H9.73408L7.33447 17.4602H8.76501L9.27262 16.2142H12.0414L12.549 17.4602H15.2716V13.3531L17.1175 17.4602H18.3634L20.2093 13.3993V17.4602H21.5937V11.9688H19.3325ZM9.78023 15.0606L10.5647 13.1224L11.3954 15.0606H9.78023Z" fill="#0078A9"/>
<path d="M48.9123 11.9692V15.7994L46.605 11.9692H44.5746V17.1376L42.2673 11.9692H40.4675L38.6217 16.2609C38.6217 16.2609 37.8372 16.2609 37.7911 16.2609C37.468 16.2147 36.9604 15.984 36.9604 14.9688V14.5534C36.9604 13.2152 37.6526 13.1229 38.5755 13.1229H39.4062V11.877H37.6065C37.0066 11.877 35.6222 12.3384 35.576 14.5996C35.5299 16.1686 36.1759 17.3684 37.6988 17.3684H39.4985L40.0061 16.1224H42.7287L43.2363 17.3684H45.9128V13.3075L48.3586 17.3684H50.2044V11.9692H48.9123ZM40.606 15.0611L41.3905 13.1229L42.2211 15.0611H40.606Z" fill="#0078A9"/>
</g>
</g>
</g>
<defs>
<clipPath id="clip0_97_37580">
<rect width="60" height="38" fill="white" transform="translate(0.5 0.570312)"/>
</clipPath>
<clipPath id="clip1_97_37580">
<rect width="60" height="37.84" fill="white" transform="translate(0.5 0.570312)"/>
</clipPath>
<clipPath id="clip2_97_37580">
<rect width="59.9902" height="37.84" fill="white" transform="translate(0.504883 0.570312)"/>
</clipPath>
</defs>
</svg>
