<svg width="1920" height="240" viewBox="0 0 1920 240" fill="none" xmlns="http://www.w3.org/2000/svg">
<g clip-path="url(#clip0_100_7867)" filter="url(#filter0_i_100_7867)">
<rect width="1920" height="240" fill="#4D148C"/>
<rect width="1920" height="240" fill="url(#paint0_linear_100_7867)"/>
<rect x="858" y="142" width="204" height="140" rx="16" fill="white"/>
<g clip-path="url(#clip1_100_7867)">
<path fill-rule="evenodd" clip-rule="evenodd" d="M1008.65 231.292L1003.1 225.055L997.588 231.292H985.999L997.333 218.563L985.999 205.834H997.95L1003.56 212.018L1008.96 205.834H1020.5L1009.22 218.509L1020.66 231.292H1008.65ZM963.747 231.292V191.188H985.999V200.134H973.176V205.834H985.999V214.432H973.176V222.319H985.999V231.292H963.747Z" fill="#FF6600"/>
<path fill-rule="evenodd" clip-rule="evenodd" d="M954.358 191.188V207.605H954.25C952.32 205.407 949.485 204.22 946.565 204.386C940.689 204.437 935.582 208.433 934.118 214.123C932.253 208.007 927.411 204.265 920.343 204.265C914.562 204.265 910.001 206.854 907.614 211.092V205.834H895.65V200.12H908.687V191.188H885V231.292H895.65V214.432H906.259C905.928 215.747 905.766 217.099 905.776 218.456C905.776 226.825 912.161 232.687 920.329 232.687C927.183 232.687 931.703 229.468 934.091 223.593H924.97C924.044 225.241 922.201 226.151 920.329 225.886C917.357 225.821 914.978 223.4 914.964 220.427H933.581C934.386 227.134 939.563 232.794 946.659 232.794C949.699 232.804 952.542 231.294 954.237 228.77H954.344V231.292H963.733V191.188H954.358ZM915.286 214.553C915.731 212.122 917.845 210.352 920.316 210.341C922.847 210.213 925.055 212.042 925.399 214.553H915.286ZM948.644 225.189C945.183 225.189 943.037 221.97 943.037 218.59C943.037 214.995 944.915 211.535 948.644 211.535C952.373 211.535 954.009 214.995 954.009 218.59C954.009 222.185 952.44 225.189 948.657 225.189H948.644Z" fill="#4D148C"/>
<path fill-rule="evenodd" clip-rule="evenodd" d="M1034.08 226.503C1034.02 224.355 1032.25 222.656 1030.1 222.695C1027.95 222.734 1026.23 224.497 1026.25 226.646C1026.27 228.794 1028.02 230.526 1030.17 230.527C1031.23 230.551 1032.26 230.131 1033 229.368C1033.74 228.605 1034.14 227.567 1034.08 226.503ZM1029.15 226.705V229.387H1028.3V223.539H1030.41C1031.64 223.539 1032.21 224.076 1032.21 225.135C1032.23 225.741 1031.8 226.269 1031.2 226.369C1031.68 226.45 1031.87 226.879 1031.98 227.711C1032.01 228.267 1032.14 228.814 1032.34 229.334H1031.33C1031.17 228.688 1031.04 228.035 1030.94 227.375C1030.86 226.922 1030.42 226.623 1029.97 226.705H1029.15ZM1030.21 225.954C1031.03 225.954 1031.27 225.511 1031.27 225.135C1031.27 224.76 1031.04 224.317 1030.21 224.317H1029.15V225.967H1030.21V225.954ZM1025.34 226.49C1025.32 224.527 1026.48 222.745 1028.29 221.979C1030.1 221.212 1032.19 221.613 1033.58 222.994C1034.98 224.374 1035.4 226.461 1034.66 228.277C1033.91 230.093 1032.14 231.278 1030.18 231.278C1028.9 231.308 1027.66 230.814 1026.74 229.911C1025.83 229.009 1025.32 227.774 1025.34 226.49Z" fill="#FF6600"/>
</g>
</g>
<defs>
<filter id="filter0_i_100_7867" x="0" y="0" width="1920" height="240" filterUnits="userSpaceOnUse" color-interpolation-filters="sRGB">
<feFlood flood-opacity="0" result="BackgroundImageFix"/>
<feBlend mode="normal" in="SourceGraphic" in2="BackgroundImageFix" result="shape"/>
<feColorMatrix in="SourceAlpha" type="matrix" values="0 0 0 0 0 0 0 0 0 0 0 0 0 0 0 0 0 0 127 0" result="hardAlpha"/>
<feMorphology radius="8" operator="dilate" in="SourceAlpha" result="effect1_innerShadow_100_7867"/>
<feOffset dy="-8"/>
<feGaussianBlur stdDeviation="4"/>
<feComposite in2="hardAlpha" operator="arithmetic" k2="-1" k3="1"/>
<feColorMatrix type="matrix" values="0 0 0 0 0 0 0 0 0 0 0 0 0 0 0 0 0 0 0.5 0"/>
<feBlend mode="normal" in2="shape" result="effect1_innerShadow_100_7867"/>
</filter>
<linearGradient id="paint0_linear_100_7867" x1="960" y1="0" x2="960" y2="240" gradientUnits="userSpaceOnUse">
<stop stop-opacity="0"/>
<stop offset="1" stop-opacity="0.7"/>
</linearGradient>
<clipPath id="clip0_100_7867">
<rect width="1920" height="240" fill="white"/>
</clipPath>
<clipPath id="clip1_100_7867">
<rect width="150" height="50" fill="white" transform="translate(885 187)"/>
</clipPath>
</defs>
</svg>
