<svg width="61" height="39" viewBox="0 0 61 39" fill="none" xmlns="http://www.w3.org/2000/svg">
<g clip-path="url(#clip0_97_37850)">
<g clip-path="url(#clip1_97_37850)">
<g clip-path="url(#clip2_97_37850)">
<path d="M60.2173 35.9799C60.2137 36.5087 60.002 37.0148 59.628 37.3888C59.2541 37.7627 58.748 37.9744 58.2191 37.978H2.73499C2.20617 37.9744 1.70004 37.7627 1.3261 37.3888C0.952161 37.0148 0.740468 36.5087 0.736816 35.9799V2.80091C0.740468 2.27209 0.952161 1.76596 1.3261 1.39202C1.70004 1.01808 2.20617 0.806386 2.73499 0.802734H58.2656C58.7944 0.806386 59.3006 1.01808 59.6745 1.39202C60.0484 1.76596 60.2601 2.27209 60.2638 2.80091V36.0263H60.2173V35.9799Z" fill="white" stroke="#E6E7E7" stroke-width="0.464691" stroke-miterlimit="10"/>
<path d="M33.9016 19.6604L30.8812 16.0869L27.0382 11.4121C26.671 10.9474 26.3039 10.5896 25.9368 10.1342C25.7982 9.98994 25.7063 9.80722 25.6731 9.60991C25.64 9.4126 25.6671 9.20988 25.751 9.02823C25.8346 8.84858 25.965 8.69471 26.1285 8.58272C26.292 8.47072 26.4826 8.40472 26.6803 8.3916H32.7213C33.0619 8.41372 33.387 8.54212 33.6507 8.75871C35.3933 10.8684 37.1359 12.7876 38.7623 14.7114C39.9519 16.1055 41.1415 17.546 42.4194 18.9215C42.5987 19.1231 42.6978 19.3836 42.6978 19.6534C42.6978 19.9232 42.5987 20.1837 42.4194 20.3853C41.2298 21.8444 39.9519 23.2199 38.7623 24.693L35.2771 28.6336C35.2272 28.6816 35.1959 28.7458 35.1888 28.8148C35.2123 28.8148 35.2347 28.8241 35.2513 28.8406C35.2678 28.8572 35.2771 28.8797 35.2771 28.9031H38.2093C38.3481 28.8809 38.4764 28.8159 38.5764 28.7172C39.4036 27.7878 40.1378 26.891 40.872 25.9709C42.6146 23.9541 44.2596 21.942 45.9836 19.9299C46.1695 19.744 46.1695 19.6604 45.9836 19.4652C44.241 17.3555 42.596 15.3434 40.872 13.243C40.0495 12.2346 39.1294 11.1286 38.3069 10.1249C38.1241 9.93893 38.0217 9.68861 38.0217 9.42786C38.0217 9.16711 38.1241 8.9168 38.3069 8.73083C38.4929 8.54806 38.7432 8.44565 39.004 8.44565C39.2647 8.44565 39.515 8.54806 39.701 8.73083C40.0364 9.07719 40.3469 9.44676 40.6304 9.83679L46.2067 16.3425L48.3675 18.9308C48.475 19.0304 48.5608 19.1512 48.6195 19.2855C48.6782 19.4199 48.7085 19.5649 48.7085 19.7115C48.7085 19.8581 48.6782 20.0031 48.6195 20.1374C48.5608 20.2718 48.475 20.3925 48.3675 20.4922L48.2792 20.5758C46.8154 22.2255 45.4446 23.8798 43.9715 25.5248C42.4984 27.1698 41.0393 28.8241 39.6638 30.4691C39.5698 30.6027 39.4472 30.7137 39.3049 30.7941C39.1627 30.8745 39.0043 30.9222 38.8413 30.9338H32.7213C32.4555 30.9326 32.2009 30.8264 32.0129 30.6384C31.825 30.4505 31.7188 30.1959 31.7176 29.93C31.7176 29.7442 31.7176 29.6559 31.8012 29.5583C31.9248 29.2951 32.0809 29.0484 32.2659 28.8241C33.5438 27.2674 34.831 25.706 36.1089 24.2469L39.7707 19.8509L39.8543 19.7626L38.925 18.6613C37.0987 16.1938 34.989 13.7123 33.0606 11.3331C32.8845 11.0385 32.6248 10.803 32.3145 10.6565C32.0042 10.51 31.6573 10.4592 31.318 10.5106H29.0224C29.3941 10.9753 29.7612 11.44 30.1283 11.9047C31.6851 13.6473 33.1488 15.3899 34.7056 17.1232C35.1702 17.6715 35.6349 18.1269 36.0996 18.6799C36.1879 18.7682 36.2855 18.8657 36.2855 18.9494C36.3888 19.0389 36.4731 19.1483 36.5334 19.2709C36.5937 19.3936 36.6288 19.5271 36.6366 19.6636C36.6444 19.8001 36.6247 19.9367 36.5788 20.0655C36.5329 20.1942 36.4616 20.3125 36.3692 20.4132L36.3041 20.5108C35.5652 21.4401 34.7427 22.2533 34.0085 23.1595C32.4518 24.9904 30.8904 26.8213 29.2454 28.6614C28.6088 29.3957 28.0558 30.1206 27.0474 30.4877C26.603 30.6526 26.144 30.7755 25.6766 30.8548H17.0519C16.47 30.8527 15.8961 30.7191 15.373 30.464C14.85 30.209 14.3914 29.839 14.0314 29.3817C13.3963 28.6418 13.0396 27.7033 13.0231 26.7283V12.6993C13.0038 12.1556 13.0934 11.6134 13.2866 11.1048C13.4797 10.5962 13.7725 10.1312 14.1478 9.73733C14.5231 9.34341 14.9734 9.02845 15.4721 8.81092C15.9708 8.59339 16.5079 8.47769 17.0519 8.4706H22.2658C22.512 8.46492 22.7522 8.54712 22.9433 8.70246C23.1344 8.85781 23.2639 9.07613 23.3087 9.31831C23.3534 9.5605 23.3104 9.81069 23.1875 10.0241C23.0645 10.2374 22.8695 10.4 22.6375 10.4827C22.5492 10.4827 22.3634 10.571 22.2658 10.4827H17.5073C17.0883 10.4539 16.6695 10.5414 16.2971 10.7358C15.9248 10.9302 15.6135 11.2237 15.3976 11.584C15.2204 11.9259 15.1265 12.3049 15.1235 12.69V26.6307C15.0765 27.078 15.1913 27.5273 15.4471 27.8973C15.7028 28.2672 16.0825 28.5334 16.5175 28.6475C16.7859 28.7166 17.0632 28.7448 17.34 28.7311H25.2398C25.6118 28.7438 25.9813 28.6658 26.3164 28.5039C26.6516 28.342 26.9423 28.101 27.1636 27.8018C28.9062 25.785 30.5512 23.7729 32.2752 21.6632C32.712 21.1195 33.3533 20.3853 33.9016 19.6604Z" fill="black"/>
</g>
</g>
</g>
<defs>
<clipPath id="clip0_97_37850">
<rect width="60" height="38" fill="white" transform="translate(0.5 0.570312)"/>
</clipPath>
<clipPath id="clip1_97_37850">
<rect width="60" height="37.64" fill="white" transform="translate(0.5 0.570312)"/>
</clipPath>
<clipPath id="clip2_97_37850">
<rect width="59.9917" height="37.64" fill="white" transform="translate(0.504395 0.570312)"/>
</clipPath>
</defs>
</svg>
