<svg width="24" height="25" viewBox="0 0 24 25" fill="none" xmlns="http://www.w3.org/2000/svg">
<path d="M4.79993 0.833984C5.35912 0.833984 5.84271 1.20965 5.96991 1.73815L7.13869 6.66732H22.7997C23.1704 6.66732 23.5184 6.83298 23.7452 7.11648C23.972 7.39882 24.0536 7.76982 23.9648 8.11748L21.5649 17.4508C21.4305 17.97 20.9505 18.334 20.3997 18.334H8.39987C7.84068 18.334 7.35709 17.9595 7.22989 17.4298L3.84594 3.16732H0V0.833984H4.79993ZM9.35386 16.0007H19.4625L21.2625 9.00065H7.69308L9.35386 16.0007Z" fill="#E42337"/>
<path d="M19.1996 24.1667C17.8742 24.1667 16.7997 23.122 16.7997 21.8333C16.7997 20.5447 17.8742 19.5 19.1996 19.5C20.5251 19.5 21.5996 20.5447 21.5996 21.8333C21.5996 23.122 20.5251 24.1667 19.1996 24.1667Z" fill="#E42337"/>
<path d="M9.60004 24.1667C8.27457 24.1667 7.20007 23.122 7.20007 21.8333C7.20007 20.5447 8.27457 19.5 9.60004 19.5C10.9255 19.5 12 20.5447 12 21.8333C12 23.122 10.9255 24.1667 9.60004 24.1667Z" fill="#E42337"/>
</svg>
