<svg width="320" height="33" viewBox="0 0 320 33" fill="none" xmlns="http://www.w3.org/2000/svg">
<rect y="0.94043" width="32" height="32" rx="8" fill="#5A5A5A"/>
<path d="M14.9427 17.9982C15.2502 18.2907 15.2502 18.7707 14.9427 19.0632C14.6502 19.3557 14.1702 19.3557 13.8777 19.0632C12.4152 17.6007 12.4152 15.2232 13.8777 13.7607L16.5327 11.1057C17.9952 9.64316 20.3727 9.64316 21.8352 11.1057C23.2977 12.5682 23.2977 14.9457 21.8352 16.4082L20.7177 17.5257C20.7252 16.9107 20.6277 16.2957 20.4177 15.7107L20.7702 15.3507C21.6552 14.4732 21.6552 13.0482 20.7702 12.1707C19.8927 11.2857 18.4677 11.2857 17.5902 12.1707L14.9427 14.8182C14.0577 15.6957 14.0577 17.1207 14.9427 17.9982ZM17.0577 14.8182C17.3502 14.5257 17.8302 14.5257 18.1227 14.8182C19.5852 16.2807 19.5852 18.6582 18.1227 20.1207L15.4677 22.7757C14.0052 24.2382 11.6277 24.2382 10.1652 22.7757C8.70273 21.3132 8.70273 18.9357 10.1652 17.4732L11.2827 16.3557C11.2752 16.9707 11.3727 17.5857 11.5827 18.1782L11.2302 18.5307C10.3452 19.4082 10.3452 20.8332 11.2302 21.7107C12.1077 22.5957 13.5327 22.5957 14.4102 21.7107L17.0577 19.0632C17.9427 18.1857 17.9427 16.7607 17.0577 15.8832C16.7502 15.5907 16.7502 15.1107 17.0577 14.8182Z" fill="white"/>
<rect x="36" y="0.94043" width="32" height="32" rx="8" fill="#3B5998"/>
<path d="M56.1885 18.0654L56.6884 14.8079H53.5627V12.6939C53.5627 11.8027 53.9993 10.934 55.3992 10.934H56.8202V8.16051C56.8202 8.16051 55.5307 7.94043 54.2978 7.94043C51.7236 7.94043 50.0411 9.50066 50.0411 12.3251V14.8079H47.1797V18.0654H50.0411V25.9404H53.5627V18.0654H56.1885Z" fill="white"/>
<rect x="72" y="0.94043" width="32" height="32" rx="8" fill="#26A7DE"/>
<path d="M92.683 9.62793H95.165L89.7439 15.8225L96.1213 24.2529H91.1291L87.2162 19.1412L82.7443 24.2529H80.2588L86.0561 17.626L79.9424 9.62793H85.0611L88.5943 14.3002L92.683 9.62793ZM91.8111 22.7693H93.1857L84.3123 11.0342H82.8357L91.8111 22.7693Z" fill="white"/>
<rect x="108" y="0.94043" width="32" height="32" rx="8" fill="#C8232C"/>
<path d="M124.422 8.16895C120.815 8.16895 117.25 10.5736 117.25 14.4654C117.25 16.9404 118.642 18.3467 119.486 18.3467C119.834 18.3467 120.034 17.3764 120.034 17.1021C120.034 16.7752 119.201 16.0791 119.201 14.7186C119.201 11.892 121.353 9.88809 124.137 9.88809C126.531 9.88809 128.303 11.2486 128.303 13.7482C128.303 15.615 127.554 19.1166 125.129 19.1166C124.253 19.1166 123.504 18.4838 123.504 17.5768C123.504 16.2479 124.432 14.9611 124.432 13.59C124.432 11.2627 121.131 11.6846 121.131 14.4971C121.131 15.0877 121.205 15.7416 121.469 16.2795C120.984 18.3678 119.992 21.4791 119.992 23.6307C119.992 24.2951 120.087 24.949 120.15 25.6135C120.27 25.7471 120.21 25.733 120.393 25.6662C122.165 23.2404 122.102 22.7658 122.903 19.5912C123.336 20.4139 124.454 20.8568 125.339 20.8568C129.073 20.8568 130.75 17.2182 130.75 13.9381C130.75 10.4471 127.734 8.16895 124.422 8.16895Z" fill="white"/>
<rect x="144" y="0.94043" width="32" height="32" rx="8" fill="#2867B2"/>
<path d="M166.75 9.06543H153.246C152.628 9.06543 152.125 9.5752 152.125 10.201V23.6799C152.125 24.3057 152.628 24.8154 153.246 24.8154H166.75C167.369 24.8154 167.875 24.3057 167.875 23.6799V10.201C167.875 9.5752 167.369 9.06543 166.75 9.06543ZM156.885 22.5654H154.551V15.049H156.889V22.5654H156.885ZM155.718 14.0225C154.969 14.0225 154.364 13.4143 154.364 12.6689C154.364 11.9236 154.969 11.3154 155.718 11.3154C156.463 11.3154 157.071 11.9236 157.071 12.6689C157.071 13.4178 156.467 14.0225 155.718 14.0225ZM165.636 22.5654H163.301V18.9092C163.301 18.0373 163.284 16.9158 162.088 16.9158C160.872 16.9158 160.686 17.865 160.686 18.8459V22.5654H158.351V15.049H160.591V16.0756H160.622C160.935 15.485 161.698 14.8627 162.834 14.8627C165.196 14.8627 165.636 16.4201 165.636 18.4451V22.5654Z" fill="white"/>
<rect x="180" y="0.94043" width="32" height="32" rx="8" fill="#FF5700"/>
<path d="M202.479 15.0948C201.952 15.0948 201.488 15.3128 201.147 15.6538C199.892 14.7854 198.201 14.2265 196.327 14.1667L197.301 9.7792L200.401 10.4753C200.401 11.2347 201.02 11.8534 201.78 11.8534C202.553 11.8534 203.175 11.2171 203.175 10.4577C203.175 9.69834 202.557 9.06201 201.78 9.06201C201.238 9.06201 200.771 9.38896 200.539 9.83545L197.114 9.07607C196.942 9.03037 196.773 9.15342 196.728 9.32568L195.659 14.1632C193.799 14.2405 192.126 14.7995 190.867 15.6679C190.526 15.3128 190.044 15.0948 189.517 15.0948C187.562 15.0948 186.923 17.7175 188.712 18.614C188.649 18.8917 188.621 19.187 188.621 19.4823C188.621 22.4284 191.939 24.8155 196.014 24.8155C200.106 24.8155 203.425 22.4284 203.425 19.4823C203.425 19.187 203.393 18.8776 203.316 18.5999C205.07 17.6999 204.423 15.0948 202.479 15.0948ZM191.549 18.8003C191.549 18.0269 192.168 17.4046 192.945 17.4046C193.704 17.4046 194.323 18.0233 194.323 18.8003C194.323 19.5597 193.704 20.1784 192.945 20.1784C192.171 20.1819 191.549 19.5597 191.549 18.8003ZM199.083 22.0874C197.803 23.3671 194.193 23.3671 192.913 22.0874C192.773 21.9644 192.773 21.7464 192.913 21.6058C193.036 21.4827 193.254 21.4827 193.377 21.6058C194.355 22.6077 197.596 22.6253 198.616 21.6058C198.739 21.4827 198.957 21.4827 199.08 21.6058C199.224 21.7464 199.224 21.9644 199.083 22.0874ZM199.055 20.1819C198.296 20.1819 197.677 19.5632 197.677 18.8038C197.677 18.0304 198.296 17.4081 199.055 17.4081C199.828 17.4081 200.451 18.0269 200.451 18.8038C200.447 19.5597 199.828 20.1819 199.055 20.1819Z" fill="white"/>
<rect x="216" y="0.94043" width="32" height="32" rx="8" fill="#35465C"/>
<path d="M237.266 24.826C236.788 25.3357 235.508 25.9404 233.842 25.9404C229.595 25.9404 228.674 22.8186 228.674 20.9975V15.935H227.004C226.811 15.935 226.652 15.7768 226.652 15.5834V13.1928C226.652 12.9396 226.811 12.7146 227.05 12.6303C229.229 11.8639 229.915 9.9584 230.013 8.51348C230.041 8.12676 230.242 7.94043 230.579 7.94043H233.072C233.265 7.94043 233.423 8.09863 233.423 8.29199V12.342H236.341C236.535 12.342 236.693 12.4967 236.693 12.69V15.5623C236.693 15.7557 236.535 15.9139 236.341 15.9139H233.409V20.5967C233.409 21.799 234.243 22.4811 235.8 21.8553C235.969 21.7885 236.116 21.7428 236.246 21.7779C236.37 21.8096 236.45 21.8975 236.507 22.0557L237.28 24.3162C237.343 24.492 237.396 24.6889 237.266 24.826Z" fill="white"/>
<rect x="252" y="0.94043" width="32" height="32" rx="8" fill="#25D366"/>
<path d="M273.516 11.3541C272.043 9.87754 270.081 9.06543 267.996 9.06543C263.693 9.06543 260.192 12.567 260.192 16.8701C260.192 18.2447 260.55 19.5877 261.232 20.7725L260.125 24.8154L264.263 23.7291C265.402 24.3514 266.685 24.6783 267.993 24.6783H267.996C272.296 24.6783 275.875 21.1768 275.875 16.8736C275.875 14.7889 274.989 12.8307 273.516 11.3541ZM267.996 23.3635C266.829 23.3635 265.687 23.0506 264.692 22.46L264.456 22.3193L262.002 22.9627L262.656 20.5686L262.502 20.3225C261.851 19.2889 261.51 18.0971 261.51 16.8701C261.51 13.2947 264.421 10.3838 268 10.3838C269.733 10.3838 271.361 11.0588 272.584 12.2857C273.808 13.5127 274.56 15.1404 274.557 16.8736C274.557 20.4525 271.572 23.3635 267.996 23.3635ZM271.554 18.5049C271.361 18.4064 270.401 17.9354 270.222 17.8721C270.043 17.8053 269.913 17.7736 269.782 17.9705C269.652 18.1674 269.28 18.6033 269.164 18.7369C269.051 18.867 268.935 18.8846 268.742 18.7861C267.596 18.2131 266.843 17.7631 266.088 16.4658C265.887 16.1213 266.288 16.1459 266.661 15.4006C266.724 15.2705 266.692 15.158 266.643 15.0596C266.594 14.9611 266.204 14.0014 266.042 13.6111C265.884 13.2314 265.722 13.2842 265.602 13.2771C265.49 13.2701 265.36 13.2701 265.23 13.2701C265.1 13.2701 264.889 13.3193 264.709 13.5127C264.53 13.7096 264.027 14.1807 264.027 15.1404C264.027 16.1002 264.727 17.0283 264.822 17.1584C264.92 17.2885 266.196 19.2572 268.155 20.1045C269.392 20.6389 269.877 20.6846 270.496 20.5932C270.872 20.5369 271.649 20.1221 271.811 19.665C271.973 19.208 271.973 18.8178 271.923 18.7369C271.878 18.649 271.748 18.5998 271.554 18.5049Z" fill="white"/>
<rect x="288" y="0.94043" width="32" height="32" rx="8" fill="#0088CC"/>
<path d="M304 8.22168C299.184 8.22168 295.281 12.124 295.281 16.9404C295.281 21.7568 299.184 25.6592 304 25.6592C308.816 25.6592 312.719 21.7568 312.719 16.9404C312.719 12.124 308.816 8.22168 304 8.22168ZM308.282 14.1947L306.851 20.9377C306.746 21.4158 306.461 21.5318 306.064 21.3068L303.884 19.7002L302.833 20.7127C302.717 20.8287 302.618 20.9271 302.393 20.9271L302.548 18.7088L306.588 15.0596C306.763 14.9049 306.549 14.817 306.317 14.9717L301.325 18.1146L299.173 17.4432C298.705 17.2955 298.695 16.9756 299.271 16.7506L307.677 13.5092C308.068 13.3686 308.409 13.6041 308.282 14.1947Z" fill="white"/>
</svg>
