<svg width="204" height="141" viewBox="0 0 204 141" fill="none" xmlns="http://www.w3.org/2000/svg">
<rect y="0.44043" width="204" height="140" rx="16" fill="white"/>
<g clip-path="url(#clip0_96_26802)">
<path fill-rule="evenodd" clip-rule="evenodd" d="M150.653 89.7518L145.1 83.5148L139.587 89.7518H127.998L139.332 77.023L127.998 64.2943H139.949L145.556 70.4776L150.961 64.2943H162.496L151.216 76.9694L162.657 89.7518H150.653ZM105.747 89.7518V49.6475H127.998V58.5938H115.176V64.2943H127.998V72.8919H115.176V80.7786H127.998V89.7518H105.747Z" fill="#FF6600"/>
<path fill-rule="evenodd" clip-rule="evenodd" d="M96.3577 49.6475V66.0647H96.2504C94.32 63.8667 91.4854 62.6795 88.5648 62.8457C82.689 62.8973 77.582 66.8927 76.1177 72.5834C74.2534 66.4671 69.4113 62.725 62.3428 62.725C56.5618 62.725 52.0015 65.3136 49.614 69.5521V64.2943H37.6498V58.5804H50.687V49.6475H27V89.7518H37.6498V72.8919H48.2593C47.9282 74.2072 47.7659 75.5594 47.7765 76.9157C47.7765 85.2853 54.161 91.1467 62.3294 91.1467C69.1833 91.1467 73.7034 87.9276 76.0909 82.0528H66.9702C66.0436 83.7006 64.2011 84.6112 62.3294 84.3464C59.3573 84.281 56.978 81.8602 56.9642 78.8874H75.5812C76.386 85.5938 81.5633 91.254 88.6587 91.254C91.6986 91.2636 94.5422 89.7538 96.237 87.2302H96.3443V89.7518H105.733V49.6475L96.3577 49.6475ZM57.2861 73.0126C57.7314 70.5816 59.8445 68.8121 62.3159 68.801C64.8466 68.673 67.0546 70.5023 67.3994 73.0126H57.2861ZM90.6438 83.649C87.1833 83.649 85.0373 80.4299 85.0373 77.0498C85.0373 73.4552 86.9151 69.9947 90.6438 69.9947C94.3726 69.9947 96.0089 73.4552 96.0089 77.0498C96.0089 80.6445 94.4396 83.649 90.6572 83.649H90.6438Z" fill="#4D148C"/>
<path fill-rule="evenodd" clip-rule="evenodd" d="M176.083 84.9629C176.024 82.8148 174.246 81.1154 172.097 81.1543C169.949 81.1933 168.233 82.9562 168.252 85.105C168.271 87.2538 170.018 88.986 172.167 88.9868C173.231 89.0104 174.258 88.5904 175.001 87.8273C175.744 87.0641 176.136 86.0266 176.083 84.9629ZM171.147 85.1641V87.8467H170.302V81.9987H172.408C173.642 81.9987 174.206 82.5352 174.206 83.5948C174.227 84.2003 173.797 84.7282 173.2 84.8288C173.682 84.9093 173.87 85.3385 173.978 86.1701C174.014 86.7264 174.137 87.2738 174.34 87.793H173.334C173.169 87.1477 173.039 86.494 172.945 85.8348C172.857 85.3811 172.42 85.0823 171.966 85.1641H171.147ZM172.207 84.413C173.025 84.413 173.267 83.9704 173.267 83.5948C173.267 83.2193 173.039 82.7766 172.207 82.7766H171.147V84.4264H172.207V84.413ZM167.338 84.9495C167.316 82.9864 168.482 81.2044 170.29 80.438C172.097 79.6716 174.189 80.0725 175.585 81.453C176.981 82.8335 177.405 84.9203 176.659 86.7362C175.912 88.5522 174.144 89.7378 172.18 89.7379C170.897 89.7671 169.656 89.2737 168.743 88.3709C167.83 87.4682 167.323 86.2333 167.338 84.9495Z" fill="#FF6600"/>
</g>
<defs>
<clipPath id="clip0_96_26802">
<rect width="150" height="50" fill="white" transform="translate(27 45.46)"/>
</clipPath>
</defs>
</svg>
