<svg width="204" height="141" viewBox="0 0 204 141" fill="none" xmlns="http://www.w3.org/2000/svg">
<rect y="0.44043" width="204" height="140" rx="16" fill="white"/>
<path d="M158.375 51.4209L151.874 65.1258L149.43 59.9329H146.786L150.806 68.4271H152.943L161 51.4209H158.375Z" fill="#D52B1E"/>
<path d="M130.49 76.8677H135.722V67.4278C135.722 65.2686 136.99 63.7517 138.873 63.7517C140.684 63.7517 141.625 65.0009 141.625 66.8032V76.8677H146.858V65.8218C146.858 62.0743 144.577 59.4333 140.883 59.4333C138.529 59.4333 136.881 60.4326 135.65 62.2528H135.541V59.9329H130.471L130.49 76.8677ZM120.205 59.469C114.736 59.469 111.079 63.3413 111.079 68.445C111.079 73.5129 114.736 77.4209 120.205 77.4209C125.673 77.4209 129.331 73.5129 129.331 68.445C129.349 63.3413 125.673 59.469 120.205 59.469ZM120.168 73.6021C117.688 73.6021 116.366 71.55 116.366 68.445C116.366 65.3042 117.67 63.2878 120.168 63.2878C122.649 63.2878 124.025 65.3042 124.025 68.445C124.043 71.55 122.667 73.6021 120.168 73.6021ZM96.1584 76.8677H110.861V72.7991H102.532V72.692L110.499 63.8945V59.9151H96.1584V64.0016H104.216V64.1086L96.1584 72.9776V76.8677ZM89.4407 76.8677H94.7098V59.9329H89.4407V76.8677ZM77.2184 76.8677H82.4694V69.0874C82.4694 65.5541 84.6242 63.9837 87.9016 64.4299H88.0102V59.9686C87.7386 59.8616 87.4308 59.8437 86.9419 59.8437C84.8958 59.8437 83.5196 60.7716 82.3427 62.7524H82.234V59.9329H77.2184V76.8677ZM67.5854 73.62C65.2677 73.62 63.8553 72.1388 63.5837 69.8547H75.969C76.0052 66.2143 75.0274 63.3056 72.9813 61.4854C71.5327 60.1649 69.6315 59.4333 67.2051 59.4333C62.0265 59.4333 58.4413 63.3056 58.4413 68.3736C58.4413 73.4772 61.8635 77.3674 67.5492 77.3674C69.7039 77.3674 71.406 76.7964 72.8183 75.8506C74.3212 74.8334 75.4076 73.3344 75.6974 71.8533H70.6636C70.1747 72.9597 69.1245 73.62 67.5854 73.62ZM67.3138 63.1272C69.1607 63.1272 70.4282 64.4834 70.6455 66.4642H63.6199C64.0364 64.4655 65.1409 63.1272 67.3138 63.1272ZM47.9754 76.8677H53.4799L59.4553 59.9329H54.1861L50.8363 70.8183H50.7638L47.414 59.9329H42L47.9754 76.8677ZM89.4407 53.9014H94.7098V58.5053H89.4407V53.9014Z" fill="black"/>
</svg>
