<svg width="204" height="141" viewBox="0 0 204 141" fill="none" xmlns="http://www.w3.org/2000/svg">
<rect y="0.44043" width="204" height="140" rx="16" fill="white"/>
<path d="M78.8816 100.266H73.3594V78.3525H78.8816V100.266Z" fill="#C4122E"/>
<path d="M123.409 84.6313C123.182 84.5157 121.405 83.4613 118.763 83.4613C115.193 83.4613 112.716 85.9485 112.716 89.3062C112.716 92.5624 115.086 95.1565 118.763 95.1565C121.359 95.1565 123.166 94.123 123.409 93.9934V99.8751C122.716 100.068 120.829 100.655 118.377 100.655C112.165 100.655 106.713 96.3668 106.713 89.3045C106.713 82.7625 111.646 77.9631 118.377 77.9631C120.965 77.9631 122.886 78.5938 123.409 78.7496V84.6313ZM65.7681 84.6313C65.546 84.5157 63.7705 83.4613 61.1293 83.4613C57.5522 83.4613 55.0771 85.9485 55.0771 89.3062C55.0771 92.5624 57.449 95.1565 61.1293 95.1565C63.725 95.1565 65.5302 94.123 65.7681 93.9934V99.8751C65.0824 100.068 63.1968 100.655 60.7304 100.655C54.5243 100.655 49.0791 96.3668 49.0791 89.3045C49.0791 82.7625 54.0118 77.9631 60.7322 77.9631C63.3315 77.9631 65.2486 78.5938 65.7681 78.7496V84.6313ZM140.78 83.5436C137.504 83.5436 135.071 86.1254 135.071 89.3062C135.071 92.494 137.504 95.0741 140.78 95.0741C144.053 95.0741 146.493 92.494 146.493 89.3062C146.493 86.1254 144.053 83.5436 140.78 83.5436ZM152.344 89.3062C152.344 95.575 147.511 100.655 140.782 100.655C134.049 100.655 129.223 95.5751 129.223 89.3045C129.223 83.048 134.051 77.9631 140.78 77.9631C147.511 77.9631 152.344 83.0479 152.344 89.3062ZM99.823 83.3335C99.7408 83.3072 97.4161 82.6643 95.506 82.6643C93.2933 82.6643 92.0899 83.407 92.0899 84.4597C92.0899 85.7944 93.7131 86.2602 94.621 86.5475L96.1445 87.0328C99.7303 88.1748 101.362 90.6322 101.362 93.3015C101.362 98.8067 96.5276 100.656 92.3015 100.656C89.3646 100.656 86.6132 100.113 86.342 100.057V95.0128C86.8283 95.1354 89.1442 95.829 91.5564 95.829C94.3044 95.829 95.5673 95.0233 95.5673 93.7832C95.5673 92.6728 94.474 92.0316 93.1044 91.6007C92.7721 91.4887 92.2683 91.331 91.9255 91.2189C88.8504 90.245 86.2861 88.434 86.2861 84.8082C86.2861 80.7096 89.3506 77.9579 94.4408 77.9579C97.1293 77.9579 99.6586 78.6112 99.823 78.655V83.3317V83.3335Z" fill="#C4122E"/>
<path d="M43.2225 54.8028C43.2225 53.293 41.991 52.0686 40.4815 52.0686C38.9719 52.0686 37.7388 53.2929 37.7388 54.801V60.5549C37.7568 61.271 38.0536 61.9518 38.5659 62.4519C39.0781 62.9521 39.7652 63.2319 40.4806 63.2319C41.1961 63.2319 41.8832 62.9521 42.3954 62.4519C42.9076 61.9518 43.2044 61.271 43.2225 60.5549V54.8028ZM58.2812 47.2536C58.2812 46.5254 57.9924 45.8271 57.4782 45.3122C56.964 44.7973 56.2666 44.508 55.5394 44.508C54.8122 44.508 54.1148 44.7973 53.6006 45.3122C53.0864 45.8271 52.7975 46.5254 52.7975 47.2536V60.5549C52.7975 61.2831 53.0864 61.9814 53.6006 62.4963C54.1148 63.0112 54.8122 63.3005 55.5394 63.3005C56.2666 63.3005 56.964 63.0112 57.4782 62.4963C57.9924 61.9814 58.2812 61.2831 58.2812 60.5549V47.2518V47.2536ZM73.3417 36.9229C73.3417 35.4131 72.1103 34.187 70.6008 34.187C69.0895 34.187 67.858 35.4131 67.858 36.9229V66.0214C67.8761 66.7376 68.1729 67.4184 68.6851 67.9185C69.1974 68.4186 69.8845 68.6986 70.5999 68.6986C71.3153 68.6986 72.0024 68.4186 72.5146 67.9185C73.0269 67.4184 73.3237 66.7376 73.3417 66.0214V36.9229ZM88.4005 47.2536C88.4005 46.5254 88.1116 45.8271 87.5974 45.3122C87.0832 44.7973 86.3858 44.508 85.6586 44.508C84.9314 44.508 84.234 44.7973 83.7198 45.3122C83.2057 45.8271 82.9168 46.5254 82.9168 47.2536V60.5549C82.9168 61.2831 83.2057 61.9814 83.7198 62.4963C84.234 63.0112 84.9314 63.3005 85.6586 63.3005C86.3858 63.3005 87.0832 63.0112 87.5974 62.4963C88.1116 61.9814 88.4005 61.2831 88.4005 60.5549V47.2518V47.2536ZM103.443 54.8028C103.444 54.0784 103.157 53.3835 102.646 52.8708C102.135 52.3581 101.442 52.0695 100.718 52.0686C99.9933 52.0681 99.2977 52.3555 98.7839 52.8677C98.2701 53.3799 97.9801 54.075 97.9773 54.801V60.5549C97.9773 61.2807 98.2652 61.9769 98.7778 62.4901C99.2903 63.0034 99.9855 63.2917 100.71 63.2917C101.435 63.2917 102.13 63.0034 102.643 62.4901C103.156 61.9769 103.443 61.2807 103.443 60.5549V54.8028ZM118.509 47.2536C118.491 46.5397 118.195 45.8612 117.685 45.3626C117.174 44.8641 116.489 44.5851 115.776 44.5851C115.063 44.5851 114.378 44.8641 113.868 45.3626C113.357 45.8612 113.061 46.5397 113.043 47.2536V60.5549C113.043 61.2807 113.331 61.9769 113.844 62.4901C114.356 63.0034 115.051 63.2917 115.776 63.2917C116.501 63.2917 117.196 63.0034 117.709 62.4901C118.221 61.9769 118.509 61.2807 118.509 60.5549V47.2518V47.2536ZM133.578 36.9229C133.578 36.1971 133.291 35.501 132.778 34.9877C132.265 34.4745 131.57 34.1861 130.845 34.1861C130.121 34.1861 129.425 34.4745 128.913 34.9877C128.4 35.501 128.112 36.1971 128.112 36.9229V66.0214C128.096 66.3909 128.155 66.7598 128.285 67.106C128.415 67.4522 128.614 67.7684 128.869 68.0356C129.124 68.3027 129.431 68.5154 129.771 68.6606C130.111 68.8059 130.476 68.8809 130.845 68.8809C131.215 68.8809 131.58 68.8059 131.92 68.6606C132.26 68.5154 132.566 68.3027 132.822 68.0356C133.077 67.7684 133.276 67.4522 133.406 67.106C133.536 66.7598 133.595 66.3909 133.578 66.0214V36.9229ZM148.644 47.2536C148.644 45.742 147.422 44.5141 145.877 44.5141C145.152 44.5146 144.457 44.8032 143.945 45.3166C143.433 45.8299 143.145 46.526 143.145 47.2518V60.5549C143.145 62.0735 144.369 63.2978 145.877 63.2978C147.422 63.2978 148.644 62.0735 148.644 60.5549V47.2518V47.2536ZM163.682 54.8028C163.682 54.0763 163.394 53.3794 162.881 52.8657C162.368 52.3519 161.672 52.0633 160.946 52.0633C160.221 52.0633 159.525 52.3519 159.012 52.8657C158.499 53.3794 158.211 54.0763 158.211 54.8028V60.5549C158.211 62.0735 159.437 63.2995 160.946 63.2995C162.454 63.2995 163.68 62.0735 163.68 60.5549V54.8028H163.682Z" fill="#15495D"/>
<path d="M160.521 97.3789V97.7222H159.545V100.264H159.143V97.724H158.164V97.3789H160.521ZM160.726 97.3789H161.354L162.216 99.7453H162.23L163.065 97.3806H163.68V100.264H163.269V97.8991H163.255L162.381 100.264H162.001L161.148 97.8991H161.128V100.264H160.726V97.3789Z" fill="#C4122E"/>
</svg>
