<svg width="204" height="141" viewBox="0 0 204 141" fill="none" xmlns="http://www.w3.org/2000/svg">
<rect y="0.44043" width="204" height="140" rx="16" fill="white"/>
<path d="M40.989 55.6419C40.989 55.7329 36.9821 66.9238 32.0645 80.5258C27.1469 94.1277 22.6392 106.683 22.0473 108.367L21 111.46L26.9648 111.323L32.8841 111.187L33.7037 109.14C34.1135 108.003 36.4812 101.497 38.94 94.6736C41.3988 87.8499 43.4477 82.3454 43.4933 82.3909C43.5843 82.4819 43.2656 88.2593 42.7647 95.265C42.3094 102.271 41.8996 108.776 41.8996 109.686V111.414H47.7734C52.9186 111.414 53.6926 111.323 53.9658 110.596C54.1024 110.186 58.5647 97.858 63.801 83.3007C69.0828 68.698 73.4995 56.4608 73.6361 56.0968C73.8637 55.5509 72.9531 55.46 67.8534 55.5509L61.843 55.6874L59.6119 61.8288C58.3825 65.1951 56.1059 71.5185 54.5578 75.8401C53.0552 80.1618 51.6892 83.6192 51.5981 83.4827C51.416 83.3007 52.4633 65.3771 53.1007 58.5079L53.3739 55.46H47.1814C43.7665 55.46 40.989 55.5509 40.989 55.6419Z" fill="black"/>
<path d="M75.8216 56.2339C75.685 56.6888 71.2683 68.926 66.032 83.4378C60.7957 97.9496 56.379 110.187 56.2424 110.596C55.9237 111.37 56.4246 111.415 63.1179 111.415H70.3577L80.0562 84.4386C85.3835 69.6539 89.8458 57.0527 90.0279 56.4613L90.2556 55.4605H83.1979C76.9144 55.4605 76.0948 55.5515 75.8216 56.2339Z" fill="black"/>
<path d="M92.3959 56.6888C90.5746 61.4199 72.8623 110.778 72.8623 111.142C72.8623 111.279 76.0496 111.37 80.011 111.324L87.1141 111.188L91.0299 100.27C93.17 94.2648 94.9913 89.7611 95.0824 90.2615C95.1279 90.7619 94.8092 95.7205 94.3539 101.27L93.5343 111.415H100.683H107.786L108.105 108.777C108.241 107.366 108.788 100.452 109.334 93.4459L110.29 80.7083L117.849 69.3354C121.992 63.0576 125.772 57.4167 126.272 56.6888L127.092 55.4605H120.581H114.07L107.058 65.9236C103.187 71.701 99.9544 76.2956 99.8633 76.2501C99.7723 76.1592 101.366 71.519 103.369 65.9691C105.373 60.4191 107.012 55.779 107.012 55.688C107.012 55.5515 103.825 55.4605 99.9544 55.4605H92.8968L92.3959 56.6888Z" fill="black"/>
<path d="M126.91 59.8731C125.999 62.3296 121.582 74.5668 117.075 87.077C112.567 99.5871 108.742 110.187 108.605 110.642C108.287 111.369 108.97 111.415 120.717 111.324L133.148 111.187L134.878 106.411C135.834 103.772 136.745 101.316 136.881 100.861C137.064 100.224 136.563 100.133 132.191 100.179C129.505 100.179 127.274 99.9965 127.183 99.7691C127.092 99.5416 127.911 96.9031 129.004 93.9007L131.008 88.4417L135.789 88.3052L140.615 88.1688L142.482 82.9372C143.529 80.0713 144.349 77.4783 144.349 77.2508C144.349 77.0234 142.3 76.8414 139.795 76.8414C137.291 76.8414 135.242 76.7504 135.242 76.6594C135.242 76.5684 135.743 75.0672 136.381 73.384C137.018 71.6554 137.838 69.3808 138.247 68.289L138.976 66.3783H144.167C147.035 66.3783 149.357 66.3329 149.357 66.2419C149.357 66.1509 150.177 63.8763 151.179 61.1013C152.18 58.3718 153 56.0063 153 55.7788C153 55.5969 147.491 55.4604 140.752 55.4604H128.503L126.91 59.8731Z" fill="black"/>
</svg>
