<svg width="62" height="43" viewBox="0 0 62 43" fill="none" xmlns="http://www.w3.org/2000/svg">
<rect width="62" height="43" rx="4" fill="white"/>
<path d="M17.0573 13.0552C17.0573 13.0829 15.843 16.4801 14.3529 20.6093C12.8627 24.7384 11.4967 28.55 11.3174 29.0609L11 30L12.8075 29.9586L14.6012 29.9171L14.8496 29.2957C14.9738 28.9504 15.6913 26.9756 16.4364 24.9041C17.1814 22.8327 17.8023 21.1617 17.8161 21.1755C17.8437 21.2031 17.7472 22.9569 17.5954 25.0837C17.4574 27.2104 17.3332 29.1852 17.3332 29.4614V29.9862H19.1131C20.6723 29.9862 20.9069 29.9586 20.9897 29.7376C21.031 29.6133 22.3832 25.8708 23.97 21.4517C25.5705 17.0187 26.9089 13.3038 26.9503 13.1933C27.0193 13.0276 26.7434 13 25.198 13.0276L23.3767 13.0691L22.7006 14.9334C22.328 15.9553 21.6382 17.8749 21.169 19.1868C20.7137 20.4988 20.2998 21.5483 20.2722 21.5069C20.217 21.4517 20.5343 16.0106 20.7275 13.9253L20.8103 13H18.9338C17.8989 13 17.0573 13.0276 17.0573 13.0552Z" fill="black"/>
<path d="M27.6128 13.2349C27.5714 13.373 26.233 17.0879 24.6463 21.4932C23.0595 25.8986 21.7211 29.6135 21.6797 29.7377C21.5832 29.9725 21.7349 29.9863 23.7632 29.9863H25.9571L28.896 21.7971C30.5104 17.3088 31.8626 13.4835 31.9177 13.304L31.9867 13.0001H29.8481C27.944 13.0001 27.6956 13.0278 27.6128 13.2349Z" fill="black"/>
<path d="M32.6351 13.373C32.0832 14.8092 26.7158 29.793 26.7158 29.9035C26.7158 29.9449 27.6817 29.9725 28.8821 29.9587L31.0346 29.9173L32.2212 26.6029C32.8697 24.78 33.4216 23.4128 33.4492 23.5647C33.463 23.7166 33.3664 25.2219 33.2284 26.9067L32.98 29.9863H35.1463H37.2988L37.3954 29.1854C37.4368 28.7572 37.6023 26.6581 37.7679 24.5314L38.0577 20.6646L40.3481 17.2122C41.6037 15.3064 42.7489 13.594 42.9007 13.373L43.1491 13.0001H41.176H39.2029L37.078 16.1764C35.9052 17.9303 34.9255 19.3251 34.898 19.3113C34.8704 19.2836 35.3533 17.875 35.9604 16.1902C36.5675 14.5054 37.0642 13.0968 37.0642 13.0692C37.0642 13.0278 36.0984 13.0001 34.9255 13.0001H32.7869L32.6351 13.373Z" fill="black"/>
<path d="M43.0939 14.3393C42.8179 15.085 41.4795 18.7999 40.1135 22.5976C38.7475 26.3953 37.5885 29.613 37.5471 29.7511C37.4505 29.9721 37.6575 29.9859 41.2174 29.9583L44.9842 29.9169L45.5085 28.4668C45.7982 27.6658 46.0742 26.9201 46.1156 26.782C46.1708 26.5887 46.019 26.561 44.6944 26.5749C43.8803 26.5749 43.2043 26.5196 43.1767 26.4506C43.1491 26.3815 43.3974 25.5805 43.7286 24.6691L44.3357 23.0119L45.7845 22.9705L47.247 22.929L47.8127 21.3409C48.1301 20.4709 48.3784 19.6837 48.3784 19.6147C48.3784 19.5456 47.7575 19.4904 46.9987 19.4904C46.2398 19.4904 45.6189 19.4628 45.6189 19.4351C45.6189 19.4075 45.7707 18.9518 45.9638 18.4408C46.157 17.916 46.4054 17.2255 46.5295 16.8941L46.7503 16.3141H48.3233C49.1925 16.3141 49.8962 16.3003 49.8962 16.2727C49.8962 16.245 50.1446 15.5545 50.4481 14.7121C50.7517 13.8835 51 13.1654 51 13.0964C51 13.0411 49.3305 12.9997 47.2884 12.9997H43.5768L43.0939 14.3393Z" fill="black"/>
</svg>
