<svg width="220" height="164" viewBox="0 0 220 164" fill="none" xmlns="http://www.w3.org/2000/svg">
<path d="M220 143.682H0V143.792H220V143.682Z" fill="#EEEEEE"/>
<path d="M197.956 150.72H183.383V150.83H197.956V150.72Z" fill="#EEEEEE"/>
<path d="M164.969 149.242H139.458V149.352H164.969V149.242Z" fill="#EEEEEE"/>
<path d="M182.943 146.661H159.135V146.771H182.943V146.661Z" fill="#EEEEEE"/>
<path d="M29.6429 147.396H23.0825V147.506H29.6429V147.396Z" fill="#EEEEEE"/>
<path d="M61.8946 147.396H33.5586V147.506H61.8946V147.396Z" fill="#EEEEEE"/>
<path d="M99.0661 149.242H80.0801V149.352H99.0661V149.242Z" fill="#EEEEEE"/>
<path d="M104.28 124.168H19.3205C18.6549 124.167 18.017 123.903 17.5468 123.435C17.0766 122.967 16.8125 122.332 16.8125 121.67V2.91578C16.8183 2.25777 17.0849 1.62861 17.5545 1.16495C18.0241 0.701287 18.6587 0.44058 19.3205 0.439453H104.28C104.946 0.439453 105.585 0.702656 106.057 1.17116C106.528 1.63966 106.793 2.27509 106.793 2.93765V121.67C106.793 122.333 106.528 122.968 106.057 123.437C105.585 123.905 104.946 124.168 104.28 124.168ZM19.3205 0.526956C18.6841 0.528115 18.0742 0.780305 17.6246 1.22817C17.175 1.67604 16.9225 2.28298 16.9225 2.91578V121.67C16.9225 122.303 17.175 122.91 17.6246 123.358C18.0742 123.806 18.6841 124.058 19.3205 124.059H104.28C104.917 124.058 105.527 123.806 105.978 123.358C106.428 122.91 106.681 122.303 106.683 121.67V2.91578C106.681 2.28258 106.428 1.67564 105.978 1.2279C105.527 0.780162 104.917 0.528113 104.28 0.526956H19.3205Z" fill="#EEEEEE"/>
<path d="M199.456 124.168H114.492C113.826 124.167 113.188 123.904 112.717 123.435C112.246 122.967 111.981 122.332 111.98 121.67V2.91578C111.987 2.25737 112.255 1.62821 112.725 1.16467C113.195 0.701134 113.83 0.440568 114.492 0.439453H199.456C200.117 0.44173 200.751 0.702945 201.22 1.16648C201.688 1.63002 201.954 2.25853 201.96 2.91578V121.67C201.96 122.331 201.696 122.965 201.227 123.433C200.758 123.902 200.121 124.166 199.456 124.168ZM114.492 0.526956C113.856 0.528113 113.245 0.780162 112.795 1.2279C112.345 1.67564 112.091 2.28258 112.09 2.91578V121.67C112.091 122.303 112.345 122.91 112.795 123.358C113.245 123.806 113.856 124.058 114.492 124.059H199.456C200.093 124.058 200.704 123.806 201.154 123.358C201.604 122.91 201.858 122.303 201.859 121.67V2.91578C201.858 2.28258 201.604 1.67564 201.154 1.2279C200.704 0.780162 200.093 0.528113 199.456 0.526956H114.492Z" fill="#EEEEEE"/>
<path d="M97.0197 13.084H28.4941V76.1428H97.0197V13.084Z" fill="#EEEEEE"/>
<path d="M98.6659 13.084H29.2646V76.1428H98.6659V13.084Z" fill="#EEEEEE"/>
<path d="M96.3643 73.5685V15.6592L31.5743 15.6592V73.5685H96.3643Z" fill="white"/>
<path d="M69.4367 73.5685L57.9967 15.6592H42.9971L54.4371 73.5685H69.4367Z" fill="white"/>
<path d="M52.1047 73.5685L40.6603 15.6592H33.8843L45.3287 73.5685H52.1047Z" fill="white"/>
<path d="M88.198 73.5685L76.7536 15.6592H74.2676L85.7076 73.5685H88.198Z" fill="white"/>
<path d="M96.3643 73.5685V15.6592H96.0695V73.5685H96.3643Z" fill="#EEEEEE"/>
<path opacity="0.7" d="M26.7651 12.9831V45.2366H33.4135C33.4135 45.2366 45.3595 30.2211 48.0743 14.2825C48.1447 13.9005 48.1289 13.5076 48.0281 13.1324C47.9274 12.7571 47.7441 12.4088 47.4916 12.1125C47.239 11.8162 46.9235 11.5793 46.5678 11.4189C46.212 11.2585 45.8249 11.1786 45.4343 11.1849H28.5999C28.3602 11.1814 28.1222 11.2254 27.8998 11.3142C27.6773 11.403 27.4748 11.5349 27.3041 11.7022C27.1334 11.8695 26.9978 12.069 26.9053 12.2889C26.8127 12.5087 26.7651 12.7447 26.7651 12.9831Z" fill="#EEEEEE"/>
<path opacity="0.7" d="M26.7651 102.219V47.2539H33.4135C33.4135 47.2539 37.5539 92.7553 39.1335 102.219H26.7651Z" fill="#EEEEEE"/>
<path d="M33.2244 45.2354H27.0116C26.6446 45.2354 26.3472 45.5311 26.3472 45.896V46.5916C26.3472 46.9565 26.6446 47.2523 27.0116 47.2523H33.2244C33.5913 47.2523 33.8888 46.9565 33.8888 46.5916V45.896C33.8888 45.5311 33.5913 45.2354 33.2244 45.2354Z" fill="#EEEEEE"/>
<path opacity="0.7" d="M100.549 12.9828V45.2363H93.9004C93.9004 45.2363 81.9544 30.2208 79.2396 14.2822C79.1733 13.9007 79.1919 13.5094 79.2943 13.1358C79.3966 12.7623 79.5801 12.4156 79.8319 12.1202C80.0836 11.8248 80.3974 11.588 80.7512 11.4263C81.105 11.2647 81.4902 11.1822 81.8796 11.1846H98.758C99.2345 11.1892 99.69 11.3807 100.025 11.7174C100.361 12.0542 100.549 12.5089 100.549 12.9828Z" fill="#EEEEEE"/>
<path opacity="0.7" d="M100.549 102.219V47.2539H93.9007C93.9007 47.2539 89.7603 92.7553 88.1807 102.219H100.549Z" fill="#EEEEEE"/>
<path d="M94.094 47.2539H100.307C100.674 47.2539 100.971 46.9581 100.971 46.5933V45.8976C100.971 45.5327 100.674 45.237 100.307 45.237H94.094C93.7271 45.237 93.4296 45.5327 93.4296 45.8976V46.5933C93.4296 46.9581 93.7271 47.2539 94.094 47.2539Z" fill="#EEEEEE"/>
<path d="M168.678 21.7324H130.482V65.7682H168.678V21.7324Z" fill="#EEEEEE"/>
<path d="M171.341 21.7324H131.059V65.7682H171.341V21.7324Z" fill="#EEEEEE"/>
<path d="M167.97 62.4131V25.0889L134.437 25.0889V62.4131H167.97Z" fill="white"/>
<path d="M159.363 52.184H150.656C148.554 52.177 146.54 51.3421 145.055 49.862C143.571 48.3819 142.737 46.3772 142.736 44.2869V35.6329C142.736 35.5482 142.77 35.4669 142.83 35.407C142.89 35.3471 142.972 35.3135 143.057 35.3135H151.76C153.862 35.3146 155.879 36.144 157.367 37.62C158.856 39.096 159.695 41.0984 159.702 43.1887V51.8427C159.705 51.888 159.699 51.9334 159.683 51.976C159.667 52.0185 159.642 52.0572 159.61 52.0895C159.578 52.1218 159.54 52.1469 159.497 52.1632C159.455 52.1795 159.409 52.1866 159.363 52.184ZM143.365 35.9566V44.2694C143.363 45.2229 143.551 46.1675 143.916 47.049C144.282 47.9306 144.818 48.7319 145.495 49.4072C146.172 50.0825 146.977 50.6185 147.862 50.9846C148.748 51.3507 149.697 51.5397 150.656 51.5408H159.038V43.2281C159.036 41.3049 158.266 39.4612 156.899 38.1013C155.531 36.7414 153.677 35.9764 151.743 35.9741L143.365 35.9566Z" fill="#EEEEEE"/>
<path d="M126.535 82.3936H119.724V141.856H126.535V82.3936Z" fill="#EEEEEE"/>
<path d="M186.072 141.856H120.666V143.681H186.072V141.856Z" fill="#EEEEEE"/>
<path d="M126.54 141.856H187.018V82.394H126.54V141.856Z" fill="white"/>
<path d="M181.72 118.642H131.824V105.613H181.72V118.642ZM132.26 118.205H181.28V106.051H132.264L132.26 118.205Z" fill="#EEEEEE"/>
<path d="M181.72 134.848H131.824V121.818H181.72V134.848ZM132.26 134.41H181.28V122.256H132.264L132.26 134.41Z" fill="#EEEEEE"/>
<path d="M162.329 110.941H151.224C150.802 110.941 150.398 110.775 150.1 110.478C149.803 110.182 149.635 109.781 149.635 109.362C149.635 108.943 149.803 108.541 150.1 108.245C150.398 107.949 150.802 107.782 151.224 107.782H162.329C162.751 107.782 163.155 107.949 163.452 108.245C163.75 108.541 163.918 108.943 163.918 109.362C163.918 109.781 163.75 110.182 163.452 110.478C163.155 110.775 162.751 110.941 162.329 110.941ZM151.224 108.22C150.919 108.22 150.627 108.34 150.412 108.554C150.196 108.768 150.075 109.059 150.075 109.362C150.075 109.664 150.196 109.955 150.412 110.169C150.627 110.383 150.919 110.504 151.224 110.504H162.329C162.634 110.504 162.926 110.383 163.141 110.169C163.357 109.955 163.478 109.664 163.478 109.362C163.478 109.059 163.357 108.768 163.141 108.554C162.926 108.34 162.634 108.22 162.329 108.22H151.224Z" fill="#EEEEEE"/>
<path d="M181.72 102.437H131.824V89.4082H181.72V102.437ZM132.26 102H181.28V89.8457H132.264L132.26 102Z" fill="#EEEEEE"/>
<path d="M162.329 94.737H151.224C150.802 94.737 150.398 94.5706 150.1 94.2744C149.803 93.9782 149.635 93.5764 149.635 93.1576C149.635 92.7387 149.803 92.3369 150.1 92.0407C150.398 91.7445 150.802 91.5781 151.224 91.5781H162.329C162.751 91.5781 163.155 91.7445 163.452 92.0407C163.75 92.3369 163.918 92.7387 163.918 93.1576C163.918 93.5764 163.75 93.9782 163.452 94.2744C163.155 94.5706 162.751 94.737 162.329 94.737ZM151.224 92.0156C150.919 92.0156 150.627 92.136 150.412 92.3501C150.196 92.5643 150.075 92.8547 150.075 93.1576C150.075 93.4604 150.196 93.7508 150.412 93.965C150.627 94.1791 150.919 94.2995 151.224 94.2995H162.329C162.634 94.2995 162.926 94.1791 163.141 93.965C163.357 93.7508 163.478 93.4604 163.478 93.1576C163.478 92.8547 163.357 92.5643 163.141 92.3501C162.926 92.136 162.634 92.0156 162.329 92.0156H151.224Z" fill="#EEEEEE"/>
<path d="M162.329 127.148H151.224C150.802 127.148 150.398 126.982 150.1 126.685C149.803 126.389 149.635 125.988 149.635 125.569C149.635 125.15 149.803 124.748 150.1 124.452C150.398 124.156 150.802 123.989 151.224 123.989H162.329C162.751 123.989 163.155 124.156 163.452 124.452C163.75 124.748 163.918 125.15 163.918 125.569C163.918 125.988 163.75 126.389 163.452 126.685C163.155 126.982 162.751 127.148 162.329 127.148ZM151.224 124.427C150.919 124.427 150.627 124.547 150.412 124.761C150.196 124.975 150.075 125.266 150.075 125.569C150.075 125.872 150.196 126.162 150.412 126.376C150.627 126.59 150.919 126.711 151.224 126.711H162.329C162.634 126.711 162.926 126.59 163.141 126.376C163.357 126.162 163.478 125.872 163.478 125.569C163.478 125.266 163.357 124.975 163.141 124.761C162.926 124.547 162.634 124.427 162.329 124.427H151.224Z" fill="#EEEEEE"/>
<path d="M188.258 80.7021H126.535V82.3997H188.258V80.7021Z" fill="#EEEEEE"/>
<path d="M118.391 82.3936H126.535V80.696H118.391V82.3936Z" fill="#EEEEEE"/>
<path d="M110 163.439C157.116 163.439 195.312 161.221 195.312 158.486C195.312 155.751 157.116 153.533 110 153.533C62.8838 153.533 24.6885 155.751 24.6885 158.486C24.6885 161.221 62.8838 163.439 110 163.439Z" fill="white"/>
<path d="M72.8642 38.9893C72.9478 38.0223 77.1366 34.4566 81.5102 36.9461C85.8838 39.4355 82.7202 46.9607 87.4766 47.6914C84.3966 50.754 74.3646 54.4947 71.2802 50.9815C68.1958 47.4683 67.7998 37.6286 72.8642 38.9893Z" fill="#263238"/>
<path d="M90.4815 63.2529C90.5959 64.8717 90.7675 66.5868 90.9963 68.2231C91.2011 69.8355 91.5306 71.4299 91.9819 72.992C92.0347 73.1801 92.1007 73.3595 92.1623 73.5345L92.3295 73.9983C92.3639 74.099 92.4144 74.1935 92.4791 74.2783C92.5803 74.427 93.1655 74.5626 93.8519 74.4751C95.4201 74.2096 96.9418 73.7219 98.3707 73.027L99.4883 74.6589C99.1329 74.9697 98.7613 75.2618 98.3751 75.5339C97.9967 75.8052 97.6095 76.0677 97.2003 76.3039C96.3515 76.8208 95.437 77.2225 94.4811 77.4984C93.9279 77.6522 93.3571 77.7345 92.7827 77.7434C92.0702 77.7487 91.3674 77.5788 90.7367 77.249C90.0554 76.8775 89.4962 76.3185 89.1263 75.6389L89.0075 75.4071L88.9327 75.2408L88.7787 74.8995C88.6731 74.6764 88.5719 74.462 88.4927 74.2258C87.8351 72.4823 87.3531 70.6782 87.0539 68.84C86.7469 67.0543 86.5543 65.251 86.4775 63.4411L90.4815 63.2529Z" fill="#FFC3BD"/>
<path d="M88.3299 58.905C91.8983 61.6175 91.7531 66.7365 91.7531 66.7365L85.3599 68.2546C85.3599 68.2546 83.4019 63.1095 84.1983 61.2238C85.0387 59.2593 86.3235 57.3737 88.3299 58.905Z" fill="#E42337"/>
<path d="M98.0233 73.4076L100.368 71.0713L101.631 74.7245C101.631 74.7245 99.6513 75.7877 97.7549 74.7814L98.0233 73.4076Z" fill="#FFC3BD"/>
<path d="M103.616 70.7139L104.047 73.5971L101.631 74.7215L100.369 71.0726L103.616 70.7139Z" fill="#FFC3BD"/>
<path d="M67.6543 155.452L71.2447 155.797L74.9803 147.305L71.3899 146.955L67.6543 155.452Z" fill="#FFC3BD"/>
<path d="M44.541 142.895L47.2338 145.41L53.055 139.053L50.3578 136.533L44.541 142.895Z" fill="#FFC3BD"/>
<path d="M48.4793 144.202L46.4553 140.575C46.4215 140.512 46.3657 140.463 46.2985 140.438C46.2312 140.413 46.1571 140.414 46.0901 140.439L42.9705 141.621C42.8933 141.653 42.8238 141.701 42.7666 141.762C42.7094 141.823 42.6657 141.895 42.6383 141.974C42.6109 142.053 42.6005 142.137 42.6077 142.22C42.6149 142.303 42.6396 142.383 42.6801 142.456C43.4105 143.707 43.8241 144.276 44.7173 145.873C45.2629 146.853 46.3321 149.106 47.0889 150.463C47.8457 151.819 49.2317 151.145 49.0381 150.515C48.1581 147.68 48.3385 146.105 48.5981 144.854C48.6381 144.629 48.596 144.398 48.4793 144.202Z" fill="#263238"/>
<path d="M71.72 154.694H67.32C67.2406 154.695 67.1635 154.721 67.1006 154.769C67.0378 154.817 66.9927 154.885 66.9724 154.961L66 158.431C65.9765 158.512 65.9727 158.598 65.9888 158.682C66.0049 158.765 66.0405 158.844 66.0928 158.911C66.145 158.978 66.2124 159.033 66.2895 159.069C66.3666 159.106 66.4513 159.124 66.5368 159.122C68.09 159.122 68.8248 159.122 70.7652 159.122H76.6876C78.298 159.122 78.6368 157.503 77.968 157.372C74.9804 156.716 73.26 155.81 72.336 154.944C72.1693 154.787 71.9495 154.698 71.72 154.694Z" fill="#263238"/>
<path opacity="0.2" d="M74.9758 147.309L73.053 151.684H69.3086L71.3854 146.959L74.9758 147.309Z" fill="black"/>
<path opacity="0.2" d="M50.3582 136.537L53.051 139.053L50.0502 142.33L47.3574 139.814L50.3582 136.537Z" fill="black"/>
<path d="M87.2523 58.3762C87.2523 58.3762 88.8803 59.0675 83.4551 80.3744L68.4247 79.0837C69.2079 73.0198 69.5379 69.2703 67.7031 56.5343C69.8448 56.2826 72.0021 56.1861 74.1579 56.2455C76.4438 56.2808 78.7243 56.4767 80.9823 56.8318C83.097 57.2418 85.1897 57.7573 87.2523 58.3762Z" fill="#E42337"/>
<path d="M76.846 63.8009C76.8332 63.8052 76.8192 63.8052 76.8064 63.8009C73.5548 61.1408 71.5264 57.0369 72.1776 56.07C72.1859 56.0562 72.1992 56.0461 72.2149 56.0421C72.2305 56.038 72.2472 56.0402 72.2612 56.0482C72.2754 56.0572 72.2856 56.0713 72.2897 56.0875C72.2938 56.1038 72.2915 56.121 72.2832 56.1357C71.6936 57.0413 73.7088 61.0708 76.8152 63.6434C77.5984 61.2939 78.9316 60.3533 78.9448 60.3445C78.9587 60.3384 78.9744 60.3372 78.9891 60.3412C79.0038 60.3453 79.0166 60.3542 79.0254 60.3666C79.0342 60.3789 79.0385 60.394 79.0374 60.4091C79.0364 60.4242 79.0301 60.4385 79.0196 60.4495C79.0196 60.4495 77.6732 61.3989 76.9032 63.7703C76.9002 63.7795 76.895 63.7878 76.8882 63.7947C76.8813 63.8015 76.8729 63.8066 76.8636 63.8096L76.846 63.8009Z" fill="white"/>
<path d="M82.0469 63.9451C82.0361 63.9429 82.0262 63.9375 82.0184 63.9297C82.0105 63.922 82.0052 63.9121 82.0029 63.9014C81.3209 61.4601 79.9613 60.4888 79.9481 60.48C79.9381 60.4676 79.9326 60.4522 79.9326 60.4363C79.9326 60.4204 79.9381 60.405 79.9481 60.3925C79.9602 60.3818 79.9758 60.3758 79.9921 60.3758C80.0083 60.3758 80.024 60.3818 80.0361 60.3925C80.0361 60.3925 81.4045 61.3682 82.1085 63.7701C83.7409 61.7795 82.8125 57.995 82.1789 57.0237C82.1706 57.0091 82.1683 56.9919 82.1723 56.9756C82.1764 56.9593 82.1866 56.9452 82.2009 56.9362C82.2122 56.9257 82.2272 56.9199 82.2427 56.9199C82.2582 56.9199 82.2731 56.9257 82.2845 56.9362C82.9401 57.9468 83.9037 61.9107 82.1261 63.9364C82.1153 63.9456 82.102 63.9514 82.0878 63.953C82.0737 63.9546 82.0594 63.9518 82.0469 63.9451Z" fill="white"/>
<path d="M75.4997 48.6621C75.7373 50.8803 75.8209 54.9186 74.1577 56.2442C75.774 57.7348 77.5785 59.0099 79.5257 60.0375C82.1393 58.2437 80.9821 56.8305 80.9821 56.8305C78.5841 56.0386 78.7821 54.2404 79.3805 52.5779L75.4997 48.6621Z" fill="#FFC3BD"/>
<path opacity="0.2" d="M77.0795 50.2598L79.3763 52.5786C79.2373 52.9639 79.1328 53.3607 79.0639 53.7643C78.1399 53.5499 76.8023 52.5961 76.7847 51.6117C76.8043 51.1476 76.904 50.6903 77.0795 50.2598Z" fill="black"/>
<path d="M73.5327 45.1931C74.4655 48.7413 74.7823 50.2595 76.9691 51.7558C80.2603 53.9915 84.4491 52.0796 84.5943 48.3257C84.7307 44.9481 83.1863 39.7154 79.3671 38.976C78.5271 38.8098 77.6582 38.8597 76.8429 39.121C76.0277 39.3822 75.2931 39.8462 74.7087 40.4689C74.1243 41.0916 73.7096 41.8524 73.5038 42.6792C73.298 43.5059 73.3079 44.3712 73.5327 45.1931Z" fill="#FFC3BD"/>
<path d="M74.5491 47.8485C75.7591 49.5986 78.9139 39.1726 74.8263 39.5008C70.7387 39.8289 71.2315 44.2434 74.5491 47.8485Z" fill="#263238"/>
<path d="M75.0904 40.0973C77.4532 41.2917 84.3304 42.7223 83.3888 40.8192C82.875 39.8644 82.1099 39.0665 81.1752 38.5109C80.2405 37.9552 79.1714 37.6627 78.0824 37.6647C75.8384 37.6297 73.0048 39.0472 75.0904 40.0973Z" fill="#263238"/>
<path d="M73.2383 48.1986C73.4022 48.5105 73.6266 48.7869 73.8985 49.0122C74.1703 49.2375 74.4843 49.407 74.8223 49.5112C75.7287 49.7824 76.1995 48.9818 75.9619 48.1243C75.7507 47.3499 75.0247 46.278 74.1095 46.3742C73.9093 46.4005 73.7189 46.4762 73.5557 46.5944C73.3925 46.7126 73.2617 46.8696 73.1751 47.0509C73.0885 47.2323 73.0489 47.4323 73.0599 47.6328C73.071 47.8332 73.1323 48.0278 73.2383 48.1986Z" fill="#FFC3BD"/>
<path d="M83.4549 80.3737C83.4549 80.3737 88.5413 102.744 85.1489 118.516C82.8741 129.078 74.6725 150.415 74.6725 150.415L68.2617 150.253C68.2617 150.253 74.4701 127.861 75.7417 119.054C77.9417 103.991 72.4417 79.4287 72.4417 79.4287L83.4549 80.3737Z" fill="#263238"/>
<path opacity="0.2" d="M77.5899 84.8799L74.3867 89.9113C75.3527 95.873 75.9654 101.886 76.2215 107.919C80.7271 99.8997 78.5931 89.1413 77.5899 84.8799Z" fill="black"/>
<path d="M75.5743 150.749L67.6543 150.547L68.1163 148.128L76.1947 148.509L75.5743 150.749Z" fill="#E42337"/>
<path d="M80.1679 80.1373C80.1679 80.1373 77.1847 103.859 70.7167 116.81C65.4939 127.275 51.5547 142.164 51.5547 142.164L47.9907 138.515C47.9907 138.515 57.4067 122.327 61.2875 115.379C70.8091 98.3423 63.0475 85.3394 68.4243 79.0654L80.1679 80.1373Z" fill="#263238"/>
<path d="M51.9159 142.653L47.3179 138.195L48.8447 136.13L53.7199 140.973L51.9159 142.653Z" fill="#E42337"/>
<path d="M68.2747 78.1857L67.4827 79.4632C67.4211 79.5639 67.5355 79.6776 67.7071 79.6951L83.4723 81.0514C83.6087 81.0514 83.7275 81.0033 83.7407 80.9202L83.9915 79.6076C83.9915 79.5157 83.8991 79.4282 83.7539 79.4151L68.5299 78.1026C68.4838 78.0938 68.4361 78.0968 68.3915 78.1114C68.3469 78.1259 68.3067 78.1515 68.2747 78.1857Z" fill="#E42337"/>
<path opacity="0.3" d="M68.2747 78.1857L67.4827 79.4632C67.4211 79.5639 67.5355 79.6776 67.7071 79.6951L83.4723 81.0514C83.6087 81.0514 83.7275 81.0033 83.7407 80.9202L83.9915 79.6076C83.9915 79.5157 83.8991 79.4282 83.7539 79.4151L68.5299 78.1026C68.4838 78.0938 68.4361 78.0968 68.3915 78.1114C68.3469 78.1259 68.3067 78.1515 68.2747 78.1857Z" fill="black"/>
<path d="M70.1715 80.0679L69.7667 80.0329C69.6831 80.0329 69.6259 79.976 69.6347 79.9279L69.9779 78.2041C69.9779 78.156 70.0615 78.121 70.1451 78.1254L70.5499 78.1604C70.6335 78.1604 70.6907 78.2173 70.6819 78.2654L70.3387 79.9892C70.3299 80.0242 70.2551 80.0679 70.1715 80.0679Z" fill="#263238"/>
<path d="M82.3154 81.0958L81.9062 81.0608C81.827 81.0608 81.7654 81.0083 81.7786 80.9558L82.1174 79.2363C82.1174 79.1838 82.2054 79.1488 82.2846 79.1576L82.6938 79.1926C82.773 79.1926 82.8302 79.2451 82.8214 79.2976L82.4782 81.017C82.4694 81.0695 82.3946 81.1045 82.3154 81.0958Z" fill="#263238"/>
<path d="M76.2433 80.5753L75.8341 80.5403C75.7549 80.5403 75.6977 80.4878 75.7065 80.4353L76.0497 78.7158C76.0497 78.6633 76.1333 78.6283 76.2125 78.6371L76.6217 78.6721C76.7053 78.6721 76.7625 78.7246 76.7537 78.7727L76.4105 80.4965C76.3949 80.5259 76.3702 80.5494 76.3401 80.5636C76.3099 80.5778 76.2759 80.5819 76.2433 80.5753Z" fill="#263238"/>
<path d="M79.5743 45.0662C79.6315 45.3593 79.8339 45.5649 80.0143 45.5256C80.1947 45.4862 80.3179 45.2237 80.2607 44.9305C80.2035 44.6374 80.0011 44.4318 79.8207 44.4668C79.6403 44.5018 79.5127 44.7774 79.5743 45.0662Z" fill="#263238"/>
<path d="M82.8963 44.4182C82.9535 44.7113 83.1559 44.9213 83.3363 44.882C83.5167 44.8426 83.6355 44.5757 83.5783 44.2826C83.5211 43.9894 83.3187 43.7838 83.1383 43.8232C82.9579 43.8626 82.8391 44.1295 82.8963 44.4182Z" fill="#263238"/>
<path d="M83.0586 43.8545L83.723 43.5176C83.723 43.5176 83.4678 44.1345 83.0586 43.8545Z" fill="#263238"/>
<path d="M81.752 45.1484C82.1432 45.7649 82.6169 46.3257 83.16 46.8154C83.031 46.9503 82.8741 47.0557 82.7001 47.1245C82.5262 47.1932 82.3393 47.2236 82.1524 47.2135L81.752 45.1484Z" fill="#ED847E"/>
<path d="M80.8017 48.6055C80.1822 48.6135 79.5827 48.3867 79.1253 47.9711C79.1114 47.9571 79.1035 47.9382 79.1035 47.9186C79.1035 47.8989 79.1114 47.88 79.1253 47.8661C79.1319 47.8593 79.1398 47.8539 79.1485 47.8503C79.1572 47.8466 79.1665 47.8447 79.1759 47.8447C79.1854 47.8447 79.1947 47.8466 79.2034 47.8503C79.2121 47.8539 79.22 47.8593 79.2265 47.8661C79.5085 48.1117 79.8444 48.2883 80.2073 48.3817C80.5702 48.4752 80.9501 48.4829 81.3165 48.4042C81.3358 48.4003 81.3558 48.4041 81.3723 48.4147C81.3887 48.4254 81.4003 48.442 81.4045 48.4611C81.4064 48.4703 81.4065 48.4798 81.4046 48.489C81.4027 48.4982 81.399 48.507 81.3937 48.5147C81.3883 48.5225 81.3815 48.5291 81.3735 48.5341C81.3656 48.5392 81.3567 48.5426 81.3473 48.5442C81.168 48.5827 80.9852 48.6032 80.8017 48.6055Z" fill="#263238"/>
<path d="M77.5764 43.9378C77.5518 43.9441 77.5261 43.9441 77.5016 43.9378C77.4849 43.9279 77.4704 43.9148 77.4589 43.8993C77.4474 43.8838 77.4392 43.8661 77.4346 43.8473C77.4301 43.8286 77.4294 43.8091 77.4326 43.7901C77.4358 43.771 77.4428 43.7528 77.4532 43.7365C77.5881 43.4998 77.7786 43.2989 78.0085 43.1512C78.2383 43.0034 78.5006 42.913 78.7732 42.8878C78.7922 42.8872 78.8112 42.8903 78.8291 42.8971C78.8469 42.9038 78.8633 42.9139 78.8771 42.9269C78.891 42.9399 78.9022 42.9555 78.9101 42.9728C78.9179 42.9901 78.9222 43.0088 78.9228 43.0278C78.9234 43.0467 78.9202 43.0656 78.9134 43.0834C78.9067 43.1011 78.8964 43.1173 78.8834 43.1312C78.8703 43.145 78.8546 43.1561 78.8372 43.1639C78.8198 43.1717 78.801 43.176 78.782 43.1765C78.5568 43.2007 78.3406 43.278 78.1516 43.4021C77.9626 43.5261 77.8061 43.6933 77.6952 43.8897C77.6804 43.9062 77.662 43.9191 77.6414 43.9275C77.6208 43.9358 77.5986 43.9394 77.5764 43.9378Z" fill="#263238"/>
<path d="M83.8201 42.7644C83.7955 42.7705 83.7698 42.7705 83.7453 42.7644C83.552 42.6489 83.3337 42.581 83.1086 42.5665C82.8836 42.5521 82.6583 42.5914 82.4517 42.6813C82.4171 42.6985 82.3772 42.7017 82.3403 42.6903C82.3034 42.6789 82.2723 42.6537 82.2537 42.62C82.2445 42.6031 82.2388 42.5846 82.237 42.5654C82.2351 42.5463 82.2371 42.527 82.2429 42.5087C82.2486 42.4904 82.258 42.4734 82.2704 42.4587C82.2828 42.444 82.2981 42.4319 82.3153 42.4231C82.5655 42.3107 82.8394 42.2599 83.1136 42.2751C83.3879 42.2903 83.6543 42.3711 83.8905 42.5106C83.9073 42.5198 83.9221 42.5321 83.9341 42.547C83.9461 42.5619 83.955 42.5789 83.9603 42.5972C83.9656 42.6155 83.9672 42.6347 83.9651 42.6536C83.9629 42.6726 83.957 42.6909 83.9477 42.7075C83.9327 42.7266 83.9132 42.7418 83.891 42.7517C83.8687 42.7616 83.8444 42.766 83.8201 42.7644Z" fill="#263238"/>
<path d="M69.8455 62.1291C69.2559 63.1004 68.6311 64.0979 68.0459 65.0955C67.4607 66.093 66.8579 67.0818 66.2859 68.0837C65.7139 69.0856 65.1815 70.0875 64.7283 71.085C64.6051 71.3344 64.5083 71.5794 64.3939 71.8244C64.2795 72.0694 64.2091 72.3013 64.1167 72.5419C64.0747 72.6509 64.0437 72.7638 64.0243 72.8788C64.0243 72.9357 64.0243 72.9182 63.9979 72.9095C63.9715 72.9007 64.0727 73.0757 64.4379 73.2288C64.8625 73.3967 65.3056 73.5142 65.7579 73.5789C66.8417 73.7344 67.9369 73.7974 69.0315 73.767C71.3444 73.7047 73.6521 73.5148 75.9439 73.1982L76.3839 75.1189C74.0462 75.8475 71.6473 76.3658 69.2163 76.6677C67.94 76.8319 66.6508 76.8744 65.3663 76.7946C64.6371 76.7476 63.917 76.6079 63.2235 76.3789C62.8 76.2358 62.3975 76.0371 62.0267 75.7883C61.5462 75.4737 61.1505 75.0468 60.8744 74.5449C60.5982 74.043 60.45 73.4815 60.4427 72.9095C60.4372 72.4344 60.5024 71.9611 60.6363 71.505C60.7331 71.1857 60.8255 70.8531 60.9311 70.5469C61.0367 70.2406 61.1423 69.9344 61.2611 69.6369C61.7275 68.4556 62.2423 67.3443 62.8011 66.2593C63.3599 65.1742 63.9363 64.1111 64.5347 63.0654C65.1331 62.0197 65.7579 61.0003 66.4487 59.9766L69.8455 62.1291Z" fill="#FFC3BD"/>
<path d="M75.0467 73.645L77.9815 72.1006L78.0915 75.3513C78.0915 75.3513 76.0411 76.0863 74.8267 75.1413L75.0467 73.645Z" fill="#FFC3BD"/>
<path d="M79.7678 72.3325L79.3278 75.2113L78.0914 75.3513L77.9771 72.1006L79.7678 72.3325Z" fill="#FFC3BD"/>
<path d="M67.7028 56.5332C65.8592 56.8788 63.2764 62.129 63.2764 62.129L68.9964 67.051C68.9964 67.051 71.6144 62.2996 71.4208 59.9108C71.2536 57.8676 70.048 56.1219 67.7028 56.5332Z" fill="#E42337"/>
<path d="M49.1918 146.153C49.1427 146.152 49.0938 146.145 49.0466 146.131C48.6066 145.982 48.3162 145.168 48.1666 144.7C48.1592 144.688 48.1553 144.675 48.1553 144.661C48.1553 144.647 48.1592 144.633 48.1666 144.621C48.1793 144.614 48.1937 144.61 48.2084 144.61C48.2231 144.61 48.2375 144.614 48.2502 144.621C48.3822 144.691 49.5702 145.317 49.5966 145.777C49.6023 145.827 49.5937 145.877 49.572 145.923C49.5502 145.969 49.5161 146.007 49.4734 146.035C49.3936 146.101 49.2955 146.142 49.1918 146.153ZM48.3734 144.84C48.5802 145.492 48.8442 145.921 49.095 146.004C49.1518 146.021 49.212 146.023 49.2699 146.01C49.3277 145.997 49.3812 145.969 49.425 145.93C49.4475 145.916 49.4657 145.897 49.4774 145.874C49.4891 145.85 49.4938 145.824 49.491 145.798C49.469 145.501 48.7782 145.055 48.3734 144.818V144.84Z" fill="#E42337"/>
<path d="M49.3726 145.013C48.9716 145.011 48.5761 144.92 48.2154 144.746C48.2045 144.739 48.1956 144.729 48.1895 144.717C48.1834 144.706 48.1802 144.693 48.1802 144.68C48.1809 144.668 48.185 144.655 48.1919 144.644C48.1989 144.634 48.2084 144.625 48.2198 144.619C48.2594 144.597 49.1922 144.085 49.6938 144.265C49.7556 144.285 49.8122 144.319 49.8594 144.363C49.9065 144.408 49.9431 144.462 49.9666 144.523C49.9979 144.581 50.0085 144.648 49.9965 144.714C49.9845 144.779 49.9507 144.838 49.9006 144.882C49.7444 144.983 49.5584 145.029 49.3726 145.013ZM48.4134 144.68C48.8138 144.851 49.5882 144.956 49.8082 144.772C49.8434 144.742 49.8786 144.689 49.8082 144.58C49.792 144.538 49.7672 144.501 49.7353 144.47C49.7034 144.439 49.6653 144.415 49.6234 144.4C49.3022 144.282 48.6818 144.553 48.4002 144.68H48.4134Z" fill="#E42337"/>
<path d="M73.6779 155.403C73.272 155.395 72.8681 155.345 72.4723 155.254C72.4574 155.25 72.444 155.242 72.4338 155.23C72.4236 155.219 72.4171 155.204 72.4151 155.189C72.4144 155.174 72.4182 155.158 72.426 155.145C72.4338 155.132 72.4453 155.121 72.4591 155.114C72.6395 155.031 74.2191 154.296 74.6591 154.568C74.696 154.592 74.7254 154.626 74.7441 154.667C74.7627 154.707 74.7698 154.751 74.7647 154.795C74.7614 154.875 74.7398 154.953 74.7017 155.024C74.6636 155.094 74.6099 155.155 74.5447 155.202C74.2848 155.359 73.9811 155.43 73.6779 155.403ZM72.7231 155.154C73.1983 155.246 74.0783 155.359 74.4391 155.088C74.4878 155.054 74.5276 155.009 74.5551 154.956C74.5827 154.904 74.5972 154.846 74.5975 154.786C74.5975 154.725 74.5975 154.703 74.5579 154.69C74.3335 154.537 73.3875 154.883 72.7231 155.154Z" fill="#E42337"/>
<path d="M72.4901 155.254C72.4746 155.26 72.4573 155.26 72.4417 155.254C72.4345 155.244 72.4307 155.231 72.4307 155.219C72.4307 155.206 72.4345 155.194 72.4417 155.184C72.4417 155.118 72.8201 153.548 73.6869 153.648C73.9025 153.674 73.9641 153.779 73.9729 153.867C74.0301 154.265 73.0225 155.07 72.5385 155.267L72.4901 155.254ZM73.5857 153.771C73.0313 153.771 72.7057 154.685 72.6001 155.048C73.1237 154.777 73.8409 154.125 73.8057 153.867C73.8057 153.867 73.8057 153.793 73.6473 153.775L73.5857 153.771Z" fill="#E42337"/>
<path d="M79.7324 44.5073L80.4012 44.166C80.4012 44.166 80.146 44.7873 79.7324 44.5073Z" fill="#263238"/>
<path d="M156.917 58.7031C156.895 59.005 156.869 59.2194 156.838 59.4688C156.807 59.7182 156.772 59.9413 156.733 60.1732C156.653 60.6413 156.561 61.1007 156.46 61.5601C156.254 62.4755 156 63.3795 155.699 64.2683C155.085 66.0648 154.251 67.7795 153.217 69.3741L152.812 69.9691L152.711 70.1135L152.649 70.201L152.557 70.3235C152.423 70.4813 152.276 70.6277 152.117 70.761C151.6 71.2234 150.982 71.5617 150.313 71.7498C149.286 72.0245 148.218 72.1178 147.158 72.0254C145.286 71.8718 143.446 71.4534 141.693 70.7829L142.169 68.8972C143.823 69.0653 145.489 69.0989 147.149 68.9978C147.851 68.9582 148.543 68.8106 149.2 68.5603C149.37 68.4903 149.521 68.3808 149.64 68.2409C149.591 68.3066 149.886 67.8034 150.08 67.4884C150.849 66.0755 151.47 64.5874 151.932 63.0476C152.17 62.2689 152.372 61.4813 152.548 60.6938C152.636 60.2957 152.715 59.8975 152.786 59.5038L152.878 58.9131L152.957 58.375L156.917 58.7031Z" fill="#B55B52"/>
<path d="M157.833 56.1362C157.93 58.5863 156.975 63.0052 156.975 63.0052L150.876 62.2701C150.876 62.2701 150.652 55.8037 151.836 54.2418C153.82 51.6298 157.745 53.8174 157.833 56.1362Z" fill="#263238"/>
<path d="M143 69.1569L139.348 67.8662L140.109 70.5875C140.109 70.5875 141.817 71.5807 142.793 70.4519L143 69.1569Z" fill="#B55B52"/>
<path d="M138.094 68.5619L137.593 70.4825L140.114 70.5875L139.353 67.8662L138.094 68.5619Z" fill="#B55B52"/>
<path d="M120.943 81.276C123.485 81.3143 126.009 80.8496 128.368 79.9089C130.727 78.9683 132.875 77.5704 134.686 75.7967C136.497 74.023 137.935 71.9089 138.917 69.5773C139.899 67.2458 140.404 64.7434 140.404 62.2158C140.404 59.6882 139.899 57.1858 138.917 54.8542C137.935 52.5227 136.497 50.4086 134.686 48.6349C132.875 46.8612 130.727 45.4633 128.368 44.5226C126.009 43.5819 123.485 43.1172 120.943 43.1555H118.457V81.276H120.943Z" fill="#E42337"/>
<path d="M118.457 81.2763C129.045 81.2763 137.628 72.7417 137.628 62.2138C137.628 51.6859 129.045 43.1514 118.457 43.1514C107.869 43.1514 99.2861 51.6859 99.2861 62.2138C99.2861 72.7417 107.869 81.2763 118.457 81.2763Z" fill="#E42337"/>
<path opacity="0.4" d="M118.457 81.2763C129.045 81.2763 137.628 72.7417 137.628 62.2138C137.628 51.6859 129.045 43.1514 118.457 43.1514C107.869 43.1514 99.2861 51.6859 99.2861 62.2138C99.2861 72.7417 107.869 81.2763 118.457 81.2763Z" fill="black"/>
<path opacity="0.2" d="M130.476 74.1677C137.114 67.5674 137.114 56.8662 130.476 50.2659C123.839 43.6656 113.077 43.6656 106.439 50.2659C99.8009 56.8662 99.8009 67.5674 106.439 74.1677C113.077 80.768 123.839 80.768 130.476 74.1677Z" fill="#E42337"/>
<path d="M127.195 63.3029C126.399 62.415 125.328 61.8175 124.15 61.6054C124.94 61.3653 125.652 60.925 126.218 60.3278C126.925 59.5253 127.303 58.4889 127.279 57.4227C127.291 56.7857 127.165 56.1534 126.908 55.5696C126.652 54.9858 126.271 54.4642 125.792 54.0408C124.803 53.1278 123.383 52.6714 121.532 52.6714H120.393V49.4688H118.241V52.6714H115.575V49.4688H113.423V52.6714H108.746V56.539H110.44V67.8924H108.759V71.7557H113.436V74.9583H115.588V71.7557H118.255V74.9583H120.406V71.7557H120.679C121.563 71.7136 122.444 71.626 123.319 71.4932C124.103 71.4329 124.869 71.225 125.576 70.8807C126.366 70.4357 127.022 69.7893 127.477 69.0081C127.944 68.1962 128.182 67.2744 128.168 66.3393C128.213 65.245 127.868 64.1699 127.195 63.3029ZM116.411 56.539H119.029C119.931 56.539 120.56 56.6965 120.921 57.0071C121.105 57.1709 121.25 57.374 121.345 57.6013C121.439 57.8285 121.481 58.0741 121.466 58.3196C121.482 58.5743 121.441 58.8293 121.347 59.0666C121.252 59.3039 121.107 59.5178 120.921 59.6934C120.56 60.0084 119.918 60.166 118.994 60.166H116.411V56.539ZM121.598 67.118C121.158 67.4768 120.459 67.6562 119.438 67.6562H116.411V63.7929H119.425C120.463 63.7929 121.189 63.9636 121.603 64.3048C121.805 64.4685 121.967 64.6764 122.076 64.9124C122.184 65.1484 122.236 65.4062 122.228 65.6655C122.239 65.939 122.189 66.2116 122.08 66.4631C121.971 66.7145 121.806 66.9384 121.598 67.118Z" fill="white"/>
<path d="M139.559 43.5711C139.559 43.8554 139.396 44.0873 139.211 44.0917C139.027 44.0961 138.873 43.8642 138.877 43.5842C138.881 43.3042 139.035 43.0679 139.225 43.0635C139.414 43.0592 139.563 43.291 139.559 43.5711Z" fill="#263238"/>
<path d="M139.308 43.0802L138.6 42.8789C138.6 42.8789 138.965 43.4171 139.308 43.0802Z" fill="#263238"/>
<path d="M139.313 43.8506C139.047 44.5031 138.693 45.1168 138.261 45.675C138.409 45.7756 138.576 45.8433 138.752 45.8735C138.929 45.9037 139.109 45.8957 139.282 45.85L139.313 43.8506Z" fill="#A02724"/>
<path d="M139.198 41.6896C139.224 41.6961 139.252 41.6961 139.278 41.6896C139.48 41.6172 139.697 41.5926 139.911 41.6176C140.124 41.6427 140.329 41.7168 140.51 41.834C140.545 41.8607 140.59 41.8722 140.634 41.8661C140.656 41.863 140.677 41.8557 140.696 41.8446C140.715 41.8335 140.732 41.8187 140.745 41.8012C140.758 41.7837 140.768 41.7637 140.773 41.7425C140.779 41.7212 140.78 41.6991 140.777 41.6774C140.774 41.6556 140.767 41.6347 140.756 41.6158C140.744 41.5969 140.73 41.5804 140.712 41.5671C140.487 41.4201 140.231 41.3263 139.964 41.293C139.698 41.2596 139.426 41.2875 139.172 41.3746C139.151 41.381 139.131 41.3916 139.114 41.4058C139.097 41.42 139.084 41.4374 139.074 41.4571C139.064 41.4767 139.058 41.4982 139.057 41.5201C139.056 41.542 139.059 41.564 139.066 41.5846C139.077 41.6122 139.095 41.6365 139.118 41.6549C139.141 41.6734 139.169 41.6854 139.198 41.6896Z" fill="#263238"/>
<path d="M147.994 46.5947C147.805 48.7254 148.522 52.2124 150.141 53.3981C150.141 53.3981 148.922 55.6381 145.02 56.1588C140.725 56.7319 142.74 54.33 142.74 54.33C145.024 53.4549 144.782 51.7618 144.201 50.2042L147.994 46.5947Z" fill="#B55B52"/>
<path d="M140.193 58.6567C139.726 60.8744 139.139 63.0653 138.433 65.2194C137.743 67.3891 136.917 69.5137 135.96 71.5809L135.78 71.9746C135.705 72.1277 135.608 72.3071 135.52 72.469C135.347 72.7719 135.156 73.0641 134.948 73.344C134.566 73.8429 134.15 74.3151 133.703 74.7572C132.865 75.5798 131.975 76.3471 131.036 77.0541C129.219 78.4237 127.296 79.6495 125.286 80.7205L124.208 79.093C125.875 77.7104 127.543 76.2666 129.083 74.7878C129.842 74.0703 130.562 73.3123 131.239 72.5171C131.548 72.1508 131.833 71.765 132.092 71.3621C132.203 71.1868 132.305 71.0057 132.396 70.8196L132.502 70.5702L132.647 70.1983C133.034 69.2095 133.377 68.1945 133.725 67.1795C134.072 66.1644 134.376 65.1319 134.68 64.1169C135.274 62.0518 135.832 59.9299 136.321 57.8779L140.193 58.6567Z" fill="#B55B52"/>
<path d="M125.484 80.5677L123.46 81.8802L122.457 80.1695C122.457 80.1695 124.445 77.8069 125.647 79.487L125.484 80.5677Z" fill="#B55B52"/>
<path d="M124.96 78.8034L123.816 78.6328L122.531 78.9041L122.201 79.276L123.037 79.3985L123.257 79.7266L123.539 79.906L124.96 78.8034Z" fill="#B55B52"/>
<path d="M121.449 82.0493L120.336 81.1568L122.457 80.1768L123.46 81.8874L121.449 82.0493Z" fill="#B55B52"/>
<path d="M154.334 154.624L150.784 154.886L149.728 146.779L153.278 146.517L154.334 154.624Z" fill="#B55B52"/>
<path d="M177.069 144.326L173.994 146.186L168.881 139.833L171.956 137.974L177.069 144.326Z" fill="#B55B52"/>
<path d="M173.074 145.503L175.991 142.712C176.04 142.662 176.104 142.632 176.173 142.628C176.242 142.623 176.311 142.643 176.365 142.685L178.851 144.593C178.911 144.646 178.959 144.711 178.992 144.784C179.025 144.856 179.042 144.935 179.042 145.015C179.042 145.095 179.025 145.174 178.992 145.247C178.959 145.319 178.911 145.384 178.851 145.437C177.817 146.396 177.272 146.807 175.987 148.036C175.199 148.793 174.121 149.974 173.03 151.02C171.939 152.066 170.879 151.077 171.239 150.548C172.867 148.176 172.621 147.288 172.771 146.076C172.801 145.855 172.908 145.653 173.074 145.503Z" fill="#263238"/>
<path d="M150.564 154.384H154.555C154.623 154.383 154.69 154.407 154.743 154.451C154.795 154.495 154.83 154.557 154.841 154.624L155.377 157.761C155.389 157.84 155.383 157.92 155.361 157.996C155.338 158.072 155.3 158.142 155.247 158.202C155.195 158.261 155.131 158.309 155.058 158.342C154.986 158.375 154.907 158.392 154.827 158.391C153.433 158.391 152.759 158.286 151.004 158.286C149.926 158.286 147.695 158.396 146.203 158.396C144.712 158.396 144.597 156.93 145.213 156.799C147.981 156.204 149.059 155.381 149.974 154.611C150.137 154.468 150.346 154.387 150.564 154.384Z" fill="#263238"/>
<path opacity="0.2" d="M149.732 146.781L150.317 151.287L153.824 150.701L153.283 146.522L149.732 146.781Z" fill="black"/>
<path opacity="0.2" d="M171.956 137.974L168.881 139.837L170.997 142.463L174.139 140.682L171.956 137.974Z" fill="black"/>
<path d="M156.125 74.6682L141.746 76.5889C136.176 56.5333 137.821 55.9908 137.821 55.9908C138.897 55.486 140.004 55.0477 141.134 54.6782L141.332 54.617C142.261 54.3413 142.454 54.302 143.691 54.0219C145.816 53.6501 147.787 53.3613 150.22 53.1469L150.66 53.1119C151.1 53.0813 151.54 53.0594 151.98 53.0463C152.266 53.0463 152.548 53.0463 152.816 53.0244H154.22C154.495 53.0307 154.766 53.0937 155.015 53.2095C155.265 53.3252 155.487 53.4911 155.669 53.6967C155.85 53.9023 155.987 54.1431 156.07 54.404C156.153 54.6648 156.181 54.9399 156.152 55.212C154.928 65.8042 155.32 69.2693 156.125 74.6682Z" fill="#263238"/>
<path opacity="0.2" d="M140.36 62.1292C140.646 64.2032 140.379 66.3155 139.586 68.2544C138.626 64.3431 138.112 61.6917 137.852 59.8542C138.934 59.806 140.078 60.2261 140.36 62.1292Z" fill="black"/>
<path d="M137.944 55.9344C135.485 57.3344 133.773 60.6726 133.258 62.6108L138.499 67.3797C138.499 67.3797 141.887 60.8958 141.002 59.1413C140.078 57.3169 138.877 55.405 137.944 55.9344Z" fill="#263238"/>
<path d="M149.209 42.6597C148.94 46.1598 148.905 47.6211 147.092 49.4324C144.369 52.1581 140.083 51.1824 139.287 47.7305C138.574 44.6154 139.124 39.4177 142.609 38.0089C143.354 37.6778 144.173 37.5455 144.986 37.625C145.799 37.7046 146.576 37.9934 147.242 38.4628C147.909 38.9322 148.44 39.5661 148.785 40.3021C149.13 41.038 149.276 41.8506 149.209 42.6597Z" fill="#B55B52"/>
<path d="M141.953 44.0647C142.314 42.8266 139.516 41.4178 139.216 39.519C138.829 37.0558 140.748 35.0651 142.538 36.2245C143.264 34.575 148.192 33.8794 150.898 35.9226C153.943 38.2152 150.212 40.639 153.248 42.669C155.668 44.2878 155.998 45.2941 154.502 47.2323C153.367 48.7067 156.302 48.3917 155.558 50.8855C154.814 53.3794 139.634 54.2938 141.65 48.698C143.44 43.7541 141.24 46.5935 141.953 44.0647Z" fill="#263238"/>
<path d="M142.807 43.7896C142.785 44.4386 142.562 45.0651 142.169 45.5834C141.623 46.3184 140.985 46.1215 140.849 45.4434C140.708 44.8352 140.827 43.7196 141.517 43.2121C142.208 42.7045 142.802 43.0633 142.807 43.7896Z" fill="#B55B52"/>
<path d="M154.348 47.3625C154.334 47.3623 154.321 47.3577 154.311 47.3495C154.3 47.3414 154.292 47.33 154.289 47.3171C154.286 47.3043 154.286 47.2906 154.291 47.2783C154.296 47.2659 154.305 47.2556 154.317 47.2487C155.272 46.7018 155.782 45.9362 155.76 45.1399C155.734 44.1161 154.88 43.0836 153.485 42.3792C151.822 41.5392 151.95 40.4016 152.077 39.3166C152.205 38.2315 152.332 37.0678 150.709 36.1315C150.695 36.1225 150.684 36.1087 150.679 36.0926C150.674 36.0765 150.676 36.0593 150.682 36.044C150.691 36.0298 150.706 36.0197 150.722 36.0156C150.738 36.0116 150.756 36.0139 150.77 36.0221C152.469 37.0021 152.332 38.1834 152.2 39.3297C152.068 40.476 151.954 41.4866 153.52 42.2873C154.959 43.0092 155.835 44.0811 155.866 45.153C155.866 46.028 155.355 46.8068 154.361 47.3712C154.356 47.369 154.352 47.366 154.348 47.3625Z" fill="#263238"/>
<path d="M145.543 76.0816C145.543 76.0816 151.127 99.5411 153.736 113.021C156.486 127.24 169.695 142.054 169.695 142.054L174.179 139.569C174.179 139.569 165.867 126.05 163.179 112.772C157.705 85.8207 161.419 80.3955 156.139 74.6729L145.543 76.0816Z" fill="#E42337"/>
<path d="M169.25 142.47L174.847 139.368L174.029 137.723L167.75 140.597L169.25 142.47Z" fill="#263238"/>
<path opacity="0.2" d="M148.509 81.1784C152.851 84.9279 152.381 98.2415 151.927 104.218C150.106 95.6952 147.915 86.2099 146.647 80.7191C147.087 80.3778 147.712 80.5047 148.509 81.1784Z" fill="black"/>
<path d="M171.851 147.122C171.893 147.129 171.936 147.129 171.979 147.122C172.419 147.122 172.942 146.439 173.206 146.037C173.215 146.023 173.219 146.007 173.219 145.991C173.219 145.975 173.215 145.959 173.206 145.945C173.197 145.93 173.184 145.919 173.168 145.913C173.152 145.907 173.135 145.906 173.118 145.91C172.977 145.936 171.706 146.203 171.539 146.623C171.52 146.669 171.514 146.719 171.521 146.768C171.528 146.817 171.548 146.864 171.578 146.903C171.641 147.005 171.737 147.082 171.851 147.122ZM172.947 146.129C172.577 146.654 172.221 146.964 171.974 146.969C171.922 146.969 171.87 146.955 171.824 146.929C171.779 146.903 171.741 146.865 171.715 146.82C171.701 146.803 171.691 146.783 171.687 146.762C171.684 146.74 171.685 146.718 171.693 146.697C171.785 146.474 172.441 146.251 172.947 146.133V146.129Z" fill="#E42337"/>
<path d="M141.962 76.5987C141.962 76.5987 139.45 104.455 140.8 115.069C142.226 126.121 149.482 150.162 149.482 150.162L154.599 149.506C154.599 149.506 150.441 125.679 149.702 114.741C148.896 102.81 152.474 75.1855 152.474 75.1855L141.962 76.5987Z" fill="#E42337"/>
<path d="M148.408 150.463L155.707 149.527L155.593 147.383L147.677 148.144L148.408 150.463Z" fill="#263238"/>
<path d="M172.04 146.027C172.404 146.125 172.785 146.145 173.158 146.084C173.172 146.08 173.186 146.072 173.197 146.062C173.207 146.051 173.215 146.037 173.219 146.023C173.222 146.009 173.222 145.994 173.218 145.981C173.214 145.967 173.207 145.954 173.197 145.944C173.166 145.913 172.471 145.2 171.956 145.222C171.89 145.223 171.825 145.239 171.765 145.268C171.706 145.298 171.654 145.34 171.613 145.393C171.565 145.439 171.534 145.5 171.526 145.567C171.518 145.633 171.533 145.7 171.569 145.756C171.691 145.897 171.857 145.992 172.04 146.027ZM172.96 145.948C172.52 145.997 171.842 145.87 171.71 145.668C171.688 145.633 171.67 145.585 171.741 145.498C171.768 145.464 171.802 145.437 171.841 145.418C171.879 145.399 171.922 145.389 171.965 145.388C172.347 145.468 172.695 145.664 172.96 145.948Z" fill="#E42337"/>
<path d="M149.244 155.001C149.618 154.995 149.991 154.952 150.357 154.874C150.374 154.871 150.389 154.862 150.401 154.85C150.413 154.837 150.42 154.821 150.423 154.804C150.426 154.787 150.423 154.769 150.415 154.754C150.407 154.738 150.394 154.725 150.379 154.717C150.216 154.634 148.777 153.912 148.35 154.157C148.31 154.178 148.277 154.21 148.253 154.248C148.229 154.287 148.215 154.331 148.214 154.376C148.206 154.452 148.217 154.528 148.245 154.599C148.273 154.67 148.319 154.733 148.377 154.783C148.633 154.95 148.938 155.027 149.244 155.001ZM150.075 154.756C149.292 154.883 148.707 154.853 148.487 154.66C148.45 154.626 148.421 154.584 148.403 154.537C148.384 154.49 148.377 154.439 148.381 154.389C148.381 154.371 148.386 154.353 148.396 154.338C148.405 154.323 148.418 154.31 148.434 154.301C148.667 154.17 149.486 154.476 150.075 154.756Z" fill="#E42337"/>
<path d="M150.339 154.883C150.357 154.887 150.375 154.887 150.392 154.883C150.403 154.873 150.412 154.861 150.418 154.847C150.423 154.833 150.425 154.819 150.423 154.804C150.423 154.743 150.256 153.299 149.459 153.299H149.389C149.16 153.321 149.094 153.434 149.081 153.531C149.015 153.929 149.873 154.694 150.308 154.887L150.339 154.883ZM149.459 153.452C149.974 153.452 150.176 154.292 150.238 154.651C149.798 154.388 149.213 153.776 149.248 153.548C149.248 153.526 149.248 153.469 149.411 153.456L149.459 153.452Z" fill="#E42337"/>
<path d="M156.249 73.8079L157.032 74.9936C157.093 75.0855 156.988 75.1992 156.821 75.2211L141.742 77.2337C141.614 77.2337 141.5 77.2031 141.482 77.1243L141.218 75.873C141.218 75.7855 141.302 75.6936 141.447 75.6761L156.002 73.7336C156.046 73.724 156.092 73.7258 156.135 73.7389C156.178 73.7519 156.217 73.7757 156.249 73.8079Z" fill="#E42337"/>
<path opacity="0.5" d="M156.249 73.8079L157.032 74.9936C157.093 75.0855 156.988 75.1992 156.821 75.2211L141.742 77.2337C141.614 77.2337 141.5 77.2031 141.482 77.1243L141.218 75.873C141.218 75.7855 141.302 75.6936 141.447 75.6761L156.002 73.7336C156.046 73.724 156.092 73.7258 156.135 73.7389C156.178 73.7519 156.217 73.7757 156.249 73.8079Z" fill="white"/>
<path d="M154.466 75.692L154.858 75.6395C154.933 75.6395 154.99 75.5826 154.977 75.5345L154.62 73.907C154.62 73.8632 154.537 73.8326 154.458 73.8413L154.07 73.8938C153.991 73.8938 153.934 73.9507 153.947 73.9988L154.304 75.6264C154.317 75.6526 154.387 75.692 154.466 75.692Z" fill="#E42337"/>
<path d="M144.619 77.0041L145.006 76.9516C145.086 76.9516 145.138 76.8947 145.13 76.8466L144.769 75.2191C144.769 75.1709 144.69 75.1403 144.61 75.1534L144.219 75.2016C144.144 75.2016 144.087 75.2628 144.1 75.3109L144.456 76.9341C144.47 77.0041 144.54 77.0041 144.619 77.0041Z" fill="#E42337"/>
</svg>
