<svg width="204" height="141" viewBox="0 0 204 141" fill="none" xmlns="http://www.w3.org/2000/svg">
<rect y="0.44043" width="204" height="140" rx="16" fill="#4F69F5"/>
<g clip-path="url(#clip0_96_26699)">
<path d="M144.981 57.0622V60.2849H148.094C149.454 60.2849 150.347 61.1516 150.856 61.7118C151.263 62.1732 160.228 72.4486 160.444 72.7188C160.659 72.989 160.659 72.9922 160.659 73.1636V78.2554C160.658 78.4889 160.635 78.7216 160.59 78.9506C160.526 79.0984 160.431 79.2304 160.312 79.3374C160.193 79.4445 160.052 79.524 159.899 79.5704C159.605 79.6077 159.309 79.6265 159.012 79.6264L155.896 79.6226V82.8453H173.376V79.6226H170.087C169.792 79.624 169.498 79.6051 169.206 79.5659C169.054 79.5199 168.913 79.4406 168.794 79.3336C168.675 79.2266 168.581 79.0945 168.518 78.9467C168.473 78.7178 168.449 78.485 168.447 78.2515V73.1629C168.428 72.9956 168.469 72.827 168.564 72.6885L178.263 61.504C179.153 60.5021 179.616 60.2842 180.783 60.2842H184V57.0615H169.594V60.2778H171.769C171.885 60.2707 172.001 60.2976 172.103 60.3553C172.205 60.4129 172.288 60.4989 172.343 60.603C172.398 60.7071 172.422 60.825 172.413 60.9426C172.404 61.0602 172.361 61.1726 172.29 61.2664C172.245 61.3323 166.259 68.4472 166.184 68.5164C166.109 68.5857 166.061 68.569 166.005 68.4933C165.95 68.4174 160.036 61.2665 160.036 61.2665C159.619 60.7491 159.945 60.2778 160.434 60.2778H162.553V57.0615L144.981 57.0622Z" fill="white"/>
<path d="M102.109 57.0615V60.2842H104.899C106.914 60.2842 107.051 61.4184 107.051 62.407V77.4901C107.051 78.3931 107.103 79.6322 105.818 79.6322H102.376V82.8517H117.076V79.6322H113.49C112.058 79.6322 111.993 78.97 111.977 77.5629V64.6411L132.166 82.8517H137.3L137.03 62.2847C137.056 60.782 137.147 60.281 138.686 60.281H141.903V57.0615H126.907V60.281H130.2C131.713 60.281 131.967 60.8709 131.986 62.2847L132.166 73.0477L114.64 57.0615H102.109Z" fill="white"/>
<path d="M35.9145 55.4404C32.7556 55.4404 29.1663 56.0402 26.1345 57.4177C23.3048 58.6963 21 60.7492 21 64.1534C20.9957 65.9362 21.6664 67.653 22.8745 68.9518C23.6928 69.7164 25.0133 71.0148 28.4624 71.7793C30.0043 72.1089 33.3002 72.6394 36.5831 72.9887C39.8659 73.338 43.0477 73.6479 44.3517 74.0005C45.3884 74.2675 47.1322 74.63 47.1322 76.6073C47.1322 78.5846 45.2971 79.1776 44.9776 79.3061C44.6581 79.4346 42.454 80.4563 38.4964 80.4563C35.8742 80.3827 33.2759 79.931 30.78 79.1149C29.3032 78.5811 27.7551 77.8791 26.3109 76.0962C25.7279 75.2568 25.4044 74.2613 25.3813 73.2359H21.7953V83.3861H25.7792V82.012C25.7786 81.91 25.8048 81.8097 25.8553 81.7214C25.9057 81.6331 25.9786 81.5601 26.0663 81.5097C26.154 81.4593 26.2534 81.4335 26.3542 81.4349C26.4551 81.4363 26.5538 81.4649 26.6401 81.5176C28.5168 82.3431 30.469 82.981 32.4686 83.4222C34.5615 83.8638 35.9147 84.1836 38.5162 84.1836C41.2612 84.2364 43.997 83.8459 46.6203 83.027C48.3623 82.5442 49.9967 81.7286 51.4351 80.6243C52.2442 79.9961 52.8982 79.1867 53.3456 78.2599C53.7931 77.333 54.0218 76.314 54.0139 75.2827C54.0277 73.3233 53.2798 71.4367 51.9312 70.0293C51.1811 69.2937 50.3122 68.6931 49.362 68.2534C48.3405 67.7868 47.28 67.4129 46.1931 67.1361C44.1262 66.6253 39.4844 65.986 37.2643 65.7619C34.9367 65.518 30.8974 65.1783 29.2837 64.6741C28.7947 64.5193 27.797 64.0418 27.797 62.8719C27.797 62.0382 28.2534 61.3328 29.1532 60.7627C30.5843 59.8565 33.4728 59.2926 36.485 59.2926C39.4007 59.257 42.2925 59.828 44.9807 60.97C45.7029 61.2882 46.382 61.698 47.0017 62.1897C48.0119 63.0619 48.7115 64.2448 48.9933 65.5572H52.2113V56.7226H48.6253V57.7472C48.6253 58.0768 48.2993 58.5119 47.6473 58.1527C46.0304 57.3025 41.4858 55.4635 35.9145 55.4404Z" fill="white"/>
<path d="M79.0705 55.4404C73.4209 55.4404 67.4222 57.4175 64.0318 60.5317C62.7394 61.7213 61.7076 63.1712 61.0029 64.7882C60.2982 66.4053 59.9362 68.1535 59.9403 69.9205C59.9201 71.6947 60.2746 73.4529 60.9802 75.0777C61.6858 76.7024 62.7262 78.1562 64.0318 79.3421C67.683 82.6606 73.1601 84.4404 79.0705 84.4404C84.9906 84.4404 90.5848 82.6804 94.148 79.3421C95.415 78.1284 96.4257 76.6679 97.1193 75.0486C97.8128 73.4294 98.1748 71.685 98.1835 69.9205C98.201 68.1578 97.8506 66.4112 97.1553 64.7947C96.4599 63.1781 95.4352 61.7279 94.148 60.5387C90.324 57.0324 85.3199 55.4404 79.0705 55.4404ZM79.0705 59.2102C82.161 59.2102 85.1373 60.3343 87.1422 62.3281C89.0819 64.2592 90.0953 66.9878 90.0953 69.9076C90.0953 72.9658 89.1732 75.444 87.1422 77.4872C85.1112 79.5303 82.2033 80.6243 79.0705 80.6243C75.9605 80.6243 72.9903 79.5073 70.9854 77.4872C70.0266 76.4814 69.2737 75.2941 68.7702 73.9933C68.2667 72.6926 68.0224 71.3041 68.0514 69.9076C68.0514 67.001 69.0523 64.2625 70.9854 62.3281C72.9903 60.3244 75.98 59.2102 79.0705 59.2102Z" fill="white"/>
</g>
<defs>
<clipPath id="clip0_96_26699">
<rect width="163" height="29" fill="white" transform="translate(21 55.4404)"/>
</clipPath>
</defs>
</svg>
