<svg width="204" height="141" viewBox="0 0 204 141" fill="none" xmlns="http://www.w3.org/2000/svg">
<rect y="0.44043" width="204" height="140" rx="16" fill="#53AF7E"/>
<path fill-rule="evenodd" clip-rule="evenodd" d="M51.1932 71.5792H69.7017C70.5398 71.5792 71.2187 70.9005 71.2187 70.0697V61.8503C71.2187 61.0204 70.5398 60.3408 69.7017 60.3408H51.1932C50.3551 60.3408 49.6763 61.0204 49.6763 61.8503V70.0697C49.6771 70.9005 50.3551 71.5792 51.1932 71.5792ZM52.3699 62.5215H68.6097C68.8879 62.5215 69.1151 62.7483 69.1151 63.0246V68.8962C69.1151 69.1726 68.8879 69.3994 68.6097 69.3994H52.3699C52.0917 69.3994 51.8645 69.1726 51.8645 68.8962V63.0246C51.8645 62.7474 52.0917 62.5215 52.3699 62.5215Z" fill="white"/>
<path fill-rule="evenodd" clip-rule="evenodd" d="M25.1904 71.5792H27.3779V68.8962H45.1329C46.0121 68.8962 46.732 68.1789 46.732 67.3027V61.9343C46.732 61.0582 46.0121 60.3408 45.1329 60.3408H27.3779H26.7887H25.1904V61.9343V67.3027V71.5792ZM27.3779 66.7147V62.5215H27.9662H42.2708H43.8699C44.2395 62.5215 44.5429 62.823 44.5429 63.1926V66.0444C44.5429 66.4132 44.2403 66.7156 43.8699 66.7156H42.2708H27.967H27.3779V66.7147Z" fill="white"/>
<path fill-rule="evenodd" clip-rule="evenodd" d="M74.0791 71.58H76.2674V68.8971H92.0386L93.4207 71.58H95.7858L94.382 68.8559C95.0893 68.6921 95.6198 68.0562 95.6198 67.3027V61.9343C95.6198 61.0582 94.9007 60.3408 94.0216 60.3408H76.2674H75.6782H74.0791V61.9343V67.3027V71.58ZM76.2674 66.7156V62.5223H76.8557H91.1603H92.7586C93.129 62.5223 93.4324 62.8239 93.4324 63.1935V66.0453C93.4324 66.414 93.1298 66.7164 92.7586 66.7164H91.1603H76.8557H76.2674V66.7156Z" fill="white"/>
<path fill-rule="evenodd" clip-rule="evenodd" d="M147.287 71.58H149.475V67.0507H165.546V71.58H167.734V60.3408H165.546V64.8709H149.475V60.3408H147.287V71.58Z" fill="white"/>
<path fill-rule="evenodd" clip-rule="evenodd" d="M125.242 71.58H144.005V69.3708C143.953 69.3893 143.896 69.3994 143.837 69.3994H126.419C126.142 69.3994 125.914 69.1726 125.914 68.8962V63.0246C125.914 62.7483 126.141 62.5215 126.419 62.5215H143.837C143.896 62.5215 143.953 62.5324 144.005 62.5509V60.3408H125.242C124.405 60.3408 123.726 61.0204 123.726 61.8503V70.0697C123.726 70.9013 124.405 71.58 125.242 71.58Z" fill="white"/>
<path fill-rule="evenodd" clip-rule="evenodd" d="M171.101 71.58H172.364H173.289H192.81V69.3994H173.289V67.0507H192.81V64.8709H173.289V62.5223H192.81V60.3408H173.289H172.364H171.101V71.58Z" fill="white"/>
<path fill-rule="evenodd" clip-rule="evenodd" d="M101.68 63.5286V63.0246C101.68 62.7483 101.907 62.5215 102.185 62.5215H119.604C119.662 62.5215 119.719 62.5324 119.771 62.5509V60.3408H101.008C100.17 60.3408 99.4912 61.0204 99.4912 61.8503V62.5215V63.5278V65.5404C99.4912 66.3703 100.17 67.0499 101.008 67.0499H102.606V67.0785C102.658 67.0608 102.715 67.0499 102.773 67.0499H117.078C117.356 67.0499 117.583 67.2767 117.583 67.5539V68.3922V68.8962C117.583 69.1726 117.356 69.3994 117.078 69.3994H99.6597C99.601 69.3994 99.544 69.3893 99.4912 69.3708V71.58H118.254C119.093 71.58 119.771 70.9005 119.771 70.0705V69.3994V68.3931V66.3804C119.771 65.5497 119.093 64.8701 118.254 64.8701H116.659V64.8415C116.605 64.86 116.549 64.8701 116.489 64.8701H102.184C101.907 64.8701 101.679 64.6433 101.679 64.3661V63.5286H101.68Z" fill="white"/>
</svg>
