<svg width="204" height="140" viewBox="0 0 204 140" fill="none" xmlns="http://www.w3.org/2000/svg">
<rect width="204" height="140" rx="16" fill="white"/>
<path d="M78.8816 99.8258H73.3594V77.9121H78.8816V99.8258Z" fill="#C4122E"/>
<path d="M123.408 84.1909C123.181 84.0753 121.404 83.0209 118.762 83.0209C115.192 83.0209 112.715 85.5081 112.715 88.8658C112.715 92.1219 115.085 94.716 118.762 94.716C121.358 94.716 123.165 93.6826 123.408 93.553V99.4347C122.715 99.6273 120.828 100.214 118.376 100.214C112.164 100.214 106.712 95.9263 106.712 88.8641C106.712 82.322 111.645 77.5227 118.376 77.5227C120.964 77.5227 122.885 78.1533 123.408 78.3092V84.1909ZM65.7671 84.1909C65.545 84.0753 63.7696 83.0209 61.1283 83.0209C57.5512 83.0209 55.0761 85.5081 55.0761 88.8658C55.0761 92.1219 57.448 94.716 61.1283 94.716C63.7241 94.716 65.5292 93.6826 65.7671 93.553V99.4347C65.0814 99.6273 63.1958 100.214 60.7295 100.214C54.5234 100.214 49.0781 95.9263 49.0781 88.8641C49.0781 82.322 54.0108 77.5227 60.7312 77.5227C63.3305 77.5227 65.2476 78.1533 65.7671 78.3092V84.1909ZM140.779 83.1032C137.503 83.1032 135.07 85.685 135.07 88.8658C135.07 92.0536 137.503 94.6337 140.779 94.6337C144.052 94.6337 146.492 92.0536 146.492 88.8658C146.492 85.685 144.052 83.1032 140.779 83.1032ZM152.343 88.8658C152.343 95.1346 147.51 100.214 140.781 100.214C134.048 100.214 129.222 95.1346 129.222 88.8641C129.222 82.6075 134.05 77.5227 140.779 77.5227C147.51 77.5227 152.343 82.6075 152.343 88.8658ZM99.8221 82.893C99.7398 82.8668 97.4152 82.2239 95.5051 82.2239C93.2923 82.2239 92.0889 82.9666 92.0889 84.0193C92.0889 85.354 93.7121 85.8198 94.62 86.1071L96.1435 86.5923C99.7293 87.7343 101.361 90.1917 101.361 92.8611C101.361 98.3662 96.5266 100.216 92.3005 100.216C89.3637 100.216 86.6122 99.6729 86.3411 99.6168V94.5723C86.8273 94.695 89.1433 95.3886 91.5554 95.3886C94.3034 95.3886 95.5663 94.5829 95.5663 93.3428C95.5663 92.2323 94.473 91.5912 93.1034 91.1603C92.7711 91.0482 92.2673 90.8906 91.9245 90.7785C88.8494 89.8046 86.2851 87.9935 86.2851 84.3678C86.2851 80.2692 89.3497 77.5175 94.4398 77.5175C97.1283 77.5175 99.6576 78.1708 99.8221 78.2146V82.8912V82.893Z" fill="#C4122E"/>
<path d="M43.222 54.3624C43.222 52.8525 41.9906 51.6281 40.481 51.6281C38.9715 51.6281 37.7383 52.8525 37.7383 54.3605V60.1145C37.7563 60.8306 38.0532 61.5114 38.5654 62.0115C39.0776 62.5116 39.7647 62.7915 40.4801 62.7915C41.1956 62.7915 41.8827 62.5116 42.3949 62.0115C42.9071 61.5114 43.2039 60.8306 43.222 60.1145V54.3624ZM58.2807 46.8132C58.2807 46.085 57.9919 45.3866 57.4777 44.8718C56.9635 44.3569 56.2661 44.0676 55.5389 44.0676C54.8117 44.0676 54.1143 44.3569 53.6001 44.8718C53.0859 45.3866 52.797 46.085 52.797 46.8132V60.1145C52.797 60.8426 53.0859 61.541 53.6001 62.0559C54.1143 62.5708 54.8117 62.86 55.5389 62.86C56.2661 62.86 56.9635 62.5708 57.4777 62.0559C57.9919 61.541 58.2807 60.8426 58.2807 60.1145V46.8114V46.8132ZM73.3412 36.4825C73.3412 34.9727 72.1098 33.7465 70.6003 33.7465C69.089 33.7465 67.8575 34.9727 67.8575 36.4825V65.581C67.8756 66.2972 68.1724 66.9779 68.6846 67.4781C69.1969 67.9782 69.884 68.2582 70.5994 68.2582C71.3148 68.2582 72.0019 67.9782 72.5141 67.4781C73.0264 66.9779 73.3232 66.2972 73.3412 65.581V36.4825ZM88.4 46.8132C88.4 46.085 88.1111 45.3866 87.5969 44.8718C87.0827 44.3569 86.3853 44.0676 85.6581 44.0676C84.931 44.0676 84.2336 44.3569 83.7194 44.8718C83.2052 45.3866 82.9163 46.085 82.9163 46.8132V60.1145C82.9163 60.8426 83.2052 61.541 83.7194 62.0559C84.2336 62.5708 84.931 62.86 85.6581 62.86C86.3853 62.86 87.0827 62.5708 87.5969 62.0559C88.1111 61.541 88.4 60.8426 88.4 60.1145V46.8114V46.8132ZM103.443 54.3624C103.443 53.638 103.157 52.9431 102.646 52.4304C102.135 51.9176 101.441 51.6291 100.718 51.6281C99.9928 51.6277 99.2972 51.9151 98.7834 52.4273C98.2696 52.9394 97.9796 53.6346 97.9768 54.3605V60.1145C97.9768 60.8403 98.2647 61.5364 98.7773 62.0497C99.2899 62.5629 99.985 62.8513 100.71 62.8513C101.435 62.8513 102.13 62.5629 102.642 62.0497C103.155 61.5364 103.443 60.8403 103.443 60.1145V54.3624ZM118.509 46.8132C118.491 46.0993 118.195 45.4207 117.684 44.9222C117.174 44.4237 116.489 44.1447 115.776 44.1447C115.063 44.1447 114.378 44.4237 113.867 44.9222C113.356 45.4207 113.061 46.0993 113.043 46.8132V60.1145C113.043 60.8403 113.331 61.5364 113.843 62.0497C114.356 62.5629 115.051 62.8513 115.776 62.8513C116.501 62.8513 117.196 62.5629 117.708 62.0497C118.221 61.5364 118.509 60.8403 118.509 60.1145V46.8114V46.8132ZM133.578 36.4825C133.578 35.7566 133.29 35.0605 132.778 34.5473C132.265 34.034 131.57 33.7457 130.845 33.7457C130.12 33.7457 129.425 34.034 128.912 34.5473C128.4 35.0605 128.112 35.7566 128.112 36.4825V65.581C128.096 65.9505 128.154 66.3194 128.284 66.6656C128.414 67.0117 128.613 67.3279 128.869 67.5951C129.124 67.8623 129.431 68.0749 129.77 68.2202C130.11 68.3655 130.476 68.4404 130.845 68.4404C131.214 68.4404 131.58 68.3655 131.919 68.2202C132.259 68.0749 132.566 67.8623 132.821 67.5951C133.077 67.3279 133.275 67.0117 133.405 66.6656C133.535 66.3194 133.594 65.9505 133.578 65.581V36.4825ZM148.644 46.8132C148.644 45.3016 147.421 44.0737 145.877 44.0737C145.152 44.0742 144.457 44.3628 143.944 44.8761C143.432 45.3895 143.144 46.0856 143.144 46.8114V60.1145C143.144 61.6331 144.369 62.8574 145.877 62.8574C147.421 62.8574 148.644 61.6331 148.644 60.1145V46.8114V46.8132ZM163.682 54.3624C163.682 53.6358 163.393 52.939 162.88 52.4252C162.367 51.9115 161.671 51.6229 160.946 51.6229C160.22 51.6229 159.524 51.9115 159.011 52.4252C158.498 52.939 158.21 53.6358 158.21 54.3624V60.1145C158.21 61.6331 159.436 62.8591 160.946 62.8591C162.454 62.8591 163.68 61.6331 163.68 60.1145V54.3624H163.682Z" fill="#15495D"/>
<path d="M160.522 96.9385V97.2818H159.546V99.8232H159.144V97.2836H158.164V96.9385H160.522ZM160.727 96.9385H161.355L162.217 99.3049H162.231L163.065 96.9402H163.681V99.8232H163.27V97.4587H163.256L162.381 99.8232H162.002L161.148 97.4587H161.129V99.8232H160.727V96.9385Z" fill="#C4122E"/>
</svg>
