<svg width="19" height="19" viewBox="0 0 19 19" fill="none" xmlns="http://www.w3.org/2000/svg">
<path d="M9.90048 18.5207C14.8824 18.5207 18.9211 14.482 18.9211 9.50009C18.9211 4.51815 14.8824 0.479492 9.90048 0.479492C4.91854 0.479492 0.879883 4.51815 0.879883 9.50009C0.879883 14.482 4.91854 18.5207 9.90048 18.5207Z" fill="white"/>
<path d="M1.12685 11.5596H18.6326C18.7561 11.1065 18.7973 10.6535 18.8385 10.1592H0.920898C0.962088 10.6535 1.00328 11.1065 1.12685 11.5596Z" fill="white"/>
<path d="M2.28031 14.3194H17.4382C17.7265 13.8663 17.9737 13.4132 18.1796 12.9189H1.58008C1.78603 13.4132 2.03317 13.9075 2.28031 14.3194Z" fill="white"/>
<path d="M5.08137 17.1202H14.6786C15.2965 16.7083 15.8731 16.2552 16.3674 15.7197H3.39258C3.88686 16.2552 4.46352 16.7083 5.08137 17.1202Z" fill="white"/>
<path d="M14.6786 1.87988H5.08137C4.46352 2.25059 3.88686 2.70368 3.39258 3.23915H16.3674C15.8731 2.70368 15.2965 2.25059 14.6786 1.87988Z" fill="white"/>
<path d="M1.58004 12.96H18.1796C18.3443 12.5069 18.5091 12.0538 18.6327 11.5596H1.12695C1.25052 12.0538 1.37409 12.5069 1.58004 12.96Z" fill="#E42337"/>
<path d="M3.3924 15.7198H16.3672C16.7791 15.3079 17.1498 14.8136 17.4794 14.3193H2.28027C2.60979 14.8136 2.9805 15.3079 3.3924 15.7198Z" fill="#E42337"/>
<path d="M9.90028 18.4796C11.6714 18.4796 13.319 17.9853 14.6783 17.0791H5.08105C6.48151 17.9853 8.12911 18.4796 9.90028 18.4796Z" fill="#E42337"/>
<path d="M1.12695 7.39948H18.6327C18.5091 6.9052 18.3855 6.45211 18.1796 5.99902H1.58004C1.37409 6.45211 1.25052 6.94639 1.12695 7.39948Z" fill="#E42337"/>
<path d="M0.879883 9.50003C0.879883 9.74717 0.879883 9.95312 0.921073 10.2003H18.8799C18.8799 9.95312 18.9211 9.74717 18.9211 9.50003C18.9211 9.25289 18.9211 9.04694 18.8799 8.7998H0.921073C0.879883 9.00575 0.879883 9.25289 0.879883 9.50003Z" fill="#E42337"/>
<path d="M3.3924 3.23926C2.9805 3.65116 2.60979 4.14544 2.28027 4.63972H17.4382C17.1086 4.14544 16.7379 3.69235 16.326 3.23926H3.3924Z" fill="#E42337"/>
<path d="M9.90059 0.479492C8.12942 0.479492 6.48183 0.973771 5.12256 1.87995H14.7198C13.2782 0.973771 11.6306 0.479492 9.90059 0.479492Z" fill="#E42337"/>
<path d="M0.920898 8.79987H18.8797C18.8385 8.30559 18.7561 7.8525 18.6738 7.39941H1.12685C1.00328 7.8525 0.962088 8.30559 0.920898 8.79987Z" fill="white"/>
<path d="M1.58008 6.04011H18.1796C17.9737 5.54583 17.7265 5.09274 17.4382 4.63965H2.28031C2.03317 5.09274 1.78603 5.54583 1.58008 6.04011Z" fill="white"/>
<path d="M10.8342 0.479492C5.35477 0.479492 0.879883 4.51611 0.879883 9.50009C0.879883 9.74723 0.879883 9.95318 0.925545 10.2003H10.8799V0.479492H10.8342Z" fill="#2B2A6E"/>
<path d="M9.15921 9.66462L8.87088 9.45867L8.62374 9.66462L8.70612 9.3351L8.45898 9.17034H8.7885L8.87088 8.84082L8.99445 9.17034H9.32397L9.03564 9.3351L9.15921 9.66462Z" fill="white"/>
<path d="M9.15921 6.57499L9.03564 6.65737L9.15921 6.98688L8.87088 6.78093L8.62374 6.98688L8.70612 6.65737L8.58255 6.57499L8.45898 6.49261H8.7885L8.87088 6.16309L8.99445 6.49261H9.32397L9.15921 6.57499Z" fill="white"/>
<path d="M9.03564 3.85658L9.15921 4.1861L8.87088 3.98015L8.62374 4.1861L8.70612 3.85658L8.45898 3.65063H8.7885L8.87088 3.3623L8.99445 3.65063H9.32397L9.03564 3.85658Z" fill="white"/>
<path d="M9.03564 1.09682L9.15921 1.42634L8.87088 1.22039L8.62374 1.42634L8.70612 1.09682L8.45898 0.932059H8.7885L8.87088 0.602539L8.99445 0.932059H9.32397L9.03564 1.09682Z" fill="white"/>
<path d="M8.87088 3.3623L8.7885 3.65063H8.45898L8.70612 3.85658L8.62374 4.1861L8.87088 3.98015L9.15921 4.1861L9.03564 3.85658L9.32397 3.65063H8.99445L8.87088 3.3623Z" fill="white"/>
<path d="M8.87088 0.602539L8.7885 0.932059H8.45898L8.70612 1.09682L8.62374 1.42634L8.87088 1.22039L9.15921 1.42634L9.03564 1.09682L9.32397 0.932059H8.99445L8.87088 0.602539Z" fill="white"/>
<path d="M8.87088 6.16309L8.7885 6.49261H8.45898L8.58255 6.57499L8.70612 6.65737L8.62374 6.98688L8.87088 6.78093L9.15921 6.98688L9.03564 6.65737L9.15921 6.57499L9.32397 6.49261H8.99445L8.87088 6.16309Z" fill="white"/>
<path d="M8.99445 9.17034L8.87088 8.84082L8.7885 9.17034H8.45898L8.70612 9.3351L8.62374 9.66462L8.87088 9.45867L9.15921 9.66462L9.03564 9.3351L9.32397 9.17034H8.99445Z" fill="white"/>
</svg>
