<svg width="8" height="9" viewBox="0 0 8 9" fill="none" xmlns="http://www.w3.org/2000/svg">
<path d="M1.03728 5.39062C1.03728 5.43181 0.996094 5.473 0.996094 5.473L1.03728 5.39062Z" fill="white"/>
<path d="M0.953474 5.67773C0.912284 5.76011 0.912284 5.88368 0.871094 5.96606L0.953474 5.67773Z" fill="white"/>
<path d="M1.40726 8.68513L1.11893 8.47918L0.871791 8.68513L0.954171 8.35561L0.707031 8.19085H1.03655L1.11893 7.86133L1.20131 8.19085H1.53083L1.28369 8.35561L1.40726 8.68513Z" fill="white"/>
<path d="M2.60257 7.32575L2.31424 7.16099L2.0671 7.32575L2.14948 7.03742L1.90234 6.83147H2.23186L2.31424 6.50195L2.43781 6.83147H2.76733L2.479 7.03742L2.60257 7.32575Z" fill="white"/>
<path d="M2.52019 4.27748L2.60257 4.607L2.35543 4.40105L2.0671 4.607L2.19067 4.27748L1.90234 4.07153H2.23186L2.35543 3.7832L2.43781 4.07153H2.76733L2.52019 4.27748Z" fill="white"/>
<path d="M3.83695 8.68513L3.58981 8.47918L3.30148 8.68513L3.42505 8.35561L3.13672 8.19085H3.46624L3.58981 7.86133L3.67219 8.19085H4.00171L3.75457 8.35561L3.83695 8.68513Z" fill="white"/>
<path d="M3.87814 5.59549L3.75457 5.67787L3.83695 6.00739L3.58981 5.80144L3.30148 6.00739L3.42505 5.67787L3.30148 5.59549L3.13672 5.51311H3.46624L3.58981 5.18359L3.67219 5.51311H4.00171L3.87814 5.59549Z" fill="white"/>
<path d="M3.75457 2.87709L3.83695 3.20661L3.58981 3.00066L3.30148 3.20661L3.42505 2.87709L3.13672 2.67114H3.46624L3.58981 2.38281L3.67219 2.67114H4.00171L3.75457 2.87709Z" fill="white"/>
<path d="M5.07328 7.4488L4.78495 7.24285L4.53781 7.4488L4.62019 7.11928L4.37305 6.91333H4.70257L4.78495 6.625L4.90852 6.91333H5.23804L4.94971 7.11928L5.07328 7.4488Z" fill="white"/>
<path d="M4.9909 4.35951L5.07328 4.68903L4.82614 4.48308L4.53781 4.68903L4.66138 4.35951L4.37305 4.19475H4.70257L4.82614 3.86523L4.90852 4.19475H5.23804L4.9909 4.35951Z" fill="white"/>
<path d="M4.99072 1.59975L5.11429 1.92927L4.82596 1.72332L4.57882 1.92927L4.6612 1.59975L4.41406 1.3938H4.74358L4.82596 1.10547L4.94953 1.3938H5.27905L4.99072 1.59975Z" fill="white"/>
<path d="M6.3096 8.68513L6.06246 8.47918L5.77413 8.68513L5.8977 8.35561L5.60938 8.19085H5.93889L6.06246 7.86133L6.14484 8.19085H6.47436L6.22722 8.35561L6.3096 8.68513Z" fill="white"/>
<path d="M6.3096 5.59549L6.22722 5.67787L6.3096 6.00739L6.06246 5.80144L5.77413 6.00739L5.8977 5.67787L5.77413 5.59549L5.60938 5.51311H5.93889L6.06246 5.18359L6.14484 5.51311H6.47436L6.3096 5.59549Z" fill="white"/>
<path d="M6.22722 2.87709L6.3096 3.20661L6.06246 3.00066L5.77413 3.20661L5.8977 2.87709L5.60938 2.67114H5.93889L6.06246 2.38281L6.14484 2.67114H6.47436L6.22722 2.87709Z" fill="white"/>
<path d="M7.50296 7.4488L7.25582 7.24285L6.96749 7.4488L7.09106 7.11928L6.80273 6.91333H7.13225L7.25582 6.625L7.3382 6.91333H7.66772L7.42058 7.11928L7.50296 7.4488Z" fill="white"/>
<path d="M7.42041 4.35951L7.54398 4.68903L7.25565 4.48308L7.00851 4.68903L7.09089 4.35951L6.84375 4.19475H7.17327L7.25565 3.86523L7.37922 4.19475H7.70874L7.42041 4.35951Z" fill="white"/>
<path d="M7.46338 1.59975L7.58695 1.92927L7.29862 1.72332L7.05148 1.92927L7.13386 1.59975L6.88672 1.3938H7.21624L7.29862 1.10547L7.42219 1.3938H7.71052L7.46338 1.59975Z" fill="white"/>
<path d="M6.06159 0.240932L6.30873 0.446881L6.22635 0.117362L6.26754 0.0761719C6.14397 0.117362 5.97921 0.199742 5.85564 0.240932L5.81445 0.405691L6.06159 0.240932Z" fill="white"/>
<path d="M6.06246 2.38281L5.93889 2.67114H5.60938L5.8977 2.87709L5.77413 3.20661L6.06246 3.00066L6.3096 3.20661L6.22722 2.87709L6.47436 2.67114H6.14484L6.06246 2.38281Z" fill="white"/>
<path d="M6.06246 5.18359L5.93889 5.51311H5.60938L5.77413 5.59549L5.8977 5.67787L5.77413 6.00739L6.06246 5.80144L6.3096 6.00739L6.22722 5.67787L6.3096 5.59549L6.47436 5.51311H6.14484L6.06246 5.18359Z" fill="white"/>
<path d="M6.14484 8.19085L6.06246 7.86133L5.93889 8.19085H5.60938L5.8977 8.35561L5.77413 8.68513L6.06246 8.47918L6.3096 8.68513L6.22722 8.35561L6.47436 8.19085H6.14484Z" fill="white"/>
<path d="M3.58981 2.38281L3.46624 2.67114H3.13672L3.42505 2.87709L3.30148 3.20661L3.58981 3.00066L3.83695 3.20661L3.75457 2.87709L4.00171 2.67114H3.67219L3.58981 2.38281Z" fill="white"/>
<path d="M3.58981 5.18359L3.46624 5.51311H3.13672L3.30148 5.59549L3.42505 5.67787L3.30148 6.00739L3.58981 5.80144L3.83695 6.00739L3.75457 5.67787L3.87814 5.59549L4.00171 5.51311H3.67219L3.58981 5.18359Z" fill="white"/>
<path d="M3.67219 8.19085L3.58981 7.86133L3.46624 8.19085H3.13672L3.42505 8.35561L3.30148 8.68513L3.58981 8.47918L3.83695 8.68513L3.75457 8.35561L4.00171 8.19085H3.67219Z" fill="white"/>
<path d="M1.11754 5.18359L1.03516 5.38954C1.07635 5.34835 1.11754 5.26597 1.11754 5.18359Z" fill="white"/>
<path d="M1.40869 6.00739L1.28512 5.67787L1.40869 5.59549L1.57345 5.47192H1.20274L1.12036 5.18359C1.07917 5.26597 1.07917 5.30716 1.03798 5.38954L0.996791 5.47192C0.955601 5.5543 0.955601 5.59549 0.914411 5.67787L0.832031 5.9662C0.832031 5.9662 0.832031 5.9662 0.832031 6.00739L1.07917 5.80144L1.40869 6.00739Z" fill="white"/>
<path d="M1.20131 8.19085L1.11893 7.86133L1.03655 8.19085H0.707031L0.954171 8.35561L0.871791 8.68513L1.11893 8.47918L1.40726 8.68513L1.28369 8.35561L1.53083 8.19085H1.20131Z" fill="white"/>
<path d="M7.25565 3.86523L7.17327 4.19475H6.84375L7.09089 4.35951L7.00851 4.68903L7.25565 4.48308L7.54398 4.68903L7.42041 4.35951L7.70874 4.19475H7.37922L7.25565 3.86523Z" fill="white"/>
<path d="M7.3382 6.91333L7.25582 6.625L7.13225 6.91333H6.80273L7.09106 7.11928L6.96749 7.4488L7.25582 7.24285L7.50296 7.4488L7.42058 7.11928L7.66772 6.91333H7.3382Z" fill="white"/>
<path d="M4.82614 3.86523L4.70257 4.19475H4.37305L4.66138 4.35951L4.53781 4.68903L4.82614 4.48308L5.07328 4.68903L4.9909 4.35951L5.23804 4.19475H4.90852L4.82614 3.86523Z" fill="white"/>
<path d="M4.90852 6.91333L4.78495 6.625L4.70257 6.91333H4.37305L4.62019 7.11928L4.53781 7.4488L4.78495 7.24285L5.07328 7.4488L4.94971 7.11928L5.23804 6.91333H4.90852Z" fill="white"/>
<path d="M2.35543 3.7832L2.23186 4.07153H1.90234L2.19067 4.27748L2.0671 4.607L2.35543 4.40105L2.60257 4.607L2.52019 4.27748L2.76733 4.07153H2.43781L2.35543 3.7832Z" fill="white"/>
<path d="M2.43781 6.83147L2.31424 6.50195L2.23186 6.83147H1.90234L2.14948 7.03742L2.0671 7.32575L2.31424 7.16099L2.60257 7.32575L2.479 7.03742L2.76733 6.83147H2.43781Z" fill="white"/>
<path d="M4.82596 1.10547L4.74358 1.3938H4.41406L4.6612 1.59975L4.57882 1.92927L4.82596 1.72332L5.11429 1.92927L4.99072 1.59975L5.27905 1.3938H4.94953L4.82596 1.10547Z" fill="white"/>
<path d="M7.29862 1.10547L7.21624 1.3938H6.88672L7.13386 1.59975L7.05148 1.92927L7.29862 1.72332L7.58695 1.92927L7.46338 1.59975L7.71052 1.3938H7.42219L7.29862 1.10547Z" fill="white"/>
</svg>
