<svg width="204" height="141" viewBox="0 0 204 141" fill="none" xmlns="http://www.w3.org/2000/svg">
<rect y="0.44043" width="204" height="140" rx="16" fill="white"/>
<path d="M60.5844 76.4396C60.5844 87.0401 52.0003 95.634 41.4077 95.634C30.8151 95.634 22.2275 87.0401 22.2275 76.4396C22.2275 65.8391 30.8151 57.2451 41.4077 57.2451C52.0003 57.2451 60.5844 65.8391 60.5844 76.4396Z" fill="#EE3023"/>
<path d="M41.5591 87.143C36.291 87.1609 30.808 82.6609 30.7833 75.4317C30.7656 70.6534 33.3451 66.0513 36.6364 63.3219C39.8501 60.6629 44.2513 58.9526 48.2403 58.9385C48.7548 58.9385 49.2939 58.9807 49.6217 59.0936C46.1331 59.8165 43.3563 63.0679 43.3669 66.753C43.3669 66.8764 43.3774 67.0069 43.3914 67.0669C49.2304 68.4916 51.8803 72.018 51.8979 76.8951C51.912 81.7757 48.064 87.1218 41.559 87.1429" fill="white"/>
<path d="M174.115 75.7032C174.076 75.2201 173.974 74.7969 173.808 74.4407C173.643 74.081 173.438 73.7919 173.195 73.5697C172.952 73.344 172.691 73.1818 172.409 73.0724C172.124 72.9668 171.839 72.9138 171.546 72.9138C170.922 72.9138 170.33 73.1464 169.767 73.6121C169.203 74.0775 168.872 74.7722 168.773 75.7032H174.115ZM168.688 78.2881C168.766 79.4694 169.132 80.3229 169.795 80.8448C170.454 81.3667 171.31 81.6311 172.357 81.6311C172.843 81.6311 173.301 81.5853 173.727 81.5006C174.154 81.4126 174.534 81.3031 174.866 81.1657C175.197 81.0316 175.479 80.8941 175.711 80.7601C175.944 80.6227 176.116 80.4956 176.236 80.3793L177.195 83.3168C177.057 83.412 176.839 83.5425 176.539 83.7082C176.24 83.874 175.866 84.0256 175.422 84.1737C174.978 84.3183 174.453 84.4417 173.854 84.551C173.255 84.6567 172.596 84.7097 171.881 84.7097C170.968 84.7097 170.105 84.5651 169.28 84.2759C168.459 83.9832 167.737 83.5319 167.12 82.9218C166.5 82.3117 166.007 81.5535 165.64 80.6437C165.27 79.7339 165.087 78.6477 165.087 77.3888C165.087 76.2074 165.256 75.1601 165.594 74.2502C165.933 73.3404 166.398 72.5752 166.986 71.9545C167.578 71.3374 168.265 70.8613 169.048 70.5298C169.834 70.2019 170.669 70.0361 171.56 70.0361C172.452 70.0361 173.273 70.1843 174.03 70.4734C174.785 70.7626 175.436 71.214 175.99 71.8241C176.539 72.4341 176.976 73.224 177.293 74.1938C177.614 75.1601 177.773 76.3132 177.773 77.6497V78.288L168.688 78.2881Z" fill="#EE3023"/>
<path d="M72.9706 84.3893L67.1069 70.3857H70.9373L74.5951 79.685L78.14 70.3857H81.7978L76.1068 84.3893H72.9706Z" fill="#EE3023"/>
<path d="M92.0026 77.3154C92.0026 76.7335 91.9356 76.1799 91.7982 75.6544C91.6643 75.129 91.4599 74.6776 91.1885 74.3003C90.9172 73.9194 90.5895 73.6197 90.2019 73.3975C89.8143 73.1718 89.3597 73.059 88.8382 73.059C88.3166 73.059 87.8585 73.1718 87.4744 73.3975C87.0868 73.6196 86.7556 73.9194 86.4878 74.3003C86.2164 74.6776 86.0121 75.129 85.8781 75.6544C85.7407 76.1799 85.6737 76.7335 85.6737 77.3154C85.6737 77.9184 85.7407 78.4791 85.8781 78.994C86.0121 79.5088 86.2094 79.9602 86.4701 80.3481C86.7309 80.7361 87.0621 81.0428 87.4603 81.2685C87.855 81.4907 88.3166 81.6036 88.8382 81.6036C89.3597 81.6036 89.8143 81.4907 90.2019 81.2685C90.5895 81.0428 90.9172 80.7361 91.1885 80.3481C91.4599 79.9602 91.6643 79.5088 91.7982 78.994C91.9356 78.4791 92.0026 77.9184 92.0026 77.3154ZM95.544 77.3308C95.544 78.2441 95.4031 79.1398 95.1247 80.0214C94.8428 80.903 94.4269 81.6894 93.8737 82.3877C93.324 83.0859 92.6263 83.6466 91.7841 84.0733C90.9419 84.5 89.9587 84.7116 88.8382 84.7116C87.7141 84.7116 86.7309 84.5 85.8922 84.0733C85.05 83.6467 84.3523 83.0859 83.7991 82.3877C83.2494 81.6894 82.8336 80.903 82.5517 80.0214C82.2733 79.1398 82.1323 78.2441 82.1323 77.3308C82.1323 76.421 82.2733 75.5323 82.5517 74.6577C82.8336 73.7867 83.2494 73.0074 83.7991 72.3197C84.3523 71.632 85.05 71.0819 85.8922 70.6658C86.7309 70.2497 87.7141 70.0381 88.8382 70.0381C89.9587 70.0381 90.9384 70.2497 91.77 70.6658C92.6016 71.0819 93.2993 71.632 93.8596 72.3197C94.4234 73.0074 94.8428 73.7867 95.1247 74.6577C95.4031 75.5323 95.544 76.421 95.544 77.3308Z" fill="#EE3023"/>
<path d="M106.359 73.4672C105.665 73.1956 105.02 73.0581 104.421 73.0581C103.807 73.0581 103.275 73.1781 102.835 73.4107C102.391 73.6434 102.024 73.9573 101.735 74.3558C101.447 74.7543 101.232 75.2022 101.087 75.6994C100.943 76.1931 100.869 76.7045 100.869 77.2299C100.869 77.8118 100.932 78.3689 101.059 78.9049C101.182 79.4374 101.376 79.9065 101.637 80.3049C101.894 80.7034 102.222 81.0243 102.616 81.2677C103.011 81.5074 103.48 81.6309 104.019 81.6309C104.463 81.6309 104.914 81.5075 105.376 81.2677C105.837 81.0243 106.165 80.7352 106.359 80.4072L106.359 73.4672ZM106.648 84.3886L106.503 83.3165C106.176 83.6833 105.742 84.0077 105.199 84.2863C104.66 84.5684 104.022 84.7095 103.289 84.7095C102.327 84.7095 101.475 84.505 100.745 84.0994C100.009 83.6939 99.3921 83.1508 98.8918 82.4737C98.3914 81.7967 98.0073 81.0102 97.7465 80.1181C97.4893 79.2294 97.3589 78.2984 97.3589 77.3286C97.3589 76.4188 97.4928 75.5266 97.7606 74.6556C98.0319 73.7845 98.4407 73.0052 98.9904 72.3176C99.5437 71.6299 100.231 71.0798 101.062 70.6637C101.891 70.2475 102.867 70.0359 103.984 70.0359C104.717 70.0359 105.51 70.1734 106.359 70.4415V65.0107H109.957V84.3886H106.648Z" fill="#EE3023"/>
<path d="M120.091 77.8225C119.703 77.843 119.302 77.8791 118.893 77.9249C118.484 77.9743 118.096 78.0377 117.726 78.1153C116.944 78.2704 116.405 78.535 116.102 78.9123C115.802 79.2931 115.651 79.7022 115.651 80.1501C115.651 80.612 115.82 80.9858 116.162 81.268C116.504 81.5465 116.983 81.6876 117.607 81.6876C118.075 81.6876 118.53 81.5924 118.967 81.3984C119.404 81.2044 119.781 80.9611 120.091 80.672V77.8225ZM120.38 84.3782L120.239 83.3308C119.848 83.7611 119.354 84.0996 118.752 84.343C118.149 84.5863 117.49 84.7097 116.772 84.7097C116.169 84.7097 115.588 84.6073 115.038 84.4029C114.481 84.202 113.991 83.9092 113.565 83.5319C113.138 83.1545 112.793 82.6926 112.532 82.1389C112.268 81.5853 112.138 80.9611 112.138 80.2629C112.138 79.5682 112.272 78.951 112.546 78.4185C112.818 77.886 113.184 77.4382 113.653 77.0679C114.118 76.7011 114.654 76.4014 115.256 76.1687C115.855 75.936 116.49 75.7596 117.149 75.6432C117.614 75.548 118.125 75.4774 118.678 75.428C119.231 75.3786 119.693 75.3364 120.063 75.2975V75.093C120.063 74.3172 119.865 73.767 119.464 73.4356C119.066 73.1076 118.516 72.9419 117.818 72.9419C117.409 72.9419 117.018 72.9912 116.648 73.09C116.278 73.1852 115.95 73.3052 115.658 73.4497C115.366 73.5979 115.108 73.7424 114.883 73.887C114.661 74.0316 114.481 74.1621 114.344 74.2784L113.153 71.7535C113.308 71.6161 113.544 71.4538 113.864 71.2598C114.185 71.0658 114.569 70.8754 115.027 70.692C115.482 70.5085 115.993 70.3535 116.564 70.2265C117.134 70.0996 117.751 70.0361 118.407 70.0361C119.182 70.0361 119.89 70.1385 120.528 70.343C121.166 70.5474 121.719 70.8649 122.184 71.3021C122.646 71.7359 123.009 72.286 123.273 72.956C123.534 73.6225 123.664 74.4301 123.664 75.3787V84.3782H120.38Z" fill="#EE3023"/>
<path d="M134.786 68.2062C134.669 68.1499 134.444 68.0652 134.106 67.9592C133.764 67.8535 133.316 67.8006 132.752 67.8006C132.252 67.8006 131.829 67.9523 131.491 68.252C131.153 68.5517 130.983 69.0419 130.983 69.7189V70.3855H134.003V73.2912H131.012V84.389H127.41V73.2912H125.553V70.3855H127.41V69.6308C127.41 68.721 127.527 67.9522 127.759 67.321C127.992 66.6933 128.316 66.1784 128.732 65.7834C129.148 65.3849 129.637 65.0923 130.198 64.9089C130.761 64.7254 131.371 64.6338 132.03 64.6338C132.9 64.6338 133.619 64.7149 134.19 64.8807C134.761 65.0466 135.096 65.1558 135.191 65.2158L134.786 68.2062Z" fill="#EE3023"/>
<path d="M144.599 77.3154C144.599 76.7335 144.529 76.1799 144.395 75.6544C144.261 75.129 144.057 74.6776 143.785 74.3003C143.514 73.9194 143.186 73.6197 142.799 73.3975C142.411 73.1718 141.956 73.059 141.435 73.059C140.913 73.059 140.455 73.1718 140.071 73.3975C139.683 73.6196 139.352 73.9194 139.081 74.3003C138.813 74.6776 138.609 75.129 138.471 75.6544C138.337 76.1799 138.27 76.7335 138.27 77.3154C138.27 77.9184 138.337 78.4791 138.471 78.994C138.609 79.5088 138.806 79.9602 139.067 80.3481C139.328 80.7361 139.659 81.0428 140.053 81.2685C140.452 81.4907 140.913 81.6036 141.435 81.6036C141.956 81.6036 142.411 81.4907 142.799 81.2685C143.186 81.0428 143.514 80.7361 143.785 80.3481C144.057 79.9602 144.261 79.5088 144.395 78.994C144.529 78.4791 144.599 77.9184 144.599 77.3154ZM148.141 77.3308C148.141 78.2441 148 79.1398 147.718 80.0214C147.439 80.903 147.024 81.6894 146.47 82.3877C145.921 83.0859 145.223 83.6466 144.381 84.0733C143.539 84.5 142.555 84.7116 141.435 84.7116C140.311 84.7116 139.328 84.5 138.489 84.0733C137.647 83.6467 136.949 83.0859 136.396 82.3877C135.846 81.6894 135.43 80.903 135.148 80.0214C134.866 79.1398 134.729 78.2441 134.729 77.3308C134.729 76.421 134.866 75.5323 135.148 74.6577C135.43 73.7867 135.846 73.0074 136.396 72.3197C136.949 71.632 137.647 71.0819 138.489 70.6658C139.328 70.2497 140.311 70.0381 141.435 70.0381C142.555 70.0381 143.535 70.2497 144.367 70.6658C145.198 71.0819 145.896 71.632 146.456 72.3197C147.02 73.0074 147.439 73.7867 147.718 74.6577C148 75.5323 148.141 76.421 148.141 77.3308Z" fill="#EE3023"/>
<path d="M159.315 84.3891V76.4017C159.315 75.3367 159.093 74.5116 158.649 73.9297C158.201 73.3514 157.584 73.0587 156.788 73.0587C156.228 73.0587 155.71 73.2032 155.238 73.4959C154.762 73.7851 154.35 74.106 154.001 74.4551V84.3891H150.403V70.3856H153.684L153.856 71.4894C154.42 71.0275 155.051 70.6677 155.759 70.4174C156.464 70.1635 157.176 70.04 157.891 70.04C158.627 70.04 159.304 70.1493 159.924 70.3715C160.544 70.5972 161.076 70.9498 161.52 71.433C161.968 71.9161 162.31 72.5473 162.553 73.3196C162.793 74.0954 162.916 75.0264 162.916 76.109V84.3891H159.315Z" fill="#EE3023"/>
</svg>
