<svg width="204" height="141" viewBox="0 0 204 141" fill="none" xmlns="http://www.w3.org/2000/svg">
<rect y="0.44043" width="204" height="140" rx="16" fill="white"/>
<path fill-rule="evenodd" clip-rule="evenodd" d="M45.7959 67.8455H50.8514V68.5319C49.483 68.6159 49.3556 68.8712 49.3556 69.9781V79.157C49.3556 81.138 50.472 82.1606 52.03 82.1606C53.8222 82.1606 54.9164 81.01 54.9164 79.116V70.1913C54.9164 69.0837 54.581 68.6159 53.2935 68.5319V67.8455H57.3314V68.5319C56.0478 68.6159 55.7096 69.0837 55.7096 70.1913V78.6458C55.7096 81.2852 54.559 82.8434 51.6307 82.8434C48.683 82.8434 47.2929 81.2223 47.2929 78.5584V69.9781C47.2929 68.8712 47.1676 68.6159 45.7959 68.5319V67.8455ZM57.0259 82.4998V81.8149C58.0366 81.7704 58.3737 81.3872 58.3737 80.7461V74.0799C58.3737 73.1588 58.1215 73.0095 56.984 72.964V72.3023L60.0577 72.1627V74.2278H60.1007C60.6685 73.0334 61.4909 72.0508 62.925 72.0508C64.6735 72.0508 65.4952 73.2045 65.4952 75.0807V80.7499C65.4952 81.472 65.789 81.7704 66.7991 81.8149V82.4998H63.6852V74.911C63.6852 73.5031 63.1578 73.0334 62.4395 73.0334C61.324 73.0334 60.1844 74.5255 60.1844 76.6147V80.7499C60.1844 81.3872 60.5205 81.7704 61.532 81.8149V82.4998H57.0259ZM70.4295 69.0042C70.4295 69.8131 69.9863 70.3674 69.3529 70.3674C68.7215 70.3674 68.2771 69.8131 68.2771 69.0042C68.2771 68.192 68.7215 67.6396 69.3529 67.6396C69.9863 67.6396 70.4295 68.192 70.4295 69.0042ZM67.2717 82.4998V81.8149C68.2818 81.7704 68.6168 81.3872 68.6168 80.7461V73.9625C68.6168 73.045 68.3655 72.8949 67.2717 72.8523V72.1627L70.4295 72.0465V80.7461C70.4295 81.3872 70.7678 81.7704 71.7772 81.8149V82.4998H67.2717ZM75.0301 68.3766V72.3023H77.5662V73.1046H75.0301V80.6242C75.0301 81.5662 75.3466 81.9498 75.9191 81.9498C76.6169 81.9498 77.1435 81.4997 77.1435 79.2355V78.6384H77.8224V79.6423C77.8224 81.8004 77.0409 82.7532 75.4535 82.7532C74.0605 82.7532 73.2216 81.8648 73.2216 80.1535V73.1046H71.9134V72.4706C73.4305 71.8326 74.2305 71.106 74.3576 68.3766H75.0301ZM86.4396 77.3325C86.4396 74.268 84.9651 72.0508 82.6313 72.0508C80.2521 72.0508 78.5681 74.268 78.5681 77.395C78.5681 80.0671 80.2953 82.7532 82.9045 82.7532C85.2603 82.7532 86.2945 80.9033 86.4848 78.9972L85.809 78.8696C85.5972 80.3251 84.9452 81.9498 83.1147 81.9498C81.7046 81.9498 80.6322 80.3251 80.6322 77.3325H86.4396ZM80.6322 76.5298C80.6322 73.7994 81.4307 72.733 82.6313 72.733C83.7467 72.733 84.377 73.7994 84.377 76.5298H80.6322ZM92.1676 68.5096C93.2607 68.5527 93.5344 68.6996 93.5344 69.6177V73.4494L93.4921 73.4698C93.0716 72.6405 92.3579 72.0465 91.3684 72.0465C89.1599 72.0465 87.4958 74.3442 87.4958 77.4386C87.4958 80.7859 89.2433 82.7532 91.1356 82.7532C92.4182 82.7532 93.1141 82.0016 93.5749 80.9996H93.6195V82.5021L96.5663 82.3746V81.6984C95.7259 81.715 95.3458 81.3775 95.3458 80.2219V67.7069L92.1676 67.8436V68.5096ZM89.5612 77.4589C89.5612 74.1738 90.3158 72.8523 91.4745 72.8523C92.7558 72.8523 93.5344 74.4313 93.5344 77.4589C93.5344 81.1281 92.4182 82.0646 91.3046 82.0646C90.2541 82.0646 89.5612 80.7426 89.5612 77.4589ZM97.0901 82.4998V81.8149C98.3552 81.7285 98.5668 81.472 98.5668 80.3606V69.9741C98.5668 68.8712 98.3552 68.6152 97.0901 68.5319V67.8455H102.185V68.5319C100.882 68.6152 100.629 68.8712 100.629 69.9741V74.3906H105.172V69.9741C105.172 68.8712 104.916 68.6152 103.614 68.5319V67.8455H108.706V68.5319C107.444 68.6152 107.232 68.8712 107.232 69.9741V80.3606C107.232 81.472 107.444 81.7285 108.706 81.8149V82.4998H103.614V81.8149C104.916 81.7285 105.172 81.472 105.172 80.3606V75.1948H100.629V80.3606C100.629 81.472 100.882 81.7285 102.185 81.8149V82.4998H97.0901ZM116.891 77.3325C116.891 74.268 115.418 72.0508 113.082 72.0508C110.703 72.0508 109.018 74.268 109.018 77.395C109.018 80.0671 110.744 82.7532 113.356 82.7532C115.71 82.7532 116.745 80.9033 116.932 78.9972L116.259 78.8696C116.048 80.3251 115.395 81.9498 113.565 81.9498C112.155 81.9498 111.082 80.3251 111.082 77.3325H116.891ZM111.082 76.5298C111.082 73.7994 111.88 72.733 113.082 72.733C114.198 72.733 114.828 73.7994 114.828 76.5298H111.082ZM125.169 79.5555C125.126 81.0909 124.96 81.5598 124.56 81.5598C124.269 81.5598 124.12 81.2819 124.12 80.6666V74.7369C124.12 73.1399 123.213 72.0508 120.857 72.0508C119.026 72.0508 117.677 73.2045 117.677 74.6531C117.677 75.505 118.099 75.9344 118.689 75.9344C119.278 75.9344 119.743 75.4629 119.743 74.6966C119.743 74.0768 119.532 73.5649 118.856 73.5031C119.3 72.9678 119.909 72.733 120.647 72.733C121.762 72.733 122.311 73.267 122.311 74.4829V76.2311C120.497 76.9172 117.179 77.9202 117.179 80.3495C117.179 81.7593 118.121 82.7532 119.737 82.7532C121.211 82.7532 121.845 82.0534 122.35 81.0957H122.393C122.519 82.2437 123.087 82.7532 124.098 82.7532C125.401 82.7532 125.846 81.8004 125.846 79.5609L125.169 79.5555ZM122.311 78.2602C122.311 80.6704 121.34 81.9498 120.265 81.9498C119.614 81.9498 119.108 81.396 119.108 80.2645C119.108 78.4508 120.623 77.6419 122.311 77.0429V78.2602ZM125.568 82.4998V81.8149C126.579 81.7704 126.917 81.3872 126.917 80.7499V69.66C126.917 68.9339 126.558 68.5527 125.526 68.5096V67.8302L128.725 67.7069V80.7499C128.725 81.3872 129.063 81.7704 130.074 81.8149V82.4998H125.568ZM133.123 68.3766V72.3023H135.662V73.1046H133.123V80.6242C133.123 81.5662 133.442 81.9498 134.011 81.9498C134.712 81.9498 135.239 81.4997 135.239 79.2355V78.6384H135.915V79.6423C135.915 81.8004 135.133 82.7532 133.546 82.7532C132.155 82.7532 131.314 81.8648 131.314 80.1535V73.1046H130.008V72.4706C131.523 71.8326 132.323 71.106 132.452 68.3766H133.123ZM135.839 82.4998V81.8149C136.848 81.7704 137.189 81.3872 137.189 80.7499V69.6177C137.189 68.6996 136.934 68.5527 135.796 68.5096V67.8436L138.997 67.7069V73.9717H139.041C139.462 73.0334 140.263 72.0508 141.676 72.0508C143.298 72.0508 144.309 73.2045 144.309 75.0807V80.7499C144.309 81.3872 144.668 81.7704 145.614 81.8149V82.4998H142.498V75.0147C142.498 73.5261 141.97 73.0334 141.211 73.0334C140.158 73.0334 138.997 74.4401 138.997 76.4867V80.7499C138.997 81.3872 139.336 81.7704 140.348 81.8149V82.4998H135.839ZM153.444 78.9634C153.253 80.9792 152.329 82.7824 150.006 82.7824C147.869 82.7824 145.894 80.8479 145.894 77.6927C145.894 75.023 147.72 72.0216 150.264 72.0216C152.057 72.0216 153.188 73.151 153.188 74.8112C153.188 75.8324 152.875 76.3864 152.12 76.3864C151.531 76.3864 151.133 75.8733 151.133 75.1084C151.133 74.1928 151.448 73.8295 151.992 73.8295C152.139 73.8295 152.224 73.8941 152.31 73.9154L152.349 73.8742C152.037 73.0843 151.364 72.6923 150.582 72.6923C149.011 72.6923 147.951 74.3 147.951 77.3295C147.951 80.9385 149.053 81.9647 150.283 81.9647C151.992 81.9647 152.539 80.3791 152.77 78.8723L153.444 78.9634ZM162.182 79.5822C162.138 81.1345 161.975 81.6106 161.572 81.6106C161.282 81.6106 161.131 81.3295 161.131 80.7038V74.7196C161.131 73.1011 160.225 72.0216 157.844 72.0216C155.996 72.0216 154.654 73.1666 154.654 74.6299C154.654 75.4939 155.075 75.9237 155.661 75.9237C156.251 75.9237 156.71 75.4499 156.71 74.6734C156.71 74.0477 156.502 73.5304 155.829 73.4665C156.27 72.93 156.883 72.6923 157.628 72.6923C158.759 72.6923 159.315 73.2286 159.315 74.459V76.2247C157.491 76.8978 154.15 77.9119 154.15 80.3585C154.15 81.7732 155.098 82.7824 156.727 82.7824C158.211 82.7824 158.848 82.0728 159.357 81.1068H159.4C159.527 82.2669 160.096 82.7824 161.111 82.7824C162.409 82.7824 162.842 81.8194 162.842 79.5609L162.182 79.5822ZM159.315 78.2529C159.315 80.6777 158.34 81.9647 157.258 81.9647C156.599 81.9647 156.09 81.4109 156.09 80.2709C156.09 78.4453 157.617 77.6298 159.315 77.028V78.2529ZM163.105 82.5128V81.8449C163.991 81.8033 164.33 81.4163 164.33 80.7703V74.9364C164.33 73.4781 164.075 73.0057 163.019 72.964V72.2727L165.933 72.1464V74.6235H165.976C166.25 73.5076 167.001 72.0216 168.258 72.0216C169.037 72.0216 169.796 72.6692 169.796 73.8742C169.796 74.7981 169.355 75.2689 168.806 75.2689C168.343 75.2689 167.855 74.9697 167.855 74.0032C167.855 73.4873 168.151 72.9503 168.761 72.9503C168.658 72.7787 168.445 72.6923 168.215 72.6923C166.792 72.7122 166.145 75.8518 166.145 77.7176V80.7703C166.145 81.4145 166.479 81.8033 167.899 81.8449V82.5128H163.105ZM177.67 77.3626C177.67 74.251 176.203 72.0216 173.859 72.0216C171.471 72.0216 169.796 74.251 169.796 77.4265C169.796 80.0922 171.516 82.7824 174.134 82.7824C176.499 82.7824 177.522 80.9236 177.71 79.0273L177.05 78.8945C176.839 80.3478 176.184 81.9647 174.346 81.9647C172.927 81.9647 171.851 80.3478 171.851 77.3626H177.67ZM171.851 76.5464C171.851 73.7748 172.653 72.6923 173.858 72.6923C174.979 72.6923 175.614 73.7748 175.614 76.5464H171.851ZM178.133 70.3816H178.511C178.709 70.3816 178.773 70.5295 178.773 70.6623C178.773 70.8234 178.691 70.959 178.511 70.959H178.133V70.3816ZM178.133 71.1957H178.426C178.511 71.1957 178.677 71.2059 178.699 71.4028C178.718 71.6501 178.704 71.8886 178.773 72.0157H179.063C179.021 71.8991 178.994 71.6144 178.988 71.5337C178.98 71.1652 178.899 71.0925 178.672 71.0691V71.0608C178.904 71.0173 179.066 70.8509 179.066 70.6329C179.066 70.4067 178.908 70.1778 178.561 70.1778H177.837V72.0157H178.133V71.1957ZM178.43 69.4984C177.558 69.4984 176.85 70.2069 176.85 71.0871C176.849 71.2975 176.889 71.5059 176.969 71.7005C177.048 71.895 177.164 72.0718 177.311 72.2206C177.458 72.3694 177.633 72.4874 177.825 72.5677C178.017 72.648 178.223 72.6891 178.43 72.6886C179.295 72.6886 180 71.9795 180 71.0871C180 70.8784 179.959 70.6718 179.881 70.479C179.802 70.2863 179.686 70.1111 179.54 69.9636C179.394 69.8161 179.221 69.6991 179.031 69.6192C178.841 69.5394 178.637 69.4983 178.43 69.4984ZM178.43 69.7365C178.606 69.736 178.781 69.7708 178.943 69.8388C179.106 69.9068 179.253 70.0067 179.378 70.1327C179.502 70.2588 179.6 70.4085 179.667 70.5732C179.734 70.7379 179.768 70.9144 179.767 71.0925C179.767 71.8484 179.176 72.4512 178.43 72.4512C178.254 72.452 178.079 72.4175 177.915 72.3496C177.752 72.2816 177.603 72.1816 177.478 72.0553C177.353 71.9291 177.254 71.779 177.187 71.6137C177.119 71.4485 177.085 71.2713 177.085 71.0925C177.085 70.3428 177.685 69.7365 178.43 69.7365Z" fill="#1F3570"/>
<path fill-rule="evenodd" clip-rule="evenodd" d="M29.9027 85.146C29.2841 85 28.7082 84.4623 28.4856 83.8536C27.8309 83.7445 27.2741 83.1926 27.0352 82.4642C27.0419 82.4642 27.0461 82.4642 27.0529 82.4661L29.3157 82.725C30.2005 82.3911 31.4688 81.3623 32.1701 78.8201C32.6659 77.021 32.7372 74.3087 32.7372 71.2127V59.201L31.3284 58.8841L34.0035 57.4326V72.4104C34.0035 75.088 33.8999 77.4579 33.3438 79.3618C33.0002 80.7387 31.5551 83.5486 29.0513 83.8856L30.8183 84.099C32.4235 83.6984 33.7405 82.2252 34.4712 80.3269C35.3053 78.1184 35.4423 75.1675 35.4423 71.686V57.7578L34.0035 57.4326L36.7221 55.9592V72.3018C36.7221 76.3984 36.2941 79.2425 35.41 81.2449C34.7957 82.5965 33.089 85.1766 30.4812 85.2002L32.5042 85.4456C34.061 85.1737 35.6971 83.8579 36.6709 81.8198C37.7125 79.6432 38.1906 76.4147 38.1906 71.686V56.2893L36.7221 55.9592L39.4828 54.46V71.8135C39.4828 78.3144 38.5047 83.1299 35.4259 85.2916C34.4479 85.9549 33.4205 86.5097 32.1633 86.4564C31.2386 86.4162 30.3908 85.9836 29.9027 85.146Z" fill="#7E868A"/>
<path fill-rule="evenodd" clip-rule="evenodd" d="M27.4612 82.4999H27.4545H27.4928C27.5052 82.4999 27.5134 82.4999 27.5269 82.4968C27.54 82.4968 27.5517 82.4968 27.5648 82.4963C27.5776 82.4963 27.5893 82.4963 27.6017 82.4935C27.6146 82.4935 27.627 82.4925 27.6394 82.4925C27.655 82.489 27.6674 82.489 27.6831 82.488C27.6941 82.4871 27.7079 82.4843 27.7174 82.4824C27.7359 82.4795 27.7516 82.4788 27.7689 82.475C27.7806 82.4746 27.7908 82.4722 27.803 82.4712C27.8236 82.4693 27.8406 82.4639 27.8584 82.4611C27.8687 82.4601 27.879 82.4575 27.8899 82.4556C27.9119 82.4499 27.9304 82.4473 27.951 82.4435C27.9641 82.4407 27.9736 82.4362 27.9872 82.4334C28.0064 82.4289 28.0283 82.4246 28.0503 82.4187C28.0611 82.4143 28.0723 82.4109 28.0837 82.4085C28.1078 82.4019 28.1284 82.3965 28.1522 82.3882C28.1611 82.3834 28.1735 82.3799 28.1873 82.3752C28.209 82.3688 28.2338 82.3605 28.2558 82.352C28.2668 82.3475 28.2775 82.3413 28.2899 82.3373C28.3119 82.3309 28.3378 82.3198 28.3612 82.3087C28.3743 82.3051 28.3868 82.2994 28.3981 82.2918C28.4215 82.2826 28.4475 82.2698 28.4734 82.2587C28.483 82.254 28.4961 82.2466 28.5085 82.2417C28.5323 82.2282 28.5578 82.2142 28.5844 82.2005C28.5971 82.1959 28.6088 82.1886 28.6186 82.1792C28.6448 82.1681 28.6728 82.1506 28.6973 82.1366C28.709 82.1283 28.72 82.1219 28.7324 82.1144C28.7584 82.0968 28.7878 82.0812 28.8138 82.0637C28.824 82.0552 28.8364 82.0452 28.8488 82.0367C28.8766 82.0185 28.9034 81.9988 28.929 81.9776C28.9425 81.9694 28.9553 81.9601 28.9673 81.9499C28.9926 81.9286 29.0199 81.9092 29.048 81.8867C29.0604 81.876 29.0728 81.8649 29.0831 81.8538C29.1118 81.8315 29.1392 81.8093 29.1639 81.7854C29.1775 81.7724 29.1899 81.7594 29.2016 81.7475C29.231 81.7229 29.2563 81.6985 29.2829 81.6725C29.2977 81.6588 29.3114 81.644 29.3241 81.6283C29.3514 81.601 29.3748 81.576 29.4007 81.5478C29.4178 81.5312 29.4337 81.5123 29.4472 81.495C29.472 81.4683 29.4966 81.4406 29.5192 81.4101C29.5349 81.3944 29.5487 81.3757 29.5651 81.3547C29.5898 81.3241 29.6144 81.2962 29.6385 81.2626C29.6527 81.2432 29.6679 81.2233 29.6815 81.2039C29.7077 81.1682 29.7308 81.1365 29.7556 81.1041C29.7705 81.0823 29.7869 81.0579 29.8007 81.0357C29.8241 80.9997 29.8446 80.9663 29.8692 80.9303C29.8855 80.9062 29.9021 80.8776 29.9185 80.8525C29.9405 80.8156 29.9622 80.7824 29.9842 80.7436C30.0008 80.7157 30.0157 80.6889 30.0295 80.6613C30.052 80.6215 30.0747 80.5817 30.098 80.5439C30.1137 80.5115 30.1268 80.4809 30.1417 80.4532C30.1637 80.4116 30.1862 80.3709 30.206 80.3266C30.224 80.2933 30.239 80.2563 30.256 80.222C30.2745 80.1811 30.2958 80.1399 30.3143 80.0973C30.3316 80.0575 30.3486 80.0173 30.3657 79.9757C30.3827 79.9347 30.4012 79.894 30.4197 79.8505C30.4356 79.8098 30.4498 79.7705 30.4678 79.7262C30.4842 79.6794 30.5034 79.636 30.5211 79.588C30.5349 79.5482 30.5513 79.5038 30.5651 79.4604C30.5828 79.41 30.6041 79.3615 30.6198 79.3102C30.6396 79.2515 30.6574 79.1885 30.6773 79.1284C30.6883 79.0905 30.7021 79.0546 30.7142 79.0158C30.7444 78.914 30.7745 78.8096 30.8047 78.7031C31.2231 77.176 31.3285 74.0838 31.3285 72.0272V58.8838L25 62.3158V75.8601C25 81.0269 25.917 82.2632 27.0531 82.4658C27.0463 82.4639 27.0421 82.4639 27.0353 82.4639L27.4612 82.4999Z" fill="#1F3570"/>
</svg>
