<svg width="204" height="141" viewBox="0 0 204 141" fill="none" xmlns="http://www.w3.org/2000/svg">
<rect y="0.44043" width="204" height="140" rx="16" fill="white"/>
<path d="M59.1319 57.2396C56.1737 55.2998 50.2282 59.0083 45.4661 65.3696C41.1113 71.0757 39.2309 77.7076 41.2773 80.7743C44.3214 84.3829 49.9725 79.134 52.3757 76.3246L52.6858 75.9962C54.3201 74.2417 55.5827 72.1305 56.8048 70.1049C56.8048 70.1049 57.928 68.2506 57.9816 68.1649C58.6758 68.037 59.512 67.8373 60.4542 67.5662C60.4407 67.6086 56.8492 73.6423 57.2156 76.6372C57.3297 77.5509 57.2425 80.8885 60.5029 81.901C64.8483 82.629 68.3182 79.2623 71.3793 76.2669C71.3793 76.2669 71.9009 75.7681 72.196 75.4834C72.1213 75.7822 72.024 76.1807 72.024 76.1807C70.7518 80.6026 72.4666 81.5303 73.5393 81.8728C76.7812 82.8147 80.6541 78.1073 80.6666 78.1073C80.5662 79.5901 80.2725 80.8168 81.8364 81.801C83.3125 82.3292 84.8064 81.5241 85.9419 80.7681C90.0321 77.8869 93.3272 73.3775 95.9887 69.4795H94.2911C94.271 69.4795 90.1019 75.519 87.3947 76.8317C87.3904 76.8317 86.8978 77.0845 86.6139 76.8845C86.2625 76.5847 86.4011 75.9618 86.6182 75.5206C86.6318 75.4918 97.0708 57.3957 97.0708 57.3957H92.142C92.142 57.3957 91.6036 58.2663 91.5597 58.3234C91.5265 58.295 91.4476 58.1453 91.3928 58.0736C88.3391 53.8517 81.4238 60.3457 76.2174 67.8766C74.213 70.7725 71.6611 74.0329 69.0149 76.3863C69.0149 76.3863 65.0948 79.978 63.4198 77.3975C62.8075 76.3133 62.9958 74.7281 63.3412 73.6872C65.2914 68.1386 68.6518 63.103 72.4758 60.0645C73.5553 59.2235 74.7286 58.9802 75.3109 59.3369C75.8657 59.6655 75.9552 60.4779 75.6042 61.0343C74.7136 61.0058 74.0001 61.2764 73.42 61.8755C72.2773 63.0737 71.8802 64.2293 72.2435 65.3135C74.0085 67.8238 77.5284 62.8599 77.3582 59.836C77.2974 58.7518 76.7186 57.7251 75.8549 57.2254C74.5677 56.4555 72.6041 56.6549 71.3333 57.2686C69.6321 57.9102 66.9391 60.1494 65.3672 61.8899C63.3884 64.0726 59.9946 66.4971 58.9332 66.2256C59.2809 65.2981 62.1476 59.4359 59.1319 57.2396ZM82.8948 65.9118C83.8537 64.5856 86.6443 61.0337 87.3247 60.4348C89.6128 58.4228 90.5274 59.3081 90.6065 59.9352C88.4711 63.7578 85.9507 68.137 83.5811 72.074C83.5859 72.06 82.8395 73.2007 82.8395 73.2007C81.7929 74.7979 80.7391 76.1673 79.0202 77.1229C78.7751 77.1946 78.371 77.2232 78.1021 77.0229C77.7784 76.8089 77.6507 76.4522 77.6872 76.0811C77.7901 74.8548 79.0395 71.1042 82.8948 65.9118ZM56.0813 68.2082C56.0813 68.2082 56.0384 68.337 56.0172 68.3791C56.0117 68.3791 53.8682 71.8732 53.8682 71.8732C52.5746 73.5995 50.9594 75.7681 48.9404 76.8089C48.3419 77.0087 47.5147 77.1373 47.0932 76.6099C46.1995 75.5399 46.6601 74.0565 47.0343 72.8585L47.1667 72.4305C48.2396 69.521 49.9419 66.953 51.5988 64.5709C51.6195 64.5569 51.6659 64.5427 51.6827 64.5427C51.6866 64.5569 51.6932 64.5569 51.6961 64.5856C52.7359 66.5821 54.6855 67.5089 56.1435 67.9374C56.1523 67.9374 56.1616 67.9517 56.1616 67.9803C56.1618 68.0228 56.1381 68.0803 56.0813 68.2082ZM58.112 64.0864C58.1027 64.1149 57.1573 66.2827 57.1573 66.2827C57.0206 66.3968 56.8046 66.3398 56.5569 66.2827L56.1326 66.211C54.8002 65.7976 53.7951 64.9132 53.4853 63.8578C53.0578 61.8038 54.8134 60.1919 55.587 59.6074C56.3292 59.0935 57.483 58.8226 58.153 59.3506C58.5662 59.8357 58.7228 60.463 58.7228 61.1481C58.723 62.0751 58.4367 63.1162 58.112 64.0864Z" fill="#E61D2A"/>
<path d="M120.422 70.7048C119.947 69.6781 118.818 69.0219 117.616 69.093C113.711 69.4499 109.892 72.6591 107.887 77.2659C106.835 79.6339 106.261 81.5878 105.884 84.6972C107.098 83.2998 109.575 81.0035 112.385 79.7482C112.385 79.7482 112.767 76.7672 114.717 74.114C115.455 73.0153 116.932 71.2468 118.59 71.7173C120.039 72.2026 119.53 76.2107 117.604 80.0896C116.18 82.9428 113.999 85.7963 111.794 87.7642C109.843 89.4189 106.958 91.4156 104.434 89.8753C102.844 88.9344 102.032 86.9655 102.204 84.4265C102.964 77.2236 106.244 71.0901 110.939 64.101C115.779 57.6111 121.115 50.95 128.304 47.3977C129.77 46.6561 131.128 46.485 132.301 46.9415C132.301 46.9415 125.554 50.65 122.337 57.5111C121.519 59.2515 120.381 61.6044 121.527 63.6871C122.126 64.7709 123.189 64.8567 124.045 64.7995C127.988 63.8864 130.535 60.2065 132.616 56.8406C133.823 54.2874 134.896 51.7485 134.896 48.9242C134.896 48.5819 134.878 48.1257 134.849 47.7831C136.732 46.785 140.595 48.5533 140.595 48.5533C143.613 49.5522 150.04 54.4734 152.208 55.4143C153.266 54.1878 155.004 52.3338 155.982 51.4064L154.566 50.5362C152.298 49.1526 149.901 47.8402 147.541 46.5423C142.183 43.6186 137.821 44.6454 135.601 45.4443C134.729 45.7578 133.932 46.029 133.932 46.029C132.284 44.2318 129.583 44.4025 127.592 44.8878C120.433 46.9417 113.786 51.9481 106.659 60.6349C101.42 67.4389 98.1701 73.3157 96.4379 79.1208C95.1028 83.0287 94.697 88.7771 97.9558 92.1863C100.727 95.0809 104.401 94.4539 106.995 93.413C112.616 90.6458 117.669 84.6832 120.186 77.8223C120.793 75.7829 121.468 72.9017 120.422 70.7048ZM133.348 49.2097C132.603 57.7395 125.97 62.7465 124.328 63.1452C123.334 63.3446 121.636 62.9028 123.152 59.3231C125.383 54.5014 129.193 50.4082 133.28 48.3112C133.379 48.6679 133.377 48.8955 133.348 49.2097Z" fill="#E61D2A"/>
<path d="M172.698 50.2931C169.13 52.3189 165.431 53.6308 160.953 53.1745C159.712 54.5727 158.504 56.0132 157.39 57.4964C163.675 59.094 170.338 55.5423 174.053 52.1622C177.984 48.753 180 44.46 180 44.46C180 44.46 177.053 47.8259 172.698 50.2931Z" fill="#E61D2A"/>
<path d="M102.621 61.6843L105.263 57.3965H100.582L97.9414 61.6843H102.621Z" fill="#E61D2A"/>
<path d="M83.9059 88.9769C78.1011 85.2395 70.2233 84.5837 57.5184 88.1067C43.9743 91.2878 39.4585 93.3271 33.5279 89.2334C31.2495 87.2224 30.4327 83.9845 31.0426 79.3206C32.4573 71.7176 36.2805 64.4008 43.0714 56.2848C46.862 52.0629 50.3781 48.4397 55.021 46.9848C58.5794 46.0721 58.2467 48.8671 57.8162 49.2669C57.3618 49.2669 56.5986 49.3384 56.0087 49.7231C55.53 50.0942 54.2159 51.2925 54.1453 52.9043C54.0435 55.3717 56.5984 54.8582 57.7004 53.5034C58.8881 51.9768 60.6435 49.0533 59.2627 46.3286C58.6839 45.3587 57.684 44.6885 56.4424 44.4603C52.191 44.2174 48.2315 46.243 44.5774 48.4824C36.5859 54.031 30.1932 61.7194 26.5759 70.1352C24.4904 75.2129 22.6044 82.4865 25.4315 88.4066C27.6184 92.5143 32.1588 94.6962 37.5757 94.24C41.3749 93.841 45.9689 92.6137 49.0587 91.8727C52.1485 91.1305 67.9648 85.6965 73.1615 95.154C73.1615 95.154 74.8896 91.8012 79.2083 91.7297C82.7589 91.4022 87.881 92.757 91.6111 95.4951C90.3684 93.6272 86.8451 90.8742 83.9059 88.9769Z" fill="#E61D2A"/>
<path d="M160.934 89.3749C160.431 89.7171 159.724 89.454 159.988 88.6697C160.647 86.6728 163.265 82.6033 163.265 82.6033L170.557 69.6764H165.562C165.325 70.0662 164.817 70.9613 164.817 70.9613C164.586 70.5766 163.895 69.721 163.61 69.5362C162.39 68.7654 160.599 69.1299 159.364 69.8286C153.994 72.967 150.076 79.1678 146.986 84.0034C146.986 84.0034 143.733 89.3788 141.927 89.7785C140.518 89.8927 140.663 87.9948 140.724 87.5526C141.269 84.357 142.535 81.3191 143.81 78.5661C146.404 76.769 149.364 74.4155 152.054 71.8339C157.892 66.2563 162.814 59.9374 163.533 58.5254C163.533 58.5254 162.754 58.6825 161.835 58.7107C157.344 64.9725 148.153 74.0731 145.367 75.4278C146.601 72.4605 154.576 58.297 161.363 51.5218L162.431 50.4945C164.082 48.8827 165.793 47.2282 167.126 46.9571C167.267 46.9429 167.449 46.9571 167.605 47.2857C167.665 48.5407 167.197 49.468 166.661 50.5234L165.909 52.0641C165.909 52.0641 166.974 51.8643 167.673 51.6355C168.484 50.11 169.383 48.3978 169.051 46.3586C168.941 45.7023 168.466 45.2032 167.845 45.089C165.82 44.7039 163.614 46.2011 161.838 47.414L161.767 47.4564C152.64 54.6026 144.934 64.9011 138.196 78.9653C137.708 79.3356 135.822 79.7782 135.501 79.564C136.166 78.195 137.004 76.3546 137.423 74.3577C137.496 73.787 137.563 73.2025 137.563 72.632C137.563 71.4043 137.268 70.2494 136.168 69.4509C134.878 68.8089 133.283 69.1086 132.208 69.5933C127.392 71.5903 123.793 76.5259 121.195 80.5905C119.798 83.173 118.405 85.9388 118.02 89.1059C117.748 91.5874 118.301 93.185 119.713 93.9841C121.164 94.7253 122.992 93.9548 123.709 93.5843C128.588 91.0169 131.997 85.868 134.685 81.1606C134.792 81.1466 136.259 81.1041 137.369 80.8184C137.383 80.8184 137.39 80.8184 137.414 80.8334C137.351 81.0464 136.777 82.7586 136.777 82.7586C135.074 87.7506 134.286 91.1457 135.895 93.1565C138.194 95.9952 142 93.0571 145.096 89.1767C144.431 93.8266 146.842 94.5543 148.68 94.1981C150.792 93.6278 153.144 91.3736 154.236 90.2186C153.885 91.5733 153.981 93.9985 155.901 94.2407C157.218 94.484 158.203 93.7683 159.343 93.1548C163.432 90.9294 168.327 83.514 169.597 81.3701H167.931C166.125 84.0989 163.826 87.6767 160.934 89.3749ZM124.232 88.8783C123.972 88.4931 123.886 88.072 123.878 87.6167C123.828 84.8199 126.838 79.8111 128.964 77.0826C128.968 77.0826 128.968 77.0826 128.968 77.0826C129.859 79.0315 131.875 80.2844 133.093 80.8123C131.581 84.1788 126.395 91.3886 124.232 88.8783ZM133.946 79.3073C133.802 79.4077 131.259 78.5515 130.768 76.1981C130.351 74.1719 131.747 72.5887 133.097 71.7906C133.677 71.334 134.55 71.1775 135.191 71.4047C135.785 71.8047 135.946 72.5184 135.946 73.2875C135.946 73.7591 135.884 74.2436 135.829 74.6857C135.829 74.6857 135.818 74.7716 135.816 74.7859C135.393 76.3686 134.744 77.9235 133.946 79.3073ZM154.342 87.9798C154.34 87.9798 153.86 88.4076 153.86 88.4076C153.174 89.0205 152.468 89.6768 151.616 89.3486C151.38 89.263 151.215 88.9496 151.175 88.7064C151.136 86.9519 151.927 85.3262 152.693 83.7432L152.89 83.3293C155.095 79.6494 157.658 75.3132 161.422 72.304C162.057 71.8466 162.745 71.4622 163.472 71.762C163.639 71.9185 163.833 72.1898 163.833 72.4605C163.833 72.5465 163.757 72.7745 163.713 72.8454C162.662 74.5436 161.661 76.3263 160.687 78.0378C158.784 81.4185 156.81 84.9126 154.342 87.9798Z" fill="#E61D2A"/>
</svg>
