<svg width="16" height="16" viewBox="0 0 16 16" fill="none" xmlns="http://www.w3.org/2000/svg">
<path d="M12.6665 7.33332H8.6665V3.33332C8.6665 3.15651 8.59627 2.98694 8.47124 2.86192C8.34622 2.73689 8.17665 2.66666 7.99984 2.66666C7.82303 2.66666 7.65346 2.73689 7.52843 2.86192C7.40341 2.98694 7.33317 3.15651 7.33317 3.33332V7.33332H3.33317C3.15636 7.33332 2.98679 7.40356 2.86177 7.52859C2.73674 7.65361 2.6665 7.82318 2.6665 7.99999C2.6665 8.1768 2.73674 8.34637 2.86177 8.47139C2.98679 8.59642 3.15636 8.66666 3.33317 8.66666H7.33317V12.6667C7.33317 12.8435 7.40341 13.013 7.52843 13.1381C7.65346 13.2631 7.82303 13.3333 7.99984 13.3333C8.17665 13.3333 8.34622 13.2631 8.47124 13.1381C8.59627 13.013 8.6665 12.8435 8.6665 12.6667V8.66666H12.6665C12.8433 8.66666 13.0129 8.59642 13.1379 8.47139C13.2629 8.34637 13.3332 8.1768 13.3332 7.99999C13.3332 7.82318 13.2629 7.65361 13.1379 7.52859C13.0129 7.40356 12.8433 7.33332 12.6665 7.33332Z" fill="black"/>
</svg>
