<svg width="100" height="19" viewBox="0 0 100 19" fill="none" xmlns="http://www.w3.org/2000/svg">
<path d="M0.0078125 18.6008H18.2965V0.330078H0.0078125V18.6008Z" fill="#6600B6"/>
<path d="M15.5981 8.10311L5.22499 15.6312L6.73863 10.9785L2.77637 8.10311H7.67392L9.18725 3.4502L10.7006 8.10311H15.5981ZM9.18763 12.756L12.0206 12.1607L13.1493 15.6312L9.18763 12.756Z" fill="white"/>
<path d="M20.2178 18.6008H38.5065V0.330078H20.2178V18.6008Z" fill="#6600B6"/>
<path d="M20.2178 18.6008H29.3621V0.330078H20.2178V18.6008Z" fill="#6600B6"/>
<path d="M29.5814 12.6858L32.0107 12.1613L33.1342 15.7105L29.3246 12.87L25.3664 15.7105L26.9027 11.041L22.8809 8.15516H27.852L29.3877 3.48535L30.9239 8.15516H35.8948L29.5814 12.6858Z" fill="white"/>
<path d="M40.4424 18.6008H58.7311V0.330078H40.4424V18.6008Z" fill="#6600B6"/>
<path d="M40.4424 18.6008H49.5867V0.330078H40.4424V18.6008Z" fill="#6600B6"/>
<path d="M56.0337 8.10311L45.6605 15.6312L47.1742 10.9786L43.2119 8.10311H48.1095L49.6228 3.4502L51.1361 8.10311L56.0337 8.10311ZM49.6232 12.756L52.4561 12.1607L53.5848 15.6312L49.6232 12.756Z" fill="white"/>
<path d="M60.667 18.6008H78.9557V0.330078H60.667V18.6008Z" fill="#6600B6"/>
<path d="M60.667 18.6008H69.8113V0.330078H60.667V18.6008Z" fill="#6600B6"/>
<path d="M76.2573 8.10311L65.8845 15.6312L67.3978 10.9786L63.4355 8.10311H68.3331L69.8464 3.4502L71.3598 8.10311L76.2573 8.10311ZM69.8468 12.756L72.6797 12.1607L73.8084 15.6312L69.8468 12.756Z" fill="white"/>
<path d="M80.877 18.6008H99.1657V0.330078H80.877V18.6008Z" fill="#6600B6"/>
<path d="M80.877 18.6008H90.0213V0.330078H80.877V18.6008Z" fill="#6600B6"/>
<path d="M96.4673 8.10311L86.0944 15.6312L87.6078 10.9786L83.6455 8.10311H88.5431L90.0564 3.4502L91.5697 8.10311H96.4673ZM90.0568 12.756L92.8897 12.1607L94.0184 15.6312L90.0568 12.756Z" fill="white"/>
</svg>
