<svg width="24" height="25" viewBox="0 0 24 25" fill="none" xmlns="http://www.w3.org/2000/svg">
<path d="M17 8.44043H13V10.4404H17V8.44043Z" fill="#0A6ECC"/>
<path d="M10 8.44043H3V10.4404H10V8.44043Z" fill="#0A6ECC"/>
<path d="M8 11.4404H3V13.4404H8V11.4404Z" fill="#0A6ECC"/>
<path d="M2 7.44043H18V10.4404H20V2.44043C20 1.33643 19.104 0.44043 18 0.44043H2C0.896 0.44043 0 1.33643 0 2.44043V14.4404C0 15.5434 0.896 16.4404 2 16.4404H14V14.4404H2V7.44043ZM18 2.44043V5.44043H2V2.44043H18Z" fill="#0A6ECC"/>
<path d="M21 17.4404H19C18.449 17.4404 18 16.9914 18 16.4404C18 15.8894 18.449 15.4404 19 15.4404H23V13.4404H21V12.4404H19V13.4404C17.346 13.4404 16 14.7864 16 16.4404C16 18.0944 17.346 19.4404 19 19.4404H21C21.551 19.4404 22 19.8894 22 20.4404C22 20.9914 21.551 21.4404 21 21.4404H17V23.4404H19V24.4404H21V23.4404C22.654 23.4404 24 22.0944 24 20.4404C24 18.7864 22.654 17.4404 21 17.4404Z" fill="#0A6ECC"/>
</svg>
