<svg width="76" height="57" viewBox="0 0 76 57" fill="none" xmlns="http://www.w3.org/2000/svg">
<g clip-path="url(#clip0_97_38032)">
<g clip-path="url(#clip1_97_38032)">
<g clip-path="url(#clip2_97_38032)">
<path d="M9.89941 45.4443H15.9232V46.5647H13.5526V52.8807H12.2537V46.5647H9.89941V45.4443ZM15.6634 47.4901H16.7675V48.5293H16.7837C16.8162 48.3832 16.8811 48.237 16.9948 48.1071C17.0922 47.9772 17.2221 47.8474 17.352 47.7337C17.4981 47.62 17.6443 47.5226 17.8229 47.4577C18.0015 47.3927 18.1801 47.3603 18.3587 47.3603C18.4886 47.3603 18.6022 47.3603 18.6509 47.3765C18.6996 47.3765 18.7484 47.3927 18.8133 47.3927V48.5293C18.7321 48.5131 18.6509 48.4968 18.5535 48.4968C18.4723 48.4806 18.3749 48.4806 18.2937 48.4806C18.0989 48.4806 17.9041 48.5293 17.7255 48.5942C17.5468 48.6754 17.4007 48.7891 17.2708 48.9514C17.1409 49.1138 17.0273 49.2924 16.9623 49.536C16.8974 49.7795 16.8487 50.0231 16.8487 50.3316V52.8969H15.6634V47.4901ZM24.2688 52.8645H23.0998V52.1176H23.0835C22.9374 52.3936 22.7263 52.6047 22.4341 52.767C22.1418 52.9294 21.8495 53.0106 21.5573 53.0106C20.8429 53.0106 20.3395 52.832 20.0148 52.491C19.7063 52.1338 19.5439 51.6142 19.5439 50.8998V47.4901H20.7292V50.7862C20.7292 51.257 20.8104 51.598 21.0052 51.7928C21.1838 51.9877 21.4436 52.0851 21.7684 52.0851C22.0281 52.0851 22.223 52.0526 22.3854 51.9714C22.5477 51.8903 22.6938 51.7928 22.7913 51.663C22.8887 51.5331 22.9699 51.3869 23.0186 51.2083C23.0673 51.0297 23.0835 50.8349 23.0835 50.6238V47.5064H24.2688V52.8645ZM26.2821 51.1434C26.3146 51.4843 26.4445 51.7279 26.6718 51.874C26.8991 52.0039 27.1751 52.0851 27.4999 52.0851C27.6135 52.0851 27.7434 52.0689 27.8733 52.0526C28.0195 52.0364 28.1493 52.0039 28.2792 51.9552C28.4091 51.9065 28.5065 51.8416 28.5877 51.7441C28.6689 51.6467 28.7014 51.5331 28.7014 51.3707C28.7014 51.2246 28.6364 51.0947 28.539 50.9973C28.4416 50.8998 28.2955 50.8186 28.1331 50.7537C27.9707 50.6888 27.7921 50.64 27.5811 50.6076C27.37 50.5589 27.1589 50.5264 26.9478 50.4777C26.7205 50.429 26.5094 50.364 26.3146 50.2991C26.1035 50.2341 25.9249 50.1367 25.7626 50.0231C25.6002 49.9094 25.4703 49.7633 25.3729 49.5684C25.2755 49.3898 25.2268 49.1625 25.2268 48.8865C25.2268 48.5942 25.3079 48.3507 25.4378 48.1558C25.584 47.961 25.7626 47.7986 25.9736 47.685C26.201 47.5713 26.4283 47.4739 26.7043 47.4252C26.9641 47.3765 27.2239 47.344 27.4674 47.344C27.7434 47.344 28.0194 47.3765 28.263 47.4252C28.5228 47.4901 28.7501 47.5713 28.9449 47.7175C29.156 47.8474 29.3184 48.026 29.4483 48.237C29.5782 48.4481 29.6756 48.7079 29.7081 49.0002H28.4741C28.4091 48.7241 28.2955 48.5293 28.0844 48.4319C27.8733 48.3345 27.646 48.2857 27.3862 48.2857C27.305 48.2857 27.2076 48.2857 27.094 48.302C26.9803 48.3182 26.8667 48.3507 26.7692 48.3832C26.6718 48.4156 26.5906 48.4806 26.5094 48.5455C26.4445 48.6267 26.412 48.7079 26.412 48.8378C26.412 48.9839 26.4607 49.0976 26.5582 49.195C26.6556 49.2762 26.7855 49.3574 26.9478 49.4223C27.1102 49.4872 27.2888 49.536 27.4999 49.5684C27.711 49.6009 27.922 49.6496 28.1493 49.6983C28.3604 49.747 28.5715 49.812 28.7826 49.8769C28.9936 49.9419 29.1722 50.0393 29.3346 50.1529C29.497 50.2666 29.6269 50.4127 29.7243 50.5913C29.8217 50.7699 29.8704 50.9973 29.8704 51.257C29.8704 51.5818 29.7892 51.8416 29.6431 52.0689C29.497 52.2962 29.3021 52.4748 29.0748 52.6047C28.8475 52.7346 28.5877 52.8482 28.2955 52.9132C28.0195 52.9781 27.7272 53.0106 27.4512 53.0106C27.1102 53.0106 26.8017 52.9781 26.5094 52.8969C26.2172 52.8158 25.9736 52.7021 25.7626 52.556C25.5515 52.3936 25.3891 52.1988 25.2592 51.9714C25.1456 51.7441 25.0806 51.4681 25.0644 51.1434H26.2821ZM30.1952 47.4901H31.0882V45.8665H32.2734V47.4901H33.3451V48.3832H32.2897V51.257C32.2897 51.3869 32.2897 51.4844 32.3059 51.5818C32.3221 51.663 32.3384 51.7441 32.3871 51.8091C32.4196 51.874 32.4845 51.9227 32.5657 51.9552C32.6469 51.9877 32.7443 52.0039 32.8742 52.0039C32.9554 52.0039 33.0366 52.0039 33.134 52.0039C33.2152 52.0039 33.2963 51.9877 33.3938 51.9714V52.8969C33.2639 52.9132 33.134 52.9294 33.0041 52.9456C32.8742 52.9619 32.7443 52.9619 32.6144 52.9619C32.3059 52.9619 32.0461 52.9294 31.8513 52.8807C31.6564 52.8158 31.5103 52.7346 31.4129 52.6209C31.2992 52.5073 31.2343 52.3611 31.1856 52.1988C31.1531 52.0202 31.1206 51.8253 31.1206 51.598V48.4319H30.2276L30.1952 47.4901ZM34.1894 47.4901H35.3097V48.2208H35.3259C35.4883 47.9123 35.7318 47.685 36.0241 47.5551C36.3163 47.4252 36.6411 47.344 36.9983 47.344C37.4204 47.344 37.7939 47.4252 38.1024 47.5713C38.4109 47.7175 38.6869 47.9285 38.8817 48.1883C39.0928 48.4481 39.2389 48.7566 39.3526 49.0976C39.45 49.4385 39.515 49.812 39.515 50.2017C39.515 50.5589 39.4662 50.9161 39.3688 51.257C39.2714 51.598 39.1253 51.8903 38.9467 52.1663C38.7681 52.4423 38.5245 52.6371 38.216 52.7833C37.9075 52.9294 37.5828 53.0268 37.1769 53.0268C36.9983 53.0268 36.8359 53.0106 36.6573 52.9781C36.4787 52.9456 36.3163 52.8969 36.154 52.832C35.9916 52.767 35.8455 52.6696 35.7156 52.5722C35.5857 52.4585 35.472 52.3287 35.3746 52.1988V54.8778H34.1894V47.4901ZM38.3297 50.1854C38.3297 49.9419 38.2972 49.7146 38.2323 49.471C38.1673 49.2437 38.0699 49.0489 37.9562 48.8703C37.8263 48.6917 37.6802 48.5455 37.4854 48.4481C37.2905 48.3507 37.0795 48.2857 36.8359 48.2857C36.3326 48.2857 35.9591 48.4643 35.7156 48.8053C35.4558 49.1463 35.3422 49.6171 35.3422 50.1854C35.3422 50.4614 35.3746 50.705 35.4396 50.9485C35.5045 51.1759 35.6019 51.3707 35.7318 51.5493C35.8617 51.7117 36.0241 51.8416 36.2027 51.939C36.3813 52.0364 36.6086 52.0851 36.8359 52.0851C37.1119 52.0851 37.3393 52.0202 37.5179 51.9227C37.6965 51.8253 37.8588 51.663 37.9725 51.5006C38.0861 51.322 38.1836 51.1271 38.2323 50.8998C38.3134 50.6563 38.3297 50.429 38.3297 50.1854ZM40.4242 45.4443H41.6095V46.5647H40.4242V45.4443ZM40.4242 47.4901H41.6095V52.8645H40.4242V47.4901ZM42.6811 45.4443H43.8664V52.8807H42.6811V45.4443ZM47.5034 53.0106C47.0812 53.0106 46.6915 52.9294 46.3506 52.7995C46.0096 52.6534 45.7336 52.4585 45.49 52.215C45.2627 51.9552 45.0841 51.663 44.9542 51.322C44.8243 50.981 44.7756 50.5913 44.7756 50.1854C44.7756 49.7795 44.8406 49.4061 44.9542 49.0489C45.0679 48.7079 45.2465 48.3994 45.49 48.1558C45.7336 47.9123 46.0096 47.7175 46.3506 47.5713C46.6915 47.4252 47.065 47.3603 47.5034 47.3603C47.9417 47.3603 48.3152 47.4414 48.6562 47.5713C48.9971 47.7175 49.2731 47.9123 49.5167 48.1558C49.744 48.4156 49.9226 48.7079 50.0525 49.0489C50.1662 49.3898 50.2311 49.7795 50.2311 50.1854C50.2311 50.6076 50.1662 50.981 50.0525 51.322C49.9388 51.663 49.7602 51.9714 49.5167 52.215C49.2894 52.4748 48.9971 52.6534 48.6562 52.7995C48.3152 52.9456 47.9255 53.0106 47.5034 53.0106ZM47.5034 52.0851C47.7631 52.0851 47.9905 52.0202 48.1853 51.9227C48.3801 51.8091 48.5425 51.663 48.6562 51.4843C48.786 51.3057 48.8672 51.0947 48.9322 50.8836C48.9971 50.6563 49.0134 50.429 49.0134 50.1854C49.0134 49.9581 48.9809 49.7308 48.9322 49.5035C48.8835 49.2762 48.786 49.0813 48.6562 48.9027C48.5263 48.7241 48.3801 48.578 48.1853 48.4806C47.9905 48.3669 47.7631 48.3182 47.5034 48.3182C47.2436 48.3182 47.0163 48.3832 46.8214 48.4806C46.6266 48.5942 46.4642 48.7404 46.3506 48.9027C46.2207 49.0813 46.1395 49.2762 46.0745 49.5035C46.0096 49.7308 45.9934 49.9581 45.9934 50.1854C45.9934 50.429 46.0258 50.6563 46.0745 50.8836C46.1395 51.1109 46.2207 51.3057 46.3506 51.4843C46.4805 51.663 46.6266 51.8091 46.8214 51.9227C47 52.0202 47.2273 52.0851 47.5034 52.0851ZM50.5558 47.4901H51.4488V45.8665H52.6341V47.4901H53.7057V48.3832H52.6341V51.257C52.6341 51.3869 52.6341 51.4844 52.6504 51.5818C52.6666 51.663 52.6828 51.7441 52.7315 51.8091C52.764 51.874 52.829 51.9227 52.9101 51.9552C52.9913 51.9877 53.0887 52.0039 53.2186 52.0039C53.2998 52.0039 53.381 52.0039 53.4784 52.0039C53.5596 52.0039 53.6408 51.9877 53.7382 51.9714V52.8969C53.6083 52.9132 53.4784 52.9294 53.3485 52.9456C53.2186 52.9619 53.0887 52.9619 52.9589 52.9619C52.6504 52.9619 52.3906 52.9294 52.1957 52.8807C52.0009 52.832 51.8548 52.7346 51.7573 52.6209C51.6437 52.5073 51.5787 52.3611 51.53 52.1988C51.4976 52.0202 51.4651 51.8253 51.4651 51.598V48.4319H50.5721L50.5558 47.4901Z" fill="#1C1C1C"/>
<path d="M53.8521 16.9165H37.031L31.8353 0.907227L26.6234 16.9165L9.80225 16.9003L23.4247 26.8046L18.2128 42.7976L31.8353 32.9095L45.4416 42.7976L40.2459 26.8046L53.8521 16.9165Z" fill="#00B67A"/>
<path d="M41.415 30.4254L40.246 26.8047L31.8354 32.9096L41.415 30.4254Z" fill="#005128"/>
</g>
</g>
</g>
<defs>
<clipPath id="clip0_97_38032">
<rect width="62" height="56" fill="white" transform="translate(0.908203 0.0146484)"/>
</clipPath>
<clipPath id="clip1_97_38032">
<rect width="62" height="56" fill="white" transform="translate(0.908203 0.0146484)"/>
</clipPath>
<clipPath id="clip2_97_38032">
<rect width="45.9983" height="56" fill="white" transform="translate(8.90918 0.0146484)"/>
</clipPath>
</defs>
</svg>
