<svg width="75" height="57" viewBox="0 0 75 57" fill="none" xmlns="http://www.w3.org/2000/svg">
<g clip-path="url(#clip0_97_38042)">
<g clip-path="url(#clip1_97_38042)">
<g clip-path="url(#clip2_97_38042)">
<path fill-rule="evenodd" clip-rule="evenodd" d="M28.4691 14.2871L26.4693 17.0429C25.4671 18.4231 25.7776 20.8699 27.1453 21.858L30.8531 24.5354C31.4899 24.9949 31.5401 25.4498 31.2374 25.9344L31.777 26.3344L33.6591 23.7355C34.8197 22.1278 34.7178 19.9429 32.9972 18.6898L29.2533 15.9669C28.8063 15.6407 28.7593 15.1827 29.0071 14.6745L28.4691 14.2871Z" fill="#002B80"/>
<path fill-rule="evenodd" clip-rule="evenodd" d="M31.6768 2.11621L28.5634 6.42161C27.1032 8.44021 27.6349 11.8877 29.6299 13.3463L34.7478 17.1106C35.7845 17.8713 35.9194 19.8115 35.165 20.8059L35.5995 21.1306L39.1301 16.1695C40.7142 13.9392 40.6217 10.6439 38.1341 8.83703L32.6586 4.85316C31.8932 4.29636 31.5105 3.35058 32.1489 2.44872L31.6783 2.11621H31.6768Z" fill="#002B80"/>
<path fill-rule="evenodd" clip-rule="evenodd" d="M23.4722 29.1171H27.5988L28.3265 31.6172H35.0709L35.8065 29.1171H39.9331L39.392 27.2773H24.0133L23.4722 29.1171Z" fill="#002B80"/>
<path d="M45.4634 0.0146484H17.5042C16.6306 0.0146484 15.7929 0.361667 15.1752 0.979365C14.5575 1.59706 14.2104 2.43484 14.2104 3.3084V52.724C14.2104 53.5976 14.5575 54.4354 15.1752 55.0531C15.7929 55.6708 16.6306 56.0178 17.5042 56.0178H45.4634C46.337 56.0178 47.1748 55.6708 47.7924 55.0531C48.4101 54.4354 48.7572 53.5976 48.7572 52.724V3.3084C48.7572 2.43484 48.4101 1.59706 47.7924 0.979365C47.1748 0.361667 46.337 0.0146484 45.4634 0.0146484ZM48.5282 52.724C48.5261 53.5364 48.2026 54.3149 47.6283 54.8894C47.0541 55.464 46.2757 55.7879 45.4634 55.7904H17.5042C16.6913 55.7887 15.9122 55.4652 15.3373 54.8905C14.7623 54.3159 14.4384 53.5369 14.4363 52.724V3.3084C14.4376 2.49512 14.7612 1.71552 15.3362 1.14044C15.9113 0.565373 16.6909 0.24175 17.5042 0.240505H45.4634C46.2761 0.242579 47.055 0.566568 47.6293 1.14155C48.2037 1.71653 48.5269 2.49567 48.5282 3.3084V52.724Z" fill="#002B80"/>
<path d="M15.1138 45.0293V52.7226C15.115 53.3561 15.3672 53.9634 15.8153 54.4114C16.2633 54.8594 16.8705 55.1116 17.5041 55.1129H45.4633C46.0961 55.1108 46.7023 54.8584 47.1496 54.4108C47.5969 53.9633 47.8488 53.3569 47.8505 52.7241V45.0293H15.1138ZM35.8973 46.2119H36.542V49.2735H35.8973V46.2119ZM19.9117 49.2751L19.6576 48.5928H18.4781L18.2256 49.2751H17.5339L18.7683 46.2135H19.3956L20.6206 49.2751H19.9117ZM20.8308 48.3983C20.7602 48.1876 20.7258 47.9665 20.7288 47.7443C20.7266 47.5264 20.7627 47.3098 20.8355 47.1044C20.9001 46.9204 21.0003 46.7509 21.1304 46.6056C21.2564 46.4676 21.4104 46.358 21.5821 46.2841C21.7651 46.2048 21.9629 46.1652 22.1624 46.168C22.301 46.166 22.4393 46.1829 22.5733 46.2182C22.8717 46.3092 23.1388 46.4813 23.345 46.7154L22.898 47.1467C22.805 47.038 22.6912 46.9491 22.5632 46.8853C22.4352 46.8214 22.2957 46.7839 22.153 46.775C22.0443 46.7748 21.937 46.7995 21.8393 46.8471C21.7446 46.8949 21.6624 46.9642 21.5993 47.0495C21.5311 47.1411 21.4811 47.2449 21.4519 47.3553C21.4161 47.4824 21.3987 47.6139 21.4001 47.7459C21.399 47.8752 21.4164 48.0041 21.4519 48.1286C21.4838 48.2421 21.537 48.3486 21.6087 48.4422C21.6697 48.5221 21.7466 48.5883 21.8346 48.6367C21.9349 48.6867 22.0457 48.7119 22.1577 48.7105C22.308 48.7009 22.4549 48.6613 22.5896 48.594C22.7243 48.5266 22.8441 48.4329 22.9419 48.3183L23.3999 48.7246C23.2085 49.1057 22.531 49.319 22.1451 49.319C21.9477 49.3215 21.7518 49.2836 21.5695 49.2077C21.4009 49.1359 21.2495 49.029 21.1256 48.894C20.9943 48.7508 20.8939 48.5821 20.8308 48.3983ZM23.6054 52.6661C23.5556 52.7868 23.4782 52.8943 23.3795 52.9798C23.2761 53.0662 23.156 53.1303 23.0266 53.168C22.8779 53.2116 22.7236 53.2328 22.5686 53.2307H21.1413V50.166H22.5827C22.8407 50.1536 23.0955 50.227 23.3074 50.3746C23.397 50.4458 23.4681 50.5376 23.5148 50.6422C23.5615 50.7467 23.5823 50.861 23.5756 50.9753C23.5784 51.0977 23.5481 51.2186 23.4877 51.3251C23.4296 51.4271 23.3451 51.5116 23.2431 51.5697C23.367 51.625 23.4749 51.7108 23.5567 51.8191C23.6437 51.9416 23.6878 52.0894 23.6822 52.2395C23.6867 52.3855 23.6605 52.5308 23.6054 52.6661ZM23.8093 48.3983C23.7393 48.1875 23.7053 47.9664 23.7089 47.7443C23.7061 47.5265 23.7417 47.3099 23.814 47.1044C23.8786 46.9204 23.9788 46.7509 24.1088 46.6056C24.2354 46.4674 24.3899 46.3578 24.5621 46.2841C24.7452 46.2048 24.943 46.1652 25.1424 46.168C25.2811 46.166 25.4193 46.1829 25.5534 46.2182C25.8517 46.3092 26.1189 46.4813 26.3251 46.7154L25.8781 47.1467C25.7851 47.038 25.6712 46.9491 25.5433 46.8853C25.4153 46.8214 25.2758 46.7839 25.133 46.775C25.0243 46.7748 24.9171 46.7995 24.8193 46.8471C24.7247 46.8949 24.6425 46.9642 24.5794 47.0495C24.5112 47.1411 24.4611 47.2449 24.4319 47.3553C24.3967 47.4824 24.3798 47.614 24.3818 47.7459C24.3801 47.8752 24.397 48.004 24.4319 48.1286C24.4638 48.2421 24.5171 48.3486 24.5888 48.4422C24.6498 48.522 24.7267 48.5882 24.8146 48.6367C24.912 48.6856 25.0194 48.7109 25.1283 48.7105C25.2786 48.7009 25.4255 48.6613 25.5602 48.594C25.6949 48.5266 25.8148 48.4329 25.9126 48.3183L26.3721 48.7246C26.1792 49.1057 25.5032 49.319 25.1174 49.319C24.9194 49.3217 24.7229 49.2838 24.5402 49.2077C24.3718 49.1355 24.2205 49.0286 24.0963 48.894C23.9678 48.7501 23.8701 48.5814 23.8093 48.3983ZM26.6529 51.8772C26.6767 52.2521 26.5561 52.622 26.3157 52.9108C26.1942 53.0356 26.0473 53.1329 25.8849 53.196C25.7225 53.259 25.5485 53.2864 25.3746 53.2762C25.1973 53.2783 25.0211 53.2469 24.8554 53.1837C24.703 53.1258 24.5657 53.0341 24.4539 52.9155C24.3383 52.7897 24.2501 52.6412 24.1951 52.4794C24.1305 52.288 24.0992 52.087 24.1026 51.885V50.1597H24.7299V51.8709C24.7186 52.0797 24.7789 52.2861 24.9009 52.4559C24.957 52.5262 25.0288 52.5822 25.1105 52.6195C25.1923 52.6569 25.2817 52.6744 25.3714 52.6708C25.4607 52.674 25.5495 52.6567 25.6311 52.6203C25.7127 52.5839 25.7848 52.5293 25.842 52.4606C25.9656 52.2927 26.0266 52.0869 26.0145 51.8787V50.1534H26.6419L26.6529 51.8772ZM26.8301 46.2135H28.3264C28.4712 46.2129 28.6154 46.233 28.7546 46.2731C28.8843 46.3092 29.0054 46.371 29.1106 46.455C29.2142 46.5347 29.2979 46.6372 29.3553 46.7546C29.423 46.9134 29.4523 47.0859 29.4409 47.2581C29.4295 47.4303 29.3776 47.5974 29.2894 47.7459C29.1457 47.9125 28.9599 48.0376 28.7515 48.1082L29.4667 49.2704H28.7248L28.0504 48.1944L27.4747 48.1662V49.2641H26.8301V46.2135ZM29.4698 52.699C29.4217 52.8203 29.3447 52.928 29.2455 53.0127C29.1323 53.1045 29.0015 53.1723 28.8612 53.2119C28.6806 53.2625 28.4936 53.2863 28.306 53.2825C28.0586 53.2855 27.8135 53.2346 27.5877 53.1335C27.3868 53.0458 27.2134 52.9054 27.0858 52.7273L27.5422 52.3273C27.642 52.4454 27.769 52.5374 27.9123 52.5955C28.05 52.6504 28.197 52.6781 28.3452 52.6771C28.4882 52.6864 28.6311 52.6594 28.7609 52.5986C28.8198 52.5567 28.8625 52.4958 28.8816 52.426C28.9008 52.3563 28.8952 52.2821 28.866 52.2159C28.8424 52.173 28.8078 52.1372 28.7656 52.1124C28.6986 52.0731 28.627 52.0426 28.5523 52.0215C28.4597 51.9917 28.339 51.9603 28.1931 51.9289C28.0586 51.8995 27.9261 51.8618 27.7963 51.816C27.6837 51.7771 27.5779 51.721 27.4826 51.6497C27.3953 51.583 27.3258 51.4957 27.2802 51.3956C27.2282 51.2755 27.2036 51.1453 27.2081 51.0145C27.2058 50.8842 27.236 50.7554 27.2959 50.6396C27.356 50.5297 27.4402 50.4348 27.5422 50.362C27.6496 50.2816 27.7708 50.2215 27.8998 50.1848C28.0419 50.143 28.1893 50.1224 28.3374 50.1236C28.5584 50.1188 28.7779 50.1622 28.9804 50.2507C29.1679 50.3366 29.338 50.4562 29.4824 50.6036L29.0275 51.0333C28.9337 50.9367 28.8239 50.8571 28.7028 50.7981C28.5806 50.7433 28.4478 50.716 28.3139 50.7181C28.2431 50.7166 28.1724 50.7245 28.1037 50.7416C28.0538 50.7548 28.0065 50.7765 27.9641 50.8059C27.9316 50.8277 27.9052 50.8574 27.8872 50.8922C27.8703 50.9221 27.8596 50.9552 27.8559 50.9894C27.8541 51.0327 27.8645 51.0756 27.8857 51.1133C27.9103 51.1518 27.945 51.1827 27.9861 51.2027C28.0475 51.2345 28.1122 51.2597 28.179 51.278C28.2605 51.3 28.3625 51.3266 28.4927 51.3564C28.6228 51.3862 28.742 51.4192 28.8675 51.4584C28.9863 51.4939 29.099 51.5473 29.2016 51.6168C29.3018 51.6866 29.3853 51.7777 29.4463 51.8834C29.5134 52.0097 29.5459 52.1515 29.5404 52.2944C29.5429 52.4325 29.5189 52.5699 29.4698 52.699ZM29.8698 46.2135H32.1095V46.8126H30.5222V47.3428H31.8617V47.9372H30.5222V48.6759H32.1864V49.2751H29.8698V46.2135ZM30.6791 53.2276H30.0517V50.166H30.6791V53.2276ZM33.8772 53.2276H33.3172L32.1628 51.5572L32.0389 51.3721C32.004 51.3218 31.972 51.2694 31.9433 51.2153C31.9433 51.2435 31.9433 51.2874 31.9433 51.3439C31.9433 51.4003 31.9433 51.4631 31.9433 51.5305C31.9433 51.598 31.9433 51.6576 31.9433 51.7219C31.9433 51.7862 31.9433 51.8395 31.9433 51.8787V53.226H31.3159V50.166H31.9338L33.0474 51.7846L33.1698 51.9697C33.2051 52.0201 33.2376 52.0725 33.267 52.1265C33.267 52.0983 33.267 52.0544 33.267 51.9979C33.267 51.9415 33.267 51.8803 33.267 51.816C33.267 51.7517 33.267 51.6842 33.267 51.6199C33.267 51.5556 33.267 51.5023 33.267 51.4631V50.1675H33.8944L33.8772 53.2276ZM33.6231 49.2751H32.6585V46.2135H33.6686C33.884 46.212 34.0987 46.2394 34.3069 46.295C34.4936 46.3442 34.6667 46.4348 34.8135 46.5601C34.9611 46.6885 35.0765 46.8497 35.1507 47.0306C35.2381 47.2571 35.2796 47.4986 35.2731 47.7412C35.2794 47.98 35.2312 48.2171 35.1319 48.4344C35.0444 48.6173 34.9168 48.7781 34.7586 48.9049C34.6014 49.0297 34.4213 49.1224 34.2285 49.1779C34.0324 49.2391 33.8285 49.2719 33.6231 49.2751ZM36.8729 53.2276H34.5641V50.166H36.8039V50.7651H35.2103V51.3031H36.5482V51.8975H35.2103V52.6363H36.8729V53.2276ZM39.3683 52.699C39.3214 52.821 39.2442 52.9289 39.144 53.0127C39.0308 53.1045 38.9 53.1723 38.7597 53.2119C38.5796 53.2624 38.3931 53.2862 38.2061 53.2825C37.9586 53.2856 37.7135 53.2348 37.4877 53.1335C37.2846 53.0428 37.1104 52.8979 36.9843 52.7147L37.4375 52.321C37.5377 52.4388 37.6646 52.5308 37.8077 52.5892C37.9454 52.6441 38.0924 52.6718 38.2406 52.6708C38.3835 52.6802 38.5265 52.6532 38.6562 52.5924C38.6999 52.5666 38.7354 52.5291 38.759 52.4843C38.7825 52.4394 38.7931 52.3888 38.7895 52.3383C38.7905 52.2939 38.7814 52.25 38.7629 52.2097C38.7388 52.1667 38.7036 52.1309 38.6609 52.1062C38.5941 52.0666 38.5224 52.036 38.4476 52.0152C38.3551 51.9854 38.2359 51.954 38.0885 51.9226C37.954 51.893 37.8215 51.8553 37.6916 51.8097C37.5793 51.7705 37.4735 51.7144 37.3779 51.6435C37.2915 51.5758 37.2222 51.4888 37.1756 51.3894C37.1236 51.2692 37.099 51.1391 37.1035 51.0082C37.1011 50.8779 37.1313 50.7491 37.1913 50.6334C37.249 50.5224 37.331 50.4259 37.4313 50.3511C37.5386 50.2706 37.6598 50.2106 37.7889 50.1738C38.1468 50.0737 38.528 50.0969 38.8711 50.2397C39.0579 50.3261 39.2274 50.4457 39.3714 50.5926L38.9182 51.0223C38.8238 50.9257 38.7134 50.8461 38.5919 50.7871C38.4702 50.7323 38.338 50.705 38.2045 50.7071C38.1332 50.7055 38.062 50.7134 37.9928 50.7306C37.943 50.7443 37.8959 50.766 37.8532 50.7949C37.8211 50.8168 37.7952 50.8465 37.7779 50.8812C37.7623 50.9129 37.7543 50.9478 37.7544 50.9831C37.7518 51.0277 37.7629 51.072 37.7862 51.1101C37.8094 51.1482 37.8437 51.1783 37.8846 51.1965C37.9465 51.2285 38.0117 51.2537 38.079 51.2717C38.159 51.2937 38.2625 51.3204 38.3927 51.3502C38.5229 51.38 38.6437 51.4129 38.7676 51.4521C38.8867 51.4897 38.9993 51.5452 39.1017 51.6168C39.2018 51.6866 39.2854 51.7777 39.3463 51.8834C39.4135 52.0097 39.4459 52.1515 39.4405 52.2944C39.4432 52.4327 39.4187 52.5702 39.3683 52.699ZM39.5487 46.8173H38.6217V49.2751H37.9771V46.8173H37.0501V46.2135H39.5487V46.8173ZM42.0692 52.699C42.0217 52.8206 41.9446 52.9284 41.8449 53.0127C41.7316 53.1045 41.6009 53.1723 41.4606 53.2119C41.28 53.2625 41.0929 53.2863 40.9054 53.2825C40.658 53.2855 40.4129 53.2346 40.187 53.1335C39.9862 53.0458 39.8128 52.9054 39.6851 52.7273L40.1384 52.3336C40.2382 52.4517 40.3653 52.5437 40.5086 52.6018C40.6463 52.6567 40.7933 52.6843 40.9415 52.6833C41.0844 52.6926 41.2274 52.6657 41.3571 52.6049C41.4161 52.563 41.4587 52.502 41.4779 52.4323C41.497 52.3626 41.4915 52.2883 41.4622 52.2222C41.4387 52.1793 41.404 52.1435 41.3618 52.1187C41.2949 52.0794 41.2232 52.0488 41.1485 52.0277C41.056 51.9979 40.9352 51.9666 40.7893 51.9352C40.6549 51.9058 40.5223 51.8681 40.3925 51.8223C40.28 51.7834 40.1742 51.7273 40.0788 51.656C39.9915 51.5892 39.922 51.502 39.8765 51.4019C39.8245 51.2818 39.7998 51.1516 39.8043 51.0208C39.802 50.8905 39.8322 50.7616 39.8922 50.6459C39.9499 50.5349 40.0319 50.4384 40.1321 50.3636C40.239 50.2833 40.3597 50.2233 40.4882 50.1864C40.8466 50.0863 41.2283 50.1095 41.572 50.2522C41.7587 50.3386 41.9283 50.4582 42.0723 50.6051L41.619 51.0349C41.5244 50.9386 41.4141 50.859 41.2928 50.7996C41.1706 50.7447 41.0378 50.7174 40.9038 50.7196C40.833 50.7182 40.7624 50.7261 40.6936 50.7432C40.6439 50.7568 40.5968 50.7785 40.5541 50.8075C40.5216 50.8293 40.4951 50.859 40.4772 50.8937C40.4629 50.9258 40.4554 50.9606 40.4552 50.9957C40.4535 51.039 40.4638 51.0818 40.485 51.1196C40.5096 51.1581 40.5444 51.189 40.5854 51.209C40.6469 51.2408 40.7116 51.266 40.7783 51.2843C40.8599 51.3062 40.9634 51.3329 41.092 51.3627C41.2206 51.3925 41.3414 51.4254 41.4669 51.4647C41.5867 51.5016 41.7 51.5572 41.8025 51.6293C41.9027 51.6992 41.9862 51.7902 42.0472 51.896C42.1156 52.0218 42.1487 52.1638 42.1429 52.3069C42.1428 52.441 42.1178 52.574 42.0692 52.699ZM42.2715 49.2751H39.9628V46.2135H42.2025V46.8126H40.6074V47.3428H41.9468V47.9372H40.6074V48.6759H42.2715V49.2751ZM45.228 48.4375C45.1405 48.6204 45.0129 48.7812 44.8548 48.9081C44.6976 49.0328 44.5175 49.1255 44.3246 49.181C44.1275 49.2392 43.9231 49.2688 43.7176 49.2688H42.7562V46.2135H43.7662C43.9817 46.212 44.1964 46.2394 44.4046 46.295C44.5911 46.3446 44.7642 46.4351 44.9112 46.5601C45.0588 46.6885 45.1742 46.8497 45.2484 47.0306C45.3344 47.2574 45.3754 47.4987 45.3692 47.7412C45.376 47.981 45.3277 48.2193 45.228 48.4375Z" fill="#002B80"/>
<path d="M19.1352 47.1934C19.1054 47.1087 19.0835 47.0365 19.0678 46.9785C19.0521 47.0381 19.0302 47.1087 19.0019 47.1934C18.9737 47.2781 18.9408 47.3659 18.9063 47.4553L18.6992 48.009H19.4364L19.2294 47.4553C19.1964 47.3659 19.1635 47.2781 19.1352 47.1934Z" fill="#002B80"/>
<path d="M28.7796 47.1985C28.7851 47.1424 28.7768 47.0858 28.7555 47.0336C28.7342 46.9814 28.7004 46.9351 28.6572 46.8989C28.5566 46.834 28.438 46.8026 28.3184 46.8095H27.4746V47.5938H28.3263C28.6259 47.5969 28.7796 47.4636 28.7796 47.1985Z" fill="#002B80"/>
<path d="M33.645 46.8096H33.3047V48.6807H33.6184C33.7675 48.6832 33.916 48.6604 34.0575 48.6133C34.1754 48.5744 34.2827 48.5089 34.3712 48.4219C34.4526 48.3386 34.5138 48.2377 34.55 48.1271C34.5917 48.0039 34.6119 47.8744 34.6096 47.7444C34.6291 47.4904 34.5486 47.2388 34.3854 47.0433C34.2316 46.8864 33.987 46.8096 33.645 46.8096Z" fill="#002B80"/>
<path d="M43.7412 46.8096H43.4009V48.6807H43.7146C43.8642 48.6834 44.0133 48.6606 44.1553 48.6133C44.273 48.574 44.3802 48.5086 44.469 48.4219C44.5497 48.3381 44.6108 48.2374 44.6478 48.1271C44.6895 48.0039 44.7097 47.8744 44.7074 47.7444C44.7271 47.4901 44.646 47.2382 44.4815 47.0433C44.3247 46.8864 44.0832 46.8096 43.7412 46.8096Z" fill="#002B80"/>
<path d="M22.8637 51.2304C22.8899 51.2029 22.9103 51.1704 22.9238 51.1348C22.9372 51.0993 22.9435 51.0614 22.9421 51.0234C22.9449 50.9826 22.9383 50.9418 22.9228 50.904C22.9073 50.8662 22.8833 50.8325 22.8527 50.8054C22.765 50.748 22.6607 50.7215 22.5563 50.7301H21.7563V51.312H22.5876C22.6367 51.3173 22.6864 51.3128 22.7338 51.2988C22.7812 51.2848 22.8253 51.2616 22.8637 51.2304Z" fill="#002B80"/>
<path d="M22.5923 51.8555H21.7563V52.6397H22.5923C22.7149 52.6498 22.8365 52.6115 22.9311 52.533C22.9682 52.4947 22.9971 52.4492 23.0159 52.3993C23.0348 52.3494 23.0433 52.2962 23.0409 52.2429C23.0409 51.9857 22.8903 51.8555 22.5923 51.8555Z" fill="#002B80"/>
<path d="M25.4059 37.4837C26.1306 37.0602 26.576 36.436 26.576 35.5812C26.576 33.8732 25.1754 33.1768 23.6493 33.1768H19.3862V42.2471H23.6085C25.4138 42.2471 27.3257 41.4629 27.0199 39.3816C26.8426 38.1911 26.3643 37.9072 25.4059 37.4837ZM21.3123 34.9099H23.5285C24.9135 34.9099 24.9636 36.8454 23.6163 36.8454H21.3123V34.9099ZM23.7779 40.5328H21.3123V38.464H23.7779C25.602 38.464 25.4922 40.5328 23.7779 40.5328Z" fill="#002B80"/>
<path d="M33.8757 37.4837C34.6003 37.0602 35.0457 36.436 35.0457 35.5812C35.0457 33.8732 33.6451 33.1768 32.119 33.1768H27.856V42.2471H32.0814C33.8867 42.2471 35.7986 41.4629 35.4927 39.3816C35.3124 38.1911 34.834 37.9072 33.8757 37.4837ZM29.782 34.9099H31.9982C33.3832 34.9099 33.4334 36.8454 32.0861 36.8454H29.782V34.9099ZM32.2476 40.5328H29.782V38.464H32.2476C34.0717 38.464 33.9619 40.5328 32.2476 40.5328Z" fill="#002B80"/>
<path d="M43.9593 39.3825C43.7821 38.1921 43.3037 37.9082 42.3454 37.4847C43.07 37.0612 43.5155 36.437 43.5155 35.5822C43.5155 33.8741 42.1148 33.1777 40.5887 33.1777H36.3257V42.2481H40.5511C42.3532 42.2465 44.2652 41.4576 43.9593 39.3825ZM38.2517 34.9109H40.468C41.8529 34.9109 41.9031 36.8463 40.5558 36.8463H38.2517V34.9109ZM40.7173 40.5322H38.2517V38.4634H40.7173C42.5415 38.4634 42.4317 40.5322 40.7173 40.5322Z" fill="#002B80"/>
<path fill-rule="evenodd" clip-rule="evenodd" d="M44.7779 41.9491C44.7786 41.9149 44.7733 41.8809 44.7622 41.8487C44.7522 41.8183 44.7349 41.7909 44.712 41.7687C44.6846 41.7411 44.6528 41.7183 44.6179 41.7012C44.5707 41.6775 44.522 41.6571 44.472 41.6401C44.4203 41.6213 44.3763 41.604 44.3434 41.5883C44.3164 41.5759 44.2911 41.5601 44.2681 41.5413C44.2522 41.5277 44.2399 41.5105 44.232 41.4911C44.2255 41.4724 44.2223 41.4528 44.2226 41.433C44.2231 41.4132 44.2268 41.3936 44.2336 41.375C44.2423 41.357 44.2546 41.341 44.2697 41.3279C44.2886 41.3127 44.3105 41.3015 44.334 41.295C44.4102 41.2747 44.491 41.2791 44.5646 41.3076C44.6065 41.3252 44.6456 41.349 44.6806 41.3781L44.7559 41.2887C44.713 41.2553 44.6655 41.2283 44.6147 41.2087C44.5571 41.1871 44.4959 41.177 44.4344 41.1789C44.3894 41.1788 44.3445 41.1846 44.3011 41.1962C44.2633 41.2074 44.2278 41.2249 44.196 41.248C44.1681 41.2704 44.1456 41.2988 44.1301 41.3311C44.1139 41.3654 44.1058 41.403 44.1066 41.4409C44.1058 41.474 44.1111 41.5069 44.1222 41.5381C44.1323 41.5675 44.1496 41.5939 44.1724 41.615C44.1997 41.6412 44.2309 41.6629 44.265 41.6793C44.3115 41.7029 44.3597 41.7228 44.4093 41.7389C44.4503 41.753 44.4906 41.7692 44.53 41.7875C44.5575 41.8013 44.5833 41.8181 44.6069 41.8377C44.625 41.8515 44.639 41.8699 44.6477 41.891C44.6568 41.9112 44.6611 41.9332 44.6602 41.9553C44.6609 41.9801 44.6557 42.0046 44.6451 42.027C44.6345 42.0493 44.6187 42.0689 44.5991 42.0839C44.5505 42.1178 44.4919 42.1343 44.4328 42.131C44.381 42.132 44.3299 42.1201 44.2838 42.0965C44.2364 42.0737 44.1925 42.0441 44.1536 42.0087L44.0752 42.0934C44.121 42.136 44.1741 42.17 44.232 42.1937C44.2947 42.2217 44.3627 42.2356 44.4312 42.2345C44.4812 42.2351 44.531 42.2277 44.5787 42.2126C44.6182 42.1997 44.6549 42.1795 44.6869 42.153C44.7168 42.1285 44.7404 42.0974 44.7559 42.062C44.7718 42.0265 44.7798 41.988 44.7794 41.9491H44.7779Z" fill="#002B80"/>
<path fill-rule="evenodd" clip-rule="evenodd" d="M45.8699 42.2185V41.1943H45.7366L45.4856 41.8076L45.4652 41.8578L45.4433 41.9127L45.4244 41.966C45.4244 41.9817 45.4135 41.9958 45.4103 42.0068L45.3978 41.966L45.3774 41.9143C45.371 41.8956 45.3637 41.8773 45.3554 41.8594L45.335 41.8076L45.0872 41.1943H44.957V42.2185H45.07V41.4218L45.0809 41.4578C45.0809 41.472 45.0903 41.4861 45.0966 41.5018C45.1029 41.5174 45.1076 41.5316 45.1123 41.5488L45.1311 41.5912L45.4072 42.2515L45.6895 41.5912L45.7068 41.5472L45.7256 41.5018C45.7256 41.4861 45.7366 41.472 45.7413 41.4578L45.7522 41.4218V42.2248L45.8699 42.2185Z" fill="#002B80"/>
</g>
</g>
</g>
<defs>
<clipPath id="clip0_97_38042">
<rect width="62" height="56" fill="white" transform="translate(0.482422 0.0146484)"/>
</clipPath>
<clipPath id="clip1_97_38042">
<rect width="62" height="56" fill="white" transform="translate(0.482422 0.0146484)"/>
</clipPath>
<clipPath id="clip2_97_38042">
<rect width="34.5436" height="56" fill="white" transform="translate(14.2104 0.0146484)"/>
</clipPath>
</defs>
</svg>
