<svg width="40" height="41" viewBox="0 0 40 41" fill="none" xmlns="http://www.w3.org/2000/svg">
<g clip-path="url(#clip0_97_37949)">
<g clip-path="url(#clip1_97_37949)">
<g clip-path="url(#clip2_97_37949)">
<path d="M19.9999 40.4041C30.7826 40.4041 39.5237 31.663 39.5237 20.8803C39.5237 10.0976 30.7826 1.35645 19.9999 1.35645C9.21718 1.35645 0.476074 10.0976 0.476074 20.8803C0.476074 31.663 9.21718 40.4041 19.9999 40.4041Z" fill="white"/>
<path d="M20 1.83226C23.7673 1.83226 27.4499 2.94939 30.5823 5.04237C33.7147 7.13535 36.156 10.1102 37.5977 13.5907C39.0394 17.0712 39.4166 20.901 38.6816 24.5959C37.9467 28.2908 36.1326 31.6847 33.4687 34.3486C30.8049 37.0124 27.4109 38.8265 23.716 39.5615C20.0211 40.2965 16.1913 39.9193 12.7108 38.4776C9.2303 37.0359 6.25547 34.5945 4.16249 31.4622C2.06951 28.3298 0.95239 24.6471 0.95239 20.8799C0.958271 15.8299 2.96696 10.9885 6.5378 7.41768C10.1087 3.84683 14.9501 1.83815 20 1.83226ZM20 0.879883C16.0444 0.879883 12.1776 2.05286 8.8886 4.25049C5.59962 6.44812 3.03617 9.57169 1.52242 13.2262C0.00866572 16.8807 -0.387401 20.9021 0.384303 24.7817C1.15601 28.6613 3.06082 32.225 5.85787 35.022C8.65492 37.8191 12.2186 39.7239 16.0982 40.4956C19.9778 41.2673 23.9992 40.8712 27.6537 39.3575C31.3082 37.8437 34.4318 35.2803 36.6294 31.9913C38.827 28.7023 40 24.8355 40 20.8799C40 15.5756 37.8929 10.4885 34.1421 6.73775C30.3914 2.98702 25.3043 0.879883 20 0.879883Z" fill="#999999"/>
<path d="M22.489 17.6706C23.5049 17.3532 24.5208 17.0357 25.5398 16.6801C25.1748 17.7246 24.8097 18.7659 24.47 19.8357C25.1049 20.7468 25.7398 21.6611 26.4256 22.5976L23.1906 22.4421C22.5938 23.3278 21.9652 24.2167 21.3684 25.1024C21.1335 24.423 20.924 23.7468 20.7144 23.0674C18.6827 24.5532 17.143 26.9119 16.3335 29.3786C19.5938 28.9087 26.1113 28.204 27.2605 28.023C26.9698 23.9502 27.0484 19.8594 27.4954 15.8008L20.8287 16.2706C21.3494 16.7405 21.924 17.2071 22.4986 17.677M22.7843 25.4484C22.7589 25.3436 22.7589 24.3786 22.7589 24.2992H22.8891C22.9144 24.404 23.2287 25.3436 23.2287 25.3436C23.0832 25.3887 22.9347 25.4237 22.7843 25.4484ZM24.2954 25.5246C24.1938 25.369 23.4637 23.8579 23.4097 23.7278C23.4351 23.6992 23.4891 23.6738 23.5144 23.6484C23.5938 23.7786 24.689 25.2357 24.689 25.2643C24.5589 25.3436 24.4256 25.4484 24.2954 25.5246ZM26.3494 24.9722C26.1938 24.8421 24.7843 23.5627 24.6827 23.4579C24.7081 23.4325 24.7081 23.4071 24.7335 23.3817C24.8637 23.4865 26.5335 24.6071 26.5335 24.6325C26.4795 24.7373 26.4033 24.8674 26.3494 24.9722ZM26.87 19.6516C26.6891 19.6801 25.1494 19.7309 25.0192 19.7309C25.0192 19.6801 24.9938 19.6516 24.9938 19.6008C25.124 19.5754 26.7684 19.2103 26.7938 19.2103C26.8192 19.3659 26.8446 19.496 26.87 19.6516Z" fill="#5A5A5A"/>
<path d="M15.7621 20.6168C15.8668 20.566 16.7144 20.2771 16.8033 20.2517C16.8287 20.3057 16.8287 20.331 16.8573 20.3818C16.7779 20.4358 15.943 21.0358 15.9049 21.0358C15.8541 20.9057 15.8002 20.7469 15.7494 20.6168M16.3081 18.9755C16.3119 18.8176 16.33 18.6603 16.3621 18.5057C16.5176 18.531 18.0541 18.8453 18.1875 18.8707V18.9501H16.3875L16.3081 18.9755ZM17.8478 17.566C17.8926 17.4372 17.9534 17.3145 18.0287 17.2009C18.1589 17.2549 19.1494 17.985 19.2287 18.0612C19.2033 18.0898 19.2033 18.1152 19.1779 18.166C19.0732 18.0898 17.8732 17.566 17.8478 17.566ZM12.3462 16.8644C12.9208 20.2263 13.9367 25.3247 14.6033 28.6485C15.1994 25.7785 16.803 23.2166 19.124 21.4263C18.489 21.2168 17.8732 20.9818 17.2732 20.7914C18.1589 20.1914 19.0478 19.566 19.9335 18.966C19.9335 18.1057 19.9589 17.2168 19.9843 16.3564L12.3462 16.8644Z" fill="#5A5A5A"/>
<path d="M20.4797 22.3659C20.4289 22.2072 20.3749 22.0484 20.3241 21.8675C20.1432 21.8167 19.959 21.7373 19.8035 21.6865C17.1432 23.5627 14.8225 27.9976 14.6924 31.3849H15.1622C15.6575 27.2929 18.413 23.9818 20.4797 22.3659Z" fill="#5A5A5A"/>
<path d="M20.924 19.61L19.6192 20.5116C20.1145 20.6957 20.6383 20.8767 21.1335 21.0608C21.2891 21.5814 21.451 22.1306 21.6002 22.6481C21.9176 22.2037 22.2002 21.7878 22.5145 21.3433L24.1018 21.4227L23.1494 20.0672C23.3335 19.5465 23.4891 19.0227 23.67 18.5275L22.1589 18.9973L20.9081 17.9814C20.9335 18.4767 20.9335 19.0481 20.9335 19.5973M12.8415 14.5306C12.6859 13.9846 13.9875 12.9941 15.9684 15.1656C15.6055 15.2153 15.2396 15.2408 14.8732 15.2418C13.8573 15.2418 12.997 15.0068 12.8415 14.537M21.8097 14.9814C22.67 14.3814 23.7399 13.7814 24.7049 13.6005C25.1208 13.5211 26.9716 13.283 25.9049 14.3814C25.4351 14.8259 24.3653 15.0164 23.1145 15.0164C22.6789 15.0396 22.2421 15.0226 21.8097 14.9656M22.0446 11.156C22.3049 11.0767 22.8541 11.0259 23.1145 11.4418C23.5557 12.0418 22.07 13.8164 20.0637 14.6767C20.2192 13.6322 20.5335 11.7814 21.8891 11.2068C21.8637 11.2068 21.9399 11.1814 22.0446 11.156ZM16.0986 10.9719C17.051 10.4767 18.8891 12.1973 18.6383 14.7275C16.1621 13.9465 15.2764 11.3656 16.0986 10.9719ZM14.6415 12.7719C12.5272 11.937 10.2351 14.2576 12.5272 15.8227C13.8827 16.7751 15.8922 16.083 19.4383 15.2481C22.2288 15.8227 24.8605 15.7179 26.27 15.0418C27.8573 14.2576 27.7811 13.3465 27.5399 12.9814C27.07 12.2513 24.543 12.537 23.1843 13.4767C23.7081 12.9814 24.5145 12.2068 24.4891 11.3116C24.4637 10.5306 23.6034 9.98144 22.7938 9.98144C22.1589 9.98144 20.7335 10.2164 19.6192 12.1465C19.4571 11.668 19.1973 11.2285 18.8563 10.8558C18.5153 10.4831 18.1005 10.1853 17.6383 9.98144C17.2795 9.83577 16.8953 9.76345 16.5081 9.76874C15.124 9.71478 13.8224 10.6799 14.6573 12.7656" fill="#5A5A5A"/>
</g>
</g>
</g>
<defs>
<clipPath id="clip0_97_37949">
<rect width="40" height="40" fill="white" transform="translate(0 0.879883)"/>
</clipPath>
<clipPath id="clip1_97_37949">
<rect width="40" height="40" fill="white" transform="translate(0 0.879883)"/>
</clipPath>
<clipPath id="clip2_97_37949">
<rect width="40" height="40" fill="white" transform="translate(0 0.879883)"/>
</clipPath>
</defs>
</svg>
