<svg width="106" height="27" viewBox="0 0 106 27" fill="none" xmlns="http://www.w3.org/2000/svg">
<path d="M27.8258 10.0039H38.5458V11.9929H34.3307V23.1739H32.0128V11.9929H27.8164V10.0039H27.8258ZM38.0878 13.638H40.0692V15.4782H40.1066C40.172 15.218 40.2935 14.9671 40.4711 14.7254C40.6487 14.4837 40.8636 14.2514 41.116 14.0562C41.3683 13.8517 41.6487 13.6937 41.9571 13.5636C42.2655 13.4428 42.5833 13.3777 42.9011 13.3777C43.1441 13.3777 43.3217 13.387 43.4151 13.3963C43.5086 13.4056 43.602 13.4242 43.7048 13.4335V15.4596C43.5553 15.4318 43.4058 15.4132 43.2469 15.3946C43.088 15.376 42.9385 15.3667 42.7889 15.3667C42.4338 15.3667 42.0973 15.4411 41.7795 15.5805C41.4618 15.7199 41.1907 15.9337 40.9571 16.2032C40.7234 16.482 40.5365 16.8166 40.3963 17.2256C40.2561 17.6345 40.1907 18.0992 40.1907 18.629V23.1646H38.0785V13.638L38.0878 13.638ZM53.4155 23.1739H51.3406V21.8448H51.3033C51.0416 22.3281 50.6584 22.7092 50.1443 22.9973C49.6303 23.2854 49.1069 23.4341 48.5742 23.4341C47.3125 23.4341 46.3965 23.1274 45.8358 22.5047C45.275 21.882 44.9946 20.9433 44.9946 19.6885V13.638H47.1068V19.4841C47.1068 20.3206 47.2657 20.9154 47.5928 21.2593C47.9106 21.6032 48.3686 21.7798 48.948 21.7798C49.3966 21.7798 49.7611 21.7147 50.0602 21.5753C50.3593 21.4359 50.6023 21.2593 50.7799 21.0269C50.9668 20.8039 51.0976 20.525 51.1818 20.209C51.2659 19.893 51.3033 19.5491 51.3033 19.1774V13.6473H53.4155V23.1739ZM57.0137 20.1161C57.0792 20.7295 57.3128 21.157 57.7147 21.408C58.1259 21.6496 58.6119 21.7798 59.1821 21.7798C59.3783 21.7798 59.6026 21.7612 59.855 21.7333C60.1073 21.7054 60.3503 21.6403 60.5653 21.5567C60.7896 21.473 60.9672 21.3429 61.1167 21.1756C61.2569 21.0083 61.3223 20.7946 61.313 20.525C61.3036 20.2555 61.2008 20.0324 61.0139 19.8651C60.827 19.6885 60.5933 19.5584 60.3036 19.4469C60.0139 19.3447 59.6867 19.2517 59.3129 19.1774C58.9391 19.103 58.5652 19.0194 58.182 18.9357C57.7895 18.8521 57.4063 18.7405 57.0418 18.6197C56.6773 18.4989 56.3502 18.3316 56.0604 18.1178C55.7707 17.9133 55.5371 17.6438 55.3688 17.3185C55.1913 16.9932 55.1071 16.5935 55.1071 16.1102C55.1071 15.5898 55.238 15.1622 55.4903 14.809C55.7427 14.4559 56.0698 14.177 56.453 13.9633C56.8455 13.7495 57.2754 13.6008 57.7521 13.5078C58.2287 13.4242 58.6867 13.3777 59.1166 13.3777C59.612 13.3777 60.0886 13.4335 60.5372 13.5357C60.9859 13.638 61.3971 13.8053 61.7616 14.0469C62.1261 14.2793 62.4252 14.586 62.6682 14.9578C62.9112 15.3295 63.0607 15.7849 63.1261 16.3147H60.9204C60.8176 15.8128 60.5933 15.4689 60.2288 15.3016C59.8643 15.1251 59.4437 15.0414 58.9764 15.0414C58.8269 15.0414 58.6493 15.0507 58.4437 15.0786C58.2381 15.1065 58.0512 15.1529 57.8642 15.218C57.6867 15.2831 57.5371 15.3853 57.4063 15.5154C57.2848 15.6455 57.2194 15.8128 57.2194 16.0266C57.2194 16.2868 57.3128 16.4913 57.4904 16.6493C57.668 16.8073 57.9016 16.9374 58.1914 17.049C58.4811 17.1512 58.8082 17.2441 59.1821 17.3185C59.5559 17.3929 59.9391 17.4765 60.3316 17.5602C60.7148 17.6438 61.0887 17.7553 61.4625 17.8762C61.8364 17.997 62.1635 18.1643 62.4532 18.378C62.7429 18.5918 62.9766 18.8521 63.1542 19.1681C63.3317 19.4841 63.4252 19.8837 63.4252 20.3484C63.4252 20.9154 63.2944 21.3894 63.0327 21.789C62.771 22.1794 62.4345 22.5047 62.0233 22.7464C61.612 22.988 61.1447 23.1739 60.6401 23.2854C60.1354 23.397 59.6307 23.4527 59.1353 23.4527C58.5278 23.4527 57.9671 23.3877 57.453 23.2483C56.939 23.1088 56.4904 22.9044 56.1165 22.6348C55.7427 22.356 55.4436 22.0121 55.2286 21.6032C55.0137 21.1942 54.9015 20.7016 54.8828 20.1347H57.0137V20.1161ZM63.986 13.638H65.5842V10.7753H67.6964V13.638H69.603V15.2087H67.6964V20.302C67.6964 20.525 67.7057 20.7109 67.7244 20.8782C67.7431 21.0362 67.7898 21.1756 67.8553 21.2872C67.9207 21.3987 68.0235 21.4823 68.1637 21.5381C68.3039 21.5939 68.4815 21.6218 68.7245 21.6218C68.874 21.6218 69.0235 21.6218 69.1731 21.6125C69.3226 21.6032 69.4722 21.5846 69.6217 21.5474V23.1739C69.388 23.2018 69.1544 23.2204 68.9394 23.2483C68.7151 23.2761 68.4908 23.2854 68.2572 23.2854C67.6964 23.2854 67.2478 23.2297 66.9113 23.1274C66.5748 23.0252 66.3038 22.8672 66.1169 22.6627C65.9206 22.4582 65.7991 22.2073 65.7243 21.9006C65.6589 21.5939 65.6122 21.2407 65.6028 20.8503V15.2273H64.0047V13.638H63.986ZM71.0984 13.638H73.0985V14.9299H73.1358C73.4349 14.3722 73.8461 13.9819 74.3789 13.7402C74.9116 13.4986 75.4817 13.3777 76.1079 13.3777C76.8649 13.3777 77.5192 13.5078 78.0799 13.7774C78.6407 14.0376 79.108 14.4001 79.4819 14.8648C79.8557 15.3295 80.1268 15.8686 80.3137 16.482C80.5006 17.0954 80.5941 17.7553 80.5941 18.4524C80.5941 19.0937 80.5099 19.7164 80.3417 20.3113C80.1735 20.9154 79.9211 21.4452 79.5847 21.9099C79.2482 22.3746 78.8183 22.7371 78.2949 23.0159C77.7715 23.2947 77.164 23.4341 76.4537 23.4341C76.1453 23.4341 75.8369 23.4063 75.5285 23.3505C75.22 23.2947 74.921 23.2018 74.6406 23.081C74.3602 22.9601 74.0891 22.8021 73.8555 22.6069C73.6125 22.4118 73.4162 22.1887 73.248 21.9378H73.2106V26.6964H71.0984V13.638ZM78.4818 18.4152C78.4818 17.9877 78.4258 17.5694 78.3136 17.1605C78.2015 16.7516 78.0332 16.3984 77.8089 16.0824C77.5846 15.7664 77.3042 15.5154 76.9771 15.3295C76.6406 15.1436 76.2575 15.0414 75.8275 15.0414C74.9396 15.0414 74.2667 15.3481 73.8181 15.9615C73.3695 16.575 73.1452 17.3929 73.1452 18.4152C73.1452 18.8985 73.2013 19.3447 73.3228 19.7536C73.4443 20.1625 73.6125 20.5157 73.8555 20.8132C74.0891 21.1106 74.3695 21.3429 74.6966 21.5102C75.0238 21.6868 75.407 21.7705 75.8369 21.7705C76.3229 21.7705 76.7248 21.6682 77.0612 21.473C77.3977 21.2779 77.6687 21.0176 77.8837 20.7109C78.0986 20.3949 78.2575 20.0417 78.351 19.6421C78.4351 19.2424 78.4818 18.8335 78.4818 18.4152ZM82.2109 10.0039H84.3232V11.9929H82.2109V10.0039ZM82.2109 13.638H84.3232V23.1739H82.2109V13.638ZM86.2111 10.0039H88.3233V23.1739H86.2111V10.0039ZM94.8002 23.4341C94.0338 23.4341 93.3515 23.304 92.7534 23.0531C92.1552 22.8021 91.6506 22.4489 91.23 22.0121C90.8187 21.566 90.501 21.0362 90.286 20.4228C90.071 19.8094 89.9589 19.1309 89.9589 18.3966C89.9589 17.6717 90.071 17.0025 90.286 16.3891C90.501 15.7757 90.8187 15.2459 91.23 14.7998C91.6412 14.3536 92.1552 14.0097 92.7534 13.7588C93.3515 13.5078 94.0338 13.3777 94.8002 13.3777C95.5666 13.3777 96.2488 13.5078 96.847 13.7588C97.4452 14.0097 97.9498 14.3629 98.3704 14.7998C98.7817 15.2459 99.0994 15.7757 99.3144 16.3891C99.5293 17.0025 99.6415 17.6717 99.6415 18.3966C99.6415 19.1309 99.5293 19.8094 99.3144 20.4228C99.0994 21.0362 98.7817 21.566 98.3704 22.0121C97.9592 22.4582 97.4452 22.8021 96.847 23.0531C96.2488 23.304 95.5666 23.4341 94.8002 23.4341ZM94.8002 21.7705C95.2675 21.7705 95.6787 21.6682 96.0245 21.473C96.3703 21.2779 96.6507 21.0176 96.875 20.7016C97.0993 20.3856 97.2582 20.0231 97.3704 19.6235C97.4732 19.2238 97.5293 18.8149 97.5293 18.3966C97.5293 17.9877 97.4732 17.588 97.3704 17.1791C97.2676 16.7701 97.0993 16.417 96.875 16.101C96.6507 15.7849 96.3703 15.534 96.0245 15.3388C95.6787 15.1436 95.2675 15.0414 94.8002 15.0414C94.3329 15.0414 93.9217 15.1436 93.5759 15.3388C93.23 15.534 92.9497 15.7942 92.7253 16.101C92.501 16.417 92.3422 16.7701 92.23 17.1791C92.1272 17.588 92.0711 17.9877 92.0711 18.3966C92.0711 18.8149 92.1272 19.2238 92.23 19.6235C92.3328 20.0231 92.501 20.3856 92.7253 20.7016C92.9497 21.0176 93.23 21.2779 93.5759 21.473C93.9217 21.6775 94.3329 21.7705 94.8002 21.7705ZM100.258 13.638H101.857V10.7753H103.969V13.638H105.875V15.2087H103.969V20.302C103.969 20.525 103.978 20.7109 103.997 20.8782C104.015 21.0362 104.062 21.1756 104.128 21.2872C104.193 21.3987 104.296 21.4823 104.436 21.5381C104.576 21.5939 104.754 21.6218 104.997 21.6218C105.146 21.6218 105.296 21.6218 105.445 21.6125C105.595 21.6032 105.745 21.5846 105.894 21.5474V23.1739C105.66 23.2018 105.427 23.2204 105.212 23.2483C104.987 23.2761 104.763 23.2854 104.53 23.2854C103.969 23.2854 103.52 23.2297 103.184 23.1274C102.847 23.0252 102.576 22.8672 102.389 22.6627C102.193 22.4582 102.071 22.2073 101.997 21.9006C101.931 21.5939 101.885 21.2407 101.875 20.8503V15.2273H100.277V13.638L100.258 13.638Z" fill="#1C1C1C"/>
<path d="M25.358 10.004H15.6754L12.6847 0.839844L9.68456 10.004L0.00195312 9.99471L7.84337 15.6642L4.84325 24.8191L12.6847 19.1589L20.5167 24.8191L17.526 15.6642L25.358 10.004Z" fill="#6600B6"/>
<path d="M18.1998 17.7365L17.5268 15.6641L12.6855 19.1585L18.1998 17.7365Z" fill="#005128"/>
</svg>
