<svg width="40" height="41" viewBox="0 0 40 41" fill="none" xmlns="http://www.w3.org/2000/svg">
<g clip-path="url(#clip0_97_37940)">
<g clip-path="url(#clip1_97_37940)">
<g clip-path="url(#clip2_97_37940)">
<path d="M19.9999 40.4041C30.7826 40.4041 39.5237 31.663 39.5237 20.8803C39.5237 10.0976 30.7826 1.35645 19.9999 1.35645C9.21718 1.35645 0.476074 10.0976 0.476074 20.8803C0.476074 31.663 9.21718 40.4041 19.9999 40.4041Z" fill="white"/>
<path d="M20 1.83226C23.7673 1.83226 27.4499 2.94939 30.5823 5.04237C33.7147 7.13535 36.156 10.1102 37.5977 13.5907C39.0394 17.0712 39.4166 20.901 38.6816 24.5959C37.9467 28.2908 36.1326 31.6847 33.4687 34.3486C30.8049 37.0124 27.4109 38.8265 23.716 39.5615C20.0211 40.2965 16.1913 39.9193 12.7108 38.4776C9.2303 37.0359 6.25547 34.5945 4.16249 31.4622C2.06951 28.3298 0.95239 24.6471 0.95239 20.8799C0.958271 15.8299 2.96696 10.9885 6.5378 7.41768C10.1087 3.84683 14.9501 1.83815 20 1.83226ZM20 0.879883C16.0444 0.879883 12.1776 2.05286 8.8886 4.25049C5.59962 6.44812 3.03617 9.57169 1.52242 13.2262C0.00866572 16.8807 -0.387401 20.9021 0.384303 24.7817C1.15601 28.6613 3.06082 32.225 5.85787 35.022C8.65492 37.8191 12.2186 39.7239 16.0982 40.4956C19.9778 41.2673 23.9992 40.8712 27.6537 39.3575C31.3082 37.8437 34.4318 35.2803 36.6294 31.9913C38.827 28.7023 40 24.8355 40 20.8799C40 15.5756 37.8929 10.4885 34.1421 6.73775C30.3914 2.98702 25.3043 0.879883 20 0.879883Z" fill="#999999"/>
<path d="M17.2221 20.0961C17.2215 19.5196 17.3919 18.9558 17.7117 18.4762C18.0316 17.9965 18.4865 17.6225 19.019 17.4014C19.5514 17.1804 20.1375 17.1222 20.703 17.2343C21.2685 17.3464 21.7881 17.6237 22.196 18.0311C22.6039 18.4386 22.8818 18.9578 22.9945 19.5232C23.1072 20.0886 23.0496 20.6748 22.8292 21.2075C22.6087 21.7402 22.2351 22.1955 21.7558 22.5159C21.2765 22.8362 20.7129 23.0072 20.1364 23.0072C19.364 23.0072 18.6233 22.7006 18.0768 22.1548C17.5304 21.6089 17.223 20.8685 17.2221 20.0961ZM15.6348 20.0961C15.6348 20.9834 15.8978 21.8508 16.3905 22.5887C16.8831 23.3266 17.5835 23.902 18.403 24.2421C19.2225 24.5822 20.1244 24.6718 20.9948 24.4997C21.8652 24.3275 22.6651 23.9012 23.2933 23.2747C23.9216 22.6482 24.3502 21.8495 24.5248 20.9796C24.6994 20.1097 24.6123 19.2075 24.2745 18.3871C23.9367 17.5666 23.3634 16.8647 22.6268 16.3699C21.8903 15.8751 21.0237 15.6097 20.1364 15.6072C18.9459 15.6072 17.8041 16.0802 16.9623 16.922C16.1205 17.7638 15.6475 18.9056 15.6475 20.0961M23.7523 15.4295C23.7523 15.6367 23.8137 15.8392 23.9288 16.0115C24.044 16.1838 24.2076 16.318 24.399 16.3973C24.5904 16.4766 24.8011 16.4974 25.0043 16.457C25.2075 16.4165 25.3942 16.3168 25.5407 16.1702C25.6872 16.0237 25.787 15.8371 25.8274 15.6338C25.8678 15.4306 25.8471 15.22 25.7678 15.0286C25.6885 14.8371 25.5542 14.6735 25.3819 14.5584C25.2096 14.4433 25.0071 14.3818 24.7999 14.3818C24.5221 14.3818 24.2556 14.4922 24.0591 14.6887C23.8627 14.8851 23.7523 15.1516 23.7523 15.4295ZM16.6062 27.2072C16.0501 27.1965 15.5001 27.0891 14.9809 26.8898C14.608 26.7445 14.2691 26.5237 13.9856 26.2412C13.7021 25.9588 13.48 25.6208 13.3332 25.2485C13.1342 24.7302 13.0268 24.1813 13.0158 23.6263C12.9745 22.7057 12.965 22.4295 12.965 20.0961C12.965 17.7628 12.965 17.4866 13.0158 16.5628C13.0268 16.0077 13.1342 15.4588 13.3332 14.9406C13.468 14.5624 13.6849 14.2187 13.9682 13.9342C14.2508 13.6501 14.5936 13.4332 14.9713 13.2993C15.4906 13.1 16.0406 12.9926 16.5967 12.9818C17.5269 12.9437 17.8031 12.9437 20.1364 12.9437C22.4697 12.9437 22.7459 12.9437 23.6666 12.9945C24.2216 13.0056 24.7705 13.113 25.2888 13.312C25.6675 13.4457 26.0114 13.6627 26.2951 13.9469C26.5843 14.2303 26.8076 14.5739 26.9491 14.9533C27.1396 15.4732 27.2405 16.0218 27.2475 16.5755C27.292 17.4993 27.2983 17.7755 27.2983 20.1088C27.2983 22.4422 27.2983 22.7184 27.2475 23.639C27.2405 24.1927 27.1396 24.7412 26.9491 25.2612C26.8024 25.6367 26.5789 25.9775 26.2931 26.2617C26.0072 26.546 25.6651 26.7674 25.2888 26.912C24.7705 27.111 24.2216 27.2184 23.6666 27.2295C22.7459 27.2707 22.4697 27.2803 20.1364 27.2803C17.8031 27.2803 17.5269 27.2803 16.6062 27.2295M16.5332 11.4326C15.8082 11.4448 15.0907 11.5822 14.4126 11.839C13.8359 12.0623 13.3121 12.4035 12.8748 12.8409C12.4375 13.2782 12.0962 13.8019 11.8729 14.3787C11.6165 15.0569 11.479 15.7743 11.4666 16.4993C11.4221 17.4295 11.4126 17.7279 11.4126 20.1025C11.4126 22.4771 11.4126 22.7723 11.4666 23.7025C11.4787 24.4275 11.6162 25.145 11.8729 25.8231C12.0913 26.4068 12.4348 26.9355 12.8793 27.3723C13.3168 27.8167 13.8453 28.1611 14.4285 28.3818C15.1074 28.6355 15.8245 28.7718 16.5491 28.785C17.4793 28.8295 17.7777 28.839 20.1523 28.839C22.5269 28.839 22.8221 28.839 23.7523 28.785C24.4769 28.7722 25.1941 28.6358 25.8729 28.3818C26.4539 28.1568 26.9816 27.8129 27.4222 27.3724C27.8627 26.9318 28.2066 26.4041 28.4316 25.8231C28.6856 25.1443 28.822 24.4271 28.8348 23.7025C28.8793 22.7723 28.8888 22.4739 28.8888 20.1025C28.8888 17.731 28.8888 17.4295 28.8348 16.4993C28.822 15.7746 28.6856 15.0575 28.4316 14.3787C28.2052 13.8012 27.8611 13.2772 27.4211 12.8399C26.9811 12.4027 26.455 12.0618 25.8761 11.839C25.1978 11.5828 24.4804 11.4454 23.7555 11.4326C22.8062 11.3564 22.5078 11.3564 20.1364 11.3564C17.765 11.3564 17.4634 11.3564 16.5332 11.4104" fill="#5A5A5A"/>
</g>
</g>
</g>
<defs>
<clipPath id="clip0_97_37940">
<rect width="40" height="40" fill="white" transform="translate(0 0.879883)"/>
</clipPath>
<clipPath id="clip1_97_37940">
<rect width="40" height="40" fill="white" transform="translate(0 0.879883)"/>
</clipPath>
<clipPath id="clip2_97_37940">
<rect width="40" height="40" fill="white" transform="translate(0 0.879883)"/>
</clipPath>
</defs>
</svg>
