<svg width="40" height="41" viewBox="0 0 40 41" fill="none" xmlns="http://www.w3.org/2000/svg">
<g clip-path="url(#clip0_97_37931)">
<g clip-path="url(#clip1_97_37931)">
<g clip-path="url(#clip2_97_37931)">
<path d="M19.9999 40.4041C30.7826 40.4041 39.5237 31.663 39.5237 20.8803C39.5237 10.0976 30.7826 1.35645 19.9999 1.35645C9.21718 1.35645 0.476074 10.0976 0.476074 20.8803C0.476074 31.663 9.21718 40.4041 19.9999 40.4041Z" fill="white"/>
<path d="M20 1.83226C23.7673 1.83226 27.4499 2.94939 30.5823 5.04237C33.7147 7.13535 36.156 10.1102 37.5977 13.5907C39.0394 17.0712 39.4166 20.901 38.6816 24.5959C37.9467 28.2908 36.1326 31.6847 33.4687 34.3486C30.8049 37.0124 27.4109 38.8265 23.716 39.5615C20.0211 40.2965 16.1913 39.9193 12.7108 38.4776C9.2303 37.0359 6.25547 34.5945 4.16249 31.4622C2.06951 28.3298 0.95239 24.6471 0.95239 20.8799C0.958271 15.8299 2.96696 10.9885 6.5378 7.41768C10.1087 3.84683 14.9501 1.83815 20 1.83226ZM20 0.879883C16.0444 0.879883 12.1776 2.05286 8.8886 4.25049C5.59962 6.44812 3.03617 9.57169 1.52242 13.2262C0.00866572 16.8807 -0.387401 20.9021 0.384303 24.7817C1.15601 28.6613 3.06082 32.225 5.85787 35.022C8.65492 37.8191 12.2186 39.7239 16.0982 40.4956C19.9778 41.2673 23.9992 40.8712 27.6537 39.3575C31.3082 37.8437 34.4318 35.2803 36.6294 31.9913C38.827 28.7023 40 24.8355 40 20.8799C40 15.5756 37.8929 10.4885 34.1421 6.73775C30.3914 2.98702 25.3043 0.879883 20 0.879883Z" fill="#999999"/>
<path d="M19.8826 11.7183C16.708 12.0707 13.5556 14.6357 13.4254 18.2961C13.3461 20.5183 13.981 22.2103 16.108 22.6802C17.0318 21.0516 15.8096 20.6929 15.6191 19.5056C14.8413 14.677 21.1905 11.3818 24.508 14.7437C26.8096 17.0802 25.2953 24.2675 21.5873 23.5151C18.035 22.8008 23.3238 17.0834 20.4889 15.9627C18.1842 15.0484 16.9619 18.7532 18.054 20.5913C17.4191 23.7659 16.035 26.7342 16.5905 30.7024C18.4127 29.4072 19.0159 26.8897 19.5175 24.2643C20.4286 24.8167 20.9143 25.3945 22.0762 25.4834C26.3588 25.8008 28.7429 21.2072 28.1683 16.9564C27.6477 13.1881 23.8857 11.2707 19.8826 11.7183Z" fill="#5A5A5A"/>
</g>
</g>
</g>
<defs>
<clipPath id="clip0_97_37931">
<rect width="40" height="40" fill="white" transform="translate(0 0.879883)"/>
</clipPath>
<clipPath id="clip1_97_37931">
<rect width="40" height="40" fill="white" transform="translate(0 0.879883)"/>
</clipPath>
<clipPath id="clip2_97_37931">
<rect width="40" height="40" fill="white" transform="translate(0 0.879883)"/>
</clipPath>
</defs>
</svg>
