<svg width="106" height="27" viewBox="0 0 106 27" fill="none" xmlns="http://www.w3.org/2000/svg">
<path d="M27.8258 9.33399H38.5458V11.323H34.3307V22.504H32.0128V11.323H27.8164V9.33399H27.8258ZM38.0878 12.968H40.0692V14.8083H40.1066C40.172 14.5481 40.2935 14.2971 40.4711 14.0555C40.6487 13.8138 40.8636 13.5815 41.116 13.3863C41.3683 13.1818 41.6487 13.0238 41.9571 12.8937C42.2655 12.7729 42.5833 12.7078 42.9011 12.7078C43.1441 12.7078 43.3217 12.7171 43.4151 12.7264C43.5086 12.7357 43.602 12.7543 43.7048 12.7636V14.7897C43.5553 14.7618 43.4058 14.7433 43.2469 14.7247C43.088 14.7061 42.9385 14.6968 42.7889 14.6968C42.4338 14.6968 42.0973 14.7711 41.7795 14.9106C41.4618 15.05 41.1907 15.2637 40.9571 15.5333C40.7234 15.8121 40.5365 16.1467 40.3963 16.5556C40.2561 16.9646 40.1907 17.4293 40.1907 17.9591V22.4947H38.0785V12.968L38.0878 12.968ZM53.4155 22.504H51.3406V21.1749H51.3033C51.0416 21.6582 50.6584 22.0393 50.1443 22.3274C49.6303 22.6155 49.1069 22.7642 48.5742 22.7642C47.3125 22.7642 46.3965 22.4575 45.8358 21.8348C45.275 21.2121 44.9946 20.2733 44.9946 19.0186V12.968H47.1068V18.8141C47.1068 19.6506 47.2657 20.2455 47.5928 20.5894C47.9106 20.9332 48.3686 21.1098 48.948 21.1098C49.3966 21.1098 49.7611 21.0448 50.0602 20.9054C50.3593 20.7659 50.6023 20.5894 50.7799 20.357C50.9668 20.1339 51.0976 19.8551 51.1818 19.5391C51.2659 19.2231 51.3033 18.8792 51.3033 18.5074V12.9773H53.4155V22.504ZM57.0137 19.4462C57.0792 20.0596 57.3128 20.4871 57.7147 20.7381C58.1259 20.9797 58.6119 21.1098 59.1821 21.1098C59.3783 21.1098 59.6026 21.0912 59.855 21.0634C60.1073 21.0355 60.3503 20.9704 60.5653 20.8868C60.7896 20.8031 60.9672 20.673 61.1167 20.5057C61.2569 20.3384 61.3223 20.1246 61.313 19.8551C61.3036 19.5856 61.2008 19.3625 61.0139 19.1952C60.827 19.0186 60.5933 18.8885 60.3036 18.777C60.0139 18.6747 59.6867 18.5818 59.3129 18.5074C58.9391 18.4331 58.5652 18.3494 58.182 18.2658C57.7895 18.1821 57.4063 18.0706 57.0418 17.9498C56.6773 17.829 56.3502 17.6617 56.0604 17.4479C55.7707 17.2434 55.5371 16.9739 55.3688 16.6486C55.1913 16.3233 55.1071 15.9236 55.1071 15.4403C55.1071 14.9198 55.238 14.4923 55.4903 14.1391C55.7427 13.7859 56.0698 13.5071 56.453 13.2933C56.8455 13.0796 57.2754 12.9309 57.7521 12.8379C58.2287 12.7543 58.6867 12.7078 59.1166 12.7078C59.612 12.7078 60.0886 12.7636 60.5372 12.8658C60.9859 12.968 61.3971 13.1353 61.7616 13.377C62.1261 13.6094 62.4252 13.9161 62.6682 14.2878C62.9112 14.6596 63.0607 15.115 63.1261 15.6448H60.9204C60.8176 15.1429 60.5933 14.799 60.2288 14.6317C59.8643 14.4551 59.4437 14.3715 58.9764 14.3715C58.8269 14.3715 58.6493 14.3808 58.4437 14.4087C58.2381 14.4365 58.0512 14.483 57.8642 14.5481C57.6867 14.6131 57.5371 14.7154 57.4063 14.8455C57.2848 14.9756 57.2194 15.1429 57.2194 15.3567C57.2194 15.6169 57.3128 15.8214 57.4904 15.9794C57.668 16.1374 57.9016 16.2675 58.1914 16.379C58.4811 16.4813 58.8082 16.5742 59.1821 16.6486C59.5559 16.7229 59.9391 16.8066 60.3316 16.8902C60.7148 16.9739 61.0887 17.0854 61.4625 17.2062C61.8364 17.3271 62.1635 17.4944 62.4532 17.7081C62.7429 17.9219 62.9766 18.1821 63.1542 18.4981C63.3317 18.8141 63.4252 19.2138 63.4252 19.6785C63.4252 20.2455 63.2944 20.7195 63.0327 21.1191C62.771 21.5095 62.4345 21.8348 62.0233 22.0764C61.612 22.3181 61.1447 22.504 60.6401 22.6155C60.1354 22.727 59.6307 22.7828 59.1353 22.7828C58.5278 22.7828 57.9671 22.7177 57.453 22.5783C56.939 22.4389 56.4904 22.2344 56.1165 21.9649C55.7427 21.6861 55.4436 21.3422 55.2286 20.9332C55.0137 20.5243 54.9015 20.0317 54.8828 19.4647H57.0137V19.4462ZM63.986 12.968H65.5842V10.1054H67.6964V12.968H69.603V14.5388H67.6964V19.632C67.6964 19.8551 67.7057 20.041 67.7244 20.2083C67.7431 20.3663 67.7898 20.5057 67.8553 20.6172C67.9207 20.7288 68.0235 20.8124 68.1637 20.8682C68.3039 20.9239 68.4815 20.9518 68.7245 20.9518C68.874 20.9518 69.0235 20.9518 69.1731 20.9425C69.3226 20.9332 69.4722 20.9147 69.6217 20.8775V22.504C69.388 22.5319 69.1544 22.5504 68.9394 22.5783C68.7151 22.6062 68.4908 22.6155 68.2572 22.6155C67.6964 22.6155 67.2478 22.5597 66.9113 22.4575C66.5748 22.3553 66.3038 22.1973 66.1169 21.9928C65.9206 21.7883 65.7991 21.5374 65.7243 21.2307C65.6589 20.9239 65.6122 20.5708 65.6028 20.1804V14.5574H64.0047V12.968H63.986ZM71.0984 12.968H73.0985V14.26H73.1358C73.4349 13.7023 73.8461 13.3119 74.3789 13.0703C74.9116 12.8286 75.4817 12.7078 76.1079 12.7078C76.8649 12.7078 77.5192 12.8379 78.0799 13.1075C78.6407 13.3677 79.108 13.7302 79.4819 14.1949C79.8557 14.6596 80.1268 15.1987 80.3137 15.8121C80.5006 16.4255 80.5941 17.0854 80.5941 17.7825C80.5941 18.4238 80.5099 19.0465 80.3417 19.6413C80.1735 20.2455 79.9211 20.7752 79.5847 21.24C79.2482 21.7047 78.8183 22.0671 78.2949 22.346C77.7715 22.6248 77.164 22.7642 76.4537 22.7642C76.1453 22.7642 75.8369 22.7363 75.5285 22.6806C75.22 22.6248 74.921 22.5319 74.6406 22.411C74.3602 22.2902 74.0891 22.1322 73.8555 21.937C73.6125 21.7418 73.4162 21.5188 73.248 21.2678H73.2106V26.0265H71.0984V12.968ZM78.4818 17.7453C78.4818 17.3178 78.4258 16.8995 78.3136 16.4906C78.2015 16.0816 78.0332 15.7284 77.8089 15.4124C77.5846 15.0964 77.3042 14.8455 76.9771 14.6596C76.6406 14.4737 76.2575 14.3715 75.8275 14.3715C74.9396 14.3715 74.2667 14.6782 73.8181 15.2916C73.3695 15.905 73.1452 16.7229 73.1452 17.7453C73.1452 18.2286 73.2013 18.6747 73.3228 19.0837C73.4443 19.4926 73.6125 19.8458 73.8555 20.1432C74.0891 20.4406 74.3695 20.673 74.6966 20.8403C75.0238 21.0169 75.407 21.1005 75.8369 21.1005C76.3229 21.1005 76.7248 20.9983 77.0612 20.8031C77.3977 20.6079 77.6687 20.3477 77.8837 20.041C78.0986 19.725 78.2575 19.3718 78.351 18.9721C78.4351 18.5725 78.4818 18.1635 78.4818 17.7453ZM82.2109 9.33398H84.3232V11.323H82.2109V9.33398ZM82.2109 12.968H84.3232V22.504H82.2109V12.968ZM86.2111 9.33398H88.3233V22.504H86.2111V9.33398ZM94.8002 22.7642C94.0338 22.7642 93.3515 22.6341 92.7534 22.3831C92.1552 22.1322 91.6506 21.779 91.23 21.3422C90.8187 20.8961 90.501 20.3663 90.286 19.7529C90.071 19.1394 89.9589 18.461 89.9589 17.7267C89.9589 17.0018 90.071 16.3326 90.286 15.7192C90.501 15.1057 90.8187 14.576 91.23 14.1298C91.6412 13.6837 92.1552 13.3398 92.7534 13.0889C93.3515 12.8379 94.0338 12.7078 94.8002 12.7078C95.5666 12.7078 96.2488 12.8379 96.847 13.0889C97.4452 13.3398 97.9498 13.693 98.3704 14.1298C98.7817 14.576 99.0994 15.1057 99.3144 15.7192C99.5293 16.3326 99.6415 17.0018 99.6415 17.7267C99.6415 18.461 99.5293 19.1394 99.3144 19.7529C99.0994 20.3663 98.7817 20.8961 98.3704 21.3422C97.9592 21.7883 97.4452 22.1322 96.847 22.3831C96.2488 22.6341 95.5666 22.7642 94.8002 22.7642ZM94.8002 21.1005C95.2675 21.1005 95.6787 20.9983 96.0245 20.8031C96.3703 20.6079 96.6507 20.3477 96.875 20.0317C97.0993 19.7157 97.2582 19.3532 97.3704 18.9536C97.4732 18.5539 97.5293 18.145 97.5293 17.7267C97.5293 17.3178 97.4732 16.9181 97.3704 16.5092C97.2676 16.1002 97.0993 15.747 96.875 15.431C96.6507 15.115 96.3703 14.8641 96.0245 14.6689C95.6787 14.4737 95.2675 14.3715 94.8002 14.3715C94.3329 14.3715 93.9217 14.4737 93.5759 14.6689C93.23 14.8641 92.9497 15.1243 92.7253 15.431C92.501 15.747 92.3422 16.1002 92.23 16.5092C92.1272 16.9181 92.0711 17.3178 92.0711 17.7267C92.0711 18.145 92.1272 18.5539 92.23 18.9536C92.3328 19.3532 92.501 19.7157 92.7253 20.0317C92.9497 20.3477 93.23 20.6079 93.5759 20.8031C93.9217 21.0076 94.3329 21.1005 94.8002 21.1005ZM100.258 12.968H101.857V10.1054H103.969V12.968H105.875V14.5388H103.969V19.632C103.969 19.8551 103.978 20.041 103.997 20.2083C104.015 20.3663 104.062 20.5057 104.128 20.6172C104.193 20.7288 104.296 20.8124 104.436 20.8682C104.576 20.9239 104.754 20.9518 104.997 20.9518C105.146 20.9518 105.296 20.9518 105.445 20.9425C105.595 20.9332 105.745 20.9147 105.894 20.8775V22.504C105.66 22.5319 105.427 22.5504 105.212 22.5783C104.987 22.6062 104.763 22.6155 104.53 22.6155C103.969 22.6155 103.52 22.5597 103.184 22.4575C102.847 22.3553 102.576 22.1973 102.389 21.9928C102.193 21.7883 102.071 21.5374 101.997 21.2307C101.931 20.9239 101.885 20.5708 101.875 20.1804V14.5574H100.277V12.968L100.258 12.968Z" fill="#1C1C1C"/>
<path d="M25.359 9.33408H15.6764L12.6856 0.169922L9.68553 9.33408L0.00292969 9.32479L7.84434 14.9943L4.84423 24.1492L12.6856 18.4889L20.5177 24.1492L17.5269 14.9943L25.359 9.33408Z" fill="#6600B6"/>
<path d="M18.1998 17.0666L17.5268 14.9941L12.6855 18.4885L18.1998 17.0666Z" fill="#005128"/>
</svg>
