<svg width="163" height="31" viewBox="0 0 163 31" fill="none" xmlns="http://www.w3.org/2000/svg">
<path d="M0.00488281 30.2331H29.9348V0.330078H0.00488281V30.2331Z" fill="#E42337"/>
<path d="M25.5192 13.0527L8.54336 25.3736L11.0205 17.7589L4.53613 13.0527H12.5511L15.0277 5.4375L17.5043 13.0527H25.5192ZM15.0283 20.668L19.6645 19.6937L21.5116 25.3736L15.0283 20.668Z" fill="white"/>
<path d="M33.0791 30.2331H63.009V0.330078H33.0791V30.2331Z" fill="#E42337"/>
<path d="M33.0791 30.2331H48.044V0.330078H33.0791V30.2331Z" fill="#E42337"/>
<path d="M48.4022 20.5511L52.3777 19.6927L54.2164 25.5016L47.9819 20.8527L41.5042 25.5016L44.0184 17.8593L37.4365 13.1361H45.5719L48.085 5.49316L50.5992 13.1361H58.7341L48.4022 20.5511Z" fill="white"/>
<path d="M66.1768 30.2331H96.1066V0.330078H66.1768V30.2331Z" fill="#E42337"/>
<path d="M66.1768 30.2331H81.1417V0.330078H66.1768V30.2331Z" fill="#E42337"/>
<path d="M91.6921 13.0527L74.7162 25.3736L77.1933 17.7589L70.709 13.0527H78.7239L81.2005 5.4375L83.6771 13.0527L91.6921 13.0527ZM81.2012 20.668L85.8373 19.6937L87.6845 25.3736L81.2012 20.668Z" fill="white"/>
<path d="M99.2744 30.2331H129.204V0.330078H99.2744V30.2331Z" fill="#E42337"/>
<path d="M99.2744 30.2331H114.239V0.330078H99.2744V30.2331Z" fill="#E42337"/>
<path d="M124.788 13.0527L107.812 25.3736L110.289 17.7589L103.805 13.0527H111.82L114.296 5.4375L116.773 13.0527L124.788 13.0527ZM114.297 20.668L118.933 19.6937L120.78 25.3736L114.297 20.668Z" fill="white"/>
<path d="M132.35 30.2331H162.28V0.330078H132.35V30.2331Z" fill="#DCDCE6"/>
<path d="M132.35 30.2331H147.315V0.330078H132.35V30.2331Z" fill="#DCDCE6"/>
<path d="M157.863 13.0527L140.888 25.3736L143.364 17.7589L136.88 13.0527H144.895L147.371 5.4375L149.848 13.0527H157.863ZM147.372 20.668L152.008 19.6937L153.855 25.3736L147.372 20.668Z" fill="white"/>
</svg>
