<svg width="75" height="57" viewBox="0 0 75 57" fill="none" xmlns="http://www.w3.org/2000/svg">
<g clip-path="url(#clip0_97_38002)">
<g clip-path="url(#clip1_97_38002)">
<g clip-path="url(#clip2_97_38002)">
<path d="M33.6553 51.0131L34.4055 51.2403C34.3641 51.4309 34.2829 51.6106 34.1672 51.7676C34.062 51.9063 33.9233 52.016 33.7642 52.0866C33.5693 52.1649 33.3602 52.2017 33.1503 52.1946C32.8977 52.2037 32.6461 52.1589 32.412 52.0634C32.2057 51.9611 32.0339 51.8004 31.9182 51.6013C31.7699 51.3446 31.6976 51.0511 31.7098 50.755C31.7098 50.2977 31.8319 49.9456 32.0759 49.6987C32.32 49.4517 32.665 49.3285 33.1108 49.3291C33.4601 49.3291 33.7345 49.3997 33.934 49.5409C34.1489 49.7035 34.3051 49.9316 34.379 50.1908L33.6227 50.3623C33.6045 50.296 33.5755 50.2332 33.537 50.1762C33.4926 50.113 33.4338 50.0613 33.3655 50.0253C33.2495 49.9696 33.1173 49.9572 32.9929 49.9903C32.8685 50.0235 32.7601 50.1001 32.6873 50.2062C32.6095 50.3206 32.5704 50.5026 32.5698 50.7524C32.5698 51.0594 32.617 51.2669 32.7096 51.3835C32.8079 51.487 32.9426 51.5484 33.0852 51.5546C33.2279 51.5608 33.3674 51.5115 33.4744 51.4169C33.569 51.3005 33.6314 51.1612 33.6553 51.0131Z" fill="#225E63"/>
<path d="M34.7158 50.7636C34.7158 50.312 34.8418 49.9599 35.0939 49.7072C35.346 49.4546 35.6969 49.3285 36.1468 49.3291C36.6081 49.3291 36.9636 49.4529 37.2134 49.7004C37.4632 49.9479 37.5878 50.2948 37.5873 50.7413C37.5977 51.0161 37.5415 51.2894 37.4235 51.5378C37.3159 51.743 37.1493 51.9112 36.945 52.0205C36.7069 52.1432 36.4411 52.2023 36.1734 52.192C35.9068 52.2013 35.6415 52.1503 35.3974 52.0428C35.1877 51.9389 35.0141 51.7743 34.8992 51.5704C34.7673 51.3226 34.7039 51.0441 34.7158 50.7636ZM35.5732 50.7636C35.5732 51.0431 35.6252 51.2432 35.7292 51.3638C35.7842 51.4213 35.8503 51.467 35.9235 51.4983C35.9966 51.5296 36.0754 51.5457 36.1549 51.5457C36.2345 51.5457 36.3132 51.5296 36.3864 51.4983C36.4596 51.467 36.5257 51.4213 36.5806 51.3638C36.6818 51.2446 36.7315 51.0294 36.7315 50.7198C36.7315 50.458 36.679 50.2674 36.5738 50.1479C36.5205 50.0875 36.4543 50.0399 36.3801 50.0086C36.3058 49.9773 36.2255 49.9631 36.1451 49.967C36.0664 49.9643 35.9881 49.9794 35.9161 50.0111C35.8441 50.0429 35.7802 50.0906 35.7292 50.1505C35.622 50.2834 35.5732 50.4849 35.5732 50.7679V50.7636Z" fill="#225E63"/>
<path d="M38.0366 49.376H39.1624L39.5971 51.0625L40.0258 49.376H41.1508V52.1472H40.452V50.0336L39.9118 52.1472H39.2773L38.738 50.0336V52.1472H38.0366V49.376Z" fill="#225E63"/>
<path d="M41.6963 49.376H43.1187C43.4286 49.376 43.6606 49.4497 43.815 49.5972C43.9693 49.7447 44.0465 49.9545 44.0465 50.2265C44.0532 50.3475 44.0342 50.4685 43.9907 50.5815C43.9473 50.6946 43.8804 50.7971 43.7944 50.8825C43.6229 51.0402 43.3657 51.1191 43.0227 51.1191H42.5537V52.148H41.6963V49.376ZM42.5537 50.5575H42.7638C42.9284 50.5575 43.0442 50.5292 43.111 50.4718C43.1433 50.445 43.1691 50.4113 43.1865 50.3731C43.2038 50.3349 43.2123 50.2933 43.2113 50.2514C43.2124 50.2107 43.2054 50.1702 43.1906 50.1322C43.1759 50.0942 43.1538 50.0596 43.1256 50.0302C43.0673 49.9693 42.9541 49.9393 42.7981 49.9393H42.5546L42.5537 50.5575Z" fill="#225E63"/>
<path d="M44.4956 49.376H45.353V51.4647H46.6897V52.1506H44.4956V49.376Z" fill="#225E63"/>
<path d="M47.1118 49.376H47.9692V52.1472H47.1118V49.376Z" fill="#225E63"/>
<path d="M50.2876 51.6893H49.3153L49.1807 52.1472H48.3062L49.3479 49.376H50.2816L51.3226 52.1472H50.4257L50.2876 51.6893ZM50.1102 51.0891L49.8066 50.0945L49.504 51.0908L50.1102 51.0891Z" fill="#225E63"/>
<path d="M51.6001 49.376H52.4001L53.4435 50.9056V49.376H54.2504V52.1472H53.4435L52.4052 50.6252V52.1472H51.6001V49.376Z" fill="#225E63"/>
<path d="M54.6245 49.376H57.2276V50.0619H56.3548V52.1489H55.4974V50.0602H54.6245V49.376Z" fill="#225E63"/>
<path d="M53.4078 28.2704L56.5931 27.2664L55.5642 24.9685C54.7925 25.9177 54.0371 27.1421 53.4078 28.2704ZM52.3197 17.7533L46.0717 3.83398L0.333496 6.43111L13.0053 41.0065L37.398 33.3181C35.8547 31.0888 35.2776 28.4368 37.0714 27.1446C39.0786 25.6939 42.0984 27.3719 44.0387 29.7563C45.9002 26.6242 51.1236 19.3996 52.3197 17.7533Z" fill="#225E63"/>
<path d="M44.6521 13.8909C46.5667 13.8909 48.1186 12.4272 48.1186 10.6215C48.1186 8.8158 46.5667 7.34961 44.6521 7.34961C42.7375 7.34961 41.1855 8.8158 41.1855 10.6215C41.1855 12.4272 42.7375 13.8909 44.6521 13.8909ZM41.8157 15.309H47.4919V30.121H41.8157V15.309Z" fill="white"/>
<path d="M39.0152 19.6324C39.0555 19.6564 39.089 19.6367 39.089 19.5895V15.8383C39.0878 15.8126 39.0803 15.7875 39.0672 15.7654C39.054 15.7432 39.0356 15.7247 39.0135 15.7114C39.0135 15.7114 38.2701 15.2261 35.9988 15.0915C35.8779 15.0238 33.9016 15.0143 33.3537 15.0915C25.1036 15.7526 24.7983 21.7211 24.7983 21.9937V23.4436C24.7983 23.622 24.7983 29.7242 33.3537 30.2653C34.1888 30.3287 35.8265 30.2653 35.9988 30.2653C37.9709 30.2653 39.335 29.6719 39.335 29.6719C39.3573 29.6611 39.3763 29.6445 39.3901 29.6238C39.4038 29.6032 39.4117 29.5792 39.4131 29.5545V26.0416C39.4131 25.9945 39.3822 25.9773 39.341 26.0022C39.341 26.0022 38.7288 26.4943 36.0357 26.7576C35.2726 26.8433 34.9099 26.803 34.6347 26.7576C30.8166 26.1153 30.6348 23.3176 30.6348 23.3176C30.6297 23.2713 30.6254 23.195 30.6254 23.1461V22.0743C30.6256 22.017 30.6293 21.9597 30.6365 21.9028C30.6365 21.9028 30.8937 18.9062 34.6355 18.5898H36.0357C37.0851 18.7488 38.0956 19.1024 39.0152 19.6324Z" fill="white"/>
<path d="M9.06299 30.0625C9.06299 30.0852 9.07202 30.1071 9.0881 30.1231C9.10418 30.1392 9.12599 30.1482 9.14873 30.1482H14.6748C14.6975 30.1482 14.7193 30.1392 14.7354 30.1231C14.7515 30.1071 14.7605 30.0852 14.7605 30.0625V25.7634C14.7604 25.7524 14.7625 25.7414 14.7669 25.7313C14.7712 25.7211 14.7776 25.712 14.7857 25.7045C14.7938 25.697 14.8033 25.6912 14.8138 25.6876C14.8242 25.6841 14.8353 25.6827 14.8463 25.6837C14.8463 25.6837 23.6666 26.3216 23.6666 20.4002C23.6666 15.7282 18.1328 15.2154 16.3108 15.3012C16.2739 15.3012 9.1513 15.3012 9.1513 15.3012C9.12856 15.3012 9.10675 15.3102 9.09067 15.3263C9.07459 15.3424 9.06556 15.3642 9.06556 15.3869L9.06299 30.0625ZM14.6611 22.4006V18.5276H16.0132C16.0132 18.5276 17.9793 18.6134 18.1328 19.9535C18.1688 20.0581 18.1602 20.7132 18.1328 20.7492C17.8755 22.3234 16.171 22.4006 16.171 22.4006H14.6611Z" fill="white"/>
<path d="M44.8077 37.273C45.269 37.273 45.6214 37.273 46.2045 37.0158C48.2185 35.9569 54.9982 19.4001 62.1525 14.3079C62.2037 14.2719 62.2493 14.2286 62.2879 14.1793C62.316 14.1393 62.3329 14.0925 62.3368 14.0438C62.3368 14.0438 62.3368 13.7009 61.277 13.7009C54.9107 13.5294 48.2914 26.8725 44.8146 32.1525C44.7709 32.21 44.5316 32.1525 44.5316 32.1525C44.5316 32.1525 42.1995 29.4011 40.1742 28.3456C40.0101 28.2842 39.8346 28.2588 39.6598 28.271C39.4994 28.271 38.5571 28.4605 38.1164 28.9243C37.5977 29.4714 37.608 29.7818 37.6123 30.4454C37.622 30.5789 37.6557 30.7096 37.7117 30.8312C38.2073 31.6972 40.47 34.8079 42.3238 36.5245C42.6042 36.7269 43.044 37.273 44.8077 37.273Z" fill="#2BBC5D"/>
<path d="M31.6147 38.8281H35.7381C36.5509 38.8281 37.2083 38.9384 37.7101 39.1591C38.1957 39.3682 38.6219 39.6943 38.9508 40.1083C39.284 40.5343 39.5259 41.0243 39.6616 41.5479C39.811 42.1159 39.8851 42.7011 39.882 43.2884C39.882 44.2476 39.7728 44.9907 39.5545 45.5177C39.3524 46.0226 39.0415 46.4766 38.6439 46.8476C38.2921 47.1853 37.8624 47.431 37.3929 47.5627C36.8543 47.7162 36.298 47.7986 35.7381 47.8079H31.6147V38.8281ZM34.3902 40.8619V45.7698H35.071C35.6506 45.7698 36.063 45.7055 36.3083 45.5769C36.5535 45.4483 36.7455 45.2236 36.8844 44.9029C37.0233 44.5823 37.0928 44.0624 37.0928 43.3433C37.0928 42.3916 36.9376 41.7402 36.6272 41.3892C36.3168 41.0383 35.8024 40.8625 35.0839 40.8619H34.3902Z" fill="#225E63"/>
<path d="M40.6406 44.8388L43.2815 44.6733C43.3386 45.102 43.455 45.4287 43.6304 45.6533C43.9163 46.0169 44.3247 46.1987 44.8557 46.1987C45.2518 46.1987 45.5574 46.1058 45.7723 45.92C45.8708 45.8431 45.9508 45.7451 46.0064 45.6333C46.0621 45.5214 46.0919 45.3984 46.0938 45.2735C46.0914 45.1532 46.0627 45.0349 46.0097 44.9269C45.9567 44.8189 45.8806 44.7239 45.7869 44.6484C45.5828 44.465 45.1092 44.2915 44.3661 44.128C43.1486 43.8542 42.2806 43.4906 41.7621 43.0374C41.5091 42.8261 41.3069 42.5605 41.1706 42.2604C41.0344 41.9602 40.9675 41.6332 40.975 41.3037C40.9763 40.8374 41.116 40.382 41.3763 39.9952C41.6438 39.5842 42.0462 39.2616 42.5835 39.0272C43.1209 38.7928 43.8571 38.6754 44.7923 38.6748C45.9395 38.6748 46.8146 38.8883 47.4177 39.3153C48.0207 39.7423 48.3791 40.4214 48.4929 41.3525L45.8769 41.5051C45.8071 41.101 45.6611 40.8072 45.4387 40.6237C45.2164 40.4402 44.9089 40.3482 44.5162 40.3476C44.1938 40.3476 43.9503 40.4162 43.7874 40.5526C43.7109 40.6115 43.649 40.6872 43.6065 40.7739C43.5639 40.8606 43.5419 40.9559 43.5421 41.0524C43.5446 41.1278 43.5641 41.2017 43.5991 41.2685C43.6342 41.3353 43.6839 41.3934 43.7445 41.4383C43.8748 41.5566 44.1852 41.6669 44.6756 41.7692C45.8886 42.0305 46.7577 42.2948 47.2831 42.5623C47.8084 42.8299 48.1922 43.1617 48.4346 43.5578C48.6747 43.9594 48.7988 44.4198 48.793 44.8877C48.7958 45.4545 48.6292 46.0092 48.3145 46.4808C47.988 46.9735 47.5224 47.3582 46.977 47.586C46.4053 47.8375 45.6843 47.9632 44.8137 47.9632C43.2863 47.9632 42.2289 47.6691 41.6412 47.0809C41.0536 46.4928 40.7201 45.7454 40.6406 44.8388Z" fill="#225E63"/>
<path d="M49.4883 44.8388L52.1291 44.6733C52.1863 45.102 52.3026 45.4287 52.4781 45.6533C52.7639 46.0169 53.1723 46.1987 53.7034 46.1987C54.0995 46.1987 54.405 46.1058 54.6199 45.92C54.7184 45.8431 54.7985 45.7451 54.8541 45.6333C54.9097 45.5214 54.9396 45.3984 54.9415 45.2735C54.9391 45.1532 54.9104 45.0349 54.8573 44.9269C54.8043 44.8189 54.7283 44.7239 54.6345 44.6484C54.4304 44.465 53.9569 44.2915 53.2138 44.128C51.9962 43.8542 51.1282 43.4906 50.6098 43.0374C50.3572 42.8258 50.1555 42.5602 50.0197 42.26C49.8839 41.9599 49.8174 41.633 49.8252 41.3037C49.8266 40.8374 49.9662 40.382 50.2265 39.9952C50.494 39.5842 50.8965 39.2616 51.4338 39.0272C51.9711 38.7928 52.7073 38.6754 53.6425 38.6748C54.7897 38.6748 55.6648 38.8883 56.2679 39.3153C56.8709 39.7423 57.2294 40.4214 57.3431 41.3525L54.7271 41.5051C54.6568 41.101 54.5108 40.8072 54.289 40.6237C54.0672 40.4402 53.7597 40.3482 53.3664 40.3476C53.044 40.3476 52.8005 40.4162 52.6376 40.5526C52.5611 40.6115 52.4992 40.6872 52.4567 40.7739C52.4142 40.8606 52.3922 40.9559 52.3924 41.0524C52.3948 41.1278 52.4143 41.2017 52.4494 41.2685C52.4844 41.3353 52.5341 41.3934 52.5947 41.4383C52.725 41.5566 53.0354 41.6669 53.5259 41.7692C54.7394 42.0305 55.6083 42.2948 56.1324 42.5623C56.6566 42.8299 57.0387 43.1617 57.2788 43.5578C57.5189 43.9594 57.643 44.4198 57.6372 44.8877C57.64 45.4545 57.4734 46.0092 57.1588 46.4808C56.8329 46.9731 56.3683 47.3578 55.8238 47.586C55.2521 47.8375 54.5311 47.9632 53.6605 47.9632C52.1326 47.9632 51.0751 47.6691 50.488 47.0809C49.901 46.4928 49.5677 45.7454 49.4883 44.8388Z" fill="#225E63"/>
</g>
</g>
</g>
<defs>
<clipPath id="clip0_97_38002">
<rect width="62" height="56" fill="white" transform="translate(0.333496 0.0146484)"/>
</clipPath>
<clipPath id="clip1_97_38002">
<rect width="62" height="56" fill="white" transform="translate(0.333496 0.0146484)"/>
</clipPath>
<clipPath id="clip2_97_38002">
<rect width="62" height="48.361" fill="white" transform="translate(0.333496 3.83398)"/>
</clipPath>
</defs>
</svg>
