<svg width="40" height="41" viewBox="0 0 40 41" fill="none" xmlns="http://www.w3.org/2000/svg">
<g clip-path="url(#clip0_97_37922)">
<g clip-path="url(#clip1_97_37922)">
<g clip-path="url(#clip2_97_37922)">
<path d="M19.9999 40.4041C30.7826 40.4041 39.5237 31.663 39.5237 20.8803C39.5237 10.0976 30.7826 1.35645 19.9999 1.35645C9.21718 1.35645 0.476074 10.0976 0.476074 20.8803C0.476074 31.663 9.21718 40.4041 19.9999 40.4041Z" fill="white"/>
<path d="M20 1.83226C23.7673 1.83226 27.4499 2.94939 30.5823 5.04237C33.7147 7.13535 36.156 10.1102 37.5977 13.5907C39.0394 17.0712 39.4166 20.901 38.6816 24.5959C37.9467 28.2908 36.1326 31.6847 33.4687 34.3486C30.8049 37.0124 27.4109 38.8265 23.716 39.5615C20.0211 40.2965 16.1913 39.9193 12.7108 38.4776C9.2303 37.0359 6.25547 34.5945 4.16249 31.4622C2.06951 28.3298 0.95239 24.6471 0.95239 20.8799C0.958271 15.8299 2.96696 10.9885 6.5378 7.41768C10.1087 3.84683 14.9501 1.83815 20 1.83226ZM20 0.879883C16.0444 0.879883 12.1776 2.05286 8.8886 4.25049C5.59962 6.44812 3.03617 9.57169 1.52242 13.2262C0.00866572 16.8807 -0.387401 20.9021 0.384303 24.7817C1.15601 28.6613 3.06082 32.225 5.85787 35.022C8.65492 37.8191 12.2186 39.7239 16.0982 40.4956C19.9778 41.2673 23.9992 40.8712 27.6537 39.3575C31.3082 37.8437 34.4318 35.2803 36.6294 31.9913C38.827 28.7023 40 24.8355 40 20.8799C40 15.5756 37.8929 10.4885 34.1421 6.73775C30.3914 2.98702 25.3043 0.879883 20 0.879883Z" fill="#999999"/>
<path d="M23.854 13.5781H24.7048L25.0223 13.6416C25.2149 13.6767 25.404 13.7287 25.5873 13.7972C25.7556 13.8628 25.9189 13.9402 26.0762 14.0289C26.2246 14.1092 26.3688 14.1971 26.508 14.2924C26.6296 14.3784 26.7443 14.474 26.8508 14.5781C26.9133 14.6282 26.9873 14.6617 27.0661 14.6755C27.1449 14.6894 27.2259 14.6832 27.3016 14.6575C27.5349 14.6015 27.7649 14.5326 27.9905 14.4511C28.235 14.3654 28.4762 14.267 28.7175 14.1591C28.9588 14.0511 29.1016 13.9813 29.1556 13.9496L29.235 13.9019H29.254H29.2699V13.8956V13.921V13.9432V13.9623V13.9845C29.2685 14.0067 29.2685 14.0289 29.2699 14.0511C29.2242 14.1599 29.1723 14.2659 29.1143 14.3686C29.008 14.5712 28.8848 14.7645 28.7461 14.9464C28.631 15.1081 28.499 15.257 28.3524 15.3908C28.2318 15.4924 28.1556 15.5654 28.1175 15.6035C28.0759 15.6473 28.0289 15.6857 27.9778 15.7178L27.9366 15.8003H27.9207H27.9873L28.4445 15.7019C28.7407 15.6402 29.0333 15.5618 29.3207 15.467L29.7619 15.3178L29.8096 15.3019H29.835H29.8508H29.9175V15.3337V15.3527L29.7112 15.6289C29.645 15.7281 29.5707 15.8215 29.4889 15.9083C29.4702 15.92 29.4549 15.9364 29.4445 15.9559C29.3361 16.084 29.2206 16.2059 29.0985 16.321C28.8858 16.5337 28.6762 16.721 28.4635 16.8892C28.367 16.9601 28.2882 17.0522 28.2331 17.1585C28.1781 17.2647 28.1483 17.3823 28.1461 17.5019C28.1461 17.7432 28.1461 18.0162 28.1112 18.321C28.0762 18.6257 28.0477 18.9559 27.9873 19.3115C27.927 19.667 27.835 20.0638 27.7112 20.5115C27.5854 20.9567 27.4316 21.3935 27.2508 21.8194C27.0891 22.2124 26.9013 22.5942 26.6889 22.9623C26.4921 23.3019 26.3112 23.5972 26.1493 23.8194C25.9873 24.0416 25.7143 24.3718 25.5366 24.575C25.3374 24.8188 25.1255 25.0519 24.9016 25.2734L24.4762 25.6988C24.454 25.7242 24.3461 25.813 24.1588 25.9654C23.9715 26.1178 23.7683 26.2829 23.5524 26.4353C23.3366 26.5876 23.1397 26.7178 22.962 26.8226C22.7842 26.9273 22.5651 27.0416 22.327 27.175C22.0538 27.3145 21.7729 27.4385 21.4858 27.5464C21.1905 27.6607 20.8794 27.7654 20.5524 27.8638C20.2397 27.9587 19.9217 28.035 19.6 28.0924C19.2826 28.1464 18.9651 28.194 18.562 28.2321L17.981 28.2892H16.927H16.7873C16.6953 28.2892 16.6191 28.2892 16.5588 28.2892L15.8731 28.1813C15.4826 28.1273 15.1746 28.0702 14.9493 28.0162C14.7239 27.9623 14.4 27.8638 13.9683 27.7051C13.5792 27.5694 13.1986 27.4104 12.8286 27.2289L12.2381 26.9337C12.162 26.8956 12.0731 26.8448 11.9746 26.7845L11.8286 26.6956H11.8096V26.6607H11.8254H11.8985C11.9493 26.6607 12.0826 26.6607 12.3016 26.6861C12.5321 26.6988 12.7632 26.6988 12.9937 26.6861C13.23 26.6673 13.4652 26.6366 13.6985 26.594C14.0035 26.5415 14.3056 26.4727 14.6032 26.3876C14.9282 26.306 15.2466 26.1999 15.5556 26.0702C15.8477 25.9432 16.054 25.848 16.1905 25.7845C16.327 25.721 16.508 25.6067 16.7493 25.4384L17.1239 25.1845H17.1556V25.1527H17.0254H16.7715C16.6553 25.1139 16.5427 25.065 16.435 25.0067C16.2419 24.9519 16.054 24.8808 15.8731 24.794C15.6684 24.7035 15.471 24.5974 15.2826 24.4765C15.136 24.3829 14.9979 24.2767 14.8699 24.1591C14.7873 24.0829 14.6762 23.9718 14.5524 23.8416C14.4219 23.7115 14.3029 23.5702 14.1969 23.4194C14.0909 23.2508 13.9976 23.0747 13.9175 22.8924L13.781 22.594V22.5686V22.5464V22.5273V22.4988H13.8064H13.8318L14.0096 22.5242C14.1974 22.5413 14.3861 22.5466 14.5746 22.54C14.752 22.5404 14.9291 22.5287 15.1048 22.5051L15.2858 22.4734H15.3175H15.3588H15.4H15.3651H15.3334H15.3016H15.2699H15.235L15.1207 22.4416C15.0667 22.4416 14.9207 22.3654 14.6794 22.2607C14.4789 22.1739 14.2875 22.0676 14.108 21.9432C13.9669 21.8462 13.8322 21.7401 13.7048 21.6257C13.5535 21.4846 13.4124 21.3329 13.2826 21.1718C13.1224 20.977 12.986 20.7639 12.8762 20.5369C12.7639 20.3122 12.6736 20.0773 12.6064 19.8353C12.5451 19.6143 12.5058 19.3878 12.4889 19.1591L12.4572 18.813H12.4762H12.4921H12.508L12.762 18.9273C12.966 19.0152 13.1789 19.0812 13.3969 19.1242C13.6477 19.1781 13.7969 19.2099 13.8477 19.213H13.9207H14.0667H14.0508H14.035L13.8953 19.1083C13.794 19.0273 13.6995 18.9381 13.6127 18.8416C13.5143 18.7337 13.4191 18.6194 13.3207 18.4988C13.2036 18.3505 13.1015 18.191 13.0159 18.0226C12.9255 17.8538 12.8449 17.68 12.7746 17.5019C12.6932 17.2961 12.6295 17.0837 12.5842 16.867C12.5395 16.6582 12.515 16.4456 12.5112 16.2321C12.5044 16.0552 12.5097 15.8781 12.527 15.7019C12.5462 15.5334 12.5792 15.3667 12.6254 15.2035C12.6796 15.001 12.7507 14.8035 12.8381 14.613L12.9746 14.2956V14.2734V14.248H13.0159V14.2638L13.235 14.5083C13.3842 14.6734 13.5524 14.8543 13.7588 15.0575C13.8568 15.1708 13.9629 15.2769 14.0762 15.375C14.1093 15.3936 14.1375 15.4197 14.1588 15.4511C14.2581 15.5544 14.3641 15.6509 14.4762 15.74C14.6604 15.8924 14.9048 16.0575 15.2032 16.2734C15.5016 16.4892 15.8381 16.6734 16.2 16.867C16.5805 17.0706 16.9739 17.2487 17.3778 17.4003C17.7969 17.5559 18.0889 17.6607 18.2604 17.7178C18.4318 17.775 18.7175 17.8321 19.1239 17.9083C19.5302 17.9845 19.8413 18.0321 20.0477 18.0543C20.254 18.0765 20.3969 18.0892 20.4731 18.0924H20.5873V18.067V18.0416L20.5556 17.8384C20.5262 17.4293 20.553 17.0181 20.635 16.6162C20.6748 16.4003 20.7321 16.1879 20.8064 15.9813C20.8664 15.8052 20.9408 15.6342 21.0286 15.4702C21.1186 15.3204 21.2161 15.1753 21.3207 15.0353C21.4594 14.8522 21.6157 14.6831 21.7873 14.5305C21.9859 14.3494 22.2055 14.1927 22.4413 14.0638C22.6572 13.9389 22.8835 13.8327 23.1175 13.7464C23.2875 13.6839 23.4628 13.6372 23.6413 13.6067C23.7127 13.6014 23.7837 13.5918 23.854 13.5781Z" fill="#5A5A5A" stroke="#5A5A5A" stroke-width="0.15873"/>
</g>
</g>
</g>
<defs>
<clipPath id="clip0_97_37922">
<rect width="40" height="40" fill="white" transform="translate(0 0.879883)"/>
</clipPath>
<clipPath id="clip1_97_37922">
<rect width="40" height="40" fill="white" transform="translate(0 0.879883)"/>
</clipPath>
<clipPath id="clip2_97_37922">
<rect width="40" height="40" fill="white" transform="translate(0 0.879883)"/>
</clipPath>
</defs>
</svg>
