<svg width="61" height="39" viewBox="0 0 61 39" fill="none" xmlns="http://www.w3.org/2000/svg">
<g clip-path="url(#clip0_97_37569)">
<g clip-path="url(#clip1_97_37569)">
<g clip-path="url(#clip2_97_37569)">
<path d="M60.2145 35.978C60.2107 36.5065 59.9991 37.0122 59.6254 37.3859C59.2517 37.7596 58.7459 37.9712 58.2175 37.975H2.73913C2.20982 37.9725 1.70284 37.7614 1.3281 37.3876C0.953373 37.0138 0.741098 36.5073 0.737305 35.978V2.80358C0.741084 2.27383 0.953203 1.76685 1.3278 1.39225C1.7024 1.01766 2.20938 0.805537 2.73913 0.801758H58.2511C58.7801 0.806794 59.2858 1.01947 59.6594 1.39393C60.0329 1.76839 60.2444 2.27466 60.2482 2.80358V36.0069H60.2L60.2145 35.978Z" fill="white" stroke="#E6E7E7" stroke-width="0.466771" stroke-miterlimit="10"/>
<path d="M18.9369 33.5294V31.6575C18.9474 31.5006 18.9244 31.3432 18.8695 31.1959C18.8147 31.0485 18.7292 30.9144 18.6186 30.8025C18.5081 30.6906 18.3751 30.6035 18.2284 30.5468C18.0817 30.4901 17.9247 30.4652 17.7676 30.4737C17.5616 30.4616 17.356 30.5041 17.1718 30.5971C16.9875 30.69 16.8312 30.8301 16.7186 31.0031C16.6192 30.8377 16.4778 30.7016 16.3087 30.6087C16.1397 30.5157 15.949 30.4691 15.7562 30.4737C15.5845 30.4661 15.4137 30.5029 15.2603 30.5804C15.1069 30.6579 14.9761 30.7737 14.8804 30.9165V30.5507H14.2163V33.5294H14.8708V31.8789C14.8564 31.777 14.8648 31.6733 14.8953 31.575C14.9257 31.4768 14.9775 31.3865 15.047 31.3107C15.1164 31.2348 15.2017 31.1752 15.2969 31.1362C15.3921 31.0971 15.4947 31.0796 15.5974 31.0849C16.0305 31.0849 16.247 31.3688 16.247 31.8693V33.5294H16.9014V31.8789C16.888 31.7772 16.897 31.6738 16.9278 31.5759C16.9586 31.4781 17.0104 31.3882 17.0797 31.3125C17.1489 31.2368 17.2339 31.1772 17.3286 31.1379C17.4234 31.0986 17.5256 31.0805 17.6281 31.0849C18.0708 31.0849 18.2825 31.3688 18.2825 31.8693V33.5294H18.9369ZM28.6188 30.5507H27.5602V29.6461H26.9057V30.5507H26.3042V31.1426H26.9057V32.4996C26.9057 33.1926 27.1752 33.6016 27.9403 33.6016C28.2263 33.6032 28.5068 33.523 28.7488 33.3706L28.5659 32.8124C28.3916 32.9145 28.195 32.9723 27.9933 32.9808C27.666 32.9808 27.5602 32.7835 27.5602 32.4996V31.1523H28.6188V30.5507ZM34.1479 30.4737C33.9899 30.4696 33.8337 30.5081 33.6957 30.5852C33.5577 30.6622 33.4429 30.775 33.3635 30.9116V30.5507H32.7187V33.5294H33.3683V31.85C33.3683 31.3688 33.5801 31.0849 34.0035 31.0849C34.1418 31.0812 34.2793 31.1057 34.4077 31.1571L34.6099 30.5459C34.4551 30.4923 34.2925 30.4647 34.1287 30.4641M25.7701 30.7769C25.4064 30.5627 24.9888 30.4575 24.5671 30.4737C23.8116 30.4737 23.3256 30.8395 23.3256 31.4362C23.3256 31.9174 23.6865 32.2253 24.3553 32.3168L24.6585 32.3601C25.0146 32.4082 25.183 32.5044 25.183 32.6729C25.183 32.8413 24.9472 33.0338 24.5045 33.0338C24.1483 33.0437 23.7992 32.9335 23.5132 32.721L23.2101 33.2022C23.588 33.4645 24.0398 33.5994 24.4997 33.5872C25.3562 33.5872 25.8567 33.1829 25.8567 32.6247C25.8567 32.0665 25.4621 31.8308 24.8173 31.7345L24.5093 31.6912C24.2302 31.6527 24.0281 31.5998 24.0281 31.3977C24.0281 31.1956 24.2398 31.0512 24.5959 31.0512C24.9221 31.0561 25.2417 31.1439 25.5247 31.3062L25.7701 30.7769ZM43.132 30.4641C42.9739 30.4595 42.8175 30.4977 42.6794 30.5748C42.5413 30.6519 42.4267 30.765 42.3477 30.902V30.5507H41.7221V33.5294H42.3717V31.85C42.3717 31.3688 42.5835 31.0849 43.0069 31.0849C43.1451 31.0816 43.2826 31.1061 43.4111 31.1571L43.6084 30.5459C43.4615 30.4942 43.3071 30.4665 43.1513 30.4641M34.8023 32.0377C34.7932 32.2475 34.8283 32.457 34.9052 32.6525C34.9821 32.8479 35.0991 33.0251 35.2488 33.1725C35.3985 33.3199 35.5774 33.4343 35.774 33.5082C35.9707 33.5821 36.1806 33.6139 36.3903 33.6016C36.7787 33.623 37.1607 33.4957 37.4586 33.2455L37.1506 32.7258C36.9255 32.8947 36.6525 32.9874 36.3711 32.9905C36.1158 32.9905 35.871 32.8891 35.6905 32.7086C35.5101 32.5281 35.4087 32.2833 35.4087 32.028C35.4087 31.7728 35.5101 31.528 35.6905 31.3475C35.871 31.167 36.1158 31.0656 36.3711 31.0656C36.6529 31.0704 36.926 31.1648 37.1506 31.3351L37.4586 30.8106C37.1595 30.5625 36.7784 30.4355 36.3903 30.4545C36.1808 30.4429 35.9712 30.4753 35.7749 30.5495C35.5786 30.6236 35.4 30.738 35.2505 30.8853C35.1009 31.0325 34.9839 31.2094 34.9067 31.4045C34.8295 31.5996 34.794 31.8087 34.8023 32.0184M40.8704 32.0184V30.5507H40.2207V30.9116C40.1084 30.7654 39.9619 30.6491 39.7941 30.5727C39.6263 30.4964 39.4423 30.4624 39.2583 30.4737C38.8435 30.4737 38.4457 30.6385 38.1525 30.9318C37.8592 31.2251 37.6944 31.6229 37.6944 32.0377C37.6944 32.4525 37.8592 32.8502 38.1525 33.1435C38.4457 33.4368 38.8435 33.6016 39.2583 33.6016C39.4418 33.6127 39.6252 33.5791 39.7929 33.5036C39.9605 33.4282 40.1073 33.3132 40.2207 33.1685V33.5294H40.8704V32.0184ZM38.4643 32.0184C38.4765 31.8436 38.5395 31.6762 38.6454 31.5367C38.7514 31.3971 38.8958 31.2916 39.061 31.233C39.2261 31.1744 39.4047 31.1652 39.575 31.2067C39.7452 31.2482 39.8996 31.3384 40.0193 31.4664C40.139 31.5944 40.2187 31.7545 40.2486 31.9272C40.2786 32.0998 40.2575 32.2774 40.1879 32.4383C40.1183 32.5991 40.0033 32.7361 39.857 32.8325C39.7107 32.9288 39.5394 32.9804 39.3642 32.9808C39.2403 32.9819 39.1176 32.9572 39.0038 32.9083C38.89 32.8595 38.7876 32.7876 38.703 32.6971C38.6185 32.6067 38.5536 32.4996 38.5125 32.3828C38.4714 32.266 38.455 32.1419 38.4643 32.0184ZM30.6399 30.4737C30.4365 30.4676 30.2342 30.5045 30.0461 30.5821C29.858 30.6596 29.6884 30.776 29.5485 30.9237C29.4086 31.0714 29.3014 31.2469 29.2341 31.4389C29.1667 31.6309 29.1407 31.8349 29.1578 32.0377C29.1441 32.2433 29.1739 32.4495 29.2451 32.6429C29.3164 32.8363 29.4277 33.0124 29.5716 33.16C29.7155 33.3075 29.8888 33.4231 30.0804 33.4992C30.2719 33.5753 30.4773 33.6102 30.6832 33.6016C31.1274 33.6168 31.5619 33.4697 31.9055 33.1878L31.5879 32.7065C31.341 32.9026 31.0368 33.0124 30.7217 33.0193C30.5071 33.0358 30.2944 32.969 30.1277 32.8328C29.9611 32.6966 29.8532 32.5015 29.8267 32.2879H32.0402C32.0402 32.2061 32.0402 32.1243 32.0402 32.0377C32.0567 31.8406 32.0326 31.6423 31.9693 31.455C31.906 31.2677 31.8048 31.0953 31.6722 30.9487C31.5396 30.8021 31.3782 30.6843 31.1981 30.6026C31.0181 30.5209 30.8232 30.477 30.6255 30.4737M30.6255 31.056C30.7226 31.0535 30.8192 31.0701 30.9098 31.1051C31.0004 31.14 31.0832 31.1926 31.1534 31.2597C31.2237 31.3268 31.2799 31.4071 31.319 31.496C31.358 31.5849 31.3791 31.6807 31.381 31.7778H29.8603C29.8715 31.5783 29.9604 31.391 30.1079 31.2561C30.2554 31.1212 30.4498 31.0494 30.6495 31.056M46.9047 32.0184V29.3525H46.2214V30.9116C46.1096 30.7648 45.9632 30.648 45.7953 30.5715C45.6273 30.4951 45.4431 30.4615 45.259 30.4737C44.8442 30.4737 44.4464 30.6385 44.1531 30.9318C43.8598 31.2251 43.695 31.6229 43.695 32.0377C43.695 32.4525 43.8598 32.8502 44.1531 33.1435C44.4464 33.4368 44.8442 33.6016 45.259 33.6016C45.4426 33.6135 45.6263 33.5803 45.7941 33.5048C45.9618 33.4293 46.1085 33.3138 46.2214 33.1685V33.5294H46.871L46.9047 32.0184ZM44.4987 32.0184C44.5108 31.8438 44.5736 31.6766 44.6794 31.5372C44.7852 31.3977 44.9293 31.2922 45.0942 31.2334C45.259 31.1746 45.4374 31.1652 45.6076 31.2063C45.7777 31.2474 45.9321 31.3372 46.052 31.4647C46.1719 31.5922 46.2519 31.7519 46.2824 31.9242C46.3129 32.0966 46.2925 32.2741 46.2237 32.435C46.1548 32.5959 46.0405 32.7332 45.8948 32.8302C45.7491 32.9271 45.5783 32.9795 45.4033 32.9808C45.2791 32.9825 45.1559 32.9583 45.0415 32.9098C44.9271 32.8613 44.8241 32.7894 44.739 32.6989C44.6539 32.6084 44.5886 32.5011 44.5472 32.384C44.5058 32.2668 44.4893 32.1423 44.4987 32.0184ZM22.6182 32.0184V30.5507H21.9397V30.9116C21.8303 30.7683 21.6878 30.6536 21.5243 30.5773C21.3609 30.5011 21.1815 30.4655 21.0013 30.4737C20.5865 30.4737 20.1888 30.6385 19.8955 30.9318C19.6022 31.2251 19.4374 31.6229 19.4374 32.0377C19.4374 32.4525 19.6022 32.8502 19.8955 33.1435C20.1888 33.4368 20.5865 33.6016 21.0013 33.6016C21.1809 33.6096 21.3599 33.5744 21.5231 33.4991C21.6864 33.4237 21.8292 33.3104 21.9397 33.1685V33.5294H22.5893L22.6182 32.0184ZM20.2121 32.0184C20.2243 31.8438 20.2871 31.6766 20.3929 31.5372C20.4987 31.3977 20.6428 31.2922 20.8077 31.2334C20.9725 31.1746 21.1509 31.1652 21.321 31.2063C21.4912 31.2474 21.6456 31.3372 21.7655 31.4647C21.8854 31.5922 21.9654 31.7519 21.9959 31.9242C22.0264 32.0966 22.006 32.2741 21.9371 32.435C21.8683 32.5959 21.754 32.7332 21.6083 32.8302C21.4626 32.9271 21.2918 32.9795 21.1168 32.9808C20.9926 32.9825 20.8694 32.9583 20.755 32.9098C20.6406 32.8613 20.5376 32.7894 20.4525 32.6989C20.3674 32.6084 20.3021 32.5011 20.2607 32.384C20.2193 32.2668 20.2028 32.1423 20.2121 32.0184ZM47.997 33.0771C48.0352 33.0703 48.0743 33.0703 48.1125 33.0771C48.1489 33.0903 48.1819 33.1117 48.2088 33.1396C48.235 33.1678 48.2562 33.2004 48.2713 33.2359C48.2791 33.274 48.2791 33.3133 48.2713 33.3514C48.2786 33.3879 48.2786 33.4255 48.2713 33.462C48.2562 33.4975 48.235 33.5301 48.2088 33.5583C48.1819 33.5862 48.1489 33.6076 48.1125 33.6208C48.0746 33.6298 48.035 33.6298 47.997 33.6208C47.9576 33.6308 47.9162 33.6308 47.8767 33.6208C47.8397 33.6088 47.8065 33.5872 47.7805 33.5583C47.7527 33.5303 47.7299 33.4977 47.7131 33.462C47.7059 33.4255 47.7059 33.3879 47.7131 33.3514C47.6947 33.3343 47.6785 33.3149 47.665 33.2936C47.6818 33.2579 47.7046 33.2254 47.7324 33.1974C47.7584 33.1684 47.7916 33.1469 47.8286 33.1348C47.8683 33.1272 47.9092 33.1272 47.9489 33.1348M47.9489 33.6642C47.9776 33.6687 48.0068 33.6687 48.0355 33.6642C48.062 33.6521 48.0864 33.6359 48.1077 33.616C48.1483 33.5708 48.1721 33.5131 48.1751 33.4524C48.1822 33.4224 48.1822 33.391 48.1751 33.361C48.1665 33.3327 48.1498 33.3076 48.127 33.2888C48.1072 33.266 48.0825 33.2479 48.0548 33.2359C48.0261 33.2313 47.9968 33.2313 47.9682 33.2359C47.9379 33.2309 47.907 33.2309 47.8767 33.2359C47.8482 33.249 47.8222 33.2669 47.7997 33.2888C47.7799 33.3101 47.7636 33.3345 47.7516 33.361C47.7466 33.3913 47.7466 33.4222 47.7516 33.4524C47.747 33.4811 47.747 33.5103 47.7516 33.539C47.7648 33.5664 47.7809 33.5922 47.7997 33.616L47.8767 33.6642C47.907 33.6692 47.9379 33.6692 47.9682 33.6642M47.9682 33.2936C47.9811 33.2882 47.995 33.2854 48.0091 33.2854C48.0231 33.2854 48.037 33.2882 48.05 33.2936C48.0596 33.3008 48.0673 33.3103 48.0723 33.3212C48.0774 33.3322 48.0796 33.3442 48.0788 33.3562C48.0835 33.3651 48.0859 33.375 48.0859 33.3851C48.0859 33.3951 48.0835 33.405 48.0788 33.4139C48.0588 33.4222 48.0363 33.4222 48.0163 33.4139L48.1077 33.5198H48.0355L47.9537 33.4187H47.9249V33.5198H47.8671V33.2455L47.9682 33.2936ZM47.9008 33.3466V33.4187H47.9682H48.0067C48.0092 33.4143 48.0105 33.4094 48.0105 33.4043C48.0105 33.3992 48.0092 33.3943 48.0067 33.3899C48.0088 33.3854 48.0099 33.3804 48.0099 33.3754C48.0099 33.3704 48.0088 33.3655 48.0067 33.361H47.9008V33.3466Z" fill="black"/>
<path d="M35.3894 7.85156H25.5776V25.4878H35.3894V7.85156Z" fill="#F16522"/>
<path d="M26.1982 16.6724C26.1966 14.9737 26.5813 13.2968 27.3233 11.7687C28.0652 10.2406 29.145 8.90118 30.4809 7.85188C28.8259 6.54923 26.8376 5.73868 24.7435 5.51291C22.6494 5.28713 20.534 5.65526 18.6393 6.57518C16.7446 7.49511 15.1471 8.92969 14.0293 10.7149C12.9116 12.5001 12.3188 14.5638 12.3188 16.67C12.3188 18.7762 12.9116 20.8399 14.0293 22.6251C15.1471 24.4103 16.7446 25.8449 18.6393 26.7648C20.534 27.6847 22.6494 28.0528 24.7435 27.8271C26.8376 27.6013 28.8259 26.7907 30.4809 25.4881C29.1451 24.4398 28.0653 23.1013 27.3234 21.5739C26.5814 20.0466 26.1966 18.3704 26.1982 16.6724Z" fill="#E41B24"/>
<path d="M48.6273 16.6721C48.6276 18.776 48.0358 20.8376 46.9197 22.6211C45.8035 24.4047 44.2081 25.8382 42.3157 26.7578C40.4233 27.6773 38.3104 28.0459 36.2184 27.8213C34.1265 27.5967 32.1399 26.7881 30.4858 25.4878C31.8201 24.4376 32.8987 23.0984 33.6403 21.5709C34.3819 20.0435 34.7672 18.3676 34.7672 16.6696C34.7672 14.9717 34.3819 13.2958 33.6403 11.7684C32.8987 10.2409 31.8201 8.90168 30.4858 7.85153C32.1408 6.5529 34.1275 5.74582 36.2192 5.52242C38.3109 5.29902 40.4233 5.66833 42.3152 6.58815C44.207 7.50798 45.8021 8.94127 46.9182 10.7243C48.0344 12.5074 48.6266 14.5684 48.6273 16.6721ZM47.5591 23.6207V23.2598H47.7082V23.1876H47.3329V23.2598H47.4821V23.6207H47.5591ZM48.2809 23.6207V23.1876H48.1461L48.0162 23.4859L47.9055 23.1876H47.79V23.6207H47.8718V23.2935L47.9921 23.5774H48.0788L48.1991 23.2935V23.6207H48.2809Z" fill="#F89E1C"/>
</g>
</g>
</g>
<defs>
<clipPath id="clip0_97_37569">
<rect width="60" height="38" fill="white" transform="translate(0.5 0.570312)"/>
</clipPath>
<clipPath id="clip1_97_37569">
<rect width="60" height="37.64" fill="white" transform="translate(0.5 0.570312)"/>
</clipPath>
<clipPath id="clip2_97_37569">
<rect width="59.9872" height="37.64" fill="white" transform="translate(0.506348 0.570312)"/>
</clipPath>
</defs>
</svg>
