<svg width="61" height="39" viewBox="0 0 61 39" fill="none" xmlns="http://www.w3.org/2000/svg">
<g clip-path="url(#clip0_97_37805)">
<g clip-path="url(#clip1_97_37805)">
<g clip-path="url(#clip2_97_37805)">
<path d="M59.9877 35.965C59.9877 37.0264 59.1109 37.9493 58.0034 37.9493H2.9047C1.84334 37.9493 0.92041 37.0725 0.92041 35.965V3.01652C0.92041 1.90901 1.84334 1.03223 2.9047 1.03223H58.0496C59.1109 1.03223 60.0339 1.90901 60.0339 3.01652V36.0112H59.9877V35.965Z" fill="white" stroke="#E6E7E7" stroke-width="0.461463" stroke-miterlimit="10"/>
<path d="M38.6 4.90607C37.677 5.829 36.8464 6.79807 36.108 7.85944L35.8773 7.76715C34.5391 7.30569 33.1085 7.07495 31.7241 6.98266C31.3088 6.93651 29.6937 6.93651 29.1861 6.98266C27.6171 7.07495 26.4173 7.30568 25.0791 7.81329C25.0329 7.81329 24.9868 7.85944 24.9406 7.85944C24.1561 6.79807 23.3255 5.829 22.3564 4.95222C26.8788 2.6449 32.1856 2.36803 36.8925 4.16773C37.4001 4.35232 37.9078 4.58305 38.3692 4.81378L38.6 4.90607Z" fill="#F00500"/>
<path d="M47.0445 25.5801C46.3523 27.5183 45.3371 29.3641 43.9989 30.9331C43.2605 31.7637 42.4761 32.5482 41.5993 33.2866C39.5688 34.9017 37.2154 36.0553 34.7235 36.7014C31.9547 37.3936 29.0475 37.3936 26.2787 36.7014C23.7406 36.1015 21.3872 34.9478 19.4029 33.2866C18.5261 32.5944 17.7416 31.8099 17.0033 30.9331C13.1731 26.4107 11.9733 20.1348 13.9576 14.5511C14.3268 13.4898 14.7882 12.5207 15.342 11.5516C15.6189 11.1363 15.8957 10.6287 16.0803 10.4441C16.5879 12.7053 17.234 14.6896 17.4647 15.3818C17.4647 15.4279 17.4186 15.4741 17.4186 15.5202C16.1265 18.1044 15.4805 20.5963 15.2959 23.2267C15.2959 23.2728 15.2959 23.3189 15.2959 23.3189C15.2497 24.1034 15.2958 24.4726 15.3881 24.9802C15.8035 26.5492 17.0494 28.2566 19.0337 29.9179C22.264 32.6867 26.6479 34.6709 29.9704 34.9017C33.4314 35.1324 38.5536 33.102 41.9223 30.1486C42.476 29.6871 42.9375 29.1795 43.4451 28.6258C43.7682 28.2105 44.2757 27.5644 44.2296 27.5644C44.2296 27.5644 44.2757 27.5183 44.2296 27.5183C44.2296 27.5183 44.2296 27.5183 44.2296 27.4721C44.2296 27.4721 44.2757 27.4721 44.2296 27.426C44.1835 27.3798 44.2296 27.426 44.2296 27.3798C44.2296 27.3798 44.2296 27.3798 44.2296 27.3337C44.2296 27.3337 44.2296 27.3337 44.2296 27.2875V27.2414C44.2296 27.1952 44.2758 27.1491 44.3219 27.1029C44.4142 26.9645 44.7372 26.4107 44.7834 26.3185C45.1064 25.6263 45.291 24.9802 45.3833 24.3803C45.4294 24.1034 45.4755 23.5497 45.4294 23.4112C45.4294 23.4112 45.4294 23.3651 45.4294 23.2728C45.4294 23.1805 45.4294 22.9959 45.3833 22.8575C45.3833 22.6267 45.3371 22.2576 45.3371 22.1191C45.1064 19.6272 44.4603 17.6429 43.2605 15.4741C43.2144 15.3818 43.1682 15.2895 43.1221 15.2433V15.1972C43.3067 14.6896 43.9989 12.5668 44.5527 10.1211L44.6449 10.2134C44.7834 10.398 45.1525 10.9517 45.3371 11.2286C46.1216 12.4746 46.7215 13.8128 47.1368 15.2433C48.2444 18.6582 48.1982 22.2576 47.0445 25.5801Z" fill="#F00500"/>
<path d="M39.9382 19.0734C39.9382 19.1657 39.6613 19.4426 39.4306 19.6271C38.6922 20.1809 37.354 20.6885 35.9696 20.9192C35.1851 21.0577 34.4007 21.1038 34.1699 20.9654C34.0315 20.8731 33.9853 20.827 34.0315 20.6424C34.1238 20.2271 34.5391 19.7656 35.0928 19.3503C35.3697 19.1195 36.5695 18.4273 37.1232 18.1043C38.0462 17.5967 38.7845 17.3198 39.2922 17.2275C39.4306 17.2275 39.6613 17.1814 39.7075 17.2275C39.7998 17.2737 39.8921 17.5506 39.9382 17.9197C39.9844 18.1043 39.9844 18.935 39.9382 19.0734Z" fill="black"/>
<path d="M27.1091 20.8731C27.063 20.9192 26.9246 21.0115 26.74 21.0577C26.5554 21.1038 26.0016 21.0577 25.6786 21.0115C24.525 20.8731 23.279 20.5039 22.4022 20.0886C21.8946 19.8579 21.5254 19.581 21.2947 19.3503L21.1563 19.2118V19.0272C21.1101 18.6581 21.1563 18.1043 21.1563 17.9197C21.2024 17.7351 21.2486 17.5967 21.3408 17.4583C21.387 17.4121 21.387 17.4121 21.5716 17.4121C21.8023 17.4121 22.033 17.4583 22.3561 17.5505C23.0483 17.7351 24.0173 18.2427 25.2633 18.9811C26.2785 19.581 26.6477 19.8579 26.9245 20.2732C27.0168 20.4116 27.1553 20.7808 27.1091 20.8731Z" fill="black"/>
<path d="M34.8156 28.4872C34.8156 28.4872 34.7695 28.7641 34.6772 29.0871C34.5849 29.4102 34.5387 29.6409 34.5387 29.6409C34.4926 29.6409 34.4464 29.6409 34.3541 29.6409H34.1696L33.9388 30.1947C33.8004 30.5177 33.7081 30.7946 33.6619 30.8407L33.6158 30.933L33.5235 30.7484L33.4312 30.5638V29.041H33.3851C33.2928 29.041 32.6467 29.1333 32.3237 29.1794C31.1239 29.3179 29.9241 29.2717 28.7243 29.0871C28.5397 29.041 28.3551 29.041 28.3551 29.041C28.3551 29.041 28.3551 29.4102 28.3551 29.8255V30.61L28.2628 30.7484C28.2167 30.8407 28.1705 30.8868 28.1705 30.8868C28.1705 30.8868 28.0782 30.7945 27.986 30.5638C27.8475 30.2869 27.7552 30.0101 27.6629 29.7332L27.6168 29.5947H27.4322H27.2476L27.2015 29.4102C27.2015 29.3179 27.1553 29.1333 27.1553 29.041V28.8564L27.0169 28.718C26.9246 28.6257 26.8323 28.5795 26.8323 28.5795C26.7861 28.5795 26.7861 28.5334 26.7861 28.4872V28.4411H27.4783H28.1705V28.5334V28.6257H28.4013C28.5397 28.6257 28.955 28.6257 29.3242 28.6718H30.0164L30.201 28.3949L30.3855 28.1181H30.6163V27.5643V27.0105L30.3394 26.8721C29.3703 26.4568 28.8166 25.9492 28.5859 25.3954C28.5397 25.257 28.5397 25.2108 28.5397 24.7032C28.5397 24.1495 28.5397 24.1033 28.5859 24.011C28.6781 23.7342 28.8627 23.5034 29.1396 23.4573C29.2319 23.4111 29.4626 23.4111 30.7547 23.4111H32.2776L32.4621 23.5034C32.6467 23.5957 32.739 23.688 32.8775 23.8264C33.0159 24.011 33.0621 24.1495 33.0621 24.4725C33.0621 24.934 33.0159 25.3493 32.9698 25.5339C32.8775 25.7646 32.7852 25.9492 32.6467 26.1799C32.3698 26.5491 31.8622 26.8721 31.4469 27.0567L31.3085 27.1028V27.6566V28.2103H31.4469H31.5854L31.7699 28.4411L31.9084 28.6718H32.6467C33.062 28.6718 33.385 28.6718 33.4312 28.6718C33.4773 28.6718 33.4774 28.6718 33.5697 28.5795L33.6158 28.4872H34.2618C34.6772 28.4411 34.8156 28.4411 34.8156 28.4872Z" fill="black"/>
<path d="M31.9546 30.0562C31.8623 30.1023 31.77 30.1485 31.77 30.1485C31.77 30.1485 31.6777 30.0562 31.5854 30.01L31.447 29.8716L31.3085 30.0562C30.9855 30.4254 30.9855 30.4254 30.8471 30.4254C30.7086 30.4254 30.6625 30.4254 30.4779 30.1485C30.3856 30.01 30.2933 29.8716 30.2933 29.8716C30.2933 29.8716 30.201 29.8716 30.1549 29.8716H30.0164L29.9241 30.01L29.8319 30.1485L29.6934 30.1023C29.6011 30.0562 29.5088 30.01 29.4165 30.01L29.2319 29.9178V29.5947H30.6625H32.093V29.7332C32.1853 29.9178 32.1853 29.9178 31.9546 30.0562Z" fill="black"/>
<path d="M45.5679 23.3647C45.5679 23.3647 45.5679 23.3186 45.5679 23.2263C44.2758 23.0878 40.538 22.9955 37.077 25.8566C37.077 25.8566 35.9695 20.7344 30.7088 20.7344C25.4481 20.7344 23.5561 25.8566 23.5561 25.8566C20.6028 22.7187 16.6803 22.9494 15.2959 23.134C15.2959 23.1801 15.2959 23.2263 15.2959 23.2263C15.2498 24.0108 15.2959 24.3799 15.3882 24.8875C15.8035 26.4565 17.0495 28.1639 19.0338 29.8252C22.264 32.594 26.6479 34.5783 29.9705 34.809C33.4314 35.0397 38.5537 33.0093 41.9224 30.0559C42.4761 29.5945 42.9376 29.0869 43.4452 28.5331C43.7682 28.1178 44.2758 27.4717 44.2297 27.4717C44.2297 27.4717 44.2758 27.4256 44.2297 27.4256C44.2297 27.4256 44.2297 27.4256 44.2297 27.3794C44.2297 27.3794 44.2758 27.3794 44.2297 27.3333C44.2297 27.3333 44.2297 27.3333 44.2297 27.2871C44.2297 27.2871 44.2297 27.2871 44.2297 27.241C44.2297 27.241 44.2297 27.241 44.2297 27.1949V27.1487C44.2297 27.1026 44.2759 27.0564 44.322 27.0103C44.4143 26.8718 44.7373 26.3181 44.7835 26.2258C45.1065 25.5336 45.291 24.8875 45.3833 24.2876C45.5679 24.0569 45.6141 23.5031 45.5679 23.3647ZM31.9548 30.0559C31.8625 30.1021 31.7702 30.1482 31.7702 30.1482C31.7702 30.1482 31.6779 30.0559 31.5856 30.0098L31.4472 29.8713L31.3087 30.0559C30.9857 30.4251 30.9857 30.4251 30.8472 30.4251C30.7088 30.4251 30.6627 30.4251 30.4781 30.1482C30.3858 30.0098 30.2935 29.8713 30.2935 29.8713C30.2935 29.8713 30.2012 29.8713 30.155 29.8713H30.0166L29.9243 30.0098L29.832 30.1482L29.6936 30.1021C29.6013 30.0559 29.509 30.0098 29.4167 30.0098L29.2321 29.9175V29.5945H30.6627H32.0932V29.7329C32.1855 29.9175 32.1855 29.9175 31.9548 30.0559ZM34.6774 29.0407C34.5851 29.3637 34.5389 29.5945 34.5389 29.5945C34.4928 29.5945 34.4466 29.5945 34.3543 29.5945H34.1698L33.9391 30.1482C33.8006 30.4712 33.7083 30.7481 33.6621 30.7943L33.616 30.8866L33.5237 30.702L33.4314 30.5174V28.9946H33.3853C33.293 28.9946 32.6469 29.0869 32.3239 29.133C31.1241 29.2714 29.9243 29.2253 28.7245 29.0407C28.5399 28.9946 28.3553 28.9946 28.3553 28.9946C28.3553 28.9946 28.3553 29.3637 28.3553 29.779V30.5635L28.2631 30.702C28.2169 30.7943 28.1708 30.8404 28.1708 30.8404C28.1708 30.8404 28.0785 30.7481 27.9862 30.5174C27.8477 30.2405 27.7554 29.9636 27.6632 29.6868L27.617 29.5483H27.4324H27.2478L27.2017 29.3637C27.2017 29.2714 27.1555 29.0869 27.1555 28.9946V28.81L27.0171 28.6715C26.9248 28.5792 26.8325 28.5331 26.8325 28.5331C26.7864 28.5331 26.7864 28.487 26.7864 28.4408V28.3947H27.4786H28.1708V28.487V28.5793H28.4015C28.5399 28.5793 28.9552 28.5792 29.3244 28.6254H30.0166L30.2012 28.3485L30.3858 28.0716H30.6165V27.5179V26.9641L30.3396 26.8257C29.3706 26.4104 28.8168 25.9028 28.5861 25.349C28.5399 25.2106 28.5399 25.1644 28.5399 24.6568C28.5399 24.1031 28.5399 24.0569 28.5861 23.9646C28.6784 23.6877 28.863 23.457 29.1398 23.4109C29.2321 23.3647 29.4629 23.3647 30.755 23.3647H32.2778L32.4624 23.457C32.6469 23.5493 32.7392 23.6416 32.8777 23.78C33.0161 23.9646 33.0623 24.1031 33.0623 24.4261C33.0623 24.8875 33.0161 25.3029 32.97 25.4874C32.8777 25.7182 32.7854 25.9028 32.647 26.1335C32.3701 26.5027 31.8625 26.8257 31.4472 27.0103L31.3087 27.0564V27.6102V28.1639H31.4472H31.5856L31.7702 28.3947L31.9086 28.6254H32.647C33.0623 28.6254 33.3853 28.6254 33.4314 28.6254C33.4776 28.6254 33.4776 28.6254 33.5699 28.5331L33.616 28.4408H34.2621C34.7697 28.4408 34.9081 28.4408 34.9081 28.4408C34.8158 28.487 34.7697 28.7638 34.6774 29.0407Z" fill="white"/>
<path d="M45.5215 22.8112C45.5215 22.5805 45.4754 22.2113 45.4754 22.0729C45.2447 19.581 44.5986 17.5967 43.3988 15.4278C43.3527 15.3355 43.3065 15.2432 43.2603 15.1971V15.1509C43.4449 14.6433 44.1371 12.5206 44.6909 10.0748C45.4292 6.79845 45.8907 2.92215 44.4601 1.76849C44.4601 1.76849 41.9683 1.58391 38.5996 4.8603C37.6766 5.78323 36.846 6.7523 36.1077 7.81366L35.8769 7.72137C34.5387 7.25991 33.1082 7.02918 31.7238 6.93688C31.3084 6.89074 29.6933 6.89074 29.1857 6.93688C27.6167 7.02918 26.4169 7.25991 25.0787 7.76752C25.0325 7.76752 24.9864 7.81366 24.9402 7.81366C24.1558 6.7523 23.3251 5.78322 22.3561 4.90644C18.8489 1.5839 16.2647 1.76849 16.2647 1.76849C14.7419 2.9683 15.2495 6.98303 16.034 10.3979C16.5416 12.659 17.1877 14.6433 17.4184 15.3355C17.4184 15.3817 17.3723 15.4278 17.3723 15.474C16.0802 18.0581 15.4341 20.5501 15.2495 23.1804C16.68 22.9958 20.6025 22.7189 23.5097 25.903C23.5097 25.903 25.4479 20.7808 30.6624 20.7808C35.8769 20.7808 37.0306 25.903 37.0306 25.903C40.4916 23.042 44.2294 23.1343 45.5215 23.2727C45.5677 23.1343 45.5215 22.9958 45.5215 22.8112ZM18.4336 13.3051C18.4336 13.3051 16.4032 8.22898 16.9108 5.27561C17.0031 4.768 17.1415 4.35269 17.4184 4.02966C17.4184 4.02966 19.7257 4.26039 23.4636 8.41356C23.4636 8.41356 22.7714 8.73659 21.8023 9.47493C20.7871 10.3056 19.4488 11.5515 18.4336 13.3051ZM27.1091 20.8731C27.063 20.9192 26.9245 21.0115 26.74 21.0577C26.5554 21.1038 26.0016 21.0577 25.6786 21.0115C24.5249 20.8731 23.279 20.5039 22.4022 20.0886C21.8946 19.8579 21.5254 19.581 21.2947 19.3503L21.1562 19.2118V19.0272C21.1101 18.6581 21.1562 18.1043 21.1562 17.9197C21.2024 17.7351 21.2485 17.5967 21.3408 17.4583C21.387 17.4121 21.387 17.4121 21.5716 17.4121C21.8023 17.4121 22.033 17.4582 22.3561 17.5505C23.0483 17.7351 24.0173 18.2427 25.2633 18.9811C26.2785 19.581 26.6477 19.8579 26.9245 20.2732C27.0168 20.4116 27.1553 20.7808 27.1091 20.8731ZM39.9378 19.0734C39.9378 19.1657 39.6609 19.4425 39.4302 19.6271C38.6918 20.1809 37.3536 20.6885 35.9692 20.9192C35.1847 21.0577 34.4003 21.1038 34.1695 20.9654C34.0311 20.8731 33.9849 20.8269 34.0311 20.6423C34.1234 20.227 34.5387 19.7656 35.0925 19.3503C35.3693 19.1195 36.5691 18.4273 37.1229 18.1043C38.0458 17.5967 38.7842 17.3198 39.2918 17.2275C39.4302 17.2275 39.661 17.1814 39.7071 17.2275C39.7994 17.2737 39.8917 17.5505 39.9378 17.9197C39.984 18.1043 39.984 18.9349 39.9378 19.0734ZM39.061 9.52107C38.1381 8.78273 37.4459 8.45971 37.4459 8.45971C41.0453 4.30654 43.2603 4.07581 43.2603 4.07581C43.4911 4.39884 43.6757 4.81415 43.7679 5.32176C44.2756 8.22898 42.2913 13.3512 42.2913 13.3512C41.4606 11.8284 40.3531 10.5363 39.061 9.52107Z" fill="#FFA409"/>
<path d="M43.7683 5.27525C43.353 5.2291 41.3226 5.2291 39.0614 9.47457C38.1385 8.73622 37.4463 8.4132 37.4463 8.4132C41.0457 4.26003 43.2607 4.0293 43.2607 4.0293C43.4914 4.39847 43.676 4.81378 43.7683 5.27525Z" fill="#FF9300"/>
<path d="M42.2915 13.3046C41.4609 11.8279 40.3534 10.5358 39.0151 9.47446C41.2763 5.18285 43.3067 5.229 43.722 5.27514C44.2758 8.22851 42.2915 13.3046 42.2915 13.3046Z" fill="#FF8300"/>
<path d="M23.4639 8.4132C23.4639 8.4132 22.7717 8.73622 21.8026 9.47457C19.4492 5.18296 17.3726 5.2291 16.9111 5.27525C17.0034 4.76764 17.1419 4.35232 17.4187 4.0293C17.4187 4.0293 19.726 4.26003 23.4639 8.4132Z" fill="#FF9300"/>
<path d="M21.8026 9.52024C20.7873 10.3047 19.4491 11.5507 18.4339 13.3504C18.4339 13.3504 16.4034 8.27429 16.9111 5.32093C17.3725 5.22863 19.4491 5.22863 21.8026 9.52024Z" fill="#FF8300"/>
<path d="M36.7537 16.1195C36.7537 16.1195 35.0002 16.2118 35.2309 14.8736C35.4616 13.4892 36.7999 13.3508 37.2152 13.3969C37.5844 13.443 39.1072 13.9968 38.8303 15.1505C38.5534 16.3041 38.1843 16.0734 37.9535 16.1195C37.7689 16.2118 36.7537 16.1195 36.7537 16.1195Z" fill="white"/>
<path d="M23.9251 16.1195C23.9251 16.1195 22.1715 16.2118 22.4023 14.8736C22.633 13.4892 23.9712 13.3508 24.3866 13.3969C24.8019 13.443 26.2786 13.9968 26.0017 15.1505C25.7248 16.3041 25.3556 16.0734 25.1249 16.1195C24.8942 16.2118 23.9251 16.1195 23.9251 16.1195Z" fill="white"/>
</g>
</g>
</g>
<defs>
<clipPath id="clip0_97_37805">
<rect width="60" height="38" fill="white" transform="translate(0.5 0.570312)"/>
</clipPath>
<clipPath id="clip1_97_37805">
<rect width="60" height="37.84" fill="white" transform="translate(0.5 0.570312)"/>
</clipPath>
<clipPath id="clip2_97_37805">
<rect width="59.9902" height="37.84" fill="white" transform="translate(0.504883 0.570312)"/>
</clipPath>
</defs>
</svg>
