<svg width="165" height="18" viewBox="0 0 165 18" fill="none" xmlns="http://www.w3.org/2000/svg">
<path d="M110.264 9.83515C110.264 14.9173 107.409 17.4584 102.174 17.4584C96.9383 17.4584 94.2413 14.7585 94.2413 9.83515V0.9414H99.9525V9.51752C99.9525 11.8998 100.587 13.0115 102.174 13.0115C103.76 13.0115 104.395 12.0586 104.395 9.3587V0.9414H110.106L110.264 9.83515ZM32.3667 0.9414V5.07064H27.6074V17.1407H21.7375V5.07064H16.8195V0.9414H32.3667ZM42.2027 4.59419L40.7749 10.1528H43.6305L42.2027 4.59419ZM46.0101 17.1407L45.0583 14.1232H39.5057L38.3952 17.1407H32.5253L38.3952 0.9414H45.8515L51.7213 17.1407H46.0101ZM128.988 15.8702L127.243 11.5821C126.132 12.535 124.863 13.0115 123.435 13.0115C121.214 13.0115 119.628 11.1057 119.628 9.04107V8.88225C119.469 6.81763 120.897 4.91182 123.118 4.59419H123.435C124.863 4.59419 126.291 5.22946 127.243 6.18236L128.988 2.05312C126.925 0.941401 124.704 0.46495 122.483 0.46495C117.883 0.306133 113.916 3.95892 113.758 8.56462C113.599 13.1703 117.248 17.1407 121.849 17.2996H122.642C124.863 17.6172 127.084 16.9819 128.988 15.8702ZM148.184 0.9414L142.948 8.88225L148.818 17.1407H142.155L138.506 11.2645V17.1407H132.795V0.9414H138.506V6.81763L141.838 0.9414H148.184ZM6.98037 17.4584C10.6292 17.4584 14.4367 16.1878 14.4367 12.0586C14.4367 8.4058 11.2638 7.29408 8.72546 6.81763C6.82172 6.5 6.0285 6.18236 6.0285 5.5471C6.0285 4.59419 7.29766 4.43538 7.93224 4.43538C9.51868 4.43538 11.1051 5.07064 12.5329 5.86473L14.1194 2.21194C12.057 1.25903 9.83597 0.782582 7.4563 0.623765C3.64883 0.623765 0.634579 2.52957 0.634579 6.18236C0.634579 9.19988 3.01425 10.4704 5.39392 10.9469C7.13901 11.4233 8.24953 11.5821 8.24953 12.3762C8.24953 13.1703 7.4563 13.4879 6.50443 13.4879C4.75934 13.4879 3.01425 12.8527 1.74509 11.741L0 15.2349C2.37967 16.6643 4.6007 17.2996 6.98037 17.4584ZM157.544 17.46C161.193 17.46 165 16.1894 165 12.0602C165 8.40739 161.827 7.29567 159.289 6.81922C157.385 6.50158 156.592 6.18395 156.592 5.54868C156.592 4.59578 157.861 4.43696 158.496 4.43696C160.082 4.43696 161.668 5.07223 163.096 5.86632L164.683 2.21352C162.62 1.26062 160.399 0.784169 158.02 0.625352C154.212 0.625352 151.198 2.53116 151.198 6.18395C151.198 9.20147 153.419 10.472 156.116 10.9485C157.861 11.4249 158.972 11.5837 158.972 12.3778C158.972 13.1719 158.02 13.4895 157.226 13.4895C155.481 13.4895 153.736 12.8543 152.467 11.7425L150.563 15.2365C152.784 16.6659 155.164 17.3011 157.544 17.46ZM67.1115 11.1073C69.0152 10.3132 70.1257 8.5662 70.1257 6.50158C70.1257 2.68997 67.4288 0.942987 63.7799 0.942987H55.0545V17.1423H60.7657V12.3778H62.1935L65.0491 17.1423H71.0776L67.1115 11.1073ZM64.5732 6.50158C64.5732 7.45449 63.9386 8.08976 63.1454 8.24857H60.9243V4.7546H62.9867C63.7799 4.59578 64.5732 5.23105 64.7318 6.18395C64.5732 6.34276 64.5732 6.34277 64.5732 6.50158ZM86.7834 8.88384C88.6872 8.72502 90.115 7.13685 89.9563 5.23105C89.9563 2.53116 87.8939 0.942987 84.2451 0.942987H75.0437V17.1423H83.9278C88.2112 17.1423 90.2736 15.5542 90.2736 12.5366C90.4322 10.6308 88.8458 9.04266 86.7834 8.88384ZM80.5963 4.43696H82.6586C83.7692 4.43696 84.4037 4.91342 84.4037 5.86632C84.4037 6.81922 83.7692 7.29567 82.6586 7.29567H80.5963V4.43696ZM84.4037 12.0602C84.4037 13.0131 83.7692 13.4895 82.5 13.4895H80.4376V10.472H82.5016C83.7708 10.6308 84.4053 11.1073 84.4053 12.0602H84.4037Z" fill="#231815"/>
</svg>
