<svg width="18" height="19" viewBox="0 0 18 19" fill="none" xmlns="http://www.w3.org/2000/svg">
<path d="M13.5 7.94043C13.5 8.45868 13.4265 8.95968 13.302 9.44043H14.8492C14.9475 8.95593 15 8.45493 15 7.94043C15 3.80493 11.6355 0.44043 7.5 0.44043C3.3645 0.44043 0 3.80493 0 7.94043C0 12.0759 3.3645 15.4404 7.5 15.4404C8.5665 15.4404 9.57975 15.2132 10.5 14.8097V6.44043H13.302C13.4265 6.92118 13.5 7.42218 13.5 7.94043ZM4.5 13.1289C3.59325 12.6024 2.838 11.8472 2.3115 10.9404H4.5V13.1289ZM4.5 9.44043H1.698C1.5735 8.95968 1.5 8.45868 1.5 7.94043C1.5 7.42218 1.5735 6.92118 1.698 6.44043H4.5V9.44043ZM4.5 4.94043H2.3115C2.838 4.03368 3.59325 3.27843 4.5 2.75193V4.94043ZM9 13.7424C8.51925 13.8669 8.01825 13.9404 7.5 13.9404C6.98175 13.9404 6.48075 13.8669 6 13.7424V10.9404H9V13.7424ZM9 9.44043H6V6.44043H9V9.44043ZM9 4.94043H6V2.13843C6.48075 2.01393 6.98175 1.94043 7.5 1.94043C8.01825 1.94043 8.51925 2.01393 9 2.13843V4.94043ZM10.5 4.94043V2.75193C11.4067 3.27843 12.162 4.03368 12.6885 4.94043H10.5Z" fill="#0A6ECC"/>
<path d="M15 10.9404C13.3432 10.9404 12 12.2837 12 13.9404C12 16.1904 15 18.4404 15 18.4404C15 18.4404 18 16.1904 18 13.9404C18 12.2837 16.6568 10.9404 15 10.9404ZM15 15.4404C14.172 15.4404 13.5 14.7684 13.5 13.9404C13.5 13.1124 14.172 12.4404 15 12.4404C15.828 12.4404 16.5 13.1124 16.5 13.9404C16.5 14.7684 15.828 15.4404 15 15.4404Z" fill="#0A6ECC"/>
</svg>
