<svg width="20" height="21" viewBox="0 0 20 21" fill="none" xmlns="http://www.w3.org/2000/svg">
<path d="M17.2565 2.61151C17.0173 2.37318 16.6598 2.30151 16.3482 2.43068C16.0373 2.55985 15.834 2.86401 15.834 3.20068V19.034H17.5007V14.034H19.1673C19.6282 14.034 20.0007 13.6607 20.0007 13.2007C20.0007 5.44484 17.369 2.72318 17.2565 2.61151ZM17.5007 12.3673V6.73651C17.9065 8.06985 18.2573 9.90985 18.3223 12.3673H17.5007Z" fill="#5A5A5A"/>
<path d="M6.66667 5.70052V2.36719H5V5.70052C5 6.31469 4.6625 6.84635 4.16667 7.13635V2.36719H2.5V7.13635C2.00417 6.84635 1.66667 6.31469 1.66667 5.70052V2.36719H0V5.70052C0 7.24885 1.06583 8.54302 2.5 8.91552V19.0339H4.16667V8.91552C5.60083 8.54302 6.66667 7.24885 6.66667 5.70052Z" fill="#5A5A5A"/>
<path d="M10 8.2002C7.2425 8.2002 5 10.4427 5 13.2002C5 15.9577 7.2425 18.2002 10 18.2002C12.7575 18.2002 15 15.9577 15 13.2002C15 10.4427 12.7575 8.2002 10 8.2002ZM10 16.5335C8.1625 16.5335 6.66667 15.0385 6.66667 13.2002C6.66667 11.3619 8.1625 9.86686 10 9.86686C11.8375 9.86686 13.3333 11.3619 13.3333 13.2002C13.3333 15.0385 11.8375 16.5335 10 16.5335Z" fill="#5A5A5A"/>
<path d="M11.25 11.5342C10.56 11.5342 10 12.0942 10 12.7842C10 12.0942 9.44 11.5342 8.75 11.5342C8.06 11.5342 7.5 12.0942 7.5 12.7842C7.5 14.0342 10 15.7008 10 15.7008C10 15.7008 12.5 14.0342 12.5 12.7842C12.5 12.0942 11.94 11.5342 11.25 11.5342Z" fill="#5A5A5A"/>
</svg>
