<svg width="20" height="21" viewBox="0 0 20 21" fill="none" xmlns="http://www.w3.org/2000/svg">
<path d="M16.666 7.36723H14.0702C14.446 7.17223 14.8027 6.93306 15.1002 6.63473C16.0752 5.66056 16.0752 4.07473 15.1002 3.09973C14.1552 2.15556 12.5102 2.15556 11.5652 3.09973C10.201 4.46389 10.016 7.03139 9.99935 7.31973C9.98268 7.03056 9.79768 4.46306 8.43352 3.09973C7.48852 2.15556 5.84185 2.15639 4.89852 3.09973C4.42685 3.57139 4.16602 4.19973 4.16602 4.86723C4.16602 5.53473 4.42685 6.16306 4.89852 6.63473C5.19602 6.93306 5.55185 7.17139 5.92852 7.36723H3.33268C2.41268 7.36723 1.66602 8.11473 1.66602 9.03389V11.5339C1.66602 11.9939 2.03852 12.3672 2.49935 12.3672V17.3672C2.49935 18.2864 3.24602 19.0339 4.16602 19.0339H15.8327C16.7527 19.0339 17.4993 18.2864 17.4993 17.3672V12.3672C17.9602 12.3672 18.3327 11.9939 18.3327 11.5339V9.03389C18.3327 8.11473 17.586 7.36723 16.666 7.36723ZM6.66602 17.3672H4.16602V12.3672H6.66602V17.3672ZM6.66602 10.7006H3.33268V9.03389H6.66602V10.7006ZM6.07685 5.45639C5.91935 5.29889 5.83268 5.08973 5.83268 4.86723C5.83268 4.64473 5.91935 4.43556 6.07685 4.27806C6.23435 4.12056 6.44268 4.03473 6.66602 4.03473C6.88935 4.03473 7.09768 4.12139 7.25518 4.27889C7.74685 4.76973 8.03352 5.65139 8.18685 6.38723C7.45352 6.23306 6.56602 5.94639 6.07685 5.45639ZM11.666 17.3672H8.33268V12.3672H11.666V17.3672ZM11.666 10.7006H8.33268V9.03389H11.666V10.7006ZM12.7435 4.27889C12.901 4.12139 13.1093 4.03473 13.3327 4.03473C13.556 4.03473 13.7643 4.12139 13.9218 4.27806C14.246 4.60389 14.2468 5.13139 13.9218 5.45639C13.4293 5.94889 12.5468 6.23639 11.811 6.38889C11.9643 5.65306 12.2518 4.77056 12.7435 4.27889ZM15.8327 17.3672H13.3327V12.3672H15.8327V17.3672ZM16.666 10.7006H13.3327V9.03389H16.666V10.7006Z" fill="#5A5A5A"/>
</svg>
