<svg width="24" height="25" viewBox="0 0 24 25" fill="none" xmlns="http://www.w3.org/2000/svg">
<path d="M12 0.830078C5.64873 0.830078 0.5 5.9788 0.5 12.3301C0.5 18.6814 5.64873 23.8301 12 23.8301C18.3513 23.8301 23.5 18.6814 23.5 12.3301C23.5 5.9788 18.3513 0.830078 12 0.830078Z" stroke="#8C8C8C"/>
<path d="M13.4911 12.3301L10.1831 15.3546C9.93898 15.5777 9.93898 15.9396 10.1831 16.1627C10.4271 16.3859 10.8229 16.3859 11.0669 16.1627L14.8169 12.7341C15.061 12.511 15.061 12.1492 14.8169 11.926L11.0669 8.49745C10.8229 8.27429 10.4271 8.27429 10.1831 8.49745C9.93898 8.7206 9.93898 9.08241 10.1831 9.30557L13.4911 12.3301Z" fill="#8C8C8C"/>
</svg>
