<svg width="24" height="25" viewBox="0 0 24 25" fill="none" xmlns="http://www.w3.org/2000/svg">
<path d="M12 3.7207C6.5 3.7207 2 7.3007 2 11.7207C2.05 13.8707 3.06 15.8907 4.75 17.2207C4.75 17.8207 4.33 19.3907 2 21.7207C4.37 21.6107 6.64 20.7207 8.47 19.2207C9.61 19.5507 10.81 19.7207 12 19.7207C17.5 19.7207 22 16.1407 22 11.7207C22 7.3007 17.5 3.7207 12 3.7207ZM12 17.7207C7.58 17.7207 4 15.0307 4 11.7207C4 8.4107 7.58 5.7207 12 5.7207C16.42 5.7207 20 8.4107 20 11.7207C20 15.0307 16.42 17.7207 12 17.7207Z" fill="#0A6ECC"/>
</svg>
