<svg width="20" height="21" viewBox="0 0 20 21" fill="none" xmlns="http://www.w3.org/2000/svg">
<path d="M9.99615 17.1258C9.13115 16.4033 7.94781 15.3067 6.81698 14.0342H4.63281C6.76865 16.7175 9.30531 18.7167 9.48948 18.8592C9.63865 18.9758 9.81948 19.0342 10.0003 19.0342C10.1811 19.0342 10.362 18.9758 10.5111 18.8592C10.6753 18.7317 12.7178 17.1225 14.6745 14.8675H12.4136C11.4411 15.8692 10.5345 16.6717 9.99615 17.1258Z" fill="#5A5A5A"/>
<path d="M3.4213 8.20052C3.37047 7.91885 3.33464 7.63969 3.33464 7.36719C3.33464 5.34219 4.64297 4.03385 6.66797 4.03385C7.74214 4.03385 8.62797 4.81552 8.99047 5.70052H11.0121C11.3746 4.81552 12.2605 4.03385 13.3346 4.03385C15.3596 4.03385 16.668 5.34219 16.668 7.36719C16.668 7.91135 16.5571 8.47052 16.3763 9.03385H18.0946C18.2388 8.47719 18.3346 7.91969 18.3346 7.36719C18.3346 4.42302 16.2788 2.36719 13.3346 2.36719C12.0063 2.36719 10.7763 3.06469 10.0013 4.10052C9.2263 3.06469 7.9963 2.36719 6.66797 2.36719C3.7238 2.36719 1.66797 4.42302 1.66797 7.36719C1.66797 7.64385 1.69964 7.92219 1.73797 8.20052H3.4213Z" fill="#5A5A5A"/>
<path d="M16.4148 10.7003L14.3406 12.0828L10.9032 7.78613L7.50065 11.1886L5.00065 8.68863L2.98898 10.7003H0.833984V12.367H3.67898L5.00065 11.0461L7.50065 13.5461L10.7648 10.282L13.994 14.3178L16.9198 12.367H19.1673V10.7003H16.4148Z" fill="#5A5A5A"/>
</svg>
