<svg width="20" height="21" viewBox="0 0 20 21" fill="none" xmlns="http://www.w3.org/2000/svg">
<path d="M9.99935 2.36719C5.40435 2.36719 1.66602 6.10552 1.66602 10.7005C1.66602 15.2955 5.40435 19.0339 9.99935 19.0339C14.5943 19.0339 18.3327 15.2955 18.3327 10.7005C18.3327 6.10552 14.5943 2.36719 9.99935 2.36719ZM15.5227 14.4297C14.8318 13.6022 14.386 12.6039 14.2327 11.5339H16.6085C16.4752 12.5955 16.096 13.583 15.5227 14.4297ZM3.39018 11.5339H5.76518C5.61018 12.5997 5.16435 13.6005 4.47518 14.4297C3.90185 13.5822 3.52352 12.5955 3.39018 11.5339ZM4.47602 6.97219C5.16685 7.79885 5.61268 8.79719 5.76602 9.86719H3.39018C3.52352 8.80552 3.90268 7.81885 4.47602 6.97219ZM10.8327 9.86719V4.09135C12.196 4.26302 13.4293 4.84635 14.4093 5.71469C13.3735 6.87385 12.7185 8.31969 12.546 9.86719H10.8327ZM9.16602 9.86719H7.45352C7.28185 8.31635 6.62435 6.87385 5.58935 5.71552C6.56852 4.84719 7.80268 4.26302 9.16602 4.09135V9.86719ZM7.45102 11.5339H9.16602V17.3097C7.80518 17.138 6.57352 16.5564 5.59352 15.6905C6.62768 14.5314 7.27768 13.078 7.45102 11.5339ZM10.8327 11.5339H12.5452C12.7168 13.0839 13.3735 14.5272 14.4093 15.6855C13.4293 16.5539 12.196 17.138 10.8327 17.3097V11.5339ZM14.2335 9.86719C14.3877 8.79969 14.8335 7.80052 15.5235 6.97219C16.0968 7.81885 16.4752 8.80552 16.6085 9.86719H14.2335Z" fill="#5A5A5A"/>
</svg>
