<svg width="30" height="31" viewBox="0 0 30 31" fill="none" xmlns="http://www.w3.org/2000/svg">
<path d="M17.5 27.9795C17.1713 27.9795 16.8525 27.8495 16.6163 27.6132L2.86625 13.8632C2.63125 13.6295 2.5 13.312 2.5 12.9795V4.22949C2.5 3.53824 3.05875 2.97949 3.75 2.97949H12.5C12.8325 2.97949 13.15 3.11074 13.3837 3.34574L27.1338 17.0957C27.4313 17.3932 27.5588 17.8182 27.4738 18.2307C27.39 18.642 27.1038 18.9845 26.7138 19.1407L20.9625 21.442L18.6612 27.1945C18.505 27.5857 18.1638 27.8707 17.7513 27.9545C17.6687 27.9707 17.5825 27.9795 17.5 27.9795ZM5 12.462L17.0438 24.5057L18.84 20.0157C18.9688 19.6982 19.22 19.447 19.5375 19.3182L24.0275 17.522L11.9825 5.47949H5V12.462Z" fill="#F24452"/>
<path d="M8.75 11.7295C10.1307 11.7295 11.25 10.6102 11.25 9.22949C11.25 7.84878 10.1307 6.72949 8.75 6.72949C7.36929 6.72949 6.25 7.84878 6.25 9.22949C6.25 10.6102 7.36929 11.7295 8.75 11.7295Z" fill="#F24452"/>
</svg>
