<svg width="20" height="21" viewBox="0 0 20 21" fill="none" xmlns="http://www.w3.org/2000/svg">
<path d="M9.99935 17.3682H3.33268V16.5348H9.99935V14.8682H3.33268V6.53483H13.3327V7.36816H14.9993V4.03483C14.9993 3.11483 14.2518 2.36816 13.3327 2.36816H3.33268C2.41352 2.36816 1.66602 3.11483 1.66602 4.03483V17.3682C1.66602 18.2882 2.41352 19.0348 3.33268 19.0348H9.99935V17.3682ZM3.33268 4.03483H13.3327V4.86816H3.33268V4.03483Z" fill="#5A5A5A"/>
<path d="M16.666 9.03516H13.3327C12.4135 9.03516 11.666 9.78182 11.666 10.7018V17.3685C11.666 18.2885 12.4135 19.0352 13.3327 19.0352H16.666C17.5852 19.0352 18.3327 18.2885 18.3327 17.3685V10.7018C18.3327 9.78182 17.5852 9.03516 16.666 9.03516ZM16.666 10.7018L16.6668 14.8685H13.3327V10.7018H16.666ZM13.3327 17.3685V16.5352H16.6668V17.3685H13.3327Z" fill="#5A5A5A"/>
</svg>
