<svg width="20" height="21" viewBox="0 0 20 21" fill="none" xmlns="http://www.w3.org/2000/svg">
<path d="M15.7765 5.39654C15.6507 5.07737 15.3432 4.86654 14.9998 4.86654H11.9773L10.7657 2.0382C10.6348 1.73154 10.3332 1.5332 9.99985 1.5332C9.66651 1.5332 9.36485 1.73154 9.23402 2.03737L8.02152 4.86654H4.99985C4.65652 4.86654 4.34901 5.07737 4.22318 5.39654C4.09818 5.71654 4.18235 6.0807 4.43485 6.3132L7.08985 8.7582L5.66401 12.0357C5.51651 12.374 5.61068 12.769 5.89152 13.0057C6.17485 13.2432 6.57985 13.2665 6.88735 13.0624L9.16651 11.554V14.0332H6.66651C6.20568 14.0332 5.83318 14.4057 5.83318 14.8665V17.3665H4.99985V19.0332H14.9998V17.3665H14.1665V14.8665C14.1665 14.4057 13.794 14.0332 13.3332 14.0332H10.8332V11.554L13.1107 13.0615C13.2507 13.154 13.4115 13.1999 13.5707 13.1999C13.7615 13.1999 13.9523 13.1349 14.1065 13.0049C14.3898 12.7682 14.4823 12.3732 14.3348 12.0349L12.9098 8.7582L15.5648 6.31237C15.8165 6.0807 15.9015 5.71654 15.7765 5.39654ZM12.4998 17.3665H7.49985V15.6999H12.4998V17.3665ZM11.1457 8.8782L11.6848 10.119L10.459 9.3082C10.3198 9.21654 10.1598 9.16987 9.99901 9.16987C9.83818 9.16987 9.67818 9.21654 9.53901 9.3082L8.31235 10.119L8.85235 8.8782C8.99402 8.55237 8.91401 8.1732 8.65318 7.93237L7.13485 6.5332H8.57152C8.90485 6.5332 9.20651 6.33487 9.33735 6.0282L9.99985 4.48237L10.6623 6.02737C10.7932 6.33487 11.0948 6.5332 11.4282 6.5332H12.8657L11.3457 7.9332C11.084 8.17404 11.004 8.5532 11.1457 8.8782Z" fill="#0A6ECC"/>
</svg>
