<svg width="20" height="21" viewBox="0 0 20 21" fill="none" xmlns="http://www.w3.org/2000/svg">
<path d="M18.9727 6.83302C18.8143 6.64385 18.5802 6.53385 18.3327 6.53385H13.3327V3.20052C13.3327 2.74052 12.9602 2.36719 12.4993 2.36719H9.99935C9.66602 2.36719 9.36435 2.56552 9.23352 2.87135L6.95018 8.20052H6.66602C6.66602 7.74052 6.29352 7.36719 5.83268 7.36719H2.49935C2.03852 7.36719 1.66602 7.74052 1.66602 8.20052V16.5339C1.66602 16.9939 2.03852 17.3672 2.49935 17.3672H5.83268C6.29352 17.3672 6.66602 16.9939 6.66602 16.5339V16.0989L9.69018 17.308C9.78768 17.3472 9.89352 17.3672 9.99935 17.3672H16.666C17.0685 17.3672 17.4135 17.0789 17.486 16.683L19.1527 7.51635C19.1968 7.27302 19.1302 7.02302 18.9727 6.83302ZM4.99935 15.7005H3.33268V9.03385H4.99935V15.7005ZM15.971 15.7005H10.1593L6.66602 14.303V9.86719H7.49935C7.83268 9.86719 8.13435 9.66885 8.26518 9.36219L10.5485 4.03385H11.666V7.36719C11.666 7.82719 12.0385 8.20052 12.4993 8.20052H17.3343L15.971 15.7005Z" fill="#5A5A5A"/>
</svg>
