<svg width="20" height="21" viewBox="0 0 20 21" fill="none" xmlns="http://www.w3.org/2000/svg">
<path d="M14.1649 4.86523C13.7974 4.86523 13.4724 5.1069 13.3666 5.4594L12.5457 8.19857H9.1649V3.19857C9.1649 2.73857 8.7924 2.36523 8.33157 2.36523H7.49823C4.74073 2.36523 2.49823 4.60857 2.49823 7.36523C2.49823 7.62857 2.49657 8.7919 2.50323 9.05607C2.5049 9.13607 2.5149 9.2169 2.54073 9.29607L4.2074 14.2961C4.32157 14.6369 4.6399 14.8652 4.99823 14.8652H11.6649C12.0324 14.8652 12.3574 14.6244 12.4632 14.2719L14.7849 6.5319H17.4982V4.86523H14.1649ZM4.1649 7.36523C4.1649 6.97273 4.24573 6.60107 4.37157 6.25107L6.3199 8.19857H4.1649V7.36523ZM7.49823 7.02023L5.33157 4.85273C5.91573 4.34857 6.6674 4.03107 7.49823 4.03107V7.02023ZM11.0449 13.1986H5.59907L4.4874 9.86523H12.0449L11.0449 13.1986Z" fill="#5A5A5A"/>
<path d="M5.83073 19.0316C6.7512 19.0316 7.4974 18.2854 7.4974 17.3649C7.4974 16.4444 6.7512 15.6982 5.83073 15.6982C4.91025 15.6982 4.16406 16.4444 4.16406 17.3649C4.16406 18.2854 4.91025 19.0316 5.83073 19.0316Z" fill="#5A5A5A"/>
<path d="M10.8307 19.0316C11.7512 19.0316 12.4974 18.2854 12.4974 17.3649C12.4974 16.4444 11.7512 15.6982 10.8307 15.6982C9.91025 15.6982 9.16406 16.4444 9.16406 17.3649C9.16406 18.2854 9.91025 19.0316 10.8307 19.0316Z" fill="#5A5A5A"/>
</svg>
