<svg width="20" height="21" viewBox="0 0 20 21" fill="none" xmlns="http://www.w3.org/2000/svg">
<path d="M15.8327 9.03353C18.1302 9.03353 19.9993 7.16436 19.9993 4.86686C19.9993 2.56936 18.1302 0.700195 15.8327 0.700195C13.5352 0.700195 11.666 2.56936 11.666 4.86686C11.666 7.16436 13.5352 9.03353 15.8327 9.03353ZM15.8327 2.36686C17.211 2.36686 18.3327 3.48853 18.3327 4.86686C18.3327 6.2452 17.211 7.36686 15.8327 7.36686C14.4543 7.36686 13.3327 6.2452 13.3327 4.86686C13.3327 3.48853 14.4543 2.36686 15.8327 2.36686Z" fill="#5A5A5A"/>
<path d="M17.2558 13.4453C17.0425 13.2303 16.7292 13.1503 16.4375 13.2328L10.975 14.7937L9.64167 13.9045L10.5892 12.957C10.8425 12.7028 10.9058 12.3153 10.7458 11.9945L9.9125 10.3278C9.7275 9.957 9.29833 9.77866 8.90333 9.91033L4.93917 11.232C4.8175 10.9212 4.51917 10.7003 4.16667 10.7003H0.833333C0.373333 10.7003 0 11.0737 0 11.5337V18.2003C0 18.6603 0.373333 19.0337 0.833333 19.0337H4.16667C4.505 19.0337 4.7925 18.8303 4.92333 18.5412L10.5408 20.647C10.635 20.6828 10.7342 20.7003 10.8333 20.7003C10.9383 20.7003 11.0433 20.6803 11.1433 20.6412L19.4767 17.3078C19.7367 17.2037 19.9275 16.9762 19.9833 16.7012C20.04 16.4262 19.9542 16.1428 19.7567 15.9453L17.2558 13.4453ZM1.66667 17.367V12.367H3.33333V17.367H1.66667ZM10.8233 18.9737L5 16.7895V12.9678L8.745 11.7195L8.98667 12.2028L7.745 13.4453C7.56833 13.6212 7.48083 13.867 7.505 14.1162C7.52917 14.3637 7.66417 14.5878 7.87167 14.7262L10.3717 16.3928C10.575 16.5295 10.8275 16.5687 11.0633 16.5012L16.425 14.9695L17.685 16.2287L10.8233 18.9737Z" fill="#5A5A5A"/>
</svg>
