<svg width="20" height="21" viewBox="0 0 20 21" fill="none" xmlns="http://www.w3.org/2000/svg">
<path d="M18.3333 3.2002H1.66667C0.7475 3.2002 0 3.94686 0 4.86686V16.5335C0 17.4527 0.7475 18.2002 1.66667 18.2002H18.3333C19.2533 18.2002 20 17.4527 20 16.5335V4.86686C20 3.94686 19.2533 3.2002 18.3333 3.2002ZM18.3308 16.5335H1.66667V4.86686H18.3333L18.3308 16.5335Z" fill="#5A5A5A"/>
<path d="M14.4448 12.9225V11.8109H15.5565V12.9225H16.6673V10.1442C16.6673 9.22421 15.9198 8.47754 15.0007 8.47754C14.0815 8.47754 13.334 9.22421 13.334 10.1442V11.5334V12.9234H14.4448V12.9225ZM14.4448 10.1442C14.4448 9.83837 14.6948 9.58921 15.0007 9.58921C15.3073 9.58921 15.5565 9.83837 15.5565 10.1442V10.7H14.4448V10.1442Z" fill="#5A5A5A"/>
<path d="M8.33318 9.58921V11.8109H7.77734V12.9225H11.944C12.7107 12.9225 13.3332 12.2984 13.3332 11.5334C13.3332 10.7684 12.7107 10.145 11.944 10.145H11.389C11.2348 10.145 11.1107 10.0217 11.1107 9.86671C11.1107 9.71337 11.2348 9.59004 11.389 9.59004H13.3332V8.47754H11.389C10.6232 8.47754 9.99984 9.10171 9.99984 9.86671C9.99984 10.6325 10.6232 11.2567 11.389 11.2567H11.944C12.099 11.2567 12.2223 11.38 12.2223 11.5334C12.2223 11.6884 12.099 11.8117 11.944 11.8117H9.44401V9.59004H9.99984V8.47754H7.77734V9.58921H8.33318Z" fill="#5A5A5A"/>
<path d="M5.53565 12.9225H5.54482H6.65648H6.67898L6.66732 12.8775L7.77815 8.47754H6.63565L6.10398 10.6467L5.55648 8.47754H3.33398V9.58921H4.71815L5.53565 12.9225Z" fill="#5A5A5A"/>
</svg>
