<svg width="20" height="21" viewBox="0 0 20 21" fill="none" xmlns="http://www.w3.org/2000/svg">
<path d="M16.6673 9.86719H15.0007V9.03385C15.0007 8.11469 14.254 7.36719 13.334 7.36719H11.6673V9.03385H13.334V16.3514C13.029 16.6264 12.7957 16.973 12.654 17.3672H9.84815C9.50232 16.3989 8.58565 15.7005 7.50148 15.7005C6.41732 15.7005 5.50065 16.3989 5.15482 17.3672H5.00065V14.0339H3.33398V18.2005C3.33398 18.6605 3.70648 19.0339 4.16732 19.0339H5.15482C5.49982 20.0022 6.41565 20.7005 7.50065 20.7005C8.58565 20.7005 9.50148 20.0022 9.84732 19.0339H12.654C12.999 20.0022 13.9157 20.7005 14.9998 20.7005C16.084 20.7005 17.0007 20.0022 17.3465 19.0339H19.1673C19.6282 19.0339 20.0007 18.6605 20.0007 18.2005V13.2005C20.0007 11.363 18.5048 9.86719 16.6673 9.86719ZM7.50065 19.0339C7.04148 19.0339 6.66732 18.6605 6.66732 18.2005C6.66732 17.7414 7.04148 17.3672 7.50065 17.3672C7.95982 17.3672 8.33398 17.7414 8.33398 18.2005C8.33398 18.6605 7.95982 19.0339 7.50065 19.0339ZM15.0007 19.0339C14.5415 19.0339 14.1673 18.6605 14.1673 18.2005C14.1673 17.7414 14.5415 17.3672 15.0007 17.3672C15.4598 17.3672 15.834 17.7414 15.834 18.2005C15.834 18.6605 15.4598 19.0339 15.0007 19.0339ZM18.334 17.3672H17.3473C17.0015 16.3989 16.0848 15.7005 15.0007 15.7005V11.5339H16.6673C17.5873 11.5339 18.334 12.2814 18.334 13.2005V17.3672Z" fill="#5A5A5A"/>
<path d="M17.5007 12.3672H15.834V14.0339H17.5007V12.3672Z" fill="#5A5A5A"/>
<path d="M5 12.3672C7.7575 12.3672 10 10.1247 10 7.36719C10 4.61052 7.7575 2.36719 5 2.36719C2.2425 2.36719 0 4.61052 0 7.36719C0 10.1255 2.2425 12.3672 5 12.3672ZM5 4.03385C6.8375 4.03385 8.33333 5.52885 8.33333 7.36719C8.33333 9.20552 6.8375 10.7005 5 10.7005C3.1625 10.7005 1.66667 9.20552 1.66667 7.36719C1.66667 5.52885 3.1625 4.03385 5 4.03385Z" fill="#5A5A5A"/>
<path d="M6.66602 6.53385H5.83268V4.86719H4.16602V8.20052H6.66602V6.53385Z" fill="#5A5A5A"/>
<path d="M2.5 14.8672H0V16.5339H2.5V14.8672Z" fill="#5A5A5A"/>
<path d="M2.50065 17.3672H0.833984V19.0339H2.50065V17.3672Z" fill="#5A5A5A"/>
</svg>
