<svg width="20" height="21" viewBox="0 0 20 21" fill="none" xmlns="http://www.w3.org/2000/svg">
<path d="M5 12.3675C5 14.5483 7.38333 16.5342 10 16.5342C12.6167 16.5342 15 14.5483 15 12.3675C15 11.9075 14.6267 11.5342 14.1667 11.5342H5.83333C5.37333 11.5342 5 11.9075 5 12.3675ZM13.0917 13.2008C12.5992 14.0775 11.4033 14.8675 10 14.8675C8.63667 14.8675 7.42167 14.075 6.91583 13.2008H13.0917Z" fill="#5A5A5A"/>
<path d="M17.9361 8.22219L18.3077 6.73635C18.3702 6.48719 18.3136 6.22385 18.1561 6.02135C17.9986 5.81969 17.7561 5.70052 17.4994 5.70052H16.6477C15.1261 3.68052 12.7169 2.36719 9.99941 2.36719C7.28191 2.36719 4.87274 3.68052 3.35107 5.70052H2.49941C2.24274 5.70052 2.00024 5.81969 1.84274 6.02135C1.68441 6.22385 1.62857 6.48719 1.69107 6.73635L2.06274 8.22219C1.81441 9.00802 1.66607 9.83469 1.66607 10.7005C1.66607 15.2964 5.40441 19.0339 9.99941 19.0339C14.5944 19.0339 18.3327 15.2964 18.3327 10.7005C18.3327 9.83469 18.1844 9.00802 17.9361 8.22219ZM16.4319 7.36719L16.0152 9.03385H12.4994V7.36719H16.4319ZM9.99941 4.03385C11.6811 4.03385 13.2111 4.66885 14.3852 5.70052H11.6661C11.2061 5.70052 10.8327 6.07385 10.8327 6.53385V7.36719H9.16607V6.53385C9.16607 6.07385 8.79274 5.70052 8.33274 5.70052H5.61357C6.78774 4.66885 8.31774 4.03385 9.99941 4.03385ZM7.49941 7.36719V9.03385H3.98357L3.56691 7.36719H7.49941ZM9.99941 17.3672C6.32357 17.3672 3.33274 14.3764 3.33274 10.7005H8.33274C8.79274 10.7005 9.16607 10.328 9.16607 9.86719V9.03385H10.8327V9.86719C10.8327 10.328 11.2061 10.7005 11.6661 10.7005H16.6661C16.6661 14.3764 13.6752 17.3672 9.99941 17.3672Z" fill="#5A5A5A"/>
</svg>
