<svg width="20" height="21" viewBox="0 0 20 21" fill="none" xmlns="http://www.w3.org/2000/svg">
<path d="M3.01565 14.0342L4.68232 10.7008H10.0007V9.03418H3.65232L0.833984 14.6708V19.0342H2.50065C2.50065 19.9542 3.24815 20.7008 4.16732 20.7008C5.08648 20.7008 5.83398 19.9542 5.83398 19.0342H12.5007C12.5007 19.9542 13.2482 20.7008 14.1673 20.7008C15.0865 20.7008 15.834 19.9542 15.834 19.0342H17.5007V14.0342H3.01565ZM11.6673 17.3675H6.66732V15.7008H11.6673V17.3675ZM2.50065 15.7008H5.00065V17.3675H2.50065V15.7008ZM13.334 17.3675V15.7008H15.834V17.3675H13.334Z" fill="#5A5A5A"/>
<path d="M15.0013 12.3672C16.8421 12.3672 18.3346 10.8747 18.3346 9.03385C18.3346 6.53385 15.0013 2.36719 15.0013 2.36719C15.0013 2.36719 11.668 6.53385 11.668 9.03385C11.668 10.8747 13.1605 12.3672 15.0013 12.3672ZM15.0013 4.84885V10.7005C14.0813 10.7005 13.3171 9.95385 13.3346 9.03385C13.3521 8.14885 14.8771 5.03802 15.0013 4.84885Z" fill="#5A5A5A"/>
</svg>
