<svg width="24" height="25" viewBox="0 0 24 25" fill="none" xmlns="http://www.w3.org/2000/svg">
<path d="M11 9.94043H13V7.94043H11M12 20.9404C7.59 20.9404 4 17.3504 4 12.9404C4 8.53043 7.59 4.94043 12 4.94043C16.41 4.94043 20 8.53043 20 12.9404C20 17.3504 16.41 20.9404 12 20.9404ZM12 2.94043C10.6868 2.94043 9.38642 3.19909 8.17317 3.70163C6.95991 4.20418 5.85752 4.94078 4.92893 5.86936C3.05357 7.74473 2 10.2883 2 12.9404C2 15.5926 3.05357 18.1361 4.92893 20.0115C5.85752 20.9401 6.95991 21.6767 8.17317 22.1792C9.38642 22.6818 10.6868 22.9404 12 22.9404C14.6522 22.9404 17.1957 21.8869 19.0711 20.0115C20.9464 18.1361 22 15.5926 22 12.9404C22 11.6272 21.7413 10.3269 21.2388 9.1136C20.7362 7.90034 19.9997 6.79795 19.0711 5.86936C18.1425 4.94078 17.0401 4.20418 15.8268 3.70163C14.6136 3.19909 13.3132 2.94043 12 2.94043ZM11 17.9404H13V11.9404H11V17.9404Z" fill="#0A6ECC"/>
</svg>
