<svg width="20" height="21" viewBox="0 0 20 21" fill="none" xmlns="http://www.w3.org/2000/svg">
<path d="M11.666 19.0339C11.4468 19.0339 11.2343 18.9472 11.0768 18.7897L1.91018 9.62302C1.75352 9.46719 1.66602 9.25552 1.66602 9.03385V3.20052C1.66602 2.73969 2.03852 2.36719 2.49935 2.36719H8.33268C8.55435 2.36719 8.76602 2.45469 8.92185 2.61135L18.0885 11.778C18.2868 11.9764 18.3718 12.2597 18.3152 12.5347C18.2593 12.8089 18.0685 13.0372 17.8085 13.1414L13.9743 14.6755L12.4402 18.5105C12.336 18.7714 12.1085 18.9614 11.8335 19.0172C11.7785 19.028 11.721 19.0339 11.666 19.0339ZM3.33268 8.68885L11.3618 16.718L12.5593 13.7247C12.6452 13.513 12.8127 13.3455 13.0243 13.2597L16.0177 12.0622L7.98768 4.03385H3.33268V8.68885Z" fill="#5A5A5A"/>
<path d="M5.83268 8.20052C6.75316 8.20052 7.49935 7.45433 7.49935 6.53385C7.49935 5.61338 6.75316 4.86719 5.83268 4.86719C4.91221 4.86719 4.16602 5.61338 4.16602 6.53385C4.16602 7.45433 4.91221 8.20052 5.83268 8.20052Z" fill="#5A5A5A"/>
</svg>
