<svg width="20" height="21" viewBox="0 0 20 21" fill="none" xmlns="http://www.w3.org/2000/svg">
<path d="M14.998 8.19889C14.1147 8.19889 13.2639 8.44639 12.498 8.89639V7.36556C12.498 6.90556 12.1255 6.53223 11.6647 6.53223H10.8314V4.86556C10.8314 3.02806 9.33555 1.53223 7.49805 1.53223H3.33138V3.19889H7.49805C8.41805 3.19889 9.16471 3.94639 9.16471 4.86556V6.53223H8.33138C7.87055 6.53223 7.49805 6.90556 7.49805 7.36556V8.89639C6.73221 8.44639 5.88138 8.19889 4.99805 8.19889C2.24055 8.19889 -0.00195312 10.4422 -0.00195312 13.1989C-0.00195312 15.9564 2.24055 18.1989 4.99805 18.1989C5.97305 18.1989 6.91471 17.9122 7.73888 17.3656H12.2572C13.0814 17.9122 14.023 18.1989 14.998 18.1989C17.7555 18.1989 19.998 15.9564 19.998 13.1989C19.998 10.4422 17.7555 8.19889 14.998 8.19889ZM9.16471 8.19889H10.8314V9.03223H9.16471V8.19889ZM14.998 16.5322C14.2897 16.5322 13.6064 16.3014 13.0189 15.8639C12.8739 15.7572 12.6997 15.6989 12.5205 15.6989H7.47555C7.29638 15.6989 7.12221 15.7572 6.97721 15.8639C6.38971 16.3014 5.70638 16.5322 4.99805 16.5322C3.16055 16.5322 1.66471 15.0372 1.66471 13.1989C1.66471 11.3614 3.16055 9.86556 4.99805 9.86556C5.70638 9.86556 6.38971 10.0972 6.97721 10.5347C7.12221 10.6414 7.29638 10.6989 7.47555 10.6989H12.5214C12.7005 10.6989 12.8747 10.6414 13.0197 10.5347C13.6072 10.0972 14.2905 9.86556 14.9989 9.86556C16.8364 9.86556 18.3322 11.3614 18.3322 13.1989C18.3314 15.0364 16.8355 16.5322 14.998 16.5322Z" fill="#5A5A5A"/>
<path d="M14.9974 12.3659C15.4576 12.3659 15.8307 11.9928 15.8307 11.5326C15.8307 11.0723 15.4576 10.6992 14.9974 10.6992C14.5372 10.6992 14.1641 11.0723 14.1641 11.5326C14.1641 11.9928 14.5372 12.3659 14.9974 12.3659Z" fill="#5A5A5A"/>
<path d="M14.9974 15.6989C15.4576 15.6989 15.8307 15.3258 15.8307 14.8656C15.8307 14.4053 15.4576 14.0322 14.9974 14.0322C14.5372 14.0322 14.1641 14.4053 14.1641 14.8656C14.1641 15.3258 14.5372 15.6989 14.9974 15.6989Z" fill="#5A5A5A"/>
<path d="M16.6654 14.0319C17.1256 14.0319 17.4987 13.6588 17.4987 13.1986C17.4987 12.7383 17.1256 12.3652 16.6654 12.3652C16.2051 12.3652 15.832 12.7383 15.832 13.1986C15.832 13.6588 16.2051 14.0319 16.6654 14.0319Z" fill="#5A5A5A"/>
<path d="M13.3314 14.0319C13.7916 14.0319 14.1647 13.6588 14.1647 13.1986C14.1647 12.7383 13.7916 12.3652 13.3314 12.3652C12.8711 12.3652 12.498 12.7383 12.498 13.1986C12.498 13.6588 12.8711 14.0319 13.3314 14.0319Z" fill="#5A5A5A"/>
<path d="M5.83138 10.6992H4.16471V12.3659H2.49805V14.0326H4.16471V15.6992H5.83138V14.0326H7.49805V12.3659H5.83138V10.6992Z" fill="#5A5A5A"/>
</svg>
