<svg width="20" height="21" viewBox="0 0 20 21" fill="none" xmlns="http://www.w3.org/2000/svg">
<path d="M15.834 8.2002H4.16729C3.93312 8.2002 3.70979 8.29936 3.55229 8.47186C3.39479 8.6452 3.31646 8.87603 3.33729 9.10936L4.17062 18.276C4.20979 18.7052 4.56896 19.0335 5.00062 19.0335H15.0006C15.4323 19.0335 15.7915 18.7052 15.8306 18.276L16.664 9.10936C16.6848 8.87603 16.6073 8.64436 16.449 8.47186C16.2915 8.29936 16.0681 8.2002 15.834 8.2002ZM11.5873 9.86686L10.9056 17.3669H9.09562L8.41396 9.86686H11.5873ZM5.08062 9.86686H6.73896L7.42062 17.3669H5.76146L5.08062 9.86686ZM14.2398 17.3669H12.5806L13.2623 9.86686H14.9206L14.2398 17.3669Z" fill="#5A5A5A"/>
<path d="M14.1673 4.03385C13.9115 4.03385 13.6598 4.07469 13.4173 4.15219C12.6507 3.04552 11.3873 2.36719 10.0007 2.36719C8.61398 2.36719 7.35065 3.04552 6.58398 4.15219C6.34148 4.07469 6.08982 4.03385 5.83398 4.03385C4.45565 4.03385 3.33398 5.15552 3.33398 6.53385V7.36719H5.00065V6.53385C5.00065 6.07469 5.37482 5.70052 5.83398 5.70052C6.08065 5.70052 6.26398 5.81302 6.37315 5.90802C6.57648 6.08385 6.85065 6.14969 7.11232 6.08719C7.37315 6.02469 7.58648 5.84052 7.68815 5.59219C8.07482 4.64552 8.98148 4.03385 10.0007 4.03385C11.0198 4.03385 11.9265 4.64552 12.3123 5.59135C12.414 5.83969 12.6282 6.02385 12.8882 6.08635C13.149 6.14885 13.424 6.08302 13.6273 5.90719C13.7373 5.81302 13.9207 5.70052 14.1673 5.70052C14.6265 5.70052 15.0007 6.07469 15.0007 6.53385V7.36719H16.6673V6.53385C16.6673 5.15552 15.5457 4.03385 14.1673 4.03385Z" fill="#5A5A5A"/>
</svg>
