<svg width="20" height="21" viewBox="0 0 20 21" fill="none" xmlns="http://www.w3.org/2000/svg">
<path d="M15 8.20055V3.20055C15 2.92388 14.8633 2.66555 14.6342 2.51055C14.4975 2.41805 10.4633 0.82138 10.31 0.760547C10.1117 0.68138 9.89 0.68138 9.69167 0.760547C9.5375 0.82138 5.50417 2.41805 5.3675 2.51055C5.13667 2.66555 5 2.92388 5 3.20055V8.20055C5 8.54138 5.2075 8.84721 5.52417 8.97471L9.69083 10.6414C9.79 10.6805 9.895 10.7005 10 10.7005C10.105 10.7005 10.21 10.6805 10.3092 10.6414L14.4758 8.97471C14.7925 8.84721 15 8.54138 15 8.20055ZM10 2.43221L11.9225 3.20055L10 3.96971L8.0775 3.20055L10 2.43221ZM6.66667 4.43221L9.16667 5.43221V8.63638L6.66667 7.63638V4.43221ZM13.3333 7.63638L10.8333 8.63638V5.43221L13.3333 4.43221V7.63638Z" fill="#5A5A5A"/>
<path d="M19.1666 4.86719H17.5C17.1408 4.86719 16.8225 5.09719 16.7091 5.43719L14.6358 11.6589L13.9233 10.9455C13.5975 10.6197 13.0708 10.6197 12.745 10.9455L11.0783 12.6122C10.8425 12.8472 10.77 13.2014 10.8933 13.5105L12.1391 16.6255C11.8616 16.7597 11.6666 17.0389 11.6666 17.3672V19.8672C11.6666 20.3272 12.0391 20.7005 12.5 20.7005H18.3333C18.7941 20.7005 19.1666 20.3272 19.1666 19.8672V17.3672C19.1666 17.0739 19.0058 16.8272 18.7758 16.6789L19.9116 14.4064C19.97 14.2922 20 14.1639 20 14.0339V5.70052C20 5.24052 19.6275 4.86719 19.1666 4.86719ZM13.3333 12.713L14.4108 13.7905C14.615 13.9947 14.9108 14.078 15.1925 14.0122C15.4725 13.9455 15.6991 13.7389 15.7916 13.4647L18.1008 6.53385H18.3333V13.838L16.985 16.5339H13.8983L12.645 13.4014L13.3333 12.713ZM17.5 19.0339H13.3333V18.2005H17.5V19.0339Z" fill="#5A5A5A"/>
<path d="M7.25583 10.9455C6.93 10.6197 6.40333 10.6197 6.0775 10.9455L5.365 11.6589L3.29083 5.43719C3.1775 5.09719 2.85917 4.86719 2.5 4.86719H0.833333C0.3725 4.86719 0 5.24052 0 5.70052V14.0339C0 14.1639 0.03 14.2914 0.0875 14.4072L1.22333 16.6797C0.994167 16.828 0.833333 17.0739 0.833333 17.3672V19.8672C0.833333 20.3272 1.20583 20.7005 1.66667 20.7005H7.5C7.96083 20.7005 8.33333 20.3272 8.33333 19.8672V17.3672C8.33333 17.038 8.13833 16.7597 7.86167 16.6255L9.1075 13.5105C9.23083 13.2005 9.15917 12.8472 8.9225 12.6122L7.25583 10.9455ZM1.66667 6.53385H1.89917L4.20833 13.4639C4.3 13.738 4.5275 13.9447 4.8075 14.0114C5.08917 14.078 5.38417 13.9939 5.58917 13.7897L6.66667 12.713L7.355 13.4022L6.10167 16.5339H3.015L1.66667 13.838V6.53385ZM6.66667 19.0339H2.5V18.2005H6.66667V19.0339Z" fill="#5A5A5A"/>
</svg>
