<svg width="20" height="21" viewBox="0 0 20 21" fill="none" xmlns="http://www.w3.org/2000/svg">
<path d="M8.33268 7.36621H2.49935C2.03935 7.36621 1.66602 7.74038 1.66602 8.19954V18.1995C1.66602 18.6604 2.03935 19.0329 2.49935 19.0329H8.33268C8.79268 19.0329 9.16602 18.6604 9.16602 18.1995V8.19954C9.16602 7.73954 8.79268 7.36621 8.33268 7.36621ZM7.49935 17.3662H6.66602V15.6995H4.16602V17.3662H3.33268V14.0329H4.99935V12.3662H3.33268V11.5329H5.83268V9.86621H3.33268V9.03288H7.49935V17.3662Z" fill="#5A5A5A"/>
<path d="M17.4987 2.36621H11.6654C11.2054 2.36621 10.832 2.74038 10.832 3.19954V18.1995C10.832 18.6604 11.2054 19.0329 11.6654 19.0329H17.4987C17.9587 19.0329 18.332 18.6604 18.332 18.1995V3.19954C18.332 2.73954 17.9587 2.36621 17.4987 2.36621ZM16.6654 17.3662H15.832V15.6995H13.332V17.3662H12.4987V11.5329H14.1654V9.86621H12.4987V9.03288H14.9987V7.36621H12.4987V6.53288H15.832V4.86621H12.4987V4.03288H16.6654V17.3662Z" fill="#5A5A5A"/>
</svg>
