<svg width="20" height="21" viewBox="0 0 20 21" fill="none" xmlns="http://www.w3.org/2000/svg">
<path d="M9.99935 19.0332C5.40435 19.0332 1.66602 15.2948 1.66602 10.6998C1.66602 6.10566 5.40435 2.36816 9.99935 2.36816C14.5943 2.36816 18.3327 6.10566 18.3327 10.6998C18.3327 15.2948 14.5943 19.0332 9.99935 19.0332ZM9.99935 4.03483C6.32352 4.03483 3.33268 7.02483 3.33268 10.6998C3.33268 14.3757 6.32352 17.3665 9.99935 17.3665C13.6752 17.3665 16.666 14.3757 16.666 10.6998C16.666 7.02483 13.6752 4.03483 9.99935 4.03483Z" fill="#5A5A5A"/>
<path d="M10 15.7002C9.85167 15.7002 9.70417 15.6602 9.57083 15.581C9.10333 15.301 5 12.7552 5 9.86682C5 7.87432 6.33917 6.53516 8.33333 6.53516C8.94583 6.53516 9.5425 6.81182 10 7.24016C10.4575 6.81182 11.0542 6.53516 11.6667 6.53516C13.6608 6.53516 15 7.87432 15 9.86682C15 12.7552 10.8967 15.301 10.4292 15.581C10.2958 15.6602 10.1483 15.7002 10 15.7002ZM8.33333 8.20182C6.82917 8.20182 6.66667 9.36599 6.66667 9.86682C6.66667 11.3152 8.815 13.0718 10 13.876C11.185 13.0718 13.3333 11.316 13.3333 9.86682C13.3333 9.36599 13.1708 8.20182 11.6667 8.20182C11.2925 8.20182 10.8333 8.66099 10.8333 9.03349C10.8333 9.49349 10.4608 9.86682 10 9.86682C9.53917 9.86682 9.16667 9.49349 9.16667 9.03349C9.16667 8.66099 8.7075 8.20182 8.33333 8.20182Z" fill="#5A5A5A"/>
</svg>
