<svg width="20" height="21" viewBox="0 0 20 21" fill="none" xmlns="http://www.w3.org/2000/svg">
<path d="M16.6629 8.13135C16.627 7.69885 16.2662 7.36719 15.8329 7.36719H14.1662V6.53385C14.1662 4.23635 12.297 2.36719 9.99953 2.36719C7.70203 2.36719 5.83287 4.23635 5.83287 6.53385V7.36719H4.1662C3.73287 7.36719 3.37203 7.69885 3.3362 8.13135L2.50287 18.1314C2.4837 18.363 2.5612 18.5939 2.71953 18.7647C2.87703 18.9364 3.10037 19.0339 3.33287 19.0339H16.6662C16.8987 19.0339 17.122 18.9364 17.2795 18.7647C17.437 18.5939 17.5154 18.3639 17.4962 18.1314L16.6629 8.13135ZM7.49953 6.53385C7.49953 5.15552 8.6212 4.03385 9.99953 4.03385C11.3779 4.03385 12.4995 5.15552 12.4995 6.53385V7.36719H7.49953V6.53385ZM4.2387 17.3672L4.93287 9.03385H5.83287V11.5339H7.49953V9.03385H12.4995V11.5339H14.1662V9.03385H15.0662L15.7604 17.3672H4.2387Z" fill="#5A5A5A"/>
</svg>
