<svg width="20" height="21" viewBox="0 0 20 21" fill="none" xmlns="http://www.w3.org/2000/svg">
<path d="M18.3327 9.03331H15.4827L12.3893 3.61914L10.9427 4.44581L13.5635 9.03331H6.43518L9.05685 4.44664L7.60935 3.61997L4.51602 9.03331H1.66602V10.7H2.66352L4.18518 17.5475C4.27018 17.9291 4.60852 18.2 4.99935 18.2H14.9993C15.3902 18.2 15.7285 17.9283 15.8135 17.5475L17.3352 10.7H18.3327V9.03331ZM14.3302 16.5333H5.66852L4.37102 10.7H15.6277L14.3302 16.5333Z" fill="#5A5A5A"/>
<path d="M10.8327 11.5332H9.16602V15.6999H10.8327V11.5332Z" fill="#5A5A5A"/>
<path d="M13.3327 11.5332H11.666V15.6999H13.3327V11.5332Z" fill="#5A5A5A"/>
<path d="M8.33268 11.5332H6.66602V15.6999H8.33268V11.5332Z" fill="#5A5A5A"/>
</svg>
