<svg width="20" height="21" viewBox="0 0 20 21" fill="none" xmlns="http://www.w3.org/2000/svg">
<path d="M9.9988 18.2012H1.66546C1.3338 18.2012 1.0338 18.0045 0.902131 17.7012C0.768798 17.397 0.828798 17.0437 1.05546 16.8012L2.9763 14.7312C2.11713 13.5278 1.6663 12.147 1.6663 10.7012C1.6663 6.56534 5.40463 3.20117 9.99963 3.20117C14.5946 3.20117 18.333 6.56534 18.333 10.7012C18.333 14.837 14.5938 18.2012 9.9988 18.2012ZM3.5763 16.5345H9.9988C13.6746 16.5345 16.6655 13.9178 16.6655 10.7012C16.6655 7.48534 13.6746 4.86784 9.9988 4.86784C6.32296 4.86784 3.33213 7.48534 3.33213 10.7012C3.33213 11.982 3.80546 13.2012 4.70046 14.2278C4.98046 14.5495 4.97296 15.0303 4.68296 15.3428L3.5763 16.5345Z" fill="#5A5A5A"/>
<path d="M6.66536 11.5348C7.1256 11.5348 7.4987 11.1617 7.4987 10.7015C7.4987 10.2413 7.1256 9.86816 6.66536 9.86816C6.20513 9.86816 5.83203 10.2413 5.83203 10.7015C5.83203 11.1617 6.20513 11.5348 6.66536 11.5348Z" fill="#5A5A5A"/>
<path d="M9.99935 11.5348C10.4596 11.5348 10.8327 11.1617 10.8327 10.7015C10.8327 10.2413 10.4596 9.86816 9.99935 9.86816C9.53911 9.86816 9.16602 10.2413 9.16602 10.7015C9.16602 11.1617 9.53911 11.5348 9.99935 11.5348Z" fill="#5A5A5A"/>
<path d="M13.3314 11.5348C13.7916 11.5348 14.1647 11.1617 14.1647 10.7015C14.1647 10.2413 13.7916 9.86816 13.3314 9.86816C12.8711 9.86816 12.498 10.2413 12.498 10.7015C12.498 11.1617 12.8711 11.5348 13.3314 11.5348Z" fill="#5A5A5A"/>
</svg>
