<svg width="20" height="21" viewBox="0 0 20 21" fill="none" xmlns="http://www.w3.org/2000/svg">
<path d="M17.2556 15.1106L14.5115 12.3664H15.8331C16.1698 12.3664 16.4748 12.1631 16.6031 11.8523C16.7315 11.5406 16.6606 11.1823 16.4223 10.9439L13.6781 8.19975H14.1665C14.5031 8.19975 14.8081 7.99642 14.9365 7.68559C15.0648 7.37392 14.994 7.01559 14.7556 6.77725L10.589 2.61059C10.2631 2.28475 9.73645 2.28475 9.41062 2.61059L5.24395 6.77725C5.00562 7.01559 4.93479 7.37392 5.06312 7.68559C5.19145 7.99642 5.49645 8.19975 5.83312 8.19975H6.32145L3.57729 10.9439C3.33895 11.1823 3.26812 11.5406 3.39645 11.8523C3.52479 12.1631 3.82979 12.3664 4.16645 12.3664H5.48812L2.74395 15.1106C2.50562 15.3489 2.43479 15.7073 2.56312 16.0189C2.69145 16.3298 2.99645 16.5331 3.33312 16.5331H9.16645V19.0331H10.8331V16.5331H16.6665C17.0031 16.5331 17.3081 16.3298 17.4365 16.0189C17.5648 15.7073 17.494 15.3489 17.2556 15.1106ZM5.34479 14.8664L8.08895 12.1223C8.32729 11.8839 8.39812 11.5264 8.26979 11.2148C8.14145 10.9031 7.83645 10.6998 7.49979 10.6998H6.17812L8.92229 7.95559C9.16062 7.71725 9.23145 7.35975 9.10312 7.04809C8.97479 6.73642 8.66979 6.53309 8.33312 6.53309H7.84479L9.99979 4.37809L12.1548 6.53309H11.6665C11.3298 6.53309 11.0248 6.73642 10.8965 7.04725C10.7681 7.35892 10.839 7.71725 11.0773 7.95475L13.8215 10.6998H12.4998C12.1631 10.6998 11.8581 10.9031 11.7298 11.2139C11.6015 11.5256 11.6723 11.8839 11.9106 12.1214L14.6548 14.8664H5.34479Z" fill="#5A5A5A"/>
</svg>
