<svg width="20" height="21" viewBox="0 0 20 21" fill="none" xmlns="http://www.w3.org/2000/svg">
<path d="M18.3332 15.6997C16.0765 15.6997 14.119 15.8989 12.4357 16.1989L11.249 12.3547C11.839 11.4631 12.6982 10.7964 13.7265 10.4847C14.8482 10.1431 16.0724 10.2522 17.1274 10.7806C17.4115 10.9222 17.7524 10.8922 18.0049 10.6989C18.4265 10.3781 18.3649 9.99472 18.234 9.55139C17.0149 5.53639 13.0099 2.95139 8.65486 3.81306L8.39486 2.95806C8.26153 2.51723 7.79653 2.26889 7.3557 2.40223C6.9157 2.53556 6.66653 3.00139 6.79986 3.44223L7.05403 4.27973C2.62653 6.11972 0.969029 11.2206 2.3907 14.7022C2.51653 15.0089 2.81736 15.2197 3.16153 15.2197C3.45986 15.2197 3.73653 15.0597 3.8857 14.7989C4.47486 13.7647 5.4207 13.0047 6.54903 12.6631C7.57236 12.3522 8.67486 12.4331 9.6557 12.8464L10.7974 16.5431C5.8857 17.7289 4.28236 19.3739 2.62403 20.6997H19.1665V15.6997H18.3332ZM6.06486 11.0672C5.13903 11.3472 4.3032 11.8339 3.60986 12.4831C3.37486 9.43473 5.2782 6.51556 8.32236 5.59222C11.3932 4.65972 14.559 6.06139 16.0615 8.70306C15.1215 8.54722 14.1574 8.61223 13.2415 8.88972C11.9357 9.28722 10.8132 10.0872 10.0157 11.1756C8.7507 10.7156 7.3557 10.6756 6.06486 11.0672ZM17.4999 19.0331H8.40486C10.3774 18.2672 13.3849 17.4714 17.4999 17.3756V19.0331Z" fill="#5A5A5A"/>
</svg>
