<svg width="20" height="21" viewBox="0 0 20 21" fill="none" xmlns="http://www.w3.org/2000/svg">
<path d="M7.91732 7.36719H10.834V5.70052H9.16732V4.86719H7.50065V5.74302C6.55065 5.93635 5.83398 6.77802 5.83398 7.78385C5.83398 8.93219 6.76898 9.86719 7.91732 9.86719H8.75065C8.98065 9.86719 9.16732 10.0539 9.16732 10.2839C9.16732 10.5139 8.98065 10.7005 8.75065 10.7005H5.83398V12.3672H7.50065V13.2005H9.16732V12.3247C10.1173 12.1314 10.834 11.2889 10.834 10.2839C10.834 9.13552 9.89982 8.20052 8.75065 8.20052H7.91732C7.68815 8.20052 7.50065 8.01385 7.50065 7.78385C7.50065 7.55385 7.68815 7.36719 7.91732 7.36719Z" fill="#5A5A5A"/>
<path d="M7.55083 15.6502C4.2425 15.261 1.66667 12.4444 1.66667 9.03353C1.66667 5.3577 4.6575 2.36686 8.33333 2.36686C12.0092 2.36686 15 5.3577 15 9.03353C15 9.31603 14.9767 9.59353 14.9425 9.86686H16.625C16.6517 9.5927 16.6667 9.3152 16.6667 9.03353C16.6667 4.43853 12.9292 0.700195 8.33333 0.700195C3.73833 0.700195 0 4.43853 0 9.03353C0 12.8685 2.60583 16.0969 6.13667 17.0635L7.55083 15.6502Z" fill="#5A5A5A"/>
<path d="M15.0006 11.5332V13.1999H17.1556L14.1673 16.1882L12.2565 14.2774C11.9306 13.9515 11.404 13.9515 11.0781 14.2774L6.07812 19.2774L7.25646 20.4557L11.6673 16.0449L13.5781 17.9549C13.904 18.2807 14.4306 18.2807 14.7565 17.9549L18.334 14.3782V16.5332H20.0006V11.5332H15.0006Z" fill="#5A5A5A"/>
</svg>
