<svg width="20" height="21" viewBox="0 0 20 21" fill="none" xmlns="http://www.w3.org/2000/svg">
<path d="M19.695 11.7218L17.5009 9.9251V6.5326C17.5009 6.07344 17.1275 5.69927 16.6675 5.69927H14.1675C13.7125 5.69927 13.345 6.06594 13.3367 6.51927L10.5284 4.22177C10.21 3.96094 9.74919 3.97177 9.44335 4.2476L1.11002 11.7476C0.853352 11.9776 0.765852 12.3434 0.889186 12.6659C1.01252 12.9876 1.32252 13.2001 1.66752 13.2001H3.33419V18.2001C3.33419 18.6618 3.70752 19.0334 4.16752 19.0334H16.6675C17.1275 19.0334 17.5009 18.6618 17.5009 18.2001V13.2001H19.1675C19.52 13.2001 19.8342 12.9793 19.9525 12.6468C20.07 12.3151 19.9675 11.9443 19.695 11.7218ZM15.0009 7.36594H15.8342V8.5626L15.0009 7.88094V7.36594ZM9.16752 17.3659V14.0326H6.66752V17.3659H5.00085V13.1993H15.8342V17.3659H9.16752ZM3.83835 11.5326L10.0259 5.96427L16.8317 11.5326H3.83835Z" fill="#5A5A5A"/>
<path d="M14.1673 14.0322H10.834V16.5322H14.1673V14.0322Z" fill="#5A5A5A"/>
</svg>
