<svg width="25" height="24" viewBox="0 0 25 24" fill="none" xmlns="http://www.w3.org/2000/svg">
<path d="M12.6602 0C6.04316 0 0.660156 5.383 0.660156 12C0.660156 18.617 6.04316 24 12.6602 24C19.2772 24 24.6602 18.617 24.6602 12C24.6602 5.383 19.2772 0 12.6602 0ZM12.6602 22C7.14616 22 2.66016 17.514 2.66016 12C2.66016 6.486 7.14616 2 12.6602 2C18.1742 2 22.6602 6.486 22.6602 12C22.6602 17.514 18.1742 22 12.6602 22Z" fill="#357A38"/>
<path d="M12.6602 3C7.69716 3 3.66016 7.037 3.66016 12C3.66016 16.963 7.69716 21 12.6602 21C17.6232 21 21.6602 16.963 21.6602 12C21.6602 7.037 17.6232 3 12.6602 3ZM12.6602 19C8.80116 19 5.66016 15.86 5.66016 12C5.66016 8.14 8.80116 5 12.6602 5C16.5192 5 19.6602 8.14 19.6602 12C19.6602 15.86 16.5192 19 12.6602 19Z" fill="#357A38"/>
<path d="M13.6602 8H10.6602V16H12.6602V14H13.6602C15.3142 14 16.6602 12.654 16.6602 11C16.6602 9.346 15.3142 8 13.6602 8ZM13.6602 12H12.6602V10H13.6602C14.2112 10 14.6602 10.448 14.6602 11C14.6602 11.552 14.2112 12 13.6602 12Z" fill="#357A38"/>
</svg>
