<svg width="25" height="24" viewBox="0 0 25 24" fill="none" xmlns="http://www.w3.org/2000/svg">
<g clip-path="url(#clip0_2002_3644)">
<path d="M3.66162 4.5H5.2201C5.91582 4.5 6.26368 4.5 6.52557 4.68876C6.78746 4.87752 6.89746 5.20753 7.11747 5.86754L7.66162 7.5" stroke="white" stroke-linecap="round"/>
<path d="M17.6616 17.5H8.21253C8.06634 17.5 7.99324 17.5 7.93778 17.4938C7.35019 17.428 6.94767 16.8695 7.07107 16.2913C7.08272 16.2367 7.10583 16.1674 7.15206 16.0287V16.0287C7.20339 15.8747 7.22905 15.7977 7.25741 15.7298C7.54769 15.0342 8.20439 14.5608 8.9561 14.5054C9.02952 14.5 9.11068 14.5 9.27299 14.5H14.6616" stroke="white" stroke-linecap="round" stroke-linejoin="round"/>
<path d="M14.3403 14.5H11.2992C10.02 14.5 9.38037 14.5 8.87943 14.1697C8.37849 13.8394 8.12654 13.2515 7.62263 12.0757L7.4538 11.6818C6.64431 9.79294 6.23956 8.84853 6.68417 8.17426C7.12877 7.5 8.15626 7.5 10.2112 7.5H15.4921C17.7911 7.5 18.9407 7.5 19.3742 8.24711C19.8078 8.99422 19.2375 9.99229 18.0968 11.9884L17.8133 12.4846C17.2514 13.4679 16.9704 13.9596 16.5048 14.2298C16.0393 14.5 15.473 14.5 14.3403 14.5Z" stroke="white" stroke-linecap="round"/>
<circle cx="17.1616" cy="20" r="1" fill="white"/>
<circle cx="9.16162" cy="20" r="1" fill="white"/>
</g>
<defs>
<clipPath id="clip0_2002_3644">
<rect width="24" height="24" fill="white" transform="translate(0.161621)"/>
</clipPath>
</defs>
</svg>
