<svg width="61" height="39" viewBox="0 0 61 39" fill="none" xmlns="http://www.w3.org/2000/svg">
<g clip-path="url(#clip0_97_37557)">
<g clip-path="url(#clip1_97_37557)">
<g clip-path="url(#clip2_97_37557)">
<path d="M59.9877 35.965C59.9877 37.0264 59.1109 37.9493 58.0034 37.9493H2.9047C1.84334 37.9493 0.92041 37.0725 0.92041 35.965V3.01652C0.92041 1.90901 1.84334 1.03223 2.9047 1.03223H58.0496C59.1109 1.03223 60.0339 1.90901 60.0339 3.01652V36.0112H59.9877V35.965Z" fill="white" stroke="#E6E7E7" stroke-width="0.461463" stroke-miterlimit="10"/>
<path d="M28.1008 24.9821H25.2397L27.0395 13.9531H29.9005L28.1008 24.9821Z" fill="#0B67B2"/>
<path d="M22.7938 13.9531L20.0711 21.5673L19.7481 19.906L18.779 14.9222C18.779 14.9222 18.6868 13.9531 17.3947 13.9531H12.8262V14.1377C12.8262 14.1377 14.2567 14.4146 15.8257 15.4298L18.3176 25.0282H21.3171L25.8856 13.9531H22.7938Z" fill="#0B67B2"/>
<path d="M45.4977 24.9823H48.128L45.8207 13.9072H43.5134C42.452 13.9072 42.1752 14.7379 42.1752 14.7379L37.9297 25.0285H40.9292L41.5291 23.3672H45.2208L45.4977 24.9823ZM42.3597 21.1061L43.8826 16.9529L44.7132 21.1061H42.3597Z" fill="#0B67B2"/>
<path d="M38.1144 16.6296L38.5298 14.23C38.5298 14.23 37.2377 13.7686 35.9456 13.7686C34.515 13.7686 31.1002 14.3685 31.1002 17.4603C31.1002 20.3213 35.1149 20.3675 35.1149 21.8442C35.1149 23.367 31.5155 23.0901 30.3619 22.121L29.9004 24.5668C29.9004 24.5668 31.1925 25.1667 33.1306 25.1667C35.1149 25.1667 38.0683 24.1515 38.0683 21.3366C38.0683 18.4755 34.0074 18.1986 34.0074 16.9527C34.0536 15.7528 36.8685 15.8913 38.1144 16.6296Z" fill="#0B67B2"/>
<path d="M19.7481 19.906L18.779 14.9222C18.779 14.9222 18.6868 13.9531 17.3947 13.9531H12.8262V14.1377C12.8262 14.1377 14.995 14.5992 17.1178 16.3066C19.0559 17.8756 19.7481 19.906 19.7481 19.906Z" fill="#FAA634"/>
</g>
</g>
</g>
<defs>
<clipPath id="clip0_97_37557">
<rect width="60" height="38" fill="white" transform="translate(0.5 0.570312)"/>
</clipPath>
<clipPath id="clip1_97_37557">
<rect width="60" height="37.84" fill="white" transform="translate(0.5 0.570312)"/>
</clipPath>
<clipPath id="clip2_97_37557">
<rect width="59.9902" height="37.84" fill="white" transform="translate(0.504883 0.570312)"/>
</clipPath>
</defs>
</svg>
